%TF.GenerationSoftware,KiCad,Pcbnew,7.0.8*%
%TF.CreationDate,2024-02-21T20:33:03-06:00*%
%TF.ProjectId,rattlemebones32,72617474-6c65-46d6-9562-6f6e65733332,rev?*%
%TF.SameCoordinates,Original*%
%TF.FileFunction,Plated,1,2,PTH,Mixed*%
%TF.FilePolarity,Positive*%
%FSLAX46Y46*%
G04 Gerber Fmt 4.6, Leading zero omitted, Abs format (unit mm)*
G04 Created by KiCad (PCBNEW 7.0.8) date 2024-02-21 20:33:03*
%MOMM*%
%LPD*%
G01*
G04 APERTURE LIST*
%TA.AperFunction,ViaDrill*%
%ADD10C,0.400000*%
%TD*%
G04 aperture for slot hole*
%TA.AperFunction,ComponentDrill*%
%ADD11O,0.600000X1.200000*%
%TD*%
G04 aperture for slot hole*
%TA.AperFunction,ComponentDrill*%
%ADD12O,0.600000X1.700000*%
%TD*%
%TA.AperFunction,ComponentDrill*%
%ADD13C,1.500000*%
%TD*%
%TA.AperFunction,ComponentDrill*%
%ADD14C,2.500000*%
%TD*%
G04 APERTURE END LIST*
D10*
X52520245Y-76597957D03*
X53043122Y-68092510D03*
X53899331Y-77971173D03*
X56231057Y-61928011D03*
X57781616Y-63482284D03*
X67504334Y-80322528D03*
X67790828Y-71008869D03*
X68388216Y-81853458D03*
X71386621Y-65833639D03*
X72270504Y-67364571D03*
X74228649Y-113182587D03*
X75112534Y-114713518D03*
X78110936Y-98693700D03*
X78994819Y-100224630D03*
X81993222Y-84204813D03*
X82438322Y-74299226D03*
X82877106Y-85735744D03*
X85875506Y-69715924D03*
X86759389Y-71246856D03*
X88717537Y-117064873D03*
X89601420Y-118595804D03*
X92599822Y-102575986D03*
X93483705Y-104106917D03*
X96482109Y-88087099D03*
X97365992Y-89618030D03*
X100364395Y-73598211D03*
X101248277Y-75129142D03*
X103206426Y-120947159D03*
X104090307Y-122478088D03*
X107088711Y-106458270D03*
X107325547Y-110404017D03*
X107955358Y-107959348D03*
X108597461Y-103322351D03*
X110970995Y-91969383D03*
X111386902Y-82172764D03*
X111854879Y-93500315D03*
X112843403Y-81696185D03*
X113206537Y-85862202D03*
X113592126Y-84845937D03*
X113841064Y-83865631D03*
X114853283Y-77480497D03*
X115097461Y-103322351D03*
X115327452Y-91052341D03*
X115678181Y-82804971D03*
X115719928Y-78981571D03*
X116597460Y-101322351D03*
X117597460Y-79822351D03*
X119097460Y-85322350D03*
X120347460Y-71572351D03*
X120574227Y-80822351D03*
X121097462Y-85322351D03*
X122148658Y-105310531D03*
X122597462Y-80822351D03*
X122847461Y-75522352D03*
X123597463Y-101322351D03*
X123824157Y-85810530D03*
X124097460Y-71572351D03*
X124343403Y-105310531D03*
X125773157Y-85810532D03*
X126097460Y-90822351D03*
X126383015Y-89858454D03*
X126843403Y-109822352D03*
X127047460Y-71672349D03*
X127097460Y-80322351D03*
X127797460Y-75522353D03*
X129597461Y-92822350D03*
X130247460Y-71672352D03*
X130343403Y-90810530D03*
X130343403Y-91810531D03*
X132148657Y-105310532D03*
X132786865Y-72987446D03*
X133843403Y-89488872D03*
X133843403Y-92810531D03*
X134892092Y-82776114D03*
X136571393Y-85179646D03*
X137341582Y-84190327D03*
X141588537Y-84585364D03*
X147345103Y-73227683D03*
X147992150Y-75642497D03*
X150765923Y-95604791D03*
X151356798Y-88199533D03*
X151874436Y-90131385D03*
X154777621Y-110576640D03*
X155109674Y-102205458D03*
X158991960Y-116694345D03*
X159639007Y-119109159D03*
X161319760Y-79835946D03*
X161833990Y-69345397D03*
X162481038Y-71760212D03*
X164274540Y-74589952D03*
X165254811Y-91722505D03*
X165845685Y-84317247D03*
X166363323Y-86249099D03*
X169598561Y-98323172D03*
X173480847Y-112812059D03*
X174127895Y-115226874D03*
X175549829Y-74987735D03*
X176322877Y-65463111D03*
X176969925Y-67877926D03*
X179743700Y-87840219D03*
X180334573Y-80434962D03*
X180852211Y-82366813D03*
X184087449Y-94440886D03*
X188099144Y-109412736D03*
X188616782Y-111344588D03*
X189909305Y-70622487D03*
X190811765Y-61580826D03*
X191458812Y-63995640D03*
X194340497Y-76682086D03*
X195341098Y-78484528D03*
X201238189Y-54128331D03*
X205300652Y-57698540D03*
X205818290Y-59630392D03*
X208699975Y-72316837D03*
X209347022Y-74731652D03*
D11*
%TO.C,J1*%
X120978657Y-68997826D03*
D12*
X120978657Y-73177826D03*
D11*
X129618657Y-68997826D03*
D12*
X129618657Y-73177826D03*
D13*
%TO.C,SW9*%
X42876461Y-75587016D03*
%TO.C,SW1*%
X46758745Y-61098128D03*
%TO.C,SW9*%
X49366182Y-78412971D03*
%TO.C,SW1*%
X53248466Y-63924083D03*
%TO.C,SW13*%
X57365345Y-79469297D03*
%TO.C,SW3*%
X61247631Y-64980414D03*
%TO.C,SW13*%
X63855066Y-82295252D03*
%TO.C,SW27*%
X64089665Y-112329361D03*
%TO.C,SW3*%
X67737352Y-67806369D03*
%TO.C,SW21*%
X67971947Y-97840474D03*
%TO.C,SW27*%
X70579386Y-115155316D03*
%TO.C,SW15*%
X71854235Y-83351586D03*
%TO.C,SW21*%
X74461668Y-100666429D03*
%TO.C,SW5*%
X75736522Y-68862699D03*
%TO.C,SW15*%
X78343956Y-86177541D03*
%TO.C,SW29*%
X78578551Y-116211645D03*
%TO.C,SW5*%
X82226243Y-71688654D03*
%TO.C,SW23*%
X82460839Y-101722760D03*
%TO.C,SW29*%
X85068272Y-119037600D03*
%TO.C,SW17*%
X86343123Y-87233873D03*
%TO.C,SW23*%
X88950560Y-104548715D03*
%TO.C,SW7*%
X90225408Y-72744984D03*
%TO.C,SW17*%
X92832844Y-90059828D03*
%TO.C,SW31*%
X93067440Y-120093931D03*
%TO.C,SW7*%
X96715129Y-75570939D03*
%TO.C,SW25*%
X96949722Y-105605045D03*
%TO.C,SW31*%
X99557161Y-122919886D03*
%TO.C,SW19*%
X100832010Y-91116158D03*
%TO.C,SW25*%
X103439443Y-108431000D03*
%TO.C,SW11*%
X104714296Y-76627270D03*
%TO.C,SW19*%
X107321731Y-93942113D03*
%TO.C,SW11*%
X111204017Y-79453225D03*
%TO.C,SW12*%
X137382624Y-78904879D03*
%TO.C,SW20*%
X141264907Y-93393765D03*
%TO.C,SW12*%
X144415865Y-78107368D03*
%TO.C,SW26*%
X145147196Y-107882652D03*
%TO.C,SW20*%
X148298148Y-92596254D03*
%TO.C,SW32*%
X149029481Y-122371541D03*
%TO.C,SW8*%
X151871513Y-75022589D03*
%TO.C,SW26*%
X152180437Y-107085141D03*
%TO.C,SW18*%
X155753796Y-89511480D03*
%TO.C,SW32*%
X156062722Y-121574030D03*
%TO.C,SW8*%
X158904754Y-74225078D03*
%TO.C,SW24*%
X159636082Y-104000368D03*
%TO.C,SW18*%
X162787037Y-88713969D03*
%TO.C,SW30*%
X163518370Y-118489251D03*
%TO.C,SW6*%
X166360398Y-71140305D03*
%TO.C,SW24*%
X166669323Y-103202857D03*
%TO.C,SW16*%
X170242684Y-85629194D03*
%TO.C,SW30*%
X170551611Y-117691740D03*
%TO.C,SW6*%
X173393639Y-70342794D03*
%TO.C,SW22*%
X174124972Y-100118081D03*
%TO.C,SW16*%
X177275925Y-84831683D03*
%TO.C,SW28*%
X178007257Y-114606968D03*
%TO.C,SW4*%
X180849289Y-67258021D03*
%TO.C,SW22*%
X181158213Y-99320570D03*
%TO.C,SW14*%
X184731570Y-81746908D03*
%TO.C,SW28*%
X185040498Y-113809457D03*
%TO.C,SW4*%
X187882530Y-66460510D03*
%TO.C,SW14*%
X191764811Y-80949397D03*
%TO.C,SW2*%
X195338172Y-63375736D03*
%TO.C,SW10*%
X199220458Y-77864619D03*
%TO.C,SW2*%
X202371413Y-62578225D03*
%TO.C,SW10*%
X206253699Y-77067108D03*
D14*
%TO.C,H1*%
X57528597Y-66874629D03*
%TO.C,H3*%
X78741800Y-103616976D03*
%TO.C,H4*%
X93230688Y-107499259D03*
%TO.C,H2*%
X100995261Y-78521484D03*
%TO.C,H11*%
X112170265Y-106362448D03*
%TO.C,H9*%
X119934838Y-77384672D03*
%TO.C,H10*%
X130662280Y-77384675D03*
%TO.C,H12*%
X138426851Y-106362450D03*
%TO.C,H5*%
X149601863Y-78521484D03*
%TO.C,H7*%
X157366430Y-107499261D03*
%TO.C,H8*%
X171855319Y-103616976D03*
%TO.C,H6*%
X193068522Y-66874628D03*
M02*
