%TF.GenerationSoftware,KiCad,Pcbnew,7.0.8*%
%TF.CreationDate,2024-02-21T20:33:01-06:00*%
%TF.ProjectId,rattlemebones32,72617474-6c65-46d6-9562-6f6e65733332,rev?*%
%TF.SameCoordinates,Original*%
%TF.FileFunction,Legend,Top*%
%TF.FilePolarity,Positive*%
%FSLAX46Y46*%
G04 Gerber Fmt 4.6, Leading zero omitted, Abs format (unit mm)*
G04 Created by KiCad (PCBNEW 7.0.8) date 2024-02-21 20:33:01*
%MOMM*%
%LPD*%
G01*
G04 APERTURE LIST*
%ADD10C,0.000000*%
%ADD11C,0.140000*%
G04 APERTURE END LIST*
D10*
G36*
X133602861Y-87321806D02*
G01*
X133602865Y-96678192D01*
X125499996Y-101356380D01*
X117397139Y-96678194D01*
X117397138Y-92145254D01*
X118758321Y-92145254D01*
X118764476Y-92435739D01*
X118782776Y-92723098D01*
X118812973Y-93007083D01*
X118854816Y-93287443D01*
X118908058Y-93563931D01*
X118972449Y-93836298D01*
X119047740Y-94104294D01*
X119133683Y-94367671D01*
X119230029Y-94626179D01*
X119336529Y-94879571D01*
X119452933Y-95127597D01*
X119578994Y-95370008D01*
X119714462Y-95606555D01*
X119859088Y-95836990D01*
X120012624Y-96061063D01*
X120174820Y-96278526D01*
X120197753Y-96119669D01*
X120225293Y-95962341D01*
X120257368Y-95806615D01*
X120293908Y-95652562D01*
X120334840Y-95500252D01*
X120380095Y-95349756D01*
X120429601Y-95201146D01*
X120483288Y-95054493D01*
X120541083Y-94909867D01*
X120602917Y-94767340D01*
X120668717Y-94626983D01*
X120738413Y-94488867D01*
X120767013Y-94436039D01*
X122406482Y-94436039D01*
X122406796Y-94448774D01*
X122407729Y-94461348D01*
X122409266Y-94473745D01*
X122411391Y-94485950D01*
X122414091Y-94497949D01*
X122417350Y-94509727D01*
X122421153Y-94521269D01*
X122425487Y-94532561D01*
X122430335Y-94543587D01*
X122435683Y-94554332D01*
X122441516Y-94564782D01*
X122447820Y-94574923D01*
X122454579Y-94584738D01*
X122461780Y-94594214D01*
X122469406Y-94603336D01*
X122477443Y-94612088D01*
X122485877Y-94620456D01*
X122494693Y-94628426D01*
X122503875Y-94635981D01*
X122513409Y-94643109D01*
X122523280Y-94649792D01*
X122533473Y-94656018D01*
X122543974Y-94661771D01*
X122554768Y-94667036D01*
X122565840Y-94671799D01*
X122577174Y-94676044D01*
X122588757Y-94679757D01*
X122600573Y-94682923D01*
X122612608Y-94685527D01*
X122624846Y-94687554D01*
X122637274Y-94688990D01*
X122649876Y-94689820D01*
X122649876Y-94690059D01*
X123456048Y-94690059D01*
X123456048Y-95496231D01*
X123456287Y-95496231D01*
X123457117Y-95508833D01*
X123458553Y-95521261D01*
X123460580Y-95533500D01*
X123463184Y-95545534D01*
X123466350Y-95557351D01*
X123470063Y-95568934D01*
X123474308Y-95580268D01*
X123479071Y-95591340D01*
X123484336Y-95602133D01*
X123490089Y-95612634D01*
X123496314Y-95622828D01*
X123502998Y-95632699D01*
X123510126Y-95642233D01*
X123517681Y-95651415D01*
X123525651Y-95660231D01*
X123534019Y-95668664D01*
X123542771Y-95676702D01*
X123551893Y-95684328D01*
X123561369Y-95691528D01*
X123571185Y-95698288D01*
X123581325Y-95704592D01*
X123591775Y-95710425D01*
X123602521Y-95715773D01*
X123613547Y-95720621D01*
X123624838Y-95724954D01*
X123636380Y-95728758D01*
X123648158Y-95732017D01*
X123660158Y-95734716D01*
X123672363Y-95736842D01*
X123684760Y-95738378D01*
X123697333Y-95739311D01*
X123710069Y-95739625D01*
X123722804Y-95739311D01*
X123735378Y-95738378D01*
X123747775Y-95736842D01*
X123759980Y-95734716D01*
X123771979Y-95732017D01*
X123783757Y-95728758D01*
X123795300Y-95724954D01*
X123806591Y-95720621D01*
X123817617Y-95715773D01*
X123828362Y-95710425D01*
X123838813Y-95704592D01*
X123848953Y-95698288D01*
X123858769Y-95691528D01*
X123868245Y-95684328D01*
X123877366Y-95676702D01*
X123886118Y-95668664D01*
X123894487Y-95660231D01*
X123902456Y-95651415D01*
X123910012Y-95642233D01*
X123917139Y-95632699D01*
X123923823Y-95622828D01*
X123930049Y-95612634D01*
X123935801Y-95602133D01*
X123941067Y-95591340D01*
X123945829Y-95580268D01*
X123950074Y-95568934D01*
X123953787Y-95557351D01*
X123956953Y-95545534D01*
X123959557Y-95533500D01*
X123961585Y-95521261D01*
X123963021Y-95508833D01*
X123963851Y-95496231D01*
X123964089Y-95496231D01*
X123964089Y-95183151D01*
X126293812Y-95183151D01*
X126294318Y-95195024D01*
X126295375Y-95206866D01*
X126296984Y-95218658D01*
X126299145Y-95230378D01*
X126301858Y-95242006D01*
X126305122Y-95253520D01*
X126308938Y-95264900D01*
X126313307Y-95276125D01*
X126318227Y-95287173D01*
X126323699Y-95298024D01*
X126329722Y-95308656D01*
X126336298Y-95319050D01*
X126343425Y-95329183D01*
X126351104Y-95339036D01*
X126359335Y-95348586D01*
X126368118Y-95357814D01*
X126377346Y-95366597D01*
X126386896Y-95374828D01*
X126396749Y-95382507D01*
X126406882Y-95389635D01*
X126417276Y-95396211D01*
X126427908Y-95402235D01*
X126438759Y-95407707D01*
X126449808Y-95412627D01*
X126461032Y-95416995D01*
X126472412Y-95420812D01*
X126483926Y-95424076D01*
X126495554Y-95426789D01*
X126507274Y-95428950D01*
X126519066Y-95430559D01*
X126530909Y-95431617D01*
X126542781Y-95432122D01*
X126554662Y-95432075D01*
X126566530Y-95431477D01*
X126578366Y-95430327D01*
X126590147Y-95428625D01*
X126601853Y-95426371D01*
X126613463Y-95423566D01*
X126624957Y-95420208D01*
X126636312Y-95416299D01*
X126647508Y-95411837D01*
X126658525Y-95406824D01*
X126669341Y-95401259D01*
X126679935Y-95395142D01*
X126690286Y-95388474D01*
X126700374Y-95381253D01*
X126710177Y-95373481D01*
X126719675Y-95365156D01*
X126719715Y-95365196D01*
X126719754Y-95365236D01*
X126719794Y-95365275D01*
X126719833Y-95365314D01*
X127289884Y-94795263D01*
X127852435Y-95357817D01*
X127859936Y-95365316D01*
X127859975Y-95365276D01*
X127860015Y-95365237D01*
X127860095Y-95365159D01*
X127869592Y-95373482D01*
X127879396Y-95381254D01*
X127889483Y-95388475D01*
X127899835Y-95395143D01*
X127910429Y-95401260D01*
X127921245Y-95406824D01*
X127932261Y-95411837D01*
X127943458Y-95416298D01*
X127954813Y-95420207D01*
X127966306Y-95423565D01*
X127977916Y-95426370D01*
X127989622Y-95428624D01*
X128001404Y-95430326D01*
X128013239Y-95431476D01*
X128025108Y-95432074D01*
X128036988Y-95432121D01*
X128048860Y-95431616D01*
X128060703Y-95430558D01*
X128072495Y-95428949D01*
X128084215Y-95426789D01*
X128095843Y-95424076D01*
X128107357Y-95420811D01*
X128118737Y-95416995D01*
X128129961Y-95412627D01*
X128141009Y-95407707D01*
X128151860Y-95402235D01*
X128162493Y-95396212D01*
X128172887Y-95389637D01*
X128183020Y-95382509D01*
X128192873Y-95374830D01*
X128202423Y-95366600D01*
X128211650Y-95357817D01*
X128220433Y-95348589D01*
X128228665Y-95339039D01*
X128236344Y-95329186D01*
X128243472Y-95319052D01*
X128250047Y-95308658D01*
X128256071Y-95298026D01*
X128261543Y-95287174D01*
X128266464Y-95276126D01*
X128270832Y-95264901D01*
X128274648Y-95253521D01*
X128277913Y-95242007D01*
X128280626Y-95230379D01*
X128282787Y-95218659D01*
X128284396Y-95206867D01*
X128285453Y-95195024D01*
X128285959Y-95183152D01*
X128285912Y-95171271D01*
X128285314Y-95159403D01*
X128284164Y-95147567D01*
X128282462Y-95135786D01*
X128280208Y-95124080D01*
X128277402Y-95112469D01*
X128274045Y-95100976D01*
X128270135Y-95089621D01*
X128265674Y-95078425D01*
X128260661Y-95067408D01*
X128255096Y-95056592D01*
X128248979Y-95045998D01*
X128242310Y-95035647D01*
X128235090Y-95025559D01*
X128227317Y-95015756D01*
X128218993Y-95006258D01*
X128219033Y-95006218D01*
X128219073Y-95006179D01*
X128219113Y-95006140D01*
X128219153Y-95006101D01*
X128211650Y-94998600D01*
X127649100Y-94436049D01*
X128211650Y-93873498D01*
X128219152Y-93865996D01*
X128219072Y-93865917D01*
X128219033Y-93865878D01*
X128218993Y-93865839D01*
X128227317Y-93856342D01*
X128235089Y-93846538D01*
X128242309Y-93836450D01*
X128248978Y-93826099D01*
X128255094Y-93815504D01*
X128260659Y-93804688D01*
X128265672Y-93793672D01*
X128270133Y-93782475D01*
X128274042Y-93771120D01*
X128277399Y-93759626D01*
X128280205Y-93748016D01*
X128282459Y-93736310D01*
X128284161Y-93724528D01*
X128285311Y-93712693D01*
X128285909Y-93700824D01*
X128285956Y-93688943D01*
X128285450Y-93677071D01*
X128284393Y-93665229D01*
X128282784Y-93653437D01*
X128280623Y-93641717D01*
X128277910Y-93630089D01*
X128274646Y-93618575D01*
X128270830Y-93607195D01*
X128266461Y-93595970D01*
X128261541Y-93584922D01*
X128256070Y-93574071D01*
X128250046Y-93563438D01*
X128243471Y-93553045D01*
X128236343Y-93542912D01*
X128228664Y-93533059D01*
X128220433Y-93523509D01*
X128211650Y-93514282D01*
X128202423Y-93505498D01*
X128192872Y-93497267D01*
X128183020Y-93489588D01*
X128172886Y-93482460D01*
X128162493Y-93475885D01*
X128151860Y-93469861D01*
X128141009Y-93464389D01*
X128129961Y-93459468D01*
X128118736Y-93455100D01*
X128107356Y-93451283D01*
X128095842Y-93448019D01*
X128084214Y-93445306D01*
X128072494Y-93443145D01*
X128060702Y-93441535D01*
X128048860Y-93440478D01*
X128036988Y-93439972D01*
X128025107Y-93440019D01*
X128013238Y-93440617D01*
X128001403Y-93441767D01*
X127989622Y-93443469D01*
X127977916Y-93445722D01*
X127966305Y-93448528D01*
X127954812Y-93451885D01*
X127943457Y-93455794D01*
X127932261Y-93460255D01*
X127921244Y-93465267D01*
X127910428Y-93470832D01*
X127899834Y-93476948D01*
X127889483Y-93483617D01*
X127879395Y-93490837D01*
X127869591Y-93498608D01*
X127860094Y-93506932D01*
X127860055Y-93506892D01*
X127860015Y-93506852D01*
X127859936Y-93506772D01*
X127852681Y-93514037D01*
X127852565Y-93514152D01*
X127852443Y-93514274D01*
X127289893Y-94076824D01*
X126727341Y-93514271D01*
X126719840Y-93506772D01*
X126719761Y-93506851D01*
X126719721Y-93506890D01*
X126719681Y-93506929D01*
X126710184Y-93498605D01*
X126700380Y-93490833D01*
X126690293Y-93483613D01*
X126679941Y-93476944D01*
X126669347Y-93470828D01*
X126658532Y-93465263D01*
X126647515Y-93460250D01*
X126636319Y-93455789D01*
X126624963Y-93451880D01*
X126613470Y-93448523D01*
X126601860Y-93445717D01*
X126590154Y-93443464D01*
X126578372Y-93441762D01*
X126566537Y-93440612D01*
X126554668Y-93440014D01*
X126542788Y-93439968D01*
X126530915Y-93440473D01*
X126519073Y-93441531D01*
X126507281Y-93443140D01*
X126495561Y-93445302D01*
X126483933Y-93448015D01*
X126472419Y-93451280D01*
X126461039Y-93455096D01*
X126449814Y-93459465D01*
X126438766Y-93464386D01*
X126427915Y-93469858D01*
X126417282Y-93475882D01*
X126406889Y-93482458D01*
X126396755Y-93489586D01*
X126386903Y-93497266D01*
X126377353Y-93505498D01*
X126368125Y-93514282D01*
X126359342Y-93523509D01*
X126351111Y-93533059D01*
X126343431Y-93542912D01*
X126336303Y-93553045D01*
X126329728Y-93563438D01*
X126323704Y-93574071D01*
X126318232Y-93584922D01*
X126313311Y-93595970D01*
X126308943Y-93607195D01*
X126305126Y-93618575D01*
X126301862Y-93630089D01*
X126299149Y-93641716D01*
X126296988Y-93653437D01*
X126295378Y-93665228D01*
X126294321Y-93677071D01*
X126293816Y-93688943D01*
X126293862Y-93700824D01*
X126294460Y-93712692D01*
X126295610Y-93724528D01*
X126297312Y-93736309D01*
X126299565Y-93748015D01*
X126302371Y-93759625D01*
X126305728Y-93771118D01*
X126309637Y-93782474D01*
X126314098Y-93793670D01*
X126319111Y-93804687D01*
X126324675Y-93815502D01*
X126330791Y-93826096D01*
X126337460Y-93836448D01*
X126344680Y-93846535D01*
X126352451Y-93856338D01*
X126360775Y-93865836D01*
X126360695Y-93865917D01*
X126360616Y-93865996D01*
X126368117Y-93873496D01*
X126930668Y-94436049D01*
X126360617Y-95006099D01*
X126360697Y-95006178D01*
X126360737Y-95006217D01*
X126360776Y-95006256D01*
X126352452Y-95015754D01*
X126344680Y-95025557D01*
X126337460Y-95035645D01*
X126330791Y-95045997D01*
X126324674Y-95056591D01*
X126319109Y-95067407D01*
X126314096Y-95078423D01*
X126309635Y-95089620D01*
X126305726Y-95100975D01*
X126302368Y-95112469D01*
X126299563Y-95124079D01*
X126297309Y-95135785D01*
X126295607Y-95147566D01*
X126294457Y-95159402D01*
X126293859Y-95171271D01*
X126293812Y-95183151D01*
X123964089Y-95183151D01*
X123964089Y-94690059D01*
X124770263Y-94690059D01*
X124770263Y-94689820D01*
X124782865Y-94688990D01*
X124795292Y-94687554D01*
X124807531Y-94685527D01*
X124819566Y-94682923D01*
X124831382Y-94679757D01*
X124842965Y-94676044D01*
X124854299Y-94671799D01*
X124865371Y-94667036D01*
X124876165Y-94661771D01*
X124886666Y-94656018D01*
X124896859Y-94649792D01*
X124906730Y-94643108D01*
X124916264Y-94635981D01*
X124925447Y-94628426D01*
X124934262Y-94620456D01*
X124942696Y-94612088D01*
X124950733Y-94603335D01*
X124958359Y-94594214D01*
X124965560Y-94584738D01*
X124972319Y-94574922D01*
X124978623Y-94564782D01*
X124984456Y-94554331D01*
X124989804Y-94543586D01*
X124994652Y-94532560D01*
X124998986Y-94521268D01*
X125002789Y-94509726D01*
X125006048Y-94497948D01*
X125008748Y-94485949D01*
X125010873Y-94473743D01*
X125012410Y-94461346D01*
X125013343Y-94448772D01*
X125013657Y-94436037D01*
X125013343Y-94423301D01*
X125012410Y-94410728D01*
X125010873Y-94398331D01*
X125008748Y-94386125D01*
X125006048Y-94374126D01*
X125002789Y-94362348D01*
X124998986Y-94350806D01*
X124994652Y-94339514D01*
X124989804Y-94328489D01*
X124984456Y-94317743D01*
X124978623Y-94307293D01*
X124972319Y-94297153D01*
X124965560Y-94287337D01*
X124958359Y-94277861D01*
X124950733Y-94268740D01*
X124942696Y-94259988D01*
X124934262Y-94251620D01*
X124925447Y-94243650D01*
X124916264Y-94236095D01*
X124906730Y-94228968D01*
X124896859Y-94222284D01*
X124886666Y-94216058D01*
X124876165Y-94210305D01*
X124865371Y-94205040D01*
X124854299Y-94200278D01*
X124842965Y-94196033D01*
X124831382Y-94192320D01*
X124819566Y-94189154D01*
X124807531Y-94186550D01*
X124795292Y-94184522D01*
X124782865Y-94183086D01*
X124770263Y-94182256D01*
X124770263Y-94182017D01*
X124759976Y-94182019D01*
X123964092Y-94182019D01*
X123964092Y-93375845D01*
X123963853Y-93375845D01*
X123963023Y-93363243D01*
X123961587Y-93350815D01*
X123959560Y-93338576D01*
X123956956Y-93326541D01*
X123953790Y-93314725D01*
X123950077Y-93303142D01*
X123945832Y-93291808D01*
X123941069Y-93280736D01*
X123935804Y-93269942D01*
X123930051Y-93259441D01*
X123923825Y-93249248D01*
X123917141Y-93239377D01*
X123910014Y-93229843D01*
X123902458Y-93220661D01*
X123894489Y-93211845D01*
X123886121Y-93203411D01*
X123877368Y-93195374D01*
X123868247Y-93187748D01*
X123858771Y-93180547D01*
X123848955Y-93173788D01*
X123838814Y-93167484D01*
X123828364Y-93161651D01*
X123817618Y-93156303D01*
X123806592Y-93151455D01*
X123795301Y-93147122D01*
X123783759Y-93143318D01*
X123771981Y-93140059D01*
X123759981Y-93137360D01*
X123747776Y-93135234D01*
X123735379Y-93133698D01*
X123722805Y-93132765D01*
X123710070Y-93132451D01*
X123697334Y-93132765D01*
X123684761Y-93133698D01*
X123672364Y-93135234D01*
X123660158Y-93137360D01*
X123648159Y-93140059D01*
X123636381Y-93143318D01*
X123624839Y-93147122D01*
X123613548Y-93151455D01*
X123602522Y-93156303D01*
X123591776Y-93161651D01*
X123581326Y-93167484D01*
X123571186Y-93173788D01*
X123561370Y-93180547D01*
X123551894Y-93187748D01*
X123542773Y-93195374D01*
X123534020Y-93203411D01*
X123525652Y-93211845D01*
X123517683Y-93220661D01*
X123510127Y-93229843D01*
X123503000Y-93239377D01*
X123496316Y-93249248D01*
X123490090Y-93259441D01*
X123484337Y-93269942D01*
X123479072Y-93280736D01*
X123474309Y-93291808D01*
X123470064Y-93303142D01*
X123466351Y-93314725D01*
X123463185Y-93326541D01*
X123460581Y-93338576D01*
X123458553Y-93350815D01*
X123457117Y-93363243D01*
X123456287Y-93375845D01*
X123456048Y-93375845D01*
X123456048Y-94182019D01*
X122649876Y-94182019D01*
X122649876Y-94182256D01*
X122637274Y-94183086D01*
X122624846Y-94184522D01*
X122612608Y-94186549D01*
X122600573Y-94189153D01*
X122588756Y-94192319D01*
X122577174Y-94196032D01*
X122565839Y-94200277D01*
X122554768Y-94205040D01*
X122543974Y-94210305D01*
X122533473Y-94216058D01*
X122523279Y-94222283D01*
X122513408Y-94228967D01*
X122503874Y-94236095D01*
X122494692Y-94243650D01*
X122485877Y-94251620D01*
X122477443Y-94259988D01*
X122469406Y-94268740D01*
X122461779Y-94277862D01*
X122454579Y-94287338D01*
X122447820Y-94297154D01*
X122441516Y-94307294D01*
X122435683Y-94317745D01*
X122430334Y-94328490D01*
X122425486Y-94339516D01*
X122421153Y-94350808D01*
X122417350Y-94362350D01*
X122414091Y-94374128D01*
X122411391Y-94386127D01*
X122409266Y-94398333D01*
X122407729Y-94410730D01*
X122406796Y-94423304D01*
X122406482Y-94436039D01*
X120767013Y-94436039D01*
X120811935Y-94353062D01*
X120889210Y-94219641D01*
X120970168Y-94088673D01*
X121054738Y-93960230D01*
X120947831Y-93874852D01*
X120846003Y-93783654D01*
X120749502Y-93686889D01*
X120658582Y-93584807D01*
X120573493Y-93477660D01*
X120494485Y-93365698D01*
X120421811Y-93249173D01*
X120355721Y-93128335D01*
X120296466Y-93003436D01*
X120244297Y-92874726D01*
X120199465Y-92742457D01*
X120162221Y-92606880D01*
X120132817Y-92468246D01*
X120111504Y-92326806D01*
X120098531Y-92182811D01*
X120094151Y-92036511D01*
X120094150Y-92036511D01*
X120094150Y-92036512D01*
X120094149Y-92036512D01*
X120097283Y-91912705D01*
X120106584Y-91790517D01*
X120121900Y-91670098D01*
X120143080Y-91551601D01*
X120169972Y-91435178D01*
X120202424Y-91320979D01*
X120240286Y-91209157D01*
X120283404Y-91099863D01*
X120331628Y-90993249D01*
X120384807Y-90889466D01*
X120442787Y-90788666D01*
X120505418Y-90691000D01*
X120572549Y-90596621D01*
X120644027Y-90505680D01*
X120719700Y-90418328D01*
X120799419Y-90334717D01*
X120883029Y-90254999D01*
X120970381Y-90179325D01*
X121061323Y-90107847D01*
X121155702Y-90040716D01*
X121253367Y-89978085D01*
X121354167Y-89920105D01*
X121457950Y-89866926D01*
X121564564Y-89818702D01*
X121673858Y-89775584D01*
X121785680Y-89737722D01*
X121899879Y-89705270D01*
X122016303Y-89678378D01*
X122134799Y-89657198D01*
X122255218Y-89641882D01*
X122377406Y-89632581D01*
X122501213Y-89629447D01*
X122612454Y-89631976D01*
X122722402Y-89639489D01*
X122830948Y-89651878D01*
X122937982Y-89669031D01*
X123043394Y-89690840D01*
X123147075Y-89717194D01*
X123248914Y-89747985D01*
X123348803Y-89783101D01*
X123446631Y-89822433D01*
X123542288Y-89865872D01*
X123635665Y-89913308D01*
X123726652Y-89964631D01*
X123815139Y-90019731D01*
X123901017Y-90078499D01*
X123984175Y-90140824D01*
X124064505Y-90206597D01*
X124141895Y-90275708D01*
X124216237Y-90348048D01*
X124287420Y-90423506D01*
X124355336Y-90501973D01*
X124419873Y-90583340D01*
X124480923Y-90667495D01*
X124538375Y-90754331D01*
X124592120Y-90843736D01*
X124642048Y-90935601D01*
X124688049Y-91029816D01*
X124730014Y-91126272D01*
X124767832Y-91224859D01*
X124801395Y-91325466D01*
X124830592Y-91427985D01*
X124855313Y-91532305D01*
X124875449Y-91638317D01*
X124952450Y-91629947D01*
X125029772Y-91622667D01*
X125107406Y-91616486D01*
X125185346Y-91611411D01*
X125263584Y-91607450D01*
X125342110Y-91604611D01*
X125420918Y-91602902D01*
X125500000Y-91602331D01*
X125500001Y-91602331D01*
X125573745Y-91602828D01*
X125647253Y-91604314D01*
X125720516Y-91606784D01*
X125793529Y-91610230D01*
X125866285Y-91614647D01*
X125938779Y-91620027D01*
X126011003Y-91626366D01*
X126082951Y-91633656D01*
X126101898Y-91526179D01*
X126125548Y-91420393D01*
X126153788Y-91316412D01*
X126186506Y-91214347D01*
X126223588Y-91114311D01*
X126264922Y-91016419D01*
X126310395Y-90920781D01*
X126359894Y-90827512D01*
X126413307Y-90736724D01*
X126470519Y-90648529D01*
X126531420Y-90563042D01*
X126595895Y-90480374D01*
X126663831Y-90400639D01*
X126735117Y-90323949D01*
X126809639Y-90250417D01*
X126887284Y-90180156D01*
X126967939Y-90113279D01*
X127051492Y-90049899D01*
X127137830Y-89990128D01*
X127226839Y-89934080D01*
X127318408Y-89881867D01*
X127412422Y-89833602D01*
X127508770Y-89789399D01*
X127607339Y-89749369D01*
X127708014Y-89713626D01*
X127810685Y-89682283D01*
X127915237Y-89655452D01*
X128021559Y-89633246D01*
X128129536Y-89615778D01*
X128239057Y-89603162D01*
X128350008Y-89595509D01*
X128462277Y-89592933D01*
X128586084Y-89596067D01*
X128708273Y-89605368D01*
X128828691Y-89620684D01*
X128947188Y-89641864D01*
X129063612Y-89668756D01*
X129177810Y-89701209D01*
X129289632Y-89739070D01*
X129398926Y-89782189D01*
X129505541Y-89830413D01*
X129609324Y-89883591D01*
X129710124Y-89941571D01*
X129807789Y-90004203D01*
X129902168Y-90071333D01*
X129993109Y-90142811D01*
X130080461Y-90218485D01*
X130164072Y-90298203D01*
X130243790Y-90381814D01*
X130319464Y-90469166D01*
X130390942Y-90560107D01*
X130458072Y-90654486D01*
X130520703Y-90752152D01*
X130578684Y-90852952D01*
X130631862Y-90956735D01*
X130680086Y-91063349D01*
X130723205Y-91172643D01*
X130761066Y-91284465D01*
X130793519Y-91398664D01*
X130820411Y-91515087D01*
X130841590Y-91633584D01*
X130856907Y-91754003D01*
X130866208Y-91876191D01*
X130869342Y-91999998D01*
X130864999Y-92145670D01*
X130852137Y-92289060D01*
X130831004Y-92429918D01*
X130801847Y-92567997D01*
X130764913Y-92703050D01*
X130720452Y-92834829D01*
X130668709Y-92963086D01*
X130609935Y-93087572D01*
X130544375Y-93208041D01*
X130472279Y-93324245D01*
X130393893Y-93435935D01*
X130309466Y-93542863D01*
X130219245Y-93644783D01*
X130123479Y-93741446D01*
X130022414Y-93832605D01*
X129916299Y-93918011D01*
X130003805Y-94048281D01*
X130087569Y-94181205D01*
X130167518Y-94316708D01*
X130243574Y-94454714D01*
X130315664Y-94595148D01*
X130383710Y-94737933D01*
X130447638Y-94882996D01*
X130507371Y-95030259D01*
X130562835Y-95179647D01*
X130613954Y-95331086D01*
X130660652Y-95484498D01*
X130702853Y-95639809D01*
X130740483Y-95796943D01*
X130773465Y-95955825D01*
X130801723Y-96116379D01*
X130825183Y-96278529D01*
X130987380Y-96061066D01*
X131140916Y-95836992D01*
X131285542Y-95606558D01*
X131421010Y-95370010D01*
X131547071Y-95127599D01*
X131663475Y-94879574D01*
X131769975Y-94626182D01*
X131866321Y-94367673D01*
X131952264Y-94104296D01*
X132027555Y-93836300D01*
X132091946Y-93563933D01*
X132145188Y-93287445D01*
X132187031Y-93007084D01*
X132217227Y-92723099D01*
X132235527Y-92435740D01*
X132241683Y-92145254D01*
X132232905Y-91798497D01*
X132206855Y-91456273D01*
X132163958Y-91119006D01*
X132104637Y-90787121D01*
X132029318Y-90461043D01*
X131938426Y-90141197D01*
X131832384Y-89828007D01*
X131711618Y-89521897D01*
X131576552Y-89223293D01*
X131427612Y-88932619D01*
X131265220Y-88650300D01*
X131089803Y-88376759D01*
X130901785Y-88112423D01*
X130701590Y-87857716D01*
X130489644Y-87613062D01*
X130266370Y-87378885D01*
X130032194Y-87155611D01*
X129787540Y-86943665D01*
X129532832Y-86743470D01*
X129268496Y-86555452D01*
X128994956Y-86380035D01*
X128712637Y-86217644D01*
X128421963Y-86068703D01*
X128123358Y-85933637D01*
X127817249Y-85812871D01*
X127504059Y-85706830D01*
X127184212Y-85615937D01*
X126858135Y-85540618D01*
X126526250Y-85481298D01*
X126188983Y-85438400D01*
X125846759Y-85412350D01*
X125500002Y-85403572D01*
X125153245Y-85412350D01*
X124811021Y-85438400D01*
X124473754Y-85481298D01*
X124141869Y-85540618D01*
X123815792Y-85615937D01*
X123495945Y-85706830D01*
X123182755Y-85812871D01*
X122876645Y-85933637D01*
X122578041Y-86068703D01*
X122287367Y-86217644D01*
X122005048Y-86380035D01*
X121731508Y-86555452D01*
X121467172Y-86743470D01*
X121212464Y-86943665D01*
X120967810Y-87155611D01*
X120733633Y-87378885D01*
X120510360Y-87613062D01*
X120298413Y-87857716D01*
X120098218Y-88112423D01*
X119910200Y-88376759D01*
X119734783Y-88650300D01*
X119572392Y-88932619D01*
X119423451Y-89223293D01*
X119288385Y-89521897D01*
X119167619Y-89828007D01*
X119061578Y-90141197D01*
X118970685Y-90461043D01*
X118895366Y-90787121D01*
X118836046Y-91119006D01*
X118793148Y-91456273D01*
X118767098Y-91798497D01*
X118758321Y-92145254D01*
X117397138Y-92145254D01*
X117397136Y-87321810D01*
X125500004Y-82643621D01*
X133602861Y-87321806D01*
G37*
D11*
%TO.C,SW2*%
X206073819Y-61327349D02*
X206332638Y-62293275D01*
X202967990Y-49736239D02*
X203226809Y-50702165D01*
X202967990Y-49736239D02*
X202002064Y-49995058D01*
X205366712Y-62552094D02*
X206332638Y-62293275D01*
X191376880Y-52842068D02*
X190410954Y-53100887D01*
X193775602Y-65657923D02*
X194741528Y-65399104D01*
X193775602Y-65657923D02*
X193516783Y-64691997D01*
X190669773Y-54066813D02*
X190410954Y-53100887D01*
%TO.C,SW23*%
X83072349Y-91326796D02*
X83331168Y-90360870D01*
X79966520Y-102917906D02*
X80225339Y-101951980D01*
X79966520Y-102917906D02*
X80932446Y-103176725D01*
X84297094Y-90619689D02*
X83331168Y-90360870D01*
X91557630Y-106023735D02*
X92523556Y-106282554D01*
X95888204Y-93725518D02*
X94922278Y-93466699D01*
X95888204Y-93725518D02*
X95629385Y-94691444D01*
X92782375Y-105316628D02*
X92523556Y-106282554D01*
%TO.C,SW24*%
X154967683Y-94691445D02*
X154708864Y-93725519D01*
X158073512Y-106282555D02*
X157814693Y-105316629D01*
X158073512Y-106282555D02*
X159039438Y-106023736D01*
X155674790Y-93466700D02*
X154708864Y-93725519D01*
X169664622Y-103176726D02*
X170630548Y-102917907D01*
X167265900Y-90360871D02*
X166299974Y-90619690D01*
X167265900Y-90360871D02*
X167524719Y-91326797D01*
X170371729Y-101951981D02*
X170630548Y-102917907D01*
%TO.C,SW17*%
X86954633Y-76837909D02*
X87213452Y-75871983D01*
X83848804Y-88429019D02*
X84107623Y-87463093D01*
X83848804Y-88429019D02*
X84814730Y-88687838D01*
X88179378Y-76130802D02*
X87213452Y-75871983D01*
X95439914Y-91534848D02*
X96405840Y-91793667D01*
X99770488Y-79236631D02*
X98804562Y-78977812D01*
X99770488Y-79236631D02*
X99511669Y-80202557D01*
X96664659Y-90827741D02*
X96405840Y-91793667D01*
%TO.C,SW14*%
X195467217Y-79698521D02*
X195726036Y-80664447D01*
X192361388Y-68107411D02*
X192620207Y-69073337D01*
X192361388Y-68107411D02*
X191395462Y-68366230D01*
X194760110Y-80923266D02*
X195726036Y-80664447D01*
X180770278Y-71213240D02*
X179804352Y-71472059D01*
X183169000Y-84029095D02*
X184134926Y-83770276D01*
X183169000Y-84029095D02*
X182910181Y-83063169D01*
X180063171Y-72437985D02*
X179804352Y-71472059D01*
%TO.C,SW18*%
X151085397Y-80202557D02*
X150826578Y-79236631D01*
X154191226Y-91793667D02*
X153932407Y-90827741D01*
X154191226Y-91793667D02*
X155157152Y-91534848D01*
X151792504Y-78977812D02*
X150826578Y-79236631D01*
X165782336Y-88687838D02*
X166748262Y-88429019D01*
X163383614Y-75871983D02*
X162417688Y-76130802D01*
X163383614Y-75871983D02*
X163642433Y-76837909D01*
X166489443Y-87463093D02*
X166748262Y-88429019D01*
%TO.C,SW30*%
X158849971Y-109180328D02*
X158591152Y-108214402D01*
X161955800Y-120771438D02*
X161696981Y-119805512D01*
X161955800Y-120771438D02*
X162921726Y-120512619D01*
X159557078Y-107955583D02*
X158591152Y-108214402D01*
X173546910Y-117665609D02*
X174512836Y-117406790D01*
X171148188Y-104849754D02*
X170182262Y-105108573D01*
X171148188Y-104849754D02*
X171407007Y-105815680D01*
X174254017Y-116440864D02*
X174512836Y-117406790D01*
%TO.C,SW31*%
X93678950Y-109697967D02*
X93937769Y-108732041D01*
X90573121Y-121289077D02*
X90831940Y-120323151D01*
X90573121Y-121289077D02*
X91539047Y-121547896D01*
X94903695Y-108990860D02*
X93937769Y-108732041D01*
X102164231Y-124394906D02*
X103130157Y-124653725D01*
X106494805Y-112096689D02*
X105528879Y-111837870D01*
X106494805Y-112096689D02*
X106235986Y-113062615D01*
X103388976Y-123687799D02*
X103130157Y-124653725D01*
%TO.C,SW4*%
X191584936Y-65209634D02*
X191843755Y-66175560D01*
X188479107Y-53618524D02*
X188737926Y-54584450D01*
X188479107Y-53618524D02*
X187513181Y-53877343D01*
X190877829Y-66434379D02*
X191843755Y-66175560D01*
X176887997Y-56724353D02*
X175922071Y-56983172D01*
X179286719Y-69540208D02*
X180252645Y-69281389D01*
X179286719Y-69540208D02*
X179027900Y-68574282D01*
X176180890Y-57949098D02*
X175922071Y-56983172D01*
%TO.C,SW9*%
X43487971Y-65191052D02*
X43746790Y-64225126D01*
X40382142Y-76782162D02*
X40640961Y-75816236D01*
X40382142Y-76782162D02*
X41348068Y-77040981D01*
X44712716Y-64483945D02*
X43746790Y-64225126D01*
X51973252Y-79887991D02*
X52939178Y-80146810D01*
X56303826Y-67589774D02*
X55337900Y-67330955D01*
X56303826Y-67589774D02*
X56045007Y-68555700D01*
X53197997Y-79180884D02*
X52939178Y-80146810D01*
%TO.C,SW8*%
X147203114Y-65713666D02*
X146944295Y-64747740D01*
X150308943Y-77304776D02*
X150050124Y-76338850D01*
X150308943Y-77304776D02*
X151274869Y-77045957D01*
X147910221Y-64488921D02*
X146944295Y-64747740D01*
X161900053Y-74198947D02*
X162865979Y-73940128D01*
X159501331Y-61383092D02*
X158535405Y-61641911D01*
X159501331Y-61383092D02*
X159760150Y-62349018D01*
X162607160Y-72974202D02*
X162865979Y-73940128D01*
%TO.C,SW3*%
X61859141Y-54584450D02*
X62117960Y-53618524D01*
X58753312Y-66175560D02*
X59012131Y-65209634D01*
X58753312Y-66175560D02*
X59719238Y-66434379D01*
X63083886Y-53877343D02*
X62117960Y-53618524D01*
X70344422Y-69281389D02*
X71310348Y-69540208D01*
X74674996Y-56983172D02*
X73709070Y-56724353D01*
X74674996Y-56983172D02*
X74416177Y-57949098D01*
X71569167Y-68574282D02*
X71310348Y-69540208D01*
%TO.C,SW20*%
X136596508Y-84084842D02*
X136337689Y-83118916D01*
X139702337Y-95675952D02*
X139443518Y-94710026D01*
X139702337Y-95675952D02*
X140668263Y-95417133D01*
X137303615Y-82860097D02*
X136337689Y-83118916D01*
X151293447Y-92570123D02*
X152259373Y-92311304D01*
X148894725Y-79754268D02*
X147928799Y-80013087D01*
X148894725Y-79754268D02*
X149153544Y-80720194D01*
X152000554Y-91345378D02*
X152259373Y-92311304D01*
%TO.C,SW10*%
X194552059Y-68555696D02*
X194293240Y-67589770D01*
X197657888Y-80146806D02*
X197399069Y-79180880D01*
X197657888Y-80146806D02*
X198623814Y-79887987D01*
X195259166Y-67330951D02*
X194293240Y-67589770D01*
X209248998Y-77040977D02*
X210214924Y-76782158D01*
X206850276Y-64225122D02*
X205884350Y-64483941D01*
X206850276Y-64225122D02*
X207109095Y-65191048D01*
X209956105Y-75816232D02*
X210214924Y-76782158D01*
%TO.C,SW13*%
X57976855Y-69073333D02*
X58235674Y-68107407D01*
X54871026Y-80664443D02*
X55129845Y-79698517D01*
X54871026Y-80664443D02*
X55836952Y-80923262D01*
X59201600Y-68366226D02*
X58235674Y-68107407D01*
X66462136Y-83770272D02*
X67428062Y-84029091D01*
X70792710Y-71472055D02*
X69826784Y-71213236D01*
X70792710Y-71472055D02*
X70533891Y-72437981D01*
X67686881Y-83063165D02*
X67428062Y-84029091D01*
%TO.C,SW1*%
X47370255Y-50702164D02*
X47629074Y-49736238D01*
X44264426Y-62293274D02*
X44523245Y-61327348D01*
X44264426Y-62293274D02*
X45230352Y-62552093D01*
X48595000Y-49995057D02*
X47629074Y-49736238D01*
X55855536Y-65399103D02*
X56821462Y-65657922D01*
X60186110Y-53100886D02*
X59220184Y-52842067D01*
X60186110Y-53100886D02*
X59927291Y-54066812D01*
X57080281Y-64691996D02*
X56821462Y-65657922D01*
%TO.C,SW32*%
X144361082Y-113062618D02*
X144102263Y-112096692D01*
X147466911Y-124653728D02*
X147208092Y-123687802D01*
X147466911Y-124653728D02*
X148432837Y-124394909D01*
X145068189Y-111837873D02*
X144102263Y-112096692D01*
X159058021Y-121547899D02*
X160023947Y-121289080D01*
X156659299Y-108732044D02*
X155693373Y-108990863D01*
X156659299Y-108732044D02*
X156918118Y-109697970D01*
X159765128Y-120323154D02*
X160023947Y-121289080D01*
%TO.C,SW21*%
X68583457Y-87444510D02*
X68842276Y-86478584D01*
X65477628Y-99035620D02*
X65736447Y-98069694D01*
X65477628Y-99035620D02*
X66443554Y-99294439D01*
X69808202Y-86737403D02*
X68842276Y-86478584D01*
X77068738Y-102141449D02*
X78034664Y-102400268D01*
X81399312Y-89843232D02*
X80433386Y-89584413D01*
X81399312Y-89843232D02*
X81140493Y-90809158D01*
X78293483Y-101434342D02*
X78034664Y-102400268D01*
%TO.C,SW22*%
X169456573Y-90809158D02*
X169197754Y-89843232D01*
X172562402Y-102400268D02*
X172303583Y-101434342D01*
X172562402Y-102400268D02*
X173528328Y-102141449D01*
X170163680Y-89584413D02*
X169197754Y-89843232D01*
X184153512Y-99294439D02*
X185119438Y-99035620D01*
X181754790Y-86478584D02*
X180788864Y-86737403D01*
X181754790Y-86478584D02*
X182013609Y-87444510D01*
X184860619Y-98069694D02*
X185119438Y-99035620D01*
%TO.C,SW16*%
X165574285Y-76320271D02*
X165315466Y-75354345D01*
X168680114Y-87911381D02*
X168421295Y-86945455D01*
X168680114Y-87911381D02*
X169646040Y-87652562D01*
X166281392Y-75095526D02*
X165315466Y-75354345D01*
X180271224Y-84805552D02*
X181237150Y-84546733D01*
X177872502Y-71989697D02*
X176906576Y-72248516D01*
X177872502Y-71989697D02*
X178131321Y-72955623D01*
X180978331Y-83580807D02*
X181237150Y-84546733D01*
%TO.C,SW12*%
X132714225Y-69595956D02*
X132455406Y-68630030D01*
X135820054Y-81187066D02*
X135561235Y-80221140D01*
X135820054Y-81187066D02*
X136785980Y-80928247D01*
X133421332Y-68371211D02*
X132455406Y-68630030D01*
X147411164Y-78081237D02*
X148377090Y-77822418D01*
X145012442Y-65265382D02*
X144046516Y-65524201D01*
X145012442Y-65265382D02*
X145271261Y-66231308D01*
X148118271Y-76856492D02*
X148377090Y-77822418D01*
%TO.C,SW27*%
X64701175Y-101933397D02*
X64959994Y-100967471D01*
X61595346Y-113524507D02*
X61854165Y-112558581D01*
X61595346Y-113524507D02*
X62561272Y-113783326D01*
X65925920Y-101226290D02*
X64959994Y-100967471D01*
X73186456Y-116630336D02*
X74152382Y-116889155D01*
X77517030Y-104332119D02*
X76551104Y-104073300D01*
X77517030Y-104332119D02*
X77258211Y-105298045D01*
X74411201Y-115923229D02*
X74152382Y-116889155D01*
%TO.C,SW7*%
X90836918Y-62349020D02*
X91095737Y-61383094D01*
X87731089Y-73940130D02*
X87989908Y-72974204D01*
X87731089Y-73940130D02*
X88697015Y-74198949D01*
X92061663Y-61641913D02*
X91095737Y-61383094D01*
X99322199Y-77045959D02*
X100288125Y-77304778D01*
X103652773Y-64747742D02*
X102686847Y-64488923D01*
X103652773Y-64747742D02*
X103393954Y-65713668D01*
X100546944Y-76338852D02*
X100288125Y-77304778D01*
%TO.C,SW11*%
X105325806Y-66231306D02*
X105584625Y-65265380D01*
X102219977Y-77822416D02*
X102478796Y-76856490D01*
X102219977Y-77822416D02*
X103185903Y-78081235D01*
X106550551Y-65524199D02*
X105584625Y-65265380D01*
X113811087Y-80928245D02*
X114777013Y-81187064D01*
X118141661Y-68630028D02*
X117175735Y-68371209D01*
X118141661Y-68630028D02*
X117882842Y-69595954D01*
X115035832Y-80221138D02*
X114777013Y-81187064D01*
%TO.C,SW19*%
X101443520Y-80720194D02*
X101702339Y-79754268D01*
X98337691Y-92311304D02*
X98596510Y-91345378D01*
X98337691Y-92311304D02*
X99303617Y-92570123D01*
X102668265Y-80013087D02*
X101702339Y-79754268D01*
X109928801Y-95417133D02*
X110894727Y-95675952D01*
X114259375Y-83118916D02*
X113293449Y-82860097D01*
X114259375Y-83118916D02*
X114000556Y-84084842D01*
X111153546Y-94710026D02*
X110894727Y-95675952D01*
%TO.C,SW6*%
X161691999Y-61831382D02*
X161433180Y-60865456D01*
X164797828Y-73422492D02*
X164539009Y-72456566D01*
X164797828Y-73422492D02*
X165763754Y-73163673D01*
X162399106Y-60606637D02*
X161433180Y-60865456D01*
X176388938Y-70316663D02*
X177354864Y-70057844D01*
X173990216Y-57500808D02*
X173024290Y-57759627D01*
X173990216Y-57500808D02*
X174249035Y-58466734D01*
X177096045Y-69091918D02*
X177354864Y-70057844D01*
%TO.C,SW25*%
X97561232Y-95209081D02*
X97820051Y-94243155D01*
X94455403Y-106800191D02*
X94714222Y-105834265D01*
X94455403Y-106800191D02*
X95421329Y-107059010D01*
X98785977Y-94501974D02*
X97820051Y-94243155D01*
X106046513Y-109906020D02*
X107012439Y-110164839D01*
X110377087Y-97607803D02*
X109411161Y-97348984D01*
X110377087Y-97607803D02*
X110118268Y-98573729D01*
X107271258Y-109198913D02*
X107012439Y-110164839D01*
%TO.C,SW26*%
X140478797Y-98573729D02*
X140219978Y-97607803D01*
X143584626Y-110164839D02*
X143325807Y-109198913D01*
X143584626Y-110164839D02*
X144550552Y-109906020D01*
X141185904Y-97348984D02*
X140219978Y-97607803D01*
X155175736Y-107059010D02*
X156141662Y-106800191D01*
X152777014Y-94243155D02*
X151811088Y-94501974D01*
X152777014Y-94243155D02*
X153035833Y-95209081D01*
X155882843Y-105834265D02*
X156141662Y-106800191D01*
%TO.C,SW28*%
X173338858Y-105298045D02*
X173080039Y-104332119D01*
X176444687Y-116889155D02*
X176185868Y-115923229D01*
X176444687Y-116889155D02*
X177410613Y-116630336D01*
X174045965Y-104073300D02*
X173080039Y-104332119D01*
X188035797Y-113783326D02*
X189001723Y-113524507D01*
X185637075Y-100967471D02*
X184671149Y-101226290D01*
X185637075Y-100967471D02*
X185895894Y-101933397D01*
X188742904Y-112558581D02*
X189001723Y-113524507D01*
%TO.C,SW29*%
X79190061Y-105815681D02*
X79448880Y-104849755D01*
X76084232Y-117406791D02*
X76343051Y-116440865D01*
X76084232Y-117406791D02*
X77050158Y-117665610D01*
X80414806Y-105108574D02*
X79448880Y-104849755D01*
X87675342Y-120512620D02*
X88641268Y-120771439D01*
X92005916Y-108214403D02*
X91039990Y-107955584D01*
X92005916Y-108214403D02*
X91747097Y-109180329D01*
X88900087Y-119805513D02*
X88641268Y-120771439D01*
%TO.C,SW15*%
X72465745Y-72955622D02*
X72724564Y-71989696D01*
X69359916Y-84546732D02*
X69618735Y-83580806D01*
X69359916Y-84546732D02*
X70325842Y-84805551D01*
X73690490Y-72248515D02*
X72724564Y-71989696D01*
X80951026Y-87652561D02*
X81916952Y-87911380D01*
X85281600Y-75354344D02*
X84315674Y-75095525D01*
X85281600Y-75354344D02*
X85022781Y-76320270D01*
X82175771Y-86945454D02*
X81916952Y-87911380D01*
%TO.C,SW5*%
X76348032Y-58466735D02*
X76606851Y-57500809D01*
X73242203Y-70057845D02*
X73501022Y-69091919D01*
X73242203Y-70057845D02*
X74208129Y-70316664D01*
X77572777Y-57759628D02*
X76606851Y-57500809D01*
X84833313Y-73163674D02*
X85799239Y-73422493D01*
X89163887Y-60865457D02*
X88197961Y-60606638D01*
X89163887Y-60865457D02*
X88905068Y-61831383D01*
X86058058Y-72456567D02*
X85799239Y-73422493D01*
%TD*%
M02*
