%TF.GenerationSoftware,KiCad,Pcbnew,7.0.8*%
%TF.CreationDate,2024-02-21T20:33:02-06:00*%
%TF.ProjectId,rattlemebones32,72617474-6c65-46d6-9562-6f6e65733332,rev?*%
%TF.SameCoordinates,Original*%
%TF.FileFunction,Profile,NP*%
%FSLAX46Y46*%
G04 Gerber Fmt 4.6, Leading zero omitted, Abs format (unit mm)*
G04 Created by KiCad (PCBNEW 7.0.8) date 2024-02-21 20:33:02*
%MOMM*%
%LPD*%
G01*
G04 APERTURE LIST*
%TA.AperFunction,Profile*%
%ADD10C,0.050000*%
%TD*%
G04 APERTURE END LIST*
D10*
X39675062Y-75549379D02*
G75*
G03*
X41089279Y-77998869I1931852J-517637D01*
G01*
X67617558Y-87177651D02*
G75*
G03*
X66203346Y-84728164I-1931823J517653D01*
G01*
X60888267Y-112291725D02*
G75*
G03*
X62302477Y-114741213I1931849J-517639D01*
G01*
X101905438Y-125352796D02*
G75*
G03*
X104354929Y-123938582I517612J1931899D01*
G01*
X109254227Y-111381549D02*
G75*
G03*
X107322380Y-112863907I-16J-1999975D01*
G01*
X143274744Y-112863909D02*
G75*
G03*
X141342892Y-111381545I-1931815J-517588D01*
G01*
X146242193Y-123938580D02*
G75*
G03*
X148691681Y-125352795I1931867J517663D01*
G01*
X188294641Y-114741216D02*
G75*
G03*
X189708855Y-112291724I-517593J1931827D01*
G01*
X184393772Y-84728163D02*
G75*
G03*
X182979560Y-87177655I517655J-1931861D01*
G01*
X209507841Y-77998867D02*
G75*
G03*
X210922056Y-75549379I-517616J1931840D01*
G01*
X204192762Y-50435306D02*
G75*
G03*
X201743272Y-49021093I-1931827J-517596D01*
G01*
X130967382Y-67914884D02*
G75*
G03*
X131485020Y-67846735I-15J2000080D01*
G01*
X119112097Y-67846735D02*
G75*
G03*
X119629736Y-67914884I517649J1931926D01*
G01*
X48853846Y-49021094D02*
G75*
G03*
X46404356Y-50435308I-517640J-1931849D01*
G01*
X66203346Y-84728163D02*
X41089279Y-77998869D01*
X60888263Y-112291724D02*
X67617561Y-87177655D01*
X101905438Y-125352795D02*
X62302477Y-114741214D01*
X107322379Y-112863907D02*
X104354930Y-123938582D01*
X141342892Y-111381545D02*
X109254227Y-111381546D01*
X146242191Y-123938581D02*
X143274744Y-112863909D01*
X188294641Y-114741216D02*
X148691681Y-125352796D01*
X182979559Y-87177655D02*
X189708856Y-112291724D01*
X209507842Y-77998869D02*
X184393772Y-84728163D01*
X204192762Y-50435306D02*
X210922057Y-75549379D01*
X131485020Y-67846735D02*
X201743272Y-49021093D01*
X119629736Y-67914884D02*
X130967382Y-67914885D01*
X48853846Y-49021093D02*
X119112097Y-67846736D01*
X39675060Y-75549378D02*
X46404355Y-50435308D01*
M02*
