%TF.GenerationSoftware,KiCad,Pcbnew,7.0.8*%
%TF.CreationDate,2024-02-21T20:33:01-06:00*%
%TF.ProjectId,rattlemebones32,72617474-6c65-46d6-9562-6f6e65733332,rev?*%
%TF.SameCoordinates,Original*%
%TF.FileFunction,Copper,L1,Top*%
%TF.FilePolarity,Positive*%
%FSLAX46Y46*%
G04 Gerber Fmt 4.6, Leading zero omitted, Abs format (unit mm)*
G04 Created by KiCad (PCBNEW 7.0.8) date 2024-02-21 20:33:01*
%MOMM*%
%LPD*%
G01*
G04 APERTURE LIST*
%TA.AperFunction,ComponentPad*%
%ADD10C,2.500000*%
%TD*%
%TA.AperFunction,ComponentPad*%
%ADD11O,1.000000X1.600000*%
%TD*%
%TA.AperFunction,ComponentPad*%
%ADD12O,1.000000X2.100000*%
%TD*%
%TA.AperFunction,ComponentPad*%
%ADD13C,4.190000*%
%TD*%
%TA.AperFunction,ViaPad*%
%ADD14C,0.800000*%
%TD*%
%TA.AperFunction,Conductor*%
%ADD15C,0.250000*%
%TD*%
G04 APERTURE END LIST*
D10*
%TO.P,SW2,2,2*%
%TO.N,col1*%
X202371413Y-62578225D03*
%TO.P,SW2,1,1*%
%TO.N,Net-(D2-A)*%
X195338172Y-63375736D03*
%TD*%
%TO.P,SW23,1,1*%
%TO.N,Net-(D23-A)*%
X82460839Y-101722760D03*
%TO.P,SW23,2,2*%
%TO.N,col7*%
X88950560Y-104548715D03*
%TD*%
%TO.P,SW24,1,1*%
%TO.N,Net-(D24-A)*%
X159636082Y-104000368D03*
%TO.P,SW24,2,2*%
%TO.N,col4*%
X166669323Y-103202857D03*
%TD*%
%TO.P,SW17,1,1*%
%TO.N,Net-(D17-A)*%
X86343123Y-87233873D03*
%TO.P,SW17,2,2*%
%TO.N,col7*%
X92832844Y-90059828D03*
%TD*%
%TO.P,SW14,2,2*%
%TO.N,col2*%
X191764811Y-80949397D03*
%TO.P,SW14,1,1*%
%TO.N,Net-(D14-A)*%
X184731570Y-81746908D03*
%TD*%
%TO.P,SW18,1,1*%
%TO.N,Net-(D18-A)*%
X155753796Y-89511480D03*
%TO.P,SW18,2,2*%
%TO.N,col4*%
X162787037Y-88713969D03*
%TD*%
%TO.P,SW30,1,1*%
%TO.N,Net-(D30-A)*%
X163518370Y-118489251D03*
%TO.P,SW30,2,2*%
%TO.N,col4*%
X170551611Y-117691740D03*
%TD*%
%TO.P,SW31,1,1*%
%TO.N,Net-(D31-A)*%
X93067440Y-120093931D03*
%TO.P,SW31,2,2*%
%TO.N,col6*%
X99557161Y-122919886D03*
%TD*%
%TO.P,SW4,2,2*%
%TO.N,col2*%
X187882530Y-66460510D03*
%TO.P,SW4,1,1*%
%TO.N,Net-(D4-A)*%
X180849289Y-67258021D03*
%TD*%
%TO.P,SW9,1,1*%
%TO.N,Net-(D9-A)*%
X42876461Y-75587016D03*
%TO.P,SW9,2,2*%
%TO.N,col10*%
X49366182Y-78412971D03*
%TD*%
%TO.P,SW8,1,1*%
%TO.N,Net-(D8-A)*%
X151871513Y-75022589D03*
%TO.P,SW8,2,2*%
%TO.N,col4*%
X158904754Y-74225078D03*
%TD*%
%TO.P,SW3,1,1*%
%TO.N,Net-(D3-A)*%
X61247631Y-64980414D03*
%TO.P,SW3,2,2*%
%TO.N,col9*%
X67737352Y-67806369D03*
%TD*%
%TO.P,SW20,1,1*%
%TO.N,Net-(D20-A)*%
X141264907Y-93393765D03*
%TO.P,SW20,2,2*%
%TO.N,col5*%
X148298148Y-92596254D03*
%TD*%
%TO.P,SW10,1,1*%
%TO.N,Net-(D10-A)*%
X199220458Y-77864619D03*
%TO.P,SW10,2,2*%
%TO.N,col1*%
X206253699Y-77067108D03*
%TD*%
%TO.P,SW13,1,1*%
%TO.N,Net-(D13-A)*%
X57365345Y-79469297D03*
%TO.P,SW13,2,2*%
%TO.N,col9*%
X63855066Y-82295252D03*
%TD*%
%TO.P,SW1,1,1*%
%TO.N,Net-(D1-A)*%
X46758745Y-61098128D03*
%TO.P,SW1,2,2*%
%TO.N,col10*%
X53248466Y-63924083D03*
%TD*%
%TO.P,SW32,1,1*%
%TO.N,Net-(D32-A)*%
X149029481Y-122371541D03*
%TO.P,SW32,2,2*%
%TO.N,col5*%
X156062722Y-121574030D03*
%TD*%
%TO.P,SW21,1,1*%
%TO.N,Net-(D21-A)*%
X67971947Y-97840474D03*
%TO.P,SW21,2,2*%
%TO.N,col8*%
X74461668Y-100666429D03*
%TD*%
%TO.P,SW22,1,1*%
%TO.N,Net-(D22-A)*%
X174124972Y-100118081D03*
%TO.P,SW22,2,2*%
%TO.N,col3*%
X181158213Y-99320570D03*
%TD*%
%TO.P,SW16,1,1*%
%TO.N,Net-(D16-A)*%
X170242684Y-85629194D03*
%TO.P,SW16,2,2*%
%TO.N,col3*%
X177275925Y-84831683D03*
%TD*%
%TO.P,SW12,1,1*%
%TO.N,Net-(D12-A)*%
X137382624Y-78904879D03*
%TO.P,SW12,2,2*%
%TO.N,col5*%
X144415865Y-78107368D03*
%TD*%
%TO.P,SW27,1,1*%
%TO.N,Net-(D27-A)*%
X64089665Y-112329361D03*
%TO.P,SW27,2,2*%
%TO.N,col8*%
X70579386Y-115155316D03*
%TD*%
%TO.P,SW7,1,1*%
%TO.N,Net-(D7-A)*%
X90225408Y-72744984D03*
%TO.P,SW7,2,2*%
%TO.N,col7*%
X96715129Y-75570939D03*
%TD*%
%TO.P,SW11,1,1*%
%TO.N,Net-(D11-A)*%
X104714296Y-76627270D03*
%TO.P,SW11,2,2*%
%TO.N,col6*%
X111204017Y-79453225D03*
%TD*%
%TO.P,SW19,1,1*%
%TO.N,Net-(D19-A)*%
X100832010Y-91116158D03*
%TO.P,SW19,2,2*%
%TO.N,col6*%
X107321731Y-93942113D03*
%TD*%
%TO.P,SW6,1,1*%
%TO.N,Net-(D6-A)*%
X166360398Y-71140305D03*
%TO.P,SW6,2,2*%
%TO.N,col3*%
X173393639Y-70342794D03*
%TD*%
%TO.P,SW25,1,1*%
%TO.N,Net-(D25-A)*%
X96949722Y-105605045D03*
%TO.P,SW25,2,2*%
%TO.N,col6*%
X103439443Y-108431000D03*
%TD*%
%TO.P,SW26,1,1*%
%TO.N,Net-(D26-A)*%
X145147196Y-107882652D03*
%TO.P,SW26,2,2*%
%TO.N,col5*%
X152180437Y-107085141D03*
%TD*%
%TO.P,SW28,1,1*%
%TO.N,Net-(D28-A)*%
X178007257Y-114606968D03*
%TO.P,SW28,2,2*%
%TO.N,col3*%
X185040498Y-113809457D03*
%TD*%
%TO.P,SW29,1,1*%
%TO.N,Net-(D29-A)*%
X78578551Y-116211645D03*
%TO.P,SW29,2,2*%
%TO.N,col7*%
X85068272Y-119037600D03*
%TD*%
%TO.P,SW15,1,1*%
%TO.N,Net-(D15-A)*%
X71854235Y-83351586D03*
%TO.P,SW15,2,2*%
%TO.N,col8*%
X78343956Y-86177541D03*
%TD*%
%TO.P,SW5,1,1*%
%TO.N,Net-(D5-A)*%
X75736522Y-68862699D03*
%TO.P,SW5,2,2*%
%TO.N,col8*%
X82226243Y-71688654D03*
%TD*%
D11*
%TO.P,J1,S1,SHIELD*%
%TO.N,GND*%
X129618657Y-68997826D03*
D12*
X129618657Y-73177826D03*
X120978657Y-73177826D03*
D11*
X120978657Y-68997826D03*
%TD*%
D13*
%TO.P,H12,1,1*%
%TO.N,GND*%
X138426851Y-106362450D03*
%TD*%
%TO.P,H11,1,1*%
%TO.N,GND*%
X112170265Y-106362448D03*
%TD*%
%TO.P,H10,1,1*%
%TO.N,GND*%
X130662280Y-77384675D03*
%TD*%
%TO.P,H9,1,1*%
%TO.N,GND*%
X119934838Y-77384672D03*
%TD*%
%TO.P,H8,1,1*%
%TO.N,GND*%
X171855319Y-103616976D03*
%TD*%
%TO.P,H7,1,1*%
%TO.N,GND*%
X157366430Y-107499261D03*
%TD*%
%TO.P,H6,1,1*%
%TO.N,GND*%
X193068522Y-66874628D03*
%TD*%
%TO.P,H5,1,1*%
%TO.N,GND*%
X149601863Y-78521484D03*
%TD*%
%TO.P,H4,1,1*%
%TO.N,GND*%
X93230688Y-107499259D03*
%TD*%
%TO.P,H3,1,1*%
%TO.N,GND*%
X78741800Y-103616976D03*
%TD*%
%TO.P,H2,1,1*%
%TO.N,GND*%
X100995261Y-78521484D03*
%TD*%
%TO.P,H1,1,1*%
%TO.N,GND*%
X57528597Y-66874629D03*
%TD*%
D14*
%TO.N,col1*%
X201238189Y-54128331D03*
X132786865Y-72987446D03*
X134892092Y-82776114D03*
%TO.N,col2*%
X137341582Y-84190327D03*
X189909305Y-70622487D03*
%TO.N,col3*%
X136571393Y-85179646D03*
X175549829Y-74987735D03*
%TO.N,col4*%
X141588537Y-84585364D03*
X161319760Y-79835946D03*
%TO.N,row2*%
X209347022Y-74731652D03*
X195341098Y-78484528D03*
X180852211Y-82366813D03*
X166363323Y-86249099D03*
X151874436Y-90131385D03*
%TO.N,row1*%
X205818290Y-59630392D03*
X191458812Y-63995640D03*
X176969925Y-67877926D03*
X162481038Y-71760212D03*
X147992150Y-75642497D03*
%TO.N,row3*%
X179743700Y-87840219D03*
X165254811Y-91722505D03*
X150765923Y-95604791D03*
%TO.N,row4*%
X154777621Y-110576640D03*
X188616782Y-111344588D03*
X174127895Y-115226874D03*
X159639007Y-119109159D03*
%TO.N,Net-(D28-A)*%
X188099144Y-109412736D03*
%TO.N,Net-(D30-A)*%
X173480847Y-112812059D03*
%TO.N,Net-(D32-A)*%
X158991960Y-116694345D03*
%TO.N,Net-(D22-A)*%
X184087449Y-94440886D03*
%TO.N,Net-(D24-A)*%
X169598561Y-98323172D03*
%TO.N,Net-(D26-A)*%
X155109674Y-102205458D03*
%TO.N,Net-(D10-A)*%
X208699975Y-72316837D03*
%TO.N,Net-(D14-A)*%
X194340497Y-76682086D03*
%TO.N,Net-(D16-A)*%
X180334573Y-80434962D03*
%TO.N,Net-(D18-A)*%
X165845685Y-84317247D03*
%TO.N,Net-(D20-A)*%
X151356798Y-88199533D03*
%TO.N,GND*%
X164274540Y-74589952D03*
%TO.N,Net-(D2-A)*%
X205300652Y-57698540D03*
%TO.N,Net-(D4-A)*%
X190811765Y-61580826D03*
%TO.N,Net-(D6-A)*%
X176322877Y-65463111D03*
%TO.N,Net-(D8-A)*%
X161833990Y-69345397D03*
%TO.N,Net-(D12-A)*%
X147345103Y-73227683D03*
%TO.N,row3*%
X130343403Y-91810531D03*
%TO.N,RST*%
X133843403Y-92810531D03*
X133843403Y-89488872D03*
%TO.N,row2*%
X130343403Y-90810530D03*
%TO.N,+3.3V*%
X124343403Y-105310531D03*
%TO.N,row4*%
X126843403Y-109822352D03*
%TO.N,+3.3V*%
X125773157Y-85810532D03*
X123824157Y-85810530D03*
X132148657Y-105310532D03*
X122148658Y-105310531D03*
%TO.N,GND*%
X112843403Y-81696185D03*
%TO.N,col10*%
X113206537Y-85862202D03*
X53043122Y-68092510D03*
%TO.N,col9*%
X113592126Y-84845937D03*
X67790828Y-71008869D03*
%TO.N,col8*%
X113841064Y-83865631D03*
X82438322Y-74299226D03*
%TO.N,col6*%
X115678181Y-82804971D03*
X111386902Y-82172764D03*
%TO.N,row3*%
X115327452Y-91052341D03*
X115097461Y-103322351D03*
X108597461Y-103322351D03*
X126097460Y-90822351D03*
%TO.N,row2*%
X126383015Y-89858454D03*
%TO.N,row1*%
X117597460Y-79822351D03*
X127097460Y-80322351D03*
%TO.N,RST*%
X129597461Y-92822350D03*
%TO.N,GND*%
X121097462Y-85322351D03*
X119097460Y-85322350D03*
%TO.N,VBUS*%
X122597462Y-80822351D03*
X120574227Y-80822351D03*
%TO.N,UDP*%
X123597463Y-101322351D03*
X116597460Y-101322351D03*
%TO.N,VBUS*%
X127797460Y-75522353D03*
X122847461Y-75522352D03*
%TO.N,CC2*%
X130247460Y-71672352D03*
X127047460Y-71672349D03*
%TO.N,CC1*%
X124097460Y-71572351D03*
X120347460Y-71572351D03*
%TO.N,row4*%
X107325547Y-110404017D03*
%TO.N,row3*%
X107955358Y-107959348D03*
X93483705Y-104106917D03*
X78994819Y-100224630D03*
%TO.N,row4*%
X104090307Y-122478088D03*
X89601420Y-118595804D03*
X75112534Y-114713518D03*
%TO.N,row2*%
X111854879Y-93500315D03*
X97365992Y-89618030D03*
X82877106Y-85735744D03*
X68388216Y-81853458D03*
X53899331Y-77971173D03*
%TO.N,row1*%
X115719928Y-78981571D03*
X101248277Y-75129142D03*
X86759389Y-71246856D03*
X72270504Y-67364571D03*
X57781616Y-63482284D03*
%TO.N,Net-(D27-A)*%
X74228649Y-113182587D03*
%TO.N,Net-(D29-A)*%
X88717537Y-117064873D03*
%TO.N,Net-(D31-A)*%
X103206426Y-120947159D03*
%TO.N,Net-(D25-A)*%
X107088711Y-106458270D03*
%TO.N,Net-(D23-A)*%
X92599822Y-102575986D03*
%TO.N,Net-(D21-A)*%
X78110936Y-98693700D03*
%TO.N,Net-(D15-A)*%
X81993222Y-84204813D03*
%TO.N,Net-(D17-A)*%
X96482109Y-88087099D03*
%TO.N,Net-(D19-A)*%
X110970995Y-91969383D03*
%TO.N,Net-(D11-A)*%
X114853283Y-77480497D03*
%TO.N,Net-(D7-A)*%
X100364395Y-73598211D03*
%TO.N,Net-(D5-A)*%
X85875506Y-69715924D03*
%TO.N,Net-(D3-A)*%
X71386621Y-65833639D03*
%TO.N,Net-(D13-A)*%
X67504334Y-80322528D03*
%TO.N,Net-(D9-A)*%
X52520245Y-76597957D03*
%TO.N,Net-(D1-A)*%
X56231057Y-61928011D03*
%TD*%
D15*
%TO.N,col1*%
X200877221Y-53919926D02*
X201238189Y-54128331D01*
X133348823Y-72014106D02*
X200877221Y-53919926D01*
X132786865Y-72987446D02*
X133348823Y-72014106D01*
%TO.N,col2*%
X189434873Y-70348573D02*
X189909305Y-70622487D01*
X137341582Y-84190327D02*
X137479523Y-84269967D01*
X137479523Y-84269967D02*
X189434873Y-70348573D01*
%TO.N,col3*%
X136571393Y-85179646D02*
X175251321Y-74815391D01*
X175251321Y-74815391D02*
X175549829Y-74987735D01*
%TO.N,col4*%
X141588537Y-84585364D02*
X160683834Y-79468795D01*
X160683834Y-79468795D02*
X161319760Y-79835946D01*
%TO.N,row2*%
X207284998Y-78421332D02*
X209368646Y-74812350D01*
X195341098Y-78484528D02*
X199052402Y-80627250D01*
X209368646Y-74812350D02*
X209347022Y-74731652D01*
X199052402Y-80627250D02*
X207284998Y-78421332D01*
X193198374Y-82195835D02*
X195341098Y-78484528D01*
X184563518Y-84509538D02*
X193198374Y-82195835D01*
X180852211Y-82366813D02*
X184563518Y-84509538D01*
X178709486Y-86078121D02*
X180852211Y-82366813D01*
X170074631Y-88391823D02*
X178709486Y-86078121D01*
X166363323Y-86249099D02*
X170074631Y-88391823D01*
X164220599Y-89960407D02*
X166363323Y-86249099D01*
X155585743Y-92274109D02*
X164220599Y-89960407D01*
X151874436Y-90131385D02*
X155585743Y-92274109D01*
X147129469Y-91278840D02*
X151727796Y-90046722D01*
X141048887Y-95082207D02*
X145644545Y-93850804D01*
X137427813Y-92991579D02*
X141048887Y-95082207D01*
X151727796Y-90046722D02*
X151874436Y-90131385D01*
X145644545Y-93850804D02*
X147129469Y-91278840D01*
X136843403Y-90810531D02*
X137427813Y-92991579D01*
%TO.N,row1*%
X201609006Y-60758266D02*
X205818290Y-59630392D01*
X199855189Y-63795965D02*
X201609006Y-60758266D01*
X194881826Y-65128574D02*
X199855189Y-63795965D01*
X192456499Y-63728311D02*
X194881826Y-65128574D01*
X191458812Y-63995640D02*
X192456499Y-63728311D01*
X185352355Y-67702413D02*
X186851230Y-65106286D01*
X186851230Y-65106286D02*
X191312175Y-63910979D01*
X191312175Y-63910979D02*
X191458812Y-63995640D01*
X179419415Y-69292140D02*
X185352355Y-67702413D01*
X176969925Y-67877926D02*
X179419415Y-69292140D01*
X172362339Y-68988570D02*
X176823285Y-67793263D01*
X170877415Y-71560534D02*
X172362339Y-68988570D01*
X176823285Y-67793263D02*
X176969925Y-67877926D01*
X164906362Y-73160473D02*
X170877415Y-71560534D01*
X162481038Y-71760212D02*
X164906362Y-73160473D01*
X161868665Y-71406658D02*
X162481038Y-71760212D01*
X156388530Y-75442818D02*
X158142344Y-72405123D01*
X148989840Y-75375167D02*
X151415164Y-76775428D01*
X151415164Y-76775428D02*
X156388530Y-75442818D01*
X158142344Y-72405123D02*
X161868665Y-71406658D01*
X147992150Y-75642497D02*
X148989840Y-75375167D01*
X143384565Y-76753143D02*
X147845513Y-75557836D01*
X147845513Y-75557836D02*
X147992150Y-75642497D01*
X130609812Y-82350208D02*
X141899641Y-79325108D01*
X141899641Y-79325108D02*
X143384565Y-76753143D01*
X127097460Y-80322351D02*
X130609812Y-82350208D01*
%TO.N,row3*%
X165254811Y-91722505D02*
X179743700Y-87840219D01*
X150765923Y-95604791D02*
X165254811Y-91722505D01*
X149883105Y-95095095D02*
X150765923Y-95604791D01*
X139843403Y-97785225D02*
X149883105Y-95095095D01*
%TO.N,row4*%
X154777621Y-110576640D02*
X146555042Y-112779874D01*
X146555042Y-112779874D02*
X141627661Y-109935049D01*
X141627661Y-109935049D02*
X141597463Y-109822350D01*
X186474057Y-115055896D02*
X188616782Y-111344588D01*
X177839202Y-117369598D02*
X186474057Y-115055896D01*
X174127895Y-115226874D02*
X177839202Y-117369598D01*
X159639007Y-119109159D02*
X163350312Y-121251883D01*
X163350312Y-121251883D02*
X171985172Y-118938179D01*
X171985172Y-118938179D02*
X174127895Y-115226874D01*
%TO.N,Net-(D28-A)*%
X187392037Y-110637481D02*
X188099144Y-109412736D01*
X179000933Y-112885871D02*
X187392037Y-110637481D01*
X178007257Y-114606968D02*
X179000933Y-112885871D01*
%TO.N,Net-(D30-A)*%
X164512045Y-116768157D02*
X172420187Y-114649177D01*
X172420187Y-114649177D02*
X173480847Y-112812059D01*
X163518370Y-118489252D02*
X164512045Y-116768157D01*
%TO.N,Net-(D32-A)*%
X153696542Y-120209423D02*
X155128256Y-117729621D01*
X149029481Y-122371541D02*
X149652103Y-121293127D01*
X155128256Y-117729621D02*
X158991960Y-116694345D01*
X149652103Y-121293127D02*
X153696542Y-120209423D01*
%TO.N,Net-(D22-A)*%
X174747594Y-99039668D02*
X179274994Y-97826555D01*
X180706708Y-95346753D02*
X184087449Y-94440886D01*
X174124972Y-100118082D02*
X174747594Y-99039668D01*
X179274994Y-97826555D02*
X180706708Y-95346753D01*
%TO.N,Net-(D24-A)*%
X165498717Y-99421722D02*
X169598561Y-98323172D01*
X163444380Y-102979938D02*
X165498717Y-99421722D01*
X159636082Y-104000368D02*
X163444380Y-102979938D01*
%TO.N,Net-(D26-A)*%
X151245971Y-103240734D02*
X155109674Y-102205458D01*
X149191634Y-106798948D02*
X151245971Y-103240734D01*
X145147196Y-107882652D02*
X149191634Y-106798948D01*
%TO.N,Net-(D10-A)*%
X204370486Y-75573091D02*
X205802197Y-73093294D01*
X205802197Y-73093294D02*
X208699975Y-72316837D01*
X199220458Y-77864620D02*
X199843080Y-76786206D01*
X199843080Y-76786206D02*
X204370486Y-75573091D01*
%TO.N,Net-(D14-A)*%
X190240651Y-77780636D02*
X194340497Y-76682086D01*
X188539868Y-80726478D02*
X190240651Y-77780636D01*
X184731569Y-81746909D02*
X188539868Y-80726478D01*
%TO.N,Net-(D16-A)*%
X179627466Y-81659707D02*
X180334573Y-80434962D01*
X171236360Y-83908097D02*
X179627466Y-81659707D01*
X170242684Y-85629194D02*
X171236360Y-83908097D01*
%TO.N,Net-(D18-A)*%
X162947908Y-85093705D02*
X165845685Y-84317247D01*
X162240801Y-86318449D02*
X162947908Y-85093705D01*
X155753796Y-89511480D02*
X156747472Y-87790383D01*
X156747472Y-87790383D02*
X162240801Y-86318449D01*
%TO.N,Net-(D20-A)*%
X147493094Y-89234809D02*
X151356798Y-88199533D01*
X141887529Y-92315351D02*
X146414935Y-91102237D01*
X146414935Y-91102237D02*
X147493094Y-89234809D01*
X141264907Y-93393765D02*
X141887529Y-92315351D01*
%TO.N,GND*%
X164274540Y-74589952D02*
X193068522Y-66874628D01*
X149601863Y-78521484D02*
X164274540Y-74589952D01*
X157366430Y-107499261D02*
X145775319Y-110605090D01*
X145775319Y-110605090D02*
X138426851Y-106362450D01*
X157366430Y-107499261D02*
X171855319Y-103616976D01*
%TO.N,Net-(D2-A)*%
X201436949Y-58733816D02*
X205300652Y-57698540D01*
X199382612Y-62292032D02*
X201436949Y-58733816D01*
X195338172Y-63375736D02*
X199382612Y-62292032D01*
%TO.N,Net-(D4-A)*%
X184893725Y-66174318D02*
X186948061Y-62616102D01*
X186948061Y-62616102D02*
X190811765Y-61580826D01*
X180849289Y-67258021D02*
X184893725Y-66174318D01*
%TO.N,Net-(D6-A)*%
X172223032Y-66561662D02*
X176322877Y-65463111D01*
X170168697Y-70119875D02*
X172223032Y-66561662D01*
X166360398Y-71140305D02*
X170168697Y-70119875D01*
%TO.N,Net-(D8-A)*%
X157970287Y-70380673D02*
X161833990Y-69345397D01*
X155915952Y-73938885D02*
X157970287Y-70380673D01*
X151871513Y-75022589D02*
X155915952Y-73938885D01*
%TO.N,Net-(D12-A)*%
X141190923Y-77884448D02*
X143245259Y-74326232D01*
X143245259Y-74326232D02*
X147345103Y-73227683D01*
X137382624Y-78904879D02*
X141190923Y-77884448D01*
%TO.N,row3*%
X133868708Y-91810530D02*
X139843403Y-97785225D01*
X130343403Y-91810531D02*
X133868708Y-91810530D01*
%TO.N,RST*%
X133831584Y-92822351D02*
X133843403Y-92810531D01*
X129597461Y-92822350D02*
X133831584Y-92822351D01*
%TO.N,row2*%
X130343403Y-90810530D02*
X136843403Y-90810531D01*
%TO.N,+3.3V*%
X122148658Y-105310531D02*
X124343403Y-105310531D01*
X124343403Y-105310531D02*
X132148657Y-105310532D01*
%TO.N,row4*%
X126843403Y-109822352D02*
X107907211Y-109822351D01*
X107907211Y-109822351D02*
X107325547Y-110404017D01*
X126843403Y-109822352D02*
X141597463Y-109822350D01*
%TO.N,+3.3V*%
X123824157Y-85810530D02*
X125773157Y-85810532D01*
%TO.N,GND*%
X112170265Y-106362448D02*
X138426851Y-106362450D01*
X100995261Y-78521484D02*
X112843403Y-81696185D01*
X112843403Y-81696185D02*
X114058591Y-82021794D01*
%TO.N,col10*%
X113206537Y-85862202D02*
X54169380Y-70043244D01*
X54169380Y-70043244D02*
X53043122Y-68092510D01*
%TO.N,col9*%
X68871149Y-72880042D02*
X67790828Y-71008869D01*
X113592126Y-84845937D02*
X113571950Y-84857585D01*
X113571950Y-84857585D02*
X68871149Y-72880042D01*
%TO.N,col8*%
X113841064Y-83865631D02*
X113133398Y-84274200D01*
X113133398Y-84274200D02*
X83633769Y-76369799D01*
X83633769Y-76369799D02*
X82438322Y-74299226D01*
%TO.N,col6*%
X115678181Y-82804971D02*
X115065809Y-83158524D01*
X115065809Y-83158524D02*
X111386902Y-82172764D01*
%TO.N,row3*%
X126097460Y-90822351D02*
X115557440Y-90822351D01*
X115097461Y-103322351D02*
X108597461Y-103322351D01*
X115557440Y-90822351D02*
X115327452Y-91052341D01*
%TO.N,row2*%
X126383015Y-89858454D02*
X115496739Y-89858454D01*
X115496739Y-89858454D02*
X111854879Y-93500315D01*
%TO.N,row1*%
X127097460Y-80322351D02*
X126597461Y-79822350D01*
X126597461Y-79822350D02*
X117597460Y-79822351D01*
%TO.N,GND*%
X121097462Y-85322351D02*
X119097460Y-85322350D01*
%TO.N,VBUS*%
X120574227Y-80822351D02*
X122597462Y-80822351D01*
%TO.N,UDP*%
X116597460Y-101322351D02*
X123597463Y-101322351D01*
%TO.N,VBUS*%
X122847461Y-75522352D02*
X127797460Y-75522353D01*
%TO.N,CC2*%
X127047460Y-71672349D02*
X130247460Y-71672352D01*
%TO.N,CC1*%
X120347460Y-71572351D02*
X124097460Y-71572351D01*
%TO.N,row3*%
X103283911Y-106707636D02*
X107955358Y-107959348D01*
X95939247Y-107353067D02*
X100192193Y-108492640D01*
X93483705Y-104106917D02*
X94171481Y-104291206D01*
X94171481Y-104291206D02*
X95939247Y-107353067D01*
X100192193Y-108492640D02*
X103283911Y-106707636D01*
X88765168Y-102842588D02*
X93483705Y-104106917D01*
X81185199Y-103011513D02*
X86162575Y-104345197D01*
X78994819Y-100224630D02*
X79682591Y-100408919D01*
X86162575Y-104345197D02*
X88765168Y-102842588D01*
X79682591Y-100408919D02*
X81185199Y-103011513D01*
%TO.N,row4*%
X91846491Y-122484378D02*
X100201735Y-124723159D01*
X100201735Y-124723159D02*
X104090307Y-122478088D01*
X89601420Y-118595804D02*
X91846491Y-122484378D01*
X75112534Y-114713518D02*
X77357605Y-118602092D01*
X85712845Y-120840874D02*
X89601420Y-118595804D01*
X77357605Y-118602092D02*
X85712845Y-120840874D01*
%TO.N,row2*%
X99611062Y-93506606D02*
X107966303Y-95745386D01*
X107966303Y-95745386D02*
X111854879Y-93500315D01*
X97365992Y-89618030D02*
X99611062Y-93506606D01*
X93477414Y-91863101D02*
X97365992Y-89618030D01*
X85122175Y-89624320D02*
X93477414Y-91863101D01*
X82877106Y-85735744D02*
X85122175Y-89624320D01*
X78988529Y-87980814D02*
X82877106Y-85735744D01*
X68388216Y-81853458D02*
X70633290Y-85742035D01*
X70633290Y-85742035D02*
X78988529Y-87980814D01*
X64499643Y-84098528D02*
X68388216Y-81853458D01*
X53899331Y-77971173D02*
X56144401Y-81859748D01*
X56144401Y-81859748D02*
X64499643Y-84098528D01*
%TO.N,row1*%
X101936056Y-75313432D02*
X103910653Y-78733536D01*
X107598521Y-79721698D02*
X111048483Y-77729861D01*
X111048483Y-77729861D02*
X115719928Y-78981571D01*
X103910653Y-78733536D02*
X107598521Y-79721698D01*
X101248277Y-75129142D02*
X101936056Y-75313432D01*
X96418650Y-73835047D02*
X101248277Y-75129142D01*
X93816055Y-75337654D02*
X96418650Y-73835047D01*
X88261997Y-73849448D02*
X93816055Y-75337654D01*
X86759389Y-71246856D02*
X88261997Y-73849448D01*
X73773111Y-69967164D02*
X79327166Y-71455369D01*
X81929760Y-69952761D02*
X86759389Y-71246856D01*
X79327166Y-71455369D02*
X81929760Y-69952761D01*
X72270504Y-67364571D02*
X73773111Y-69967164D01*
X64490102Y-67868008D02*
X67551964Y-66100242D01*
X67551964Y-66100242D02*
X72270504Y-67364571D01*
X60237161Y-66728435D02*
X64490102Y-67868008D01*
X58469392Y-63666574D02*
X60237161Y-66728435D01*
X57781616Y-63482284D02*
X58469392Y-63666574D01*
%TO.N,GND*%
X114453071Y-80549571D02*
X119934838Y-77384672D01*
X114058591Y-82021794D02*
X114453071Y-80549571D01*
X93230688Y-107499259D02*
X105086610Y-110676046D01*
X105086610Y-110676046D02*
X105157568Y-110411233D01*
X105157568Y-110411233D02*
X112170265Y-106362448D01*
X78741800Y-103616976D02*
X93230688Y-107499259D01*
X57528597Y-66874629D02*
X100995261Y-78521484D01*
%TO.N,Net-(D27-A)*%
X73102513Y-113832763D02*
X74228649Y-113182587D01*
X65168077Y-111706739D02*
X73102513Y-113832763D01*
X64089664Y-112329360D02*
X65168077Y-111706739D01*
%TO.N,Net-(D29-A)*%
X84591401Y-115959278D02*
X88717537Y-117064873D01*
X78578549Y-116211644D02*
X82386850Y-117232075D01*
X82386850Y-117232075D02*
X84591401Y-115959278D01*
%TO.N,Net-(D31-A)*%
X99080288Y-119841563D02*
X103206426Y-120947159D01*
X96875741Y-121114362D02*
X99080288Y-119841563D01*
X93067441Y-120093931D02*
X96875741Y-121114362D01*
%TO.N,Net-(D25-A)*%
X102962575Y-105352676D02*
X107088711Y-106458270D01*
X100758020Y-106625475D02*
X102962575Y-105352676D01*
X96949723Y-105605044D02*
X100758020Y-106625475D01*
%TO.N,Net-(D23-A)*%
X88473688Y-101470391D02*
X92599822Y-102575986D01*
X86269135Y-102743191D02*
X88473688Y-101470391D01*
X82460840Y-101722760D02*
X86269135Y-102743191D01*
%TO.N,Net-(D21-A)*%
X76984796Y-99343877D02*
X78110936Y-98693700D01*
X69050363Y-97217851D02*
X76984796Y-99343877D01*
X67971947Y-97840474D02*
X69050363Y-97217851D01*
%TO.N,Net-(D15-A)*%
X80867082Y-84854988D02*
X81993222Y-84204813D01*
X72932649Y-82728964D02*
X80867082Y-84854988D01*
X71854236Y-83351585D02*
X72932649Y-82728964D01*
%TO.N,Net-(D17-A)*%
X90151421Y-88254302D02*
X92355974Y-86981504D01*
X86343121Y-87233873D02*
X90151421Y-88254302D01*
X92355974Y-86981504D02*
X96482109Y-88087099D01*
%TO.N,Net-(D19-A)*%
X101910422Y-90493535D02*
X109844857Y-92619560D01*
X100832009Y-91116157D02*
X101910422Y-90493535D01*
X109844857Y-92619560D02*
X110970995Y-91969383D01*
%TO.N,Net-(D11-A)*%
X110727147Y-76374903D02*
X114853283Y-77480497D01*
X108522594Y-77647701D02*
X110727147Y-76374903D01*
X104714294Y-76627271D02*
X108522594Y-77647701D01*
%TO.N,Net-(D7-A)*%
X94033706Y-73765414D02*
X96238257Y-72492614D01*
X90225407Y-72744983D02*
X94033706Y-73765414D01*
X96238257Y-72492614D02*
X100364395Y-73598211D01*
%TO.N,Net-(D5-A)*%
X81749372Y-68610329D02*
X85875506Y-69715924D01*
X79544819Y-69883129D02*
X81749372Y-68610329D01*
X75736523Y-68862699D02*
X79544819Y-69883129D01*
%TO.N,Net-(D3-A)*%
X67260483Y-64728044D02*
X71386621Y-65833639D01*
X65055932Y-66000843D02*
X67260483Y-64728044D01*
X61247632Y-64980414D02*
X65055932Y-66000843D01*
%TO.N,Net-(D13-A)*%
X66378198Y-80972702D02*
X67504334Y-80322528D01*
X58443760Y-78846677D02*
X66378198Y-80972702D01*
X57365346Y-79469299D02*
X58443760Y-78846677D01*
%TO.N,Net-(D9-A)*%
X48507171Y-77095760D02*
X50368170Y-76021309D01*
X50368170Y-76021309D02*
X52520245Y-76597957D01*
X42876459Y-75587015D02*
X48507171Y-77095760D01*
%TO.N,Net-(D1-A)*%
X54410295Y-61440139D02*
X56231057Y-61928011D01*
X52389455Y-62606870D02*
X54410295Y-61440139D01*
X46758745Y-61098126D02*
X52389455Y-62606870D01*
%TO.N,col2*%
X191764812Y-80949396D02*
X191764811Y-80949396D01*
%TO.N,col7*%
X88950555Y-104548713D02*
X88950558Y-104548713D01*
%TO.N,col1*%
X206253699Y-77067110D02*
X206253700Y-77067111D01*
%TO.N,col4*%
X170551607Y-117691741D02*
X170551609Y-117691743D01*
X166669322Y-103202854D02*
X166669322Y-103202855D01*
%TO.N,col3*%
X181158211Y-99320567D02*
X181158208Y-99320570D01*
%TO.N,col5*%
X152180433Y-107085140D02*
X152180434Y-107085141D01*
X148298148Y-92596251D02*
X148298149Y-92596255D01*
%TO.N,col6*%
X103439442Y-108431000D02*
X103439442Y-108431000D01*
%TO.N,col4*%
X162787035Y-88713966D02*
X162787037Y-88713967D01*
%TO.N,col8*%
X74461671Y-100666426D02*
X74461670Y-100666430D01*
%TO.N,col3*%
X185040495Y-113809457D02*
X185040497Y-113809456D01*
%TO.N,col5*%
X156062719Y-121574025D02*
X156062723Y-121574029D01*
%TO.N,col3*%
X177275923Y-84831682D02*
X177275923Y-84831682D01*
%TO.N,col10*%
X53248467Y-63924082D02*
X53248467Y-63924082D01*
%TD*%
M02*
