<?xml version="1.0" standalone="no"?>
 <!DOCTYPE svg PUBLIC "-//W3C//DTD SVG 1.1//EN" 
 "http://www.w3.org/Graphics/SVG/1.1/DTD/svg11.dtd"> 
<svg
  xmlns:svg="http://www.w3.org/2000/svg"
  xmlns="http://www.w3.org/2000/svg"
  xmlns:xlink="http://www.w3.org/1999/xlink"
  version="1.1"
  width="297.0022mm" height="210.0072mm" viewBox="0.0000 0.0000 297.0022 210.0072">
<title>SVG Image created as rattlemebones32-PTH-drl-drl_map.svg date 2024/02/21 20:33:03 </title>
  <desc>Image generated by PCBNEW </desc>
<g style="fill:#000000; fill-opacity:1.0000;stroke:#000000; stroke-opacity:1.0000;
stroke-linecap:round; stroke-linejoin:round;"
 transform="translate(0 0) scale(1 1)">
</g>
<g style="fill:#000000; fill-opacity:0.0; 
stroke:#000000; stroke-width:0.0000; stroke-opacity:1; 
stroke-linecap:round; stroke-linejoin:round;">
</g>
<g style="fill:#000000; fill-opacity:0.0; 
stroke:#000000; stroke-width:0.0758; stroke-opacity:1; 
stroke-linecap:round; stroke-linejoin:round;">
<path d="M18.6925 45.3592 A3.0321 3.0321 0.0 0 0 20.8365 49.0727" />
<path d="M61.0544 62.9881 A3.0320 3.0320 0.0 0 0 58.9104 59.2746" />
<path d="M50.8525 101.0620 A3.0321 3.0321 0.0 0 0 52.9965 104.7755" />
<path d="M113.0362 120.8631 A3.0321 3.0321 0.0 0 0 116.7497 118.7191" />
<path d="M124.1773 99.6821 A3.0320 3.0320 0.0 0 0 121.2485 101.9295" />
<path d="M175.7537 101.9295 A3.0320 3.0320 0.0 0 0 172.8249 99.6821" />
<path d="M180.2525 118.7191 A3.0321 3.0321 0.0 0 0 183.9660 120.8631" />
<path d="M244.0057 104.7755 A3.0320 3.0320 0.0 0 0 246.1497 101.0620" />
<path d="M238.0918 59.2746 A3.0321 3.0321 0.0 0 0 235.9478 62.9881" />
<path d="M276.1657 49.0727 A3.0321 3.0321 0.0 0 0 278.3097 45.3592" />
<path d="M268.1078 7.2852 A3.0320 3.0320 0.0 0 0 264.3943 5.1412" />
<path d="M157.0953 33.7850 A3.0322 3.0322 0.0 0 0 157.8800 33.6816" />
<path d="M139.1222 33.6816 A3.0322 3.0322 0.0 0 0 139.9069 33.7850" />
<path d="M32.6079 5.1412 A3.0321 3.0321 0.0 0 0 28.8944 7.2852" />
<path d="M58.9104 59.2746
L20.8365 49.0727
" />
<path d="M50.8525 101.0620
L61.0544 62.9881
" />
<path d="M113.0362 120.8631
L52.9965 104.7755
" />
<path d="M121.2485 101.9295
L116.7497 118.7191
" />
<path d="M172.8249 99.6821
L124.1773 99.6821
" />
<path d="M180.2525 118.7191
L175.7537 101.9295
" />
<path d="M244.0057 104.7755
L183.9660 120.8631
" />
<path d="M235.9478 62.9881
L246.1497 101.0620
" />
<path d="M276.1657 49.0727
L238.0918 59.2746
" />
<path d="M268.1078 7.2852
L278.3097 45.3592
" />
<path d="M157.8800 33.6816
L264.3943 5.1412
" />
<path d="M139.9069 33.7850
L157.0953 33.7850
" />
<path d="M32.6079 5.1412
L139.1222 33.6816
" />
<path d="M18.6925 45.3592
L28.8944 7.2852
" />
</g>
<g style="fill:#000000; fill-opacity:0.0; 
stroke:#000000; stroke-width:0.3032; stroke-opacity:1; 
stroke-linecap:round; stroke-linejoin:round;">
</g>
<g style="fill:#000000; fill-opacity:0.0; 
stroke:#000000; stroke-width:0.0606; stroke-opacity:1; 
stroke-linecap:round; stroke-linejoin:round;">
<path d="M37.8631 46.6456
L38.4695 47.2521
" />
<path d="M38.4695 46.6456
L37.8631 47.2521
" />
<path d="M38.6558 33.7510
L39.2622 34.3575
" />
<path d="M39.2622 33.7510
L38.6558 34.3575
" />
<path d="M39.9538 48.7275
L40.5602 49.3339
" />
<path d="M40.5602 48.7275
L39.9538 49.3339
" />
<path d="M43.4888 24.4054
L44.0952 25.0118
" />
<path d="M44.0952 24.4054
L43.4888 25.0118
" />
<path d="M45.8395 26.7618
L46.4459 27.3682
" />
<path d="M46.4459 26.7618
L45.8395 27.3682
" />
<path d="M60.5796 52.2922
L61.1860 52.8987
" />
<path d="M61.1860 52.2922
L60.5796 52.8987
" />
<path d="M61.0139 38.1724
L61.6203 38.7788
" />
<path d="M61.6203 38.1724
L61.0139 38.7788
" />
<path d="M61.9196 54.6132
L62.5260 55.2196
" />
<path d="M62.5260 54.6132
L61.9196 55.2196
" />
<path d="M66.4653 30.3265
L67.0717 30.9329
" />
<path d="M67.0717 30.3265
L66.4653 30.9329
" />
<path d="M67.8053 32.6475
L68.4117 33.2539
" />
<path d="M68.4117 32.6475
L67.8053 33.2539
" />
<path d="M70.7739 102.1094
L71.3803 102.7158
" />
<path d="M71.3803 102.1094
L70.7739 102.7158
" />
<path d="M72.1139 104.4303
L72.7203 105.0368
" />
<path d="M72.7203 104.4303
L72.1139 105.0368
" />
<path d="M76.6596 80.1437
L77.2660 80.7501
" />
<path d="M77.2660 80.1437
L76.6596 80.7501
" />
<path d="M77.9996 82.4646
L78.6060 83.0710
" />
<path d="M78.6060 82.4646
L77.9996 83.0710
" />
<path d="M82.5453 58.1779
L83.1517 58.7843
" />
<path d="M83.1517 58.1779
L82.5453 58.7843
" />
<path d="M83.2201 43.1607
L83.8265 43.7671
" />
<path d="M83.8265 43.1607
L83.2201 43.7671
" />
<path d="M83.8853 60.4989
L84.4917 61.1053
" />
<path d="M84.4917 60.4989
L83.8853 61.1053
" />
<path d="M88.4310 36.2122
L89.0374 36.8186
" />
<path d="M89.0374 36.2122
L88.4310 36.8186
" />
<path d="M89.7710 38.5332
L90.3774 39.1396
" />
<path d="M90.3774 38.5332
L89.7710 39.1396
" />
<path d="M92.7396 107.9951
L93.3460 108.6015
" />
<path d="M93.3460 107.9951
L92.7396 108.6015
" />
<path d="M94.0796 110.3160
L94.6860 110.9225
" />
<path d="M94.6860 110.3160
L94.0796 110.9225
" />
<path d="M98.6253 86.0294
L99.2317 86.6358
" />
<path d="M99.2317 86.0294
L98.6253 86.6358
" />
<path d="M99.9653 88.3503
L100.5717 88.9567
" />
<path d="M100.5717 88.3503
L99.9653 88.9567
" />
<path d="M104.5110 64.0636
L105.1174 64.6700
" />
<path d="M105.1174 64.0636
L104.5110 64.6700
" />
<path d="M105.8510 66.3846
L106.4574 66.9910
" />
<path d="M106.4574 66.3846
L105.8510 66.9910
" />
<path d="M110.3967 42.0979
L111.0031 42.7043
" />
<path d="M111.0031 42.0979
L110.3967 42.7043
" />
<path d="M111.7367 44.4189
L112.3431 45.0253
" />
<path d="M112.3431 44.4189
L111.7367 45.0253
" />
<path d="M114.7053 113.8808
L115.3118 114.4872
" />
<path d="M115.3118 113.8808
L114.7053 114.4872
" />
<path d="M116.0453 116.2017
L116.6518 116.8081
" />
<path d="M116.6518 116.2017
L116.0453 116.8081
" />
<path d="M120.5910 91.9151
L121.1975 92.5215
" />
<path d="M121.1975 91.9151
L120.5910 92.5215
" />
<path d="M120.9501 97.8970
L121.5565 98.5034
" />
<path d="M121.5565 97.8970
L120.9501 98.5034
" />
<path d="M121.9049 94.1907
L122.5113 94.7972
" />
<path d="M122.5113 94.1907
L121.9049 94.7972
" />
<path d="M122.8784 87.1609
L123.4848 87.7673
" />
<path d="M123.4848 87.1609
L122.8784 87.7673
" />
<path d="M126.4767 69.9493
L127.0832 70.5557
" />
<path d="M127.0832 69.9493
L126.4767 70.5557
" />
<path d="M127.1073 55.0973
L127.7137 55.7037
" />
<path d="M127.7137 55.0973
L127.1073 55.7037
" />
<path d="M127.8167 72.2703
L128.4232 72.8767
" />
<path d="M128.4232 72.2703
L127.8167 72.8767
" />
<path d="M129.3154 54.3748
L129.9218 54.9812
" />
<path d="M129.9218 54.3748
L129.3154 54.9812
" />
<path d="M129.8659 60.6906
L130.4723 61.2970
" />
<path d="M130.4723 60.6906
L129.8659 61.2970
" />
<path d="M130.4505 59.1499
L131.0569 59.7563
" />
<path d="M131.0569 59.1499
L130.4505 59.7563
" />
<path d="M130.8279 57.6637
L131.4343 58.2701
" />
<path d="M131.4343 57.6637
L130.8279 58.2701
" />
<path d="M132.3624 47.9836
L132.9689 48.5900
" />
<path d="M132.9689 47.9836
L132.3624 48.5900
" />
<path d="M132.7326 87.1609
L133.3390 87.7673
" />
<path d="M133.3390 87.1609
L132.7326 87.7673
" />
<path d="M133.0813 68.5591
L133.6877 69.1655
" />
<path d="M133.6877 68.5591
L133.0813 69.1655
" />
<path d="M133.6130 56.0557
L134.2194 56.6621
" />
<path d="M134.2194 56.0557
L133.6130 56.6621
" />
<path d="M133.6763 50.2593
L134.2827 50.8657
" />
<path d="M134.2827 50.2593
L133.6763 50.8657
" />
<path d="M135.0067 84.1288
L135.6131 84.7352
" />
<path d="M135.6131 84.1288
L135.0067 84.7352
" />
<path d="M136.5227 51.5339
L137.1291 52.1404
" />
<path d="M137.1291 51.5339
L136.5227 52.1404
" />
<path d="M138.7968 59.8722
L139.4032 60.4786
" />
<path d="M139.4032 59.8722
L138.7968 60.4786
" />
<path d="M140.6918 39.0266
L141.2982 39.6330
" />
<path d="M141.2982 39.0266
L140.6918 39.6330
" />
<path d="M141.0356 53.0500
L141.6420 53.6564
" />
<path d="M141.6420 53.0500
L141.0356 53.6564
" />
<path d="M141.8289 59.8722
L142.4353 60.4786
" />
<path d="M142.4353 59.8722
L141.8289 60.4786
" />
<path d="M143.4225 90.1750
L144.0289 90.7815
" />
<path d="M144.0289 90.1750
L143.4225 90.7815
" />
<path d="M144.1029 53.0500
L144.7093 53.6564
" />
<path d="M144.7093 53.0500
L144.1029 53.6564
" />
<path d="M144.4819 45.0150
L145.0883 45.6214
" />
<path d="M145.0883 45.0150
L144.4819 45.6214
" />
<path d="M145.6190 84.1288
L146.2254 84.7352
" />
<path d="M146.2254 84.1288
L145.6190 84.7352
" />
<path d="M145.9626 60.6123
L146.5691 61.2187
" />
<path d="M146.5691 60.6123
L145.9626 61.2187
" />
<path d="M146.3770 39.0266
L146.9834 39.6330
" />
<path d="M146.9834 39.0266
L146.3770 39.6330
" />
<path d="M146.7498 90.1750
L147.3563 90.7815
" />
<path d="M147.3563 90.1750
L146.7498 90.7815
" />
<path d="M148.9174 60.6123
L149.5238 61.2187
" />
<path d="M149.5238 60.6123
L148.9174 61.2187
" />
<path d="M149.4091 68.2104
L150.0155 68.8168
" />
<path d="M150.0155 68.2104
L149.4091 68.8168
" />
<path d="M149.8420 66.7491
L150.4484 67.3555
" />
<path d="M150.4484 66.7491
L149.8420 67.3555
" />
<path d="M150.5399 97.0151
L151.1463 97.6216
" />
<path d="M151.1463 97.0151
L150.5399 97.6216
" />
<path d="M150.8493 39.1782
L151.4557 39.7846
" />
<path d="M151.4557 39.1782
L150.8493 39.7846
" />
<path d="M150.9251 52.2920
L151.5315 52.8984
" />
<path d="M151.5315 52.2920
L150.9251 52.8984
" />
<path d="M151.9863 45.0150
L152.5927 45.6214
" />
<path d="M152.5927 45.0150
L151.9863 45.6214
" />
<path d="M154.7152 71.2425
L155.3216 71.8489
" />
<path d="M155.3216 71.2425
L154.7152 71.8489
" />
<path d="M155.7006 39.1782
L156.3070 39.7846
" />
<path d="M156.3070 39.1782
L155.7006 39.7846
" />
<path d="M155.8461 68.1925
L156.4525 68.7989
" />
<path d="M156.4525 68.1925
L155.8461 68.7989
" />
<path d="M155.8461 69.7085
L156.4525 70.3149
" />
<path d="M156.4525 69.7085
L155.8461 70.3149
" />
<path d="M158.5829 90.1750
L159.1893 90.7815
" />
<path d="M159.1893 90.1750
L158.5829 90.7815
" />
<path d="M159.5505 41.1720
L160.1569 41.7784
" />
<path d="M160.1569 41.1720
L159.5505 41.7784
" />
<path d="M161.1522 66.1888
L161.7586 66.7952
" />
<path d="M161.7586 66.1888
L161.1522 66.7952
" />
<path d="M161.1522 71.2245
L161.7586 71.8310
" />
<path d="M161.7586 71.2245
L161.1522 71.8310
" />
<path d="M162.7421 56.0120
L163.3485 56.6184
" />
<path d="M163.3485 56.0120
L162.7421 56.6184
" />
<path d="M165.2880 59.6558
L165.8944 60.2622
" />
<path d="M165.8944 59.6558
L165.2880 60.2622
" />
<path d="M166.4556 58.1560
L167.0620 58.7624
" />
<path d="M167.0620 58.1560
L166.4556 58.7624
" />
<path d="M172.8941 58.7549
L173.5006 59.3613
" />
<path d="M173.5006 58.7549
L172.8941 59.3613
" />
<path d="M181.6213 41.5362
L182.2277 42.1426
" />
<path d="M182.2277 41.5362
L181.6213 42.1426
" />
<path d="M182.6023 45.1971
L183.2087 45.8035
" />
<path d="M183.2087 45.1971
L182.6023 45.8035
" />
<path d="M186.8074 75.4608
L187.4138 76.0672
" />
<path d="M187.4138 75.4608
L186.8074 76.0672
" />
<path d="M187.7032 64.2341
L188.3096 64.8405
" />
<path d="M188.3096 64.2341
L187.7032 64.8405
" />
<path d="M188.4880 67.1629
L189.0944 67.7693
" />
<path d="M189.0944 67.1629
L188.4880 67.7693
" />
<path d="M192.8893 98.1587
L193.4957 98.7651
" />
<path d="M193.4957 98.1587
L192.8893 98.7651
" />
<path d="M193.3927 85.4676
L193.9991 86.0740
" />
<path d="M193.9991 85.4676
L193.3927 86.0740
" />
<path d="M199.2784 107.4333
L199.8848 108.0398
" />
<path d="M199.8848 107.4333
L199.2784 108.0398
" />
<path d="M200.2594 111.0943
L200.8658 111.7007
" />
<path d="M200.8658 111.0943
L200.2594 111.7007
" />
<path d="M202.8075 51.5546
L203.4139 52.1610
" />
<path d="M203.4139 51.5546
L202.8075 52.1610
" />
<path d="M203.5870 35.6505
L204.1935 36.2569
" />
<path d="M204.1935 35.6505
L203.5870 36.2569
" />
<path d="M204.5680 39.3114
L205.1744 39.9178
" />
<path d="M205.1744 39.3114
L204.5680 39.9178
" />
<path d="M207.2870 43.6014
L207.8934 44.2078
" />
<path d="M207.8934 43.6014
L207.2870 44.2078
" />
<path d="M208.7731 69.5751
L209.3796 70.1815
" />
<path d="M209.3796 69.5751
L208.7731 70.1815
" />
<path d="M209.6689 58.3484
L210.2754 58.9548
" />
<path d="M210.2754 58.3484
L209.6689 58.9548
" />
<path d="M210.4537 61.2772
L211.0601 61.8836
" />
<path d="M211.0601 61.2772
L210.4537 61.8836
" />
<path d="M215.3584 79.5819
L215.9649 80.1883
" />
<path d="M215.9649 79.5819
L215.3584 80.1883
" />
<path d="M221.2441 101.5477
L221.8506 102.1541
" />
<path d="M221.8506 101.5477
L221.2441 102.1541
" />
<path d="M222.2251 105.2086
L222.8315 105.8150
" />
<path d="M222.8315 105.2086
L222.2251 105.8150
" />
<path d="M224.3808 44.2045
L224.9872 44.8109
" />
<path d="M224.9872 44.2045
L224.3808 44.8109
" />
<path d="M225.5528 29.7648
L226.1592 30.3712
" />
<path d="M226.1592 29.7648
L225.5528 30.3712
" />
<path d="M226.5337 33.4257
L227.1401 34.0321
" />
<path d="M227.1401 33.4257
L226.5337 34.0321
" />
<path d="M230.7389 63.6894
L231.3453 64.2958
" />
<path d="M231.3453 63.6894
L230.7389 64.2958
" />
<path d="M231.6347 52.4627
L232.2411 53.0691
" />
<path d="M232.2411 52.4627
L231.6347 53.0691
" />
<path d="M232.4194 55.3915
L233.0258 55.9979
" />
<path d="M233.0258 55.3915
L232.4194 55.9979
" />
<path d="M237.3242 73.6962
L237.9306 74.3026
" />
<path d="M237.9306 73.6962
L237.3242 74.3026
" />
<path d="M243.4061 96.3941
L244.0125 97.0006
" />
<path d="M244.0125 96.3941
L243.4061 97.0006
" />
<path d="M244.1908 99.3229
L244.7972 99.9293
" />
<path d="M244.7972 99.3229
L244.1908 99.9293
" />
<path d="M246.1503 37.5866
L246.7568 38.1930
" />
<path d="M246.7568 37.5866
L246.1503 38.1930
" />
<path d="M247.5185 23.8791
L248.1249 24.4855
" />
<path d="M248.1249 23.8791
L247.5185 24.4855
" />
<path d="M248.4995 27.5400
L249.1059 28.1464
" />
<path d="M249.1059 27.5400
L248.4995 28.1464
" />
<path d="M252.8682 46.7732
L253.4746 47.3796
" />
<path d="M253.4746 46.7732
L252.8682 47.3796
" />
<path d="M254.3852 49.5058
L254.9916 50.1122
" />
<path d="M254.9916 49.5058
L254.3852 50.1122
" />
<path d="M263.3254 12.5808
L263.9318 13.1872
" />
<path d="M263.9318 12.5808
L263.3254 13.1872
" />
<path d="M269.4842 17.9934
L270.0906 18.5998
" />
<path d="M270.0906 17.9934
L269.4842 18.5998
" />
<path d="M270.2690 20.9221
L270.8754 21.5286
" />
<path d="M270.8754 20.9221
L270.2690 21.5286
" />
<path d="M274.6377 40.1553
L275.2442 40.7617
" />
<path d="M275.2442 40.1553
L274.6377 40.7617
" />
<path d="M275.6187 43.8162
L276.2251 44.4227
" />
<path d="M276.2251 43.8162
L275.6187 44.4227
" />
</g>
<g style="fill:#000000; fill-opacity:0.0; 
stroke:#000000; stroke-width:0.0910; stroke-opacity:1; 
stroke-linecap:round; stroke-linejoin:round;">
<circle cx="141.9520" cy="35.4267" r="0.4548" /> 
</g>
<g style="fill:#000000; fill-opacity:0.0; 
stroke:#000000; stroke-width:0.3032; stroke-opacity:1; 
stroke-linecap:round; stroke-linejoin:round;">
<path d="M141.4971 34.9719
L141.4971 35.8816
" />
<path d="M141.4971 35.8816 A0.4548 0.4548 0.0 0 0 142.4068 35.8816" />
<path d="M142.4068 35.8816
L142.4068 34.9719
" />
<path d="M142.4068 34.9719 A0.4548 0.4548 0.0 0 0 141.4971 34.9719" />
</g>
<g style="fill:#000000; fill-opacity:0.0; 
stroke:#000000; stroke-width:0.0910; stroke-opacity:1; 
stroke-linecap:round; stroke-linejoin:round;">
<circle cx="141.9520" cy="41.7638" r="0.4548" /> 
</g>
<g style="fill:#000000; fill-opacity:0.0; 
stroke:#000000; stroke-width:0.3032; stroke-opacity:1; 
stroke-linecap:round; stroke-linejoin:round;">
<path d="M141.4971 40.9300
L141.4971 42.5976
" />
<path d="M141.4971 42.5976 A0.4548 0.4548 0.0 0 0 142.4068 42.5976" />
<path d="M142.4068 42.5976
L142.4068 40.9300
" />
<path d="M142.4068 40.9300 A0.4548 0.4548 0.0 0 0 141.4971 40.9300" />
</g>
<g style="fill:#000000; fill-opacity:0.0; 
stroke:#000000; stroke-width:0.0910; stroke-opacity:1; 
stroke-linecap:round; stroke-linejoin:round;">
<circle cx="155.0505" cy="35.4267" r="0.4548" /> 
</g>
<g style="fill:#000000; fill-opacity:0.0; 
stroke:#000000; stroke-width:0.3032; stroke-opacity:1; 
stroke-linecap:round; stroke-linejoin:round;">
<path d="M154.5957 34.9719
L154.5957 35.8816
" />
<path d="M154.5957 35.8816 A0.4548 0.4548 0.0 0 0 155.5053 35.8816" />
<path d="M155.5053 35.8816
L155.5053 34.9719
" />
<path d="M155.5053 34.9719 A0.4548 0.4548 0.0 0 0 154.5957 34.9719" />
</g>
<g style="fill:#000000; fill-opacity:0.0; 
stroke:#000000; stroke-width:0.0910; stroke-opacity:1; 
stroke-linecap:round; stroke-linejoin:round;">
<circle cx="155.0505" cy="41.7638" r="0.4548" /> 
</g>
<g style="fill:#000000; fill-opacity:0.0; 
stroke:#000000; stroke-width:0.3032; stroke-opacity:1; 
stroke-linecap:round; stroke-linejoin:round;">
<path d="M154.5957 40.9300
L154.5957 42.5976
" />
<path d="M154.5957 42.5976 A0.4548 0.4548 0.0 0 0 155.5053 42.5976" />
<path d="M155.5053 42.5976
L155.5053 40.9300
" />
<path d="M155.5053 40.9300 A0.4548 0.4548 0.0 0 0 154.5957 40.9300" />
</g>
<g style="fill:#000000; fill-opacity:0.0; 
stroke:#000000; stroke-width:0.2274; stroke-opacity:1; 
stroke-linecap:round; stroke-linejoin:round;">
<path d="M23.5459 44.2792
L23.5459 46.5532
" />
<path d="M22.4089 45.4162
L24.6830 45.4162
" />
<path d="M29.4316 22.3135
L29.4316 24.5875
" />
<path d="M28.2946 23.4505
L30.5687 23.4505
" />
<path d="M33.3846 48.5634
L33.3846 50.8375
" />
<path d="M32.2476 49.7005
L34.5216 49.7005
" />
<path d="M39.2703 26.5977
L39.2703 28.8718
" />
<path d="M38.1333 27.7348
L40.4073 27.7348
" />
<path d="M45.5117 50.1649
L45.5117 52.4389
" />
<path d="M44.3746 51.3019
L46.6487 51.3019
" />
<path d="M51.3974 28.1992
L51.3974 30.4732
" />
<path d="M50.2603 29.3362
L52.5344 29.3362
" />
<path d="M55.3503 54.4491
L55.3503 56.7232
" />
<path d="M54.2133 55.5862
L56.4874 55.5862
" />
<path d="M55.7060 99.9820
L55.7060 102.2561
" />
<path d="M54.5690 101.1191
L56.8430 101.1191
" />
<path d="M61.2360 32.4834
L61.2360 34.7575
" />
<path d="M60.0990 33.6205
L62.3731 33.6205
" />
<path d="M61.5917 78.0163
L61.5917 80.2904
" />
<path d="M60.4547 79.1533
L62.7287 79.1533
" />
<path d="M65.5447 104.2663
L65.5447 106.5404
" />
<path d="M64.4076 105.4033
L66.6817 105.4033
" />
<path d="M67.4774 56.0506
L67.4774 58.3246
" />
<path d="M66.3404 57.1876
L68.6144 57.1876
" />
<path d="M71.4304 82.3006
L71.4304 84.5746
" />
<path d="M70.2933 83.4376
L72.5674 83.4376
" />
<path d="M73.3631 34.0849
L73.3631 36.3589
" />
<path d="M72.2261 35.2219
L74.5001 35.2219
" />
<path d="M77.3161 60.3348
L77.3161 62.6089
" />
<path d="M76.1790 61.4719
L78.4531 61.4719
" />
<path d="M77.6717 105.8677
L77.6717 108.1418
" />
<path d="M76.5347 107.0048
L78.8087 107.0048
" />
<path d="M83.2018 38.3691
L83.2018 40.6432
" />
<path d="M82.0647 39.5061
L84.3388 39.5061
" />
<path d="M83.5574 83.9020
L83.5574 86.1761
" />
<path d="M82.4204 85.0390
L84.6944 85.0390
" />
<path d="M87.5104 110.1520
L87.5104 112.4261
" />
<path d="M86.3734 111.2890
L88.6474 111.2890
" />
<path d="M89.4431 61.9363
L89.4431 64.2103
" />
<path d="M88.3061 63.0733
L90.5801 63.0733
" />
<path d="M93.3961 88.1863
L93.3961 90.4603
" />
<path d="M92.2591 89.3233
L94.5331 89.3233
" />
<path d="M95.3288 39.9706
L95.3288 42.2446
" />
<path d="M94.1918 41.1076
L96.4658 41.1076
" />
<path d="M99.2818 66.2205
L99.2818 68.4946
" />
<path d="M98.1448 67.3576
L100.4188 67.3576
" />
<path d="M99.6374 111.7534
L99.6374 114.0275
" />
<path d="M98.5004 112.8905
L100.7745 112.8905
" />
<path d="M105.1675 44.2548
L105.1675 46.5289
" />
<path d="M104.0305 45.3918
L106.3045 45.3918
" />
<path d="M105.5231 89.7877
L105.5231 92.0618
" />
<path d="M104.3861 90.9247
L106.6602 90.9247
" />
<path d="M109.4761 116.0377
L109.4761 118.3118
" />
<path d="M108.3391 117.1747
L110.6131 117.1747
" />
<path d="M111.4088 67.8220
L111.4088 70.0960
" />
<path d="M110.2718 68.9590
L112.5459 68.9590
" />
<path d="M115.3618 94.0720
L115.3618 96.3460
" />
<path d="M114.2248 95.2090
L116.4988 95.2090
" />
<path d="M117.2945 45.8563
L117.2945 48.1303
" />
<path d="M116.1575 46.9933
L118.4316 46.9933
" />
<path d="M121.2475 72.1062
L121.2475 74.3803
" />
<path d="M120.1105 73.2433
L122.3845 73.2433
" />
<path d="M127.1332 50.1405
L127.1332 52.4146
" />
<path d="M125.9962 51.2775
L128.2702 51.2775
" />
<path d="M166.8210 49.3092
L166.8210 51.5833
" />
<path d="M165.6840 50.4462
L167.9580 50.4462
" />
<path d="M172.7067 71.2749
L172.7067 73.5490
" />
<path d="M171.5697 72.4120
L173.8437 72.4120
" />
<path d="M177.4837 48.1001
L177.4837 50.3742
" />
<path d="M176.3467 49.2372
L178.6207 49.2372
" />
<path d="M178.5924 93.2407
L178.5924 95.5147
" />
<path d="M177.4554 94.3777
L179.7294 94.3777
" />
<path d="M183.3694 70.0659
L183.3694 72.3399
" />
<path d="M182.2324 71.2029
L184.5064 71.2029
" />
<path d="M184.4781 115.2064
L184.4781 117.4804
" />
<path d="M183.3411 116.3434
L185.6151 116.3434
" />
<path d="M188.7867 43.4235
L188.7867 45.6976
" />
<path d="M187.6497 44.5605
L189.9238 44.5605
" />
<path d="M189.2551 92.0316
L189.2551 94.3057
" />
<path d="M188.1181 93.1686
L190.3921 93.1686
" />
<path d="M194.6724 65.3892
L194.6724 67.6633
" />
<path d="M193.5354 66.5263
L195.8095 66.5263
" />
<path d="M195.1408 113.9973
L195.1408 116.2714
" />
<path d="M194.0038 115.1344
L196.2778 115.1344
" />
<path d="M199.4494 42.2144
L199.4494 44.4885
" />
<path d="M198.3124 43.3515
L200.5864 43.3515
" />
<path d="M200.5581 87.3550
L200.5581 89.6290
" />
<path d="M199.4211 88.4920
L201.6952 88.4920
" />
<path d="M205.3351 64.1802
L205.3351 66.4542
" />
<path d="M204.1981 65.3172
L206.4721 65.3172
" />
<path d="M206.4438 109.3207
L206.4438 111.5947
" />
<path d="M205.3068 110.4577
L207.5809 110.4577
" />
<path d="M210.7525 37.5378
L210.7525 39.8119
" />
<path d="M209.6154 38.6748
L211.8895 38.6748
" />
<path d="M211.2208 86.1459
L211.2208 88.4200
" />
<path d="M210.0838 87.2829
L212.3578 87.2829
" />
<path d="M216.6382 59.5035
L216.6382 61.7776
" />
<path d="M215.5011 60.6406
L217.7752 60.6406
" />
<path d="M217.1065 108.1116
L217.1065 110.3857
" />
<path d="M215.9695 109.2486
L218.2435 109.2486
" />
<path d="M221.4151 36.3287
L221.4151 38.6028
" />
<path d="M220.2781 37.4658
L222.5522 37.4658
" />
<path d="M222.5239 81.4693
L222.5239 83.7433
" />
<path d="M221.3868 82.6063
L223.6609 82.6063
" />
<path d="M227.3008 58.2945
L227.3008 60.5685
" />
<path d="M226.1638 59.4315
L228.4379 59.4315
" />
<path d="M228.4096 103.4350
L228.4096 105.7090
" />
<path d="M227.2725 104.5720
L229.5466 104.5720
" />
<path d="M232.7182 31.6521
L232.7182 33.9262
" />
<path d="M231.5812 32.7891
L233.8552 32.7891
" />
<path d="M233.1865 80.2602
L233.1865 82.5343
" />
<path d="M232.0495 81.3972
L234.3236 81.3972
" />
<path d="M238.6039 53.6178
L238.6039 55.8919
" />
<path d="M237.4669 54.7549
L239.7409 54.7549
" />
<path d="M239.0722 102.2259
L239.0722 104.5000
" />
<path d="M237.9352 103.3630
L240.2093 103.3630
" />
<path d="M243.3809 30.4430
L243.3809 32.7171
" />
<path d="M242.2438 31.5801
L244.5179 31.5801
" />
<path d="M249.2666 52.4088
L249.2666 54.6828
" />
<path d="M248.1295 53.5458
L250.4036 53.5458
" />
<path d="M254.6839 25.7664
L254.6839 28.0405
" />
<path d="M253.5469 26.9034
L255.8210 26.9034
" />
<path d="M260.5696 47.7321
L260.5696 50.0062
" />
<path d="M259.4326 48.8692
L261.7067 48.8692
" />
<path d="M265.3466 24.5573
L265.3466 26.8314
" />
<path d="M264.2096 25.6944
L266.4836 25.6944
" />
<path d="M271.2323 46.5231
L271.2323 48.7971
" />
<path d="M270.0953 47.6601
L272.3693 47.6601
" />
</g>
<g style="fill:#000000; fill-opacity:0.0; 
stroke:#000000; stroke-width:0.3790; stroke-opacity:1; 
stroke-linecap:round; stroke-linejoin:round;">
<path style="fill:#000000; fill-opacity:0.0; 
stroke:#000000; stroke-width:0.3790; stroke-opacity:1; 
stroke-linecap:round; stroke-linejoin:round;fill:none"
d="M 47.0992,33.5479
47.0992,30.8679
44.4191,30.8679
44.4191,33.5479
Z" /> 
<path style="fill:#000000; fill-opacity:0.0; 
stroke:#000000; stroke-width:0.3790; stroke-opacity:1; 
stroke-linecap:round; stroke-linejoin:round;fill:none"
d="M 79.2592,89.2508
79.2592,86.5707
76.5792,86.5707
76.5792,89.2508
Z" /> 
<path style="fill:#000000; fill-opacity:0.0; 
stroke:#000000; stroke-width:0.3790; stroke-opacity:1; 
stroke-linecap:round; stroke-linejoin:round;fill:none"
d="M 101.2250,95.1365
101.2250,92.4564
98.5449,92.4564
98.5449,95.1365
Z" /> 
<path style="fill:#000000; fill-opacity:0.0; 
stroke:#000000; stroke-width:0.3790; stroke-opacity:1; 
stroke-linecap:round; stroke-linejoin:round;fill:none"
d="M 112.9964,51.2050
112.9964,48.5250
110.3163,48.5250
110.3163,51.2050
Z" /> 
<path style="fill:#000000; fill-opacity:0.0; 
stroke:#000000; stroke-width:0.3790; stroke-opacity:1; 
stroke-linecap:round; stroke-linejoin:round;fill:none"
d="M 129.9381,93.4130
129.9381,90.7330
127.2581,90.7330
127.2581,93.4130
Z" /> 
<path style="fill:#000000; fill-opacity:0.0; 
stroke:#000000; stroke-width:0.3790; stroke-opacity:1; 
stroke-linecap:round; stroke-linejoin:round;fill:none"
d="M 141.7095,49.4816
141.7095,46.8015
139.0295,46.8015
139.0295,49.4816
Z" /> 
<path style="fill:#000000; fill-opacity:0.0; 
stroke:#000000; stroke-width:0.3790; stroke-opacity:1; 
stroke-linecap:round; stroke-linejoin:round;fill:none"
d="M 157.9727,49.4816
157.9727,46.8015
155.2927,46.8015
155.2927,49.4816
Z" /> 
<path style="fill:#000000; fill-opacity:0.0; 
stroke:#000000; stroke-width:0.3790; stroke-opacity:1; 
stroke-linecap:round; stroke-linejoin:round;fill:none"
d="M 169.7441,93.4130
169.7441,90.7330
167.0641,90.7330
167.0641,93.4130
Z" /> 
<path style="fill:#000000; fill-opacity:0.0; 
stroke:#000000; stroke-width:0.3790; stroke-opacity:1; 
stroke-linecap:round; stroke-linejoin:round;fill:none"
d="M 186.6859,51.2050
186.6859,48.5250
184.0059,48.5250
184.0059,51.2050
Z" /> 
<path style="fill:#000000; fill-opacity:0.0; 
stroke:#000000; stroke-width:0.3790; stroke-opacity:1; 
stroke-linecap:round; stroke-linejoin:round;fill:none"
d="M 198.4573,95.1365
198.4573,92.4564
195.7772,92.4564
195.7772,95.1365
Z" /> 
<path style="fill:#000000; fill-opacity:0.0; 
stroke:#000000; stroke-width:0.3790; stroke-opacity:1; 
stroke-linecap:round; stroke-linejoin:round;fill:none"
d="M 220.4230,89.2508
220.4230,86.5707
217.7430,86.5707
217.7430,89.2508
Z" /> 
<path style="fill:#000000; fill-opacity:0.0; 
stroke:#000000; stroke-width:0.3790; stroke-opacity:1; 
stroke-linecap:round; stroke-linejoin:round;fill:none"
d="M 252.5831,33.5479
252.5831,30.8679
249.9030,30.8679
249.9030,33.5479
Z" /> 
</g>
<g style="fill:#000000; fill-opacity:0.0; 
stroke:#000000; stroke-width:0.3032; stroke-opacity:1; 
stroke-linecap:round; stroke-linejoin:round;">
</g>
<g style="fill:#000000; fill-opacity:0.0; 
stroke:#000000; stroke-width:0.2000; stroke-opacity:1; 
stroke-linecap:round; stroke-linejoin:round;">
<text x="20.5513" y="124.2043"
textLength="14.8667" font-size="2.6667" lengthAdjust="spacingAndGlyphs"
text-anchor="start" opacity="0">Drill Map:</text>
<g class="stroked-text"><desc>Drill Map:</desc>
<path d="M21.1590 124.1192
L21.1590 122.1192
" />
<path d="M21.1590 122.1192
L21.6352 122.1192
" />
<path d="M21.6352 122.1192
L21.9209 122.2144
" />
<path d="M21.9209 122.2144
L22.1114 122.4049
" />
<path d="M22.1114 122.4049
L22.2067 122.5954
" />
<path d="M22.2067 122.5954
L22.3019 122.9763
" />
<path d="M22.3019 122.9763
L22.3019 123.2620
" />
<path d="M22.3019 123.2620
L22.2067 123.6430
" />
<path d="M22.2067 123.6430
L22.1114 123.8334
" />
<path d="M22.1114 123.8334
L21.9209 124.0239
" />
<path d="M21.9209 124.0239
L21.6352 124.1192
" />
<path d="M21.6352 124.1192
L21.1590 124.1192
" />
<path d="M23.1590 124.1192
L23.1590 122.7858
" />
<path d="M23.1590 123.1668
L23.2543 122.9763
" />
<path d="M23.2543 122.9763
L23.3495 122.8811
" />
<path d="M23.3495 122.8811
L23.5400 122.7858
" />
<path d="M23.5400 122.7858
L23.7305 122.7858
" />
<path d="M24.3971 124.1192
L24.3971 122.7858
" />
<path d="M24.3971 122.1192
L24.3019 122.2144
" />
<path d="M24.3019 122.2144
L24.3971 122.3096
" />
<path d="M24.3971 122.3096
L24.4924 122.2144
" />
<path d="M24.4924 122.2144
L24.3971 122.1192
" />
<path d="M24.3971 122.1192
L24.3971 122.3096
" />
<path d="M25.6352 124.1192
L25.4448 124.0239
" />
<path d="M25.4448 124.0239
L25.3495 123.8334
" />
<path d="M25.3495 123.8334
L25.3495 122.1192
" />
<path d="M26.6828 124.1192
L26.4924 124.0239
" />
<path d="M26.4924 124.0239
L26.3971 123.8334
" />
<path d="M26.3971 123.8334
L26.3971 122.1192
" />
<path d="M28.9686 124.1192
L28.9686 122.1192
" />
<path d="M28.9686 122.1192
L29.6352 123.5477
" />
<path d="M29.6352 123.5477
L30.3019 122.1192
" />
<path d="M30.3019 122.1192
L30.3019 124.1192
" />
<path d="M32.1114 124.1192
L32.1114 123.0715
" />
<path d="M32.1114 123.0715
L32.0162 122.8811
" />
<path d="M32.0162 122.8811
L31.8257 122.7858
" />
<path d="M31.8257 122.7858
L31.4448 122.7858
" />
<path d="M31.4448 122.7858
L31.2543 122.8811
" />
<path d="M32.1114 124.0239
L31.9209 124.1192
" />
<path d="M31.9209 124.1192
L31.4448 124.1192
" />
<path d="M31.4448 124.1192
L31.2543 124.0239
" />
<path d="M31.2543 124.0239
L31.1590 123.8334
" />
<path d="M31.1590 123.8334
L31.1590 123.6430
" />
<path d="M31.1590 123.6430
L31.2543 123.4525
" />
<path d="M31.2543 123.4525
L31.4448 123.3573
" />
<path d="M31.4448 123.3573
L31.9209 123.3573
" />
<path d="M31.9209 123.3573
L32.1114 123.2620
" />
<path d="M33.0638 122.7858
L33.0638 124.7858
" />
<path d="M33.0638 122.8811
L33.2543 122.7858
" />
<path d="M33.2543 122.7858
L33.6352 122.7858
" />
<path d="M33.6352 122.7858
L33.8257 122.8811
" />
<path d="M33.8257 122.8811
L33.9209 122.9763
" />
<path d="M33.9209 122.9763
L34.0162 123.1668
" />
<path d="M34.0162 123.1668
L34.0162 123.7382
" />
<path d="M34.0162 123.7382
L33.9209 123.9287
" />
<path d="M33.9209 123.9287
L33.8257 124.0239
" />
<path d="M33.8257 124.0239
L33.6352 124.1192
" />
<path d="M33.6352 124.1192
L33.2543 124.1192
" />
<path d="M33.2543 124.1192
L33.0638 124.0239
" />
<path d="M34.8733 123.9287
L34.9686 124.0239
" />
<path d="M34.9686 124.0239
L34.8733 124.1192
" />
<path d="M34.8733 124.1192
L34.7781 124.0239
" />
<path d="M34.7781 124.0239
L34.8733 123.9287
" />
<path d="M34.8733 123.9287
L34.8733 124.1192
" />
<path d="M34.8733 122.8811
L34.9686 122.9763
" />
<path d="M34.9686 122.9763
L34.8733 123.0715
" />
<path d="M34.8733 123.0715
L34.7781 122.9763
" />
<path d="M34.7781 122.9763
L34.8733 122.8811
" />
<path d="M34.8733 122.8811
L34.8733 123.0715
" />
</g></g>
<g style="fill:#000000; fill-opacity:0.0; 
stroke:#000000; stroke-width:0.0606; stroke-opacity:1; 
stroke-linecap:round; stroke-linejoin:round;">
<path d="M17.9449 127.1011
L18.5513 127.7075
" />
<path d="M18.5513 127.1011
L17.9449 127.7075
" />
</g>
<g style="fill:#000000; fill-opacity:0.0; 
stroke:#000000; stroke-width:0.3032; stroke-opacity:1; 
stroke-linecap:round; stroke-linejoin:round;">
</g>
<g style="fill:#000000; fill-opacity:0.0; 
stroke:#000000; stroke-width:0.2000; stroke-opacity:1; 
stroke-linecap:round; stroke-linejoin:round;">
<text x="20.5513" y="128.4043"
textLength="50.6762" font-size="2.6667" lengthAdjust="spacingAndGlyphs"
text-anchor="start" opacity="0">0.400mm / 0.0157" (115 holes)</text>
<g class="stroked-text"><desc>0.400mm / 0.0157" (115 holes)</desc>
<path d="M21.5400 126.3192
L21.7305 126.3192
" />
<path d="M21.7305 126.3192
L21.9209 126.4144
" />
<path d="M21.9209 126.4144
L22.0162 126.5096
" />
<path d="M22.0162 126.5096
L22.1114 126.7001
" />
<path d="M22.1114 126.7001
L22.2067 127.0811
" />
<path d="M22.2067 127.0811
L22.2067 127.5573
" />
<path d="M22.2067 127.5573
L22.1114 127.9382
" />
<path d="M22.1114 127.9382
L22.0162 128.1287
" />
<path d="M22.0162 128.1287
L21.9209 128.2239
" />
<path d="M21.9209 128.2239
L21.7305 128.3192
" />
<path d="M21.7305 128.3192
L21.5400 128.3192
" />
<path d="M21.5400 128.3192
L21.3495 128.2239
" />
<path d="M21.3495 128.2239
L21.2543 128.1287
" />
<path d="M21.2543 128.1287
L21.1590 127.9382
" />
<path d="M21.1590 127.9382
L21.0638 127.5573
" />
<path d="M21.0638 127.5573
L21.0638 127.0811
" />
<path d="M21.0638 127.0811
L21.1590 126.7001
" />
<path d="M21.1590 126.7001
L21.2543 126.5096
" />
<path d="M21.2543 126.5096
L21.3495 126.4144
" />
<path d="M21.3495 126.4144
L21.5400 126.3192
" />
<path d="M23.0638 128.1287
L23.1590 128.2239
" />
<path d="M23.1590 128.2239
L23.0638 128.3192
" />
<path d="M23.0638 128.3192
L22.9686 128.2239
" />
<path d="M22.9686 128.2239
L23.0638 128.1287
" />
<path d="M23.0638 128.1287
L23.0638 128.3192
" />
<path d="M24.8733 126.9858
L24.8733 128.3192
" />
<path d="M24.3971 126.2239
L23.9209 127.6525
" />
<path d="M23.9209 127.6525
L25.1590 127.6525
" />
<path d="M26.3019 126.3192
L26.4924 126.3192
" />
<path d="M26.4924 126.3192
L26.6828 126.4144
" />
<path d="M26.6828 126.4144
L26.7781 126.5096
" />
<path d="M26.7781 126.5096
L26.8733 126.7001
" />
<path d="M26.8733 126.7001
L26.9686 127.0811
" />
<path d="M26.9686 127.0811
L26.9686 127.5573
" />
<path d="M26.9686 127.5573
L26.8733 127.9382
" />
<path d="M26.8733 127.9382
L26.7781 128.1287
" />
<path d="M26.7781 128.1287
L26.6828 128.2239
" />
<path d="M26.6828 128.2239
L26.4924 128.3192
" />
<path d="M26.4924 128.3192
L26.3019 128.3192
" />
<path d="M26.3019 128.3192
L26.1114 128.2239
" />
<path d="M26.1114 128.2239
L26.0162 128.1287
" />
<path d="M26.0162 128.1287
L25.9209 127.9382
" />
<path d="M25.9209 127.9382
L25.8257 127.5573
" />
<path d="M25.8257 127.5573
L25.8257 127.0811
" />
<path d="M25.8257 127.0811
L25.9209 126.7001
" />
<path d="M25.9209 126.7001
L26.0162 126.5096
" />
<path d="M26.0162 126.5096
L26.1114 126.4144
" />
<path d="M26.1114 126.4144
L26.3019 126.3192
" />
<path d="M28.2067 126.3192
L28.3971 126.3192
" />
<path d="M28.3971 126.3192
L28.5876 126.4144
" />
<path d="M28.5876 126.4144
L28.6828 126.5096
" />
<path d="M28.6828 126.5096
L28.7781 126.7001
" />
<path d="M28.7781 126.7001
L28.8733 127.0811
" />
<path d="M28.8733 127.0811
L28.8733 127.5573
" />
<path d="M28.8733 127.5573
L28.7781 127.9382
" />
<path d="M28.7781 127.9382
L28.6828 128.1287
" />
<path d="M28.6828 128.1287
L28.5876 128.2239
" />
<path d="M28.5876 128.2239
L28.3971 128.3192
" />
<path d="M28.3971 128.3192
L28.2067 128.3192
" />
<path d="M28.2067 128.3192
L28.0162 128.2239
" />
<path d="M28.0162 128.2239
L27.9209 128.1287
" />
<path d="M27.9209 128.1287
L27.8257 127.9382
" />
<path d="M27.8257 127.9382
L27.7305 127.5573
" />
<path d="M27.7305 127.5573
L27.7305 127.0811
" />
<path d="M27.7305 127.0811
L27.8257 126.7001
" />
<path d="M27.8257 126.7001
L27.9209 126.5096
" />
<path d="M27.9209 126.5096
L28.0162 126.4144
" />
<path d="M28.0162 126.4144
L28.2067 126.3192
" />
<path d="M29.7305 128.3192
L29.7305 126.9858
" />
<path d="M29.7305 127.1763
L29.8257 127.0811
" />
<path d="M29.8257 127.0811
L30.0162 126.9858
" />
<path d="M30.0162 126.9858
L30.3019 126.9858
" />
<path d="M30.3019 126.9858
L30.4924 127.0811
" />
<path d="M30.4924 127.0811
L30.5876 127.2715
" />
<path d="M30.5876 127.2715
L30.5876 128.3192
" />
<path d="M30.5876 127.2715
L30.6829 127.0811
" />
<path d="M30.6829 127.0811
L30.8733 126.9858
" />
<path d="M30.8733 126.9858
L31.1590 126.9858
" />
<path d="M31.1590 126.9858
L31.3495 127.0811
" />
<path d="M31.3495 127.0811
L31.4448 127.2715
" />
<path d="M31.4448 127.2715
L31.4448 128.3192
" />
<path d="M32.3971 128.3192
L32.3971 126.9858
" />
<path d="M32.3971 127.1763
L32.4924 127.0811
" />
<path d="M32.4924 127.0811
L32.6828 126.9858
" />
<path d="M32.6828 126.9858
L32.9686 126.9858
" />
<path d="M32.9686 126.9858
L33.1590 127.0811
" />
<path d="M33.1590 127.0811
L33.2543 127.2715
" />
<path d="M33.2543 127.2715
L33.2543 128.3192
" />
<path d="M33.2543 127.2715
L33.3495 127.0811
" />
<path d="M33.3495 127.0811
L33.5400 126.9858
" />
<path d="M33.5400 126.9858
L33.8257 126.9858
" />
<path d="M33.8257 126.9858
L34.0162 127.0811
" />
<path d="M34.0162 127.0811
L34.1114 127.2715
" />
<path d="M34.1114 127.2715
L34.1114 128.3192
" />
<path d="M38.0162 126.2239
L36.3019 128.7954
" />
<path d="M40.5876 126.3192
L40.7781 126.3192
" />
<path d="M40.7781 126.3192
L40.9686 126.4144
" />
<path d="M40.9686 126.4144
L41.0638 126.5096
" />
<path d="M41.0638 126.5096
L41.1590 126.7001
" />
<path d="M41.1590 126.7001
L41.2543 127.0811
" />
<path d="M41.2543 127.0811
L41.2543 127.5573
" />
<path d="M41.2543 127.5573
L41.1590 127.9382
" />
<path d="M41.1590 127.9382
L41.0638 128.1287
" />
<path d="M41.0638 128.1287
L40.9686 128.2239
" />
<path d="M40.9686 128.2239
L40.7781 128.3192
" />
<path d="M40.7781 128.3192
L40.5876 128.3192
" />
<path d="M40.5876 128.3192
L40.3971 128.2239
" />
<path d="M40.3971 128.2239
L40.3019 128.1287
" />
<path d="M40.3019 128.1287
L40.2067 127.9382
" />
<path d="M40.2067 127.9382
L40.1114 127.5573
" />
<path d="M40.1114 127.5573
L40.1114 127.0811
" />
<path d="M40.1114 127.0811
L40.2067 126.7001
" />
<path d="M40.2067 126.7001
L40.3019 126.5096
" />
<path d="M40.3019 126.5096
L40.3971 126.4144
" />
<path d="M40.3971 126.4144
L40.5876 126.3192
" />
<path d="M42.1114 128.1287
L42.2067 128.2239
" />
<path d="M42.2067 128.2239
L42.1114 128.3192
" />
<path d="M42.1114 128.3192
L42.0162 128.2239
" />
<path d="M42.0162 128.2239
L42.1114 128.1287
" />
<path d="M42.1114 128.1287
L42.1114 128.3192
" />
<path d="M43.4448 126.3192
L43.6352 126.3192
" />
<path d="M43.6352 126.3192
L43.8257 126.4144
" />
<path d="M43.8257 126.4144
L43.9209 126.5096
" />
<path d="M43.9209 126.5096
L44.0162 126.7001
" />
<path d="M44.0162 126.7001
L44.1114 127.0811
" />
<path d="M44.1114 127.0811
L44.1114 127.5573
" />
<path d="M44.1114 127.5573
L44.0162 127.9382
" />
<path d="M44.0162 127.9382
L43.9209 128.1287
" />
<path d="M43.9209 128.1287
L43.8257 128.2239
" />
<path d="M43.8257 128.2239
L43.6352 128.3192
" />
<path d="M43.6352 128.3192
L43.4448 128.3192
" />
<path d="M43.4448 128.3192
L43.2543 128.2239
" />
<path d="M43.2543 128.2239
L43.1590 128.1287
" />
<path d="M43.1590 128.1287
L43.0638 127.9382
" />
<path d="M43.0638 127.9382
L42.9686 127.5573
" />
<path d="M42.9686 127.5573
L42.9686 127.0811
" />
<path d="M42.9686 127.0811
L43.0638 126.7001
" />
<path d="M43.0638 126.7001
L43.1590 126.5096
" />
<path d="M43.1590 126.5096
L43.2543 126.4144
" />
<path d="M43.2543 126.4144
L43.4448 126.3192
" />
<path d="M46.0162 128.3192
L44.8733 128.3192
" />
<path d="M45.4448 128.3192
L45.4448 126.3192
" />
<path d="M45.4448 126.3192
L45.2543 126.6049
" />
<path d="M45.2543 126.6049
L45.0638 126.7954
" />
<path d="M45.0638 126.7954
L44.8733 126.8906
" />
<path d="M47.8257 126.3192
L46.8733 126.3192
" />
<path d="M46.8733 126.3192
L46.7781 127.2715
" />
<path d="M46.7781 127.2715
L46.8733 127.1763
" />
<path d="M46.8733 127.1763
L47.0638 127.0811
" />
<path d="M47.0638 127.0811
L47.5400 127.0811
" />
<path d="M47.5400 127.0811
L47.7305 127.1763
" />
<path d="M47.7305 127.1763
L47.8257 127.2715
" />
<path d="M47.8257 127.2715
L47.9209 127.4620
" />
<path d="M47.9209 127.4620
L47.9209 127.9382
" />
<path d="M47.9209 127.9382
L47.8257 128.1287
" />
<path d="M47.8257 128.1287
L47.7305 128.2239
" />
<path d="M47.7305 128.2239
L47.5400 128.3192
" />
<path d="M47.5400 128.3192
L47.0638 128.3192
" />
<path d="M47.0638 128.3192
L46.8733 128.2239
" />
<path d="M46.8733 128.2239
L46.7781 128.1287
" />
<path d="M48.5876 126.3192
L49.9209 126.3192
" />
<path d="M49.9209 126.3192
L49.0638 128.3192
" />
<path d="M50.5876 126.3192
L50.5876 126.7001
" />
<path d="M51.3495 126.3192
L51.3495 126.7001
" />
<path d="M54.3019 129.0811
L54.2067 128.9858
" />
<path d="M54.2067 128.9858
L54.0162 128.7001
" />
<path d="M54.0162 128.7001
L53.9209 128.5096
" />
<path d="M53.9209 128.5096
L53.8257 128.2239
" />
<path d="M53.8257 128.2239
L53.7305 127.7477
" />
<path d="M53.7305 127.7477
L53.7305 127.3668
" />
<path d="M53.7305 127.3668
L53.8257 126.8906
" />
<path d="M53.8257 126.8906
L53.9209 126.6049
" />
<path d="M53.9209 126.6049
L54.0162 126.4144
" />
<path d="M54.0162 126.4144
L54.2067 126.1287
" />
<path d="M54.2067 126.1287
L54.3019 126.0334
" />
<path d="M56.1114 128.3192
L54.9686 128.3192
" />
<path d="M55.5400 128.3192
L55.5400 126.3192
" />
<path d="M55.5400 126.3192
L55.3495 126.6049
" />
<path d="M55.3495 126.6049
L55.1590 126.7954
" />
<path d="M55.1590 126.7954
L54.9686 126.8906
" />
<path d="M58.0162 128.3192
L56.8733 128.3192
" />
<path d="M57.4448 128.3192
L57.4448 126.3192
" />
<path d="M57.4448 126.3192
L57.2543 126.6049
" />
<path d="M57.2543 126.6049
L57.0638 126.7954
" />
<path d="M57.0638 126.7954
L56.8733 126.8906
" />
<path d="M59.8257 126.3192
L58.8733 126.3192
" />
<path d="M58.8733 126.3192
L58.7781 127.2715
" />
<path d="M58.7781 127.2715
L58.8733 127.1763
" />
<path d="M58.8733 127.1763
L59.0638 127.0811
" />
<path d="M59.0638 127.0811
L59.5400 127.0811
" />
<path d="M59.5400 127.0811
L59.7305 127.1763
" />
<path d="M59.7305 127.1763
L59.8257 127.2715
" />
<path d="M59.8257 127.2715
L59.9210 127.4620
" />
<path d="M59.9210 127.4620
L59.9210 127.9382
" />
<path d="M59.9210 127.9382
L59.8257 128.1287
" />
<path d="M59.8257 128.1287
L59.7305 128.2239
" />
<path d="M59.7305 128.2239
L59.5400 128.3192
" />
<path d="M59.5400 128.3192
L59.0638 128.3192
" />
<path d="M59.0638 128.3192
L58.8733 128.2239
" />
<path d="M58.8733 128.2239
L58.7781 128.1287
" />
<path d="M62.3019 128.3192
L62.3019 126.3192
" />
<path d="M63.1590 128.3192
L63.1590 127.2715
" />
<path d="M63.1590 127.2715
L63.0638 127.0811
" />
<path d="M63.0638 127.0811
L62.8733 126.9858
" />
<path d="M62.8733 126.9858
L62.5876 126.9858
" />
<path d="M62.5876 126.9858
L62.3971 127.0811
" />
<path d="M62.3971 127.0811
L62.3019 127.1763
" />
<path d="M64.3971 128.3192
L64.2067 128.2239
" />
<path d="M64.2067 128.2239
L64.1114 128.1287
" />
<path d="M64.1114 128.1287
L64.0162 127.9382
" />
<path d="M64.0162 127.9382
L64.0162 127.3668
" />
<path d="M64.0162 127.3668
L64.1114 127.1763
" />
<path d="M64.1114 127.1763
L64.2067 127.0811
" />
<path d="M64.2067 127.0811
L64.3971 126.9858
" />
<path d="M64.3971 126.9858
L64.6829 126.9858
" />
<path d="M64.6829 126.9858
L64.8733 127.0811
" />
<path d="M64.8733 127.0811
L64.9686 127.1763
" />
<path d="M64.9686 127.1763
L65.0638 127.3668
" />
<path d="M65.0638 127.3668
L65.0638 127.9382
" />
<path d="M65.0638 127.9382
L64.9686 128.1287
" />
<path d="M64.9686 128.1287
L64.8733 128.2239
" />
<path d="M64.8733 128.2239
L64.6829 128.3192
" />
<path d="M64.6829 128.3192
L64.3971 128.3192
" />
<path d="M66.2067 128.3192
L66.0162 128.2239
" />
<path d="M66.0162 128.2239
L65.9210 128.0334
" />
<path d="M65.9210 128.0334
L65.9210 126.3192
" />
<path d="M67.7305 128.2239
L67.5400 128.3192
" />
<path d="M67.5400 128.3192
L67.1590 128.3192
" />
<path d="M67.1590 128.3192
L66.9686 128.2239
" />
<path d="M66.9686 128.2239
L66.8733 128.0334
" />
<path d="M66.8733 128.0334
L66.8733 127.2715
" />
<path d="M66.8733 127.2715
L66.9686 127.0811
" />
<path d="M66.9686 127.0811
L67.1590 126.9858
" />
<path d="M67.1590 126.9858
L67.5400 126.9858
" />
<path d="M67.5400 126.9858
L67.7305 127.0811
" />
<path d="M67.7305 127.0811
L67.8257 127.2715
" />
<path d="M67.8257 127.2715
L67.8257 127.4620
" />
<path d="M67.8257 127.4620
L66.8733 127.6525
" />
<path d="M68.5876 128.2239
L68.7781 128.3192
" />
<path d="M68.7781 128.3192
L69.1590 128.3192
" />
<path d="M69.1590 128.3192
L69.3495 128.2239
" />
<path d="M69.3495 128.2239
L69.4448 128.0334
" />
<path d="M69.4448 128.0334
L69.4448 127.9382
" />
<path d="M69.4448 127.9382
L69.3495 127.7477
" />
<path d="M69.3495 127.7477
L69.1590 127.6525
" />
<path d="M69.1590 127.6525
L68.8733 127.6525
" />
<path d="M68.8733 127.6525
L68.6829 127.5573
" />
<path d="M68.6829 127.5573
L68.5876 127.3668
" />
<path d="M68.5876 127.3668
L68.5876 127.2715
" />
<path d="M68.5876 127.2715
L68.6829 127.0811
" />
<path d="M68.6829 127.0811
L68.8733 126.9858
" />
<path d="M68.8733 126.9858
L69.1590 126.9858
" />
<path d="M69.1590 126.9858
L69.3495 127.0811
" />
<path d="M70.1114 129.0811
L70.2067 128.9858
" />
<path d="M70.2067 128.9858
L70.3971 128.7001
" />
<path d="M70.3971 128.7001
L70.4924 128.5096
" />
<path d="M70.4924 128.5096
L70.5876 128.2239
" />
<path d="M70.5876 128.2239
L70.6829 127.7477
" />
<path d="M70.6829 127.7477
L70.6829 127.3668
" />
<path d="M70.6829 127.3668
L70.5876 126.8906
" />
<path d="M70.5876 126.8906
L70.4924 126.6049
" />
<path d="M70.4924 126.6049
L70.3971 126.4144
" />
<path d="M70.3971 126.4144
L70.2067 126.1287
" />
<path d="M70.2067 126.1287
L70.1114 126.0334
" />
</g></g>
<g style="fill:#000000; fill-opacity:0.0; 
stroke:#000000; stroke-width:0.0910; stroke-opacity:1; 
stroke-linecap:round; stroke-linejoin:round;">
<circle cx="18.0965" cy="130.0443" r="0.4548" /> 
</g>
<g style="fill:#000000; fill-opacity:0.0; 
stroke:#000000; stroke-width:0.3032; stroke-opacity:1; 
stroke-linecap:round; stroke-linejoin:round;">
</g>
<g style="fill:#000000; fill-opacity:0.0; 
stroke:#000000; stroke-width:0.2000; stroke-opacity:1; 
stroke-linecap:round; stroke-linejoin:round;">
<text x="20.5513" y="131.0443"
textLength="63.0572" font-size="2.6667" lengthAdjust="spacingAndGlyphs"
text-anchor="start" opacity="0">0.600mm / 0.0236" (0 holes + 4 slots)</text>
<g class="stroked-text"><desc>0.600mm / 0.0236" (0 holes + 4 slots)</desc>
<path d="M21.5400 128.9592
L21.7305 128.9592
" />
<path d="M21.7305 128.9592
L21.9209 129.0544
" />
<path d="M21.9209 129.0544
L22.0162 129.1496
" />
<path d="M22.0162 129.1496
L22.1114 129.3401
" />
<path d="M22.1114 129.3401
L22.2067 129.7211
" />
<path d="M22.2067 129.7211
L22.2067 130.1973
" />
<path d="M22.2067 130.1973
L22.1114 130.5782
" />
<path d="M22.1114 130.5782
L22.0162 130.7687
" />
<path d="M22.0162 130.7687
L21.9209 130.8639
" />
<path d="M21.9209 130.8639
L21.7305 130.9592
" />
<path d="M21.7305 130.9592
L21.5400 130.9592
" />
<path d="M21.5400 130.9592
L21.3495 130.8639
" />
<path d="M21.3495 130.8639
L21.2543 130.7687
" />
<path d="M21.2543 130.7687
L21.1590 130.5782
" />
<path d="M21.1590 130.5782
L21.0638 130.1973
" />
<path d="M21.0638 130.1973
L21.0638 129.7211
" />
<path d="M21.0638 129.7211
L21.1590 129.3401
" />
<path d="M21.1590 129.3401
L21.2543 129.1496
" />
<path d="M21.2543 129.1496
L21.3495 129.0544
" />
<path d="M21.3495 129.0544
L21.5400 128.9592
" />
<path d="M23.0638 130.7687
L23.1590 130.8639
" />
<path d="M23.1590 130.8639
L23.0638 130.9592
" />
<path d="M23.0638 130.9592
L22.9686 130.8639
" />
<path d="M22.9686 130.8639
L23.0638 130.7687
" />
<path d="M23.0638 130.7687
L23.0638 130.9592
" />
<path d="M24.8733 128.9592
L24.4924 128.9592
" />
<path d="M24.4924 128.9592
L24.3019 129.0544
" />
<path d="M24.3019 129.0544
L24.2067 129.1496
" />
<path d="M24.2067 129.1496
L24.0162 129.4354
" />
<path d="M24.0162 129.4354
L23.9209 129.8163
" />
<path d="M23.9209 129.8163
L23.9209 130.5782
" />
<path d="M23.9209 130.5782
L24.0162 130.7687
" />
<path d="M24.0162 130.7687
L24.1114 130.8639
" />
<path d="M24.1114 130.8639
L24.3019 130.9592
" />
<path d="M24.3019 130.9592
L24.6828 130.9592
" />
<path d="M24.6828 130.9592
L24.8733 130.8639
" />
<path d="M24.8733 130.8639
L24.9686 130.7687
" />
<path d="M24.9686 130.7687
L25.0638 130.5782
" />
<path d="M25.0638 130.5782
L25.0638 130.1020
" />
<path d="M25.0638 130.1020
L24.9686 129.9115
" />
<path d="M24.9686 129.9115
L24.8733 129.8163
" />
<path d="M24.8733 129.8163
L24.6828 129.7211
" />
<path d="M24.6828 129.7211
L24.3019 129.7211
" />
<path d="M24.3019 129.7211
L24.1114 129.8163
" />
<path d="M24.1114 129.8163
L24.0162 129.9115
" />
<path d="M24.0162 129.9115
L23.9209 130.1020
" />
<path d="M26.3019 128.9592
L26.4924 128.9592
" />
<path d="M26.4924 128.9592
L26.6828 129.0544
" />
<path d="M26.6828 129.0544
L26.7781 129.1496
" />
<path d="M26.7781 129.1496
L26.8733 129.3401
" />
<path d="M26.8733 129.3401
L26.9686 129.7211
" />
<path d="M26.9686 129.7211
L26.9686 130.1973
" />
<path d="M26.9686 130.1973
L26.8733 130.5782
" />
<path d="M26.8733 130.5782
L26.7781 130.7687
" />
<path d="M26.7781 130.7687
L26.6828 130.8639
" />
<path d="M26.6828 130.8639
L26.4924 130.9592
" />
<path d="M26.4924 130.9592
L26.3019 130.9592
" />
<path d="M26.3019 130.9592
L26.1114 130.8639
" />
<path d="M26.1114 130.8639
L26.0162 130.7687
" />
<path d="M26.0162 130.7687
L25.9209 130.5782
" />
<path d="M25.9209 130.5782
L25.8257 130.1973
" />
<path d="M25.8257 130.1973
L25.8257 129.7211
" />
<path d="M25.8257 129.7211
L25.9209 129.3401
" />
<path d="M25.9209 129.3401
L26.0162 129.1496
" />
<path d="M26.0162 129.1496
L26.1114 129.0544
" />
<path d="M26.1114 129.0544
L26.3019 128.9592
" />
<path d="M28.2067 128.9592
L28.3971 128.9592
" />
<path d="M28.3971 128.9592
L28.5876 129.0544
" />
<path d="M28.5876 129.0544
L28.6828 129.1496
" />
<path d="M28.6828 129.1496
L28.7781 129.3401
" />
<path d="M28.7781 129.3401
L28.8733 129.7211
" />
<path d="M28.8733 129.7211
L28.8733 130.1973
" />
<path d="M28.8733 130.1973
L28.7781 130.5782
" />
<path d="M28.7781 130.5782
L28.6828 130.7687
" />
<path d="M28.6828 130.7687
L28.5876 130.8639
" />
<path d="M28.5876 130.8639
L28.3971 130.9592
" />
<path d="M28.3971 130.9592
L28.2067 130.9592
" />
<path d="M28.2067 130.9592
L28.0162 130.8639
" />
<path d="M28.0162 130.8639
L27.9209 130.7687
" />
<path d="M27.9209 130.7687
L27.8257 130.5782
" />
<path d="M27.8257 130.5782
L27.7305 130.1973
" />
<path d="M27.7305 130.1973
L27.7305 129.7211
" />
<path d="M27.7305 129.7211
L27.8257 129.3401
" />
<path d="M27.8257 129.3401
L27.9209 129.1496
" />
<path d="M27.9209 129.1496
L28.0162 129.0544
" />
<path d="M28.0162 129.0544
L28.2067 128.9592
" />
<path d="M29.7305 130.9592
L29.7305 129.6258
" />
<path d="M29.7305 129.8163
L29.8257 129.7211
" />
<path d="M29.8257 129.7211
L30.0162 129.6258
" />
<path d="M30.0162 129.6258
L30.3019 129.6258
" />
<path d="M30.3019 129.6258
L30.4924 129.7211
" />
<path d="M30.4924 129.7211
L30.5876 129.9115
" />
<path d="M30.5876 129.9115
L30.5876 130.9592
" />
<path d="M30.5876 129.9115
L30.6829 129.7211
" />
<path d="M30.6829 129.7211
L30.8733 129.6258
" />
<path d="M30.8733 129.6258
L31.1590 129.6258
" />
<path d="M31.1590 129.6258
L31.3495 129.7211
" />
<path d="M31.3495 129.7211
L31.4448 129.9115
" />
<path d="M31.4448 129.9115
L31.4448 130.9592
" />
<path d="M32.3971 130.9592
L32.3971 129.6258
" />
<path d="M32.3971 129.8163
L32.4924 129.7211
" />
<path d="M32.4924 129.7211
L32.6828 129.6258
" />
<path d="M32.6828 129.6258
L32.9686 129.6258
" />
<path d="M32.9686 129.6258
L33.1590 129.7211
" />
<path d="M33.1590 129.7211
L33.2543 129.9115
" />
<path d="M33.2543 129.9115
L33.2543 130.9592
" />
<path d="M33.2543 129.9115
L33.3495 129.7211
" />
<path d="M33.3495 129.7211
L33.5400 129.6258
" />
<path d="M33.5400 129.6258
L33.8257 129.6258
" />
<path d="M33.8257 129.6258
L34.0162 129.7211
" />
<path d="M34.0162 129.7211
L34.1114 129.9115
" />
<path d="M34.1114 129.9115
L34.1114 130.9592
" />
<path d="M38.0162 128.8639
L36.3019 131.4354
" />
<path d="M40.5876 128.9592
L40.7781 128.9592
" />
<path d="M40.7781 128.9592
L40.9686 129.0544
" />
<path d="M40.9686 129.0544
L41.0638 129.1496
" />
<path d="M41.0638 129.1496
L41.1590 129.3401
" />
<path d="M41.1590 129.3401
L41.2543 129.7211
" />
<path d="M41.2543 129.7211
L41.2543 130.1973
" />
<path d="M41.2543 130.1973
L41.1590 130.5782
" />
<path d="M41.1590 130.5782
L41.0638 130.7687
" />
<path d="M41.0638 130.7687
L40.9686 130.8639
" />
<path d="M40.9686 130.8639
L40.7781 130.9592
" />
<path d="M40.7781 130.9592
L40.5876 130.9592
" />
<path d="M40.5876 130.9592
L40.3971 130.8639
" />
<path d="M40.3971 130.8639
L40.3019 130.7687
" />
<path d="M40.3019 130.7687
L40.2067 130.5782
" />
<path d="M40.2067 130.5782
L40.1114 130.1973
" />
<path d="M40.1114 130.1973
L40.1114 129.7211
" />
<path d="M40.1114 129.7211
L40.2067 129.3401
" />
<path d="M40.2067 129.3401
L40.3019 129.1496
" />
<path d="M40.3019 129.1496
L40.3971 129.0544
" />
<path d="M40.3971 129.0544
L40.5876 128.9592
" />
<path d="M42.1114 130.7687
L42.2067 130.8639
" />
<path d="M42.2067 130.8639
L42.1114 130.9592
" />
<path d="M42.1114 130.9592
L42.0162 130.8639
" />
<path d="M42.0162 130.8639
L42.1114 130.7687
" />
<path d="M42.1114 130.7687
L42.1114 130.9592
" />
<path d="M43.4448 128.9592
L43.6352 128.9592
" />
<path d="M43.6352 128.9592
L43.8257 129.0544
" />
<path d="M43.8257 129.0544
L43.9209 129.1496
" />
<path d="M43.9209 129.1496
L44.0162 129.3401
" />
<path d="M44.0162 129.3401
L44.1114 129.7211
" />
<path d="M44.1114 129.7211
L44.1114 130.1973
" />
<path d="M44.1114 130.1973
L44.0162 130.5782
" />
<path d="M44.0162 130.5782
L43.9209 130.7687
" />
<path d="M43.9209 130.7687
L43.8257 130.8639
" />
<path d="M43.8257 130.8639
L43.6352 130.9592
" />
<path d="M43.6352 130.9592
L43.4448 130.9592
" />
<path d="M43.4448 130.9592
L43.2543 130.8639
" />
<path d="M43.2543 130.8639
L43.1590 130.7687
" />
<path d="M43.1590 130.7687
L43.0638 130.5782
" />
<path d="M43.0638 130.5782
L42.9686 130.1973
" />
<path d="M42.9686 130.1973
L42.9686 129.7211
" />
<path d="M42.9686 129.7211
L43.0638 129.3401
" />
<path d="M43.0638 129.3401
L43.1590 129.1496
" />
<path d="M43.1590 129.1496
L43.2543 129.0544
" />
<path d="M43.2543 129.0544
L43.4448 128.9592
" />
<path d="M44.8733 129.1496
L44.9686 129.0544
" />
<path d="M44.9686 129.0544
L45.1590 128.9592
" />
<path d="M45.1590 128.9592
L45.6352 128.9592
" />
<path d="M45.6352 128.9592
L45.8257 129.0544
" />
<path d="M45.8257 129.0544
L45.9209 129.1496
" />
<path d="M45.9209 129.1496
L46.0162 129.3401
" />
<path d="M46.0162 129.3401
L46.0162 129.5306
" />
<path d="M46.0162 129.5306
L45.9209 129.8163
" />
<path d="M45.9209 129.8163
L44.7781 130.9592
" />
<path d="M44.7781 130.9592
L46.0162 130.9592
" />
<path d="M46.6829 128.9592
L47.9209 128.9592
" />
<path d="M47.9209 128.9592
L47.2543 129.7211
" />
<path d="M47.2543 129.7211
L47.5400 129.7211
" />
<path d="M47.5400 129.7211
L47.7305 129.8163
" />
<path d="M47.7305 129.8163
L47.8257 129.9115
" />
<path d="M47.8257 129.9115
L47.9209 130.1020
" />
<path d="M47.9209 130.1020
L47.9209 130.5782
" />
<path d="M47.9209 130.5782
L47.8257 130.7687
" />
<path d="M47.8257 130.7687
L47.7305 130.8639
" />
<path d="M47.7305 130.8639
L47.5400 130.9592
" />
<path d="M47.5400 130.9592
L46.9686 130.9592
" />
<path d="M46.9686 130.9592
L46.7781 130.8639
" />
<path d="M46.7781 130.8639
L46.6829 130.7687
" />
<path d="M49.6352 128.9592
L49.2543 128.9592
" />
<path d="M49.2543 128.9592
L49.0638 129.0544
" />
<path d="M49.0638 129.0544
L48.9686 129.1496
" />
<path d="M48.9686 129.1496
L48.7781 129.4354
" />
<path d="M48.7781 129.4354
L48.6829 129.8163
" />
<path d="M48.6829 129.8163
L48.6829 130.5782
" />
<path d="M48.6829 130.5782
L48.7781 130.7687
" />
<path d="M48.7781 130.7687
L48.8733 130.8639
" />
<path d="M48.8733 130.8639
L49.0638 130.9592
" />
<path d="M49.0638 130.9592
L49.4448 130.9592
" />
<path d="M49.4448 130.9592
L49.6352 130.8639
" />
<path d="M49.6352 130.8639
L49.7305 130.7687
" />
<path d="M49.7305 130.7687
L49.8257 130.5782
" />
<path d="M49.8257 130.5782
L49.8257 130.1020
" />
<path d="M49.8257 130.1020
L49.7305 129.9115
" />
<path d="M49.7305 129.9115
L49.6352 129.8163
" />
<path d="M49.6352 129.8163
L49.4448 129.7211
" />
<path d="M49.4448 129.7211
L49.0638 129.7211
" />
<path d="M49.0638 129.7211
L48.8733 129.8163
" />
<path d="M48.8733 129.8163
L48.7781 129.9115
" />
<path d="M48.7781 129.9115
L48.6829 130.1020
" />
<path d="M50.5876 128.9592
L50.5876 129.3401
" />
<path d="M51.3495 128.9592
L51.3495 129.3401
" />
<path d="M54.3019 131.7211
L54.2067 131.6258
" />
<path d="M54.2067 131.6258
L54.0162 131.3401
" />
<path d="M54.0162 131.3401
L53.9209 131.1496
" />
<path d="M53.9209 131.1496
L53.8257 130.8639
" />
<path d="M53.8257 130.8639
L53.7305 130.3877
" />
<path d="M53.7305 130.3877
L53.7305 130.0068
" />
<path d="M53.7305 130.0068
L53.8257 129.5306
" />
<path d="M53.8257 129.5306
L53.9209 129.2449
" />
<path d="M53.9209 129.2449
L54.0162 129.0544
" />
<path d="M54.0162 129.0544
L54.2067 128.7687
" />
<path d="M54.2067 128.7687
L54.3019 128.6734
" />
<path d="M55.4448 128.9592
L55.6352 128.9592
" />
<path d="M55.6352 128.9592
L55.8257 129.0544
" />
<path d="M55.8257 129.0544
L55.9209 129.1496
" />
<path d="M55.9209 129.1496
L56.0162 129.3401
" />
<path d="M56.0162 129.3401
L56.1114 129.7211
" />
<path d="M56.1114 129.7211
L56.1114 130.1973
" />
<path d="M56.1114 130.1973
L56.0162 130.5782
" />
<path d="M56.0162 130.5782
L55.9209 130.7687
" />
<path d="M55.9209 130.7687
L55.8257 130.8639
" />
<path d="M55.8257 130.8639
L55.6352 130.9592
" />
<path d="M55.6352 130.9592
L55.4448 130.9592
" />
<path d="M55.4448 130.9592
L55.2543 130.8639
" />
<path d="M55.2543 130.8639
L55.1590 130.7687
" />
<path d="M55.1590 130.7687
L55.0638 130.5782
" />
<path d="M55.0638 130.5782
L54.9686 130.1973
" />
<path d="M54.9686 130.1973
L54.9686 129.7211
" />
<path d="M54.9686 129.7211
L55.0638 129.3401
" />
<path d="M55.0638 129.3401
L55.1590 129.1496
" />
<path d="M55.1590 129.1496
L55.2543 129.0544
" />
<path d="M55.2543 129.0544
L55.4448 128.9592
" />
<path d="M58.4924 130.9592
L58.4924 128.9592
" />
<path d="M59.3495 130.9592
L59.3495 129.9115
" />
<path d="M59.3495 129.9115
L59.2543 129.7211
" />
<path d="M59.2543 129.7211
L59.0638 129.6258
" />
<path d="M59.0638 129.6258
L58.7781 129.6258
" />
<path d="M58.7781 129.6258
L58.5876 129.7211
" />
<path d="M58.5876 129.7211
L58.4924 129.8163
" />
<path d="M60.5876 130.9592
L60.3971 130.8639
" />
<path d="M60.3971 130.8639
L60.3019 130.7687
" />
<path d="M60.3019 130.7687
L60.2067 130.5782
" />
<path d="M60.2067 130.5782
L60.2067 130.0068
" />
<path d="M60.2067 130.0068
L60.3019 129.8163
" />
<path d="M60.3019 129.8163
L60.3971 129.7211
" />
<path d="M60.3971 129.7211
L60.5876 129.6258
" />
<path d="M60.5876 129.6258
L60.8733 129.6258
" />
<path d="M60.8733 129.6258
L61.0638 129.7211
" />
<path d="M61.0638 129.7211
L61.1590 129.8163
" />
<path d="M61.1590 129.8163
L61.2543 130.0068
" />
<path d="M61.2543 130.0068
L61.2543 130.5782
" />
<path d="M61.2543 130.5782
L61.1590 130.7687
" />
<path d="M61.1590 130.7687
L61.0638 130.8639
" />
<path d="M61.0638 130.8639
L60.8733 130.9592
" />
<path d="M60.8733 130.9592
L60.5876 130.9592
" />
<path d="M62.3971 130.9592
L62.2067 130.8639
" />
<path d="M62.2067 130.8639
L62.1114 130.6734
" />
<path d="M62.1114 130.6734
L62.1114 128.9592
" />
<path d="M63.9209 130.8639
L63.7305 130.9592
" />
<path d="M63.7305 130.9592
L63.3495 130.9592
" />
<path d="M63.3495 130.9592
L63.1590 130.8639
" />
<path d="M63.1590 130.8639
L63.0638 130.6734
" />
<path d="M63.0638 130.6734
L63.0638 129.9115
" />
<path d="M63.0638 129.9115
L63.1590 129.7211
" />
<path d="M63.1590 129.7211
L63.3495 129.6258
" />
<path d="M63.3495 129.6258
L63.7305 129.6258
" />
<path d="M63.7305 129.6258
L63.9209 129.7211
" />
<path d="M63.9209 129.7211
L64.0162 129.9115
" />
<path d="M64.0162 129.9115
L64.0162 130.1020
" />
<path d="M64.0162 130.1020
L63.0638 130.2925
" />
<path d="M64.7781 130.8639
L64.9686 130.9592
" />
<path d="M64.9686 130.9592
L65.3495 130.9592
" />
<path d="M65.3495 130.9592
L65.5400 130.8639
" />
<path d="M65.5400 130.8639
L65.6352 130.6734
" />
<path d="M65.6352 130.6734
L65.6352 130.5782
" />
<path d="M65.6352 130.5782
L65.5400 130.3877
" />
<path d="M65.5400 130.3877
L65.3495 130.2925
" />
<path d="M65.3495 130.2925
L65.0638 130.2925
" />
<path d="M65.0638 130.2925
L64.8733 130.1973
" />
<path d="M64.8733 130.1973
L64.7781 130.0068
" />
<path d="M64.7781 130.0068
L64.7781 129.9115
" />
<path d="M64.7781 129.9115
L64.8733 129.7211
" />
<path d="M64.8733 129.7211
L65.0638 129.6258
" />
<path d="M65.0638 129.6258
L65.3495 129.6258
" />
<path d="M65.3495 129.6258
L65.5400 129.7211
" />
<path d="M68.0162 130.1973
L69.5400 130.1973
" />
<path d="M68.7781 130.9592
L68.7781 129.4354
" />
<path d="M72.8733 129.6258
L72.8733 130.9592
" />
<path d="M72.3971 128.8639
L71.9210 130.2925
" />
<path d="M71.9210 130.2925
L73.1590 130.2925
" />
<path d="M75.3495 130.8639
L75.5400 130.9592
" />
<path d="M75.5400 130.9592
L75.9210 130.9592
" />
<path d="M75.9210 130.9592
L76.1114 130.8639
" />
<path d="M76.1114 130.8639
L76.2067 130.6734
" />
<path d="M76.2067 130.6734
L76.2067 130.5782
" />
<path d="M76.2067 130.5782
L76.1114 130.3877
" />
<path d="M76.1114 130.3877
L75.9210 130.2925
" />
<path d="M75.9210 130.2925
L75.6352 130.2925
" />
<path d="M75.6352 130.2925
L75.4448 130.1973
" />
<path d="M75.4448 130.1973
L75.3495 130.0068
" />
<path d="M75.3495 130.0068
L75.3495 129.9115
" />
<path d="M75.3495 129.9115
L75.4448 129.7211
" />
<path d="M75.4448 129.7211
L75.6352 129.6258
" />
<path d="M75.6352 129.6258
L75.9210 129.6258
" />
<path d="M75.9210 129.6258
L76.1114 129.7211
" />
<path d="M77.3495 130.9592
L77.1590 130.8639
" />
<path d="M77.1590 130.8639
L77.0638 130.6734
" />
<path d="M77.0638 130.6734
L77.0638 128.9592
" />
<path d="M78.3971 130.9592
L78.2067 130.8639
" />
<path d="M78.2067 130.8639
L78.1114 130.7687
" />
<path d="M78.1114 130.7687
L78.0162 130.5782
" />
<path d="M78.0162 130.5782
L78.0162 130.0068
" />
<path d="M78.0162 130.0068
L78.1114 129.8163
" />
<path d="M78.1114 129.8163
L78.2067 129.7211
" />
<path d="M78.2067 129.7211
L78.3971 129.6258
" />
<path d="M78.3971 129.6258
L78.6829 129.6258
" />
<path d="M78.6829 129.6258
L78.8733 129.7211
" />
<path d="M78.8733 129.7211
L78.9686 129.8163
" />
<path d="M78.9686 129.8163
L79.0638 130.0068
" />
<path d="M79.0638 130.0068
L79.0638 130.5782
" />
<path d="M79.0638 130.5782
L78.9686 130.7687
" />
<path d="M78.9686 130.7687
L78.8733 130.8639
" />
<path d="M78.8733 130.8639
L78.6829 130.9592
" />
<path d="M78.6829 130.9592
L78.3971 130.9592
" />
<path d="M79.6352 129.6258
L80.3971 129.6258
" />
<path d="M79.9210 128.9592
L79.9210 130.6734
" />
<path d="M79.9210 130.6734
L80.0162 130.8639
" />
<path d="M80.0162 130.8639
L80.2067 130.9592
" />
<path d="M80.2067 130.9592
L80.3971 130.9592
" />
<path d="M80.9686 130.8639
L81.1590 130.9592
" />
<path d="M81.1590 130.9592
L81.5400 130.9592
" />
<path d="M81.5400 130.9592
L81.7305 130.8639
" />
<path d="M81.7305 130.8639
L81.8257 130.6734
" />
<path d="M81.8257 130.6734
L81.8257 130.5782
" />
<path d="M81.8257 130.5782
L81.7305 130.3877
" />
<path d="M81.7305 130.3877
L81.5400 130.2925
" />
<path d="M81.5400 130.2925
L81.2543 130.2925
" />
<path d="M81.2543 130.2925
L81.0638 130.1973
" />
<path d="M81.0638 130.1973
L80.9686 130.0068
" />
<path d="M80.9686 130.0068
L80.9686 129.9115
" />
<path d="M80.9686 129.9115
L81.0638 129.7211
" />
<path d="M81.0638 129.7211
L81.2543 129.6258
" />
<path d="M81.2543 129.6258
L81.5400 129.6258
" />
<path d="M81.5400 129.6258
L81.7305 129.7211
" />
<path d="M82.4924 131.7211
L82.5876 131.6258
" />
<path d="M82.5876 131.6258
L82.7781 131.3401
" />
<path d="M82.7781 131.3401
L82.8733 131.1496
" />
<path d="M82.8733 131.1496
L82.9686 130.8639
" />
<path d="M82.9686 130.8639
L83.0638 130.3877
" />
<path d="M83.0638 130.3877
L83.0638 130.0068
" />
<path d="M83.0638 130.0068
L82.9686 129.5306
" />
<path d="M82.9686 129.5306
L82.8733 129.2449
" />
<path d="M82.8733 129.2449
L82.7781 129.0544
" />
<path d="M82.7781 129.0544
L82.5876 128.7687
" />
<path d="M82.5876 128.7687
L82.4924 128.6734
" />
</g></g>
<g style="fill:#000000; fill-opacity:0.0; 
stroke:#000000; stroke-width:0.2000; stroke-opacity:1; 
stroke-linecap:round; stroke-linejoin:round;">
<path d="M17.5513 131.6843
L17.5513 133.6843
" />
<path d="M16.5513 132.6843
L18.5513 132.6843
" />
</g>
<g style="fill:#000000; fill-opacity:0.0; 
stroke:#000000; stroke-width:0.3032; stroke-opacity:1; 
stroke-linecap:round; stroke-linejoin:round;">
</g>
<g style="fill:#000000; fill-opacity:0.0; 
stroke:#000000; stroke-width:0.2000; stroke-opacity:1; 
stroke-linecap:round; stroke-linejoin:round;">
<text x="20.5513" y="133.6843"
textLength="48.7714" font-size="2.6667" lengthAdjust="spacingAndGlyphs"
text-anchor="start" opacity="0">1.500mm / 0.0591" (64 holes)</text>
<g class="stroked-text"><desc>1.500mm / 0.0591" (64 holes)</desc>
<path d="M22.2067 133.5992
L21.0638 133.5992
" />
<path d="M21.6352 133.5992
L21.6352 131.5992
" />
<path d="M21.6352 131.5992
L21.4448 131.8849
" />
<path d="M21.4448 131.8849
L21.2543 132.0754
" />
<path d="M21.2543 132.0754
L21.0638 132.1706
" />
<path d="M23.0638 133.4087
L23.1590 133.5039
" />
<path d="M23.1590 133.5039
L23.0638 133.5992
" />
<path d="M23.0638 133.5992
L22.9686 133.5039
" />
<path d="M22.9686 133.5039
L23.0638 133.4087
" />
<path d="M23.0638 133.4087
L23.0638 133.5992
" />
<path d="M24.9686 131.5992
L24.0162 131.5992
" />
<path d="M24.0162 131.5992
L23.9209 132.5515
" />
<path d="M23.9209 132.5515
L24.0162 132.4563
" />
<path d="M24.0162 132.4563
L24.2067 132.3611
" />
<path d="M24.2067 132.3611
L24.6828 132.3611
" />
<path d="M24.6828 132.3611
L24.8733 132.4563
" />
<path d="M24.8733 132.4563
L24.9686 132.5515
" />
<path d="M24.9686 132.5515
L25.0638 132.7420
" />
<path d="M25.0638 132.7420
L25.0638 133.2182
" />
<path d="M25.0638 133.2182
L24.9686 133.4087
" />
<path d="M24.9686 133.4087
L24.8733 133.5039
" />
<path d="M24.8733 133.5039
L24.6828 133.5992
" />
<path d="M24.6828 133.5992
L24.2067 133.5992
" />
<path d="M24.2067 133.5992
L24.0162 133.5039
" />
<path d="M24.0162 133.5039
L23.9209 133.4087
" />
<path d="M26.3019 131.5992
L26.4924 131.5992
" />
<path d="M26.4924 131.5992
L26.6828 131.6944
" />
<path d="M26.6828 131.6944
L26.7781 131.7896
" />
<path d="M26.7781 131.7896
L26.8733 131.9801
" />
<path d="M26.8733 131.9801
L26.9686 132.3611
" />
<path d="M26.9686 132.3611
L26.9686 132.8373
" />
<path d="M26.9686 132.8373
L26.8733 133.2182
" />
<path d="M26.8733 133.2182
L26.7781 133.4087
" />
<path d="M26.7781 133.4087
L26.6828 133.5039
" />
<path d="M26.6828 133.5039
L26.4924 133.5992
" />
<path d="M26.4924 133.5992
L26.3019 133.5992
" />
<path d="M26.3019 133.5992
L26.1114 133.5039
" />
<path d="M26.1114 133.5039
L26.0162 133.4087
" />
<path d="M26.0162 133.4087
L25.9209 133.2182
" />
<path d="M25.9209 133.2182
L25.8257 132.8373
" />
<path d="M25.8257 132.8373
L25.8257 132.3611
" />
<path d="M25.8257 132.3611
L25.9209 131.9801
" />
<path d="M25.9209 131.9801
L26.0162 131.7896
" />
<path d="M26.0162 131.7896
L26.1114 131.6944
" />
<path d="M26.1114 131.6944
L26.3019 131.5992
" />
<path d="M28.2067 131.5992
L28.3971 131.5992
" />
<path d="M28.3971 131.5992
L28.5876 131.6944
" />
<path d="M28.5876 131.6944
L28.6828 131.7896
" />
<path d="M28.6828 131.7896
L28.7781 131.9801
" />
<path d="M28.7781 131.9801
L28.8733 132.3611
" />
<path d="M28.8733 132.3611
L28.8733 132.8373
" />
<path d="M28.8733 132.8373
L28.7781 133.2182
" />
<path d="M28.7781 133.2182
L28.6828 133.4087
" />
<path d="M28.6828 133.4087
L28.5876 133.5039
" />
<path d="M28.5876 133.5039
L28.3971 133.5992
" />
<path d="M28.3971 133.5992
L28.2067 133.5992
" />
<path d="M28.2067 133.5992
L28.0162 133.5039
" />
<path d="M28.0162 133.5039
L27.9209 133.4087
" />
<path d="M27.9209 133.4087
L27.8257 133.2182
" />
<path d="M27.8257 133.2182
L27.7305 132.8373
" />
<path d="M27.7305 132.8373
L27.7305 132.3611
" />
<path d="M27.7305 132.3611
L27.8257 131.9801
" />
<path d="M27.8257 131.9801
L27.9209 131.7896
" />
<path d="M27.9209 131.7896
L28.0162 131.6944
" />
<path d="M28.0162 131.6944
L28.2067 131.5992
" />
<path d="M29.7305 133.5992
L29.7305 132.2658
" />
<path d="M29.7305 132.4563
L29.8257 132.3611
" />
<path d="M29.8257 132.3611
L30.0162 132.2658
" />
<path d="M30.0162 132.2658
L30.3019 132.2658
" />
<path d="M30.3019 132.2658
L30.4924 132.3611
" />
<path d="M30.4924 132.3611
L30.5876 132.5515
" />
<path d="M30.5876 132.5515
L30.5876 133.5992
" />
<path d="M30.5876 132.5515
L30.6829 132.3611
" />
<path d="M30.6829 132.3611
L30.8733 132.2658
" />
<path d="M30.8733 132.2658
L31.1590 132.2658
" />
<path d="M31.1590 132.2658
L31.3495 132.3611
" />
<path d="M31.3495 132.3611
L31.4448 132.5515
" />
<path d="M31.4448 132.5515
L31.4448 133.5992
" />
<path d="M32.3971 133.5992
L32.3971 132.2658
" />
<path d="M32.3971 132.4563
L32.4924 132.3611
" />
<path d="M32.4924 132.3611
L32.6828 132.2658
" />
<path d="M32.6828 132.2658
L32.9686 132.2658
" />
<path d="M32.9686 132.2658
L33.1590 132.3611
" />
<path d="M33.1590 132.3611
L33.2543 132.5515
" />
<path d="M33.2543 132.5515
L33.2543 133.5992
" />
<path d="M33.2543 132.5515
L33.3495 132.3611
" />
<path d="M33.3495 132.3611
L33.5400 132.2658
" />
<path d="M33.5400 132.2658
L33.8257 132.2658
" />
<path d="M33.8257 132.2658
L34.0162 132.3611
" />
<path d="M34.0162 132.3611
L34.1114 132.5515
" />
<path d="M34.1114 132.5515
L34.1114 133.5992
" />
<path d="M38.0162 131.5039
L36.3019 134.0754
" />
<path d="M40.5876 131.5992
L40.7781 131.5992
" />
<path d="M40.7781 131.5992
L40.9686 131.6944
" />
<path d="M40.9686 131.6944
L41.0638 131.7896
" />
<path d="M41.0638 131.7896
L41.1590 131.9801
" />
<path d="M41.1590 131.9801
L41.2543 132.3611
" />
<path d="M41.2543 132.3611
L41.2543 132.8373
" />
<path d="M41.2543 132.8373
L41.1590 133.2182
" />
<path d="M41.1590 133.2182
L41.0638 133.4087
" />
<path d="M41.0638 133.4087
L40.9686 133.5039
" />
<path d="M40.9686 133.5039
L40.7781 133.5992
" />
<path d="M40.7781 133.5992
L40.5876 133.5992
" />
<path d="M40.5876 133.5992
L40.3971 133.5039
" />
<path d="M40.3971 133.5039
L40.3019 133.4087
" />
<path d="M40.3019 133.4087
L40.2067 133.2182
" />
<path d="M40.2067 133.2182
L40.1114 132.8373
" />
<path d="M40.1114 132.8373
L40.1114 132.3611
" />
<path d="M40.1114 132.3611
L40.2067 131.9801
" />
<path d="M40.2067 131.9801
L40.3019 131.7896
" />
<path d="M40.3019 131.7896
L40.3971 131.6944
" />
<path d="M40.3971 131.6944
L40.5876 131.5992
" />
<path d="M42.1114 133.4087
L42.2067 133.5039
" />
<path d="M42.2067 133.5039
L42.1114 133.5992
" />
<path d="M42.1114 133.5992
L42.0162 133.5039
" />
<path d="M42.0162 133.5039
L42.1114 133.4087
" />
<path d="M42.1114 133.4087
L42.1114 133.5992
" />
<path d="M43.4448 131.5992
L43.6352 131.5992
" />
<path d="M43.6352 131.5992
L43.8257 131.6944
" />
<path d="M43.8257 131.6944
L43.9209 131.7896
" />
<path d="M43.9209 131.7896
L44.0162 131.9801
" />
<path d="M44.0162 131.9801
L44.1114 132.3611
" />
<path d="M44.1114 132.3611
L44.1114 132.8373
" />
<path d="M44.1114 132.8373
L44.0162 133.2182
" />
<path d="M44.0162 133.2182
L43.9209 133.4087
" />
<path d="M43.9209 133.4087
L43.8257 133.5039
" />
<path d="M43.8257 133.5039
L43.6352 133.5992
" />
<path d="M43.6352 133.5992
L43.4448 133.5992
" />
<path d="M43.4448 133.5992
L43.2543 133.5039
" />
<path d="M43.2543 133.5039
L43.1590 133.4087
" />
<path d="M43.1590 133.4087
L43.0638 133.2182
" />
<path d="M43.0638 133.2182
L42.9686 132.8373
" />
<path d="M42.9686 132.8373
L42.9686 132.3611
" />
<path d="M42.9686 132.3611
L43.0638 131.9801
" />
<path d="M43.0638 131.9801
L43.1590 131.7896
" />
<path d="M43.1590 131.7896
L43.2543 131.6944
" />
<path d="M43.2543 131.6944
L43.4448 131.5992
" />
<path d="M45.9209 131.5992
L44.9686 131.5992
" />
<path d="M44.9686 131.5992
L44.8733 132.5515
" />
<path d="M44.8733 132.5515
L44.9686 132.4563
" />
<path d="M44.9686 132.4563
L45.1590 132.3611
" />
<path d="M45.1590 132.3611
L45.6352 132.3611
" />
<path d="M45.6352 132.3611
L45.8257 132.4563
" />
<path d="M45.8257 132.4563
L45.9209 132.5515
" />
<path d="M45.9209 132.5515
L46.0162 132.7420
" />
<path d="M46.0162 132.7420
L46.0162 133.2182
" />
<path d="M46.0162 133.2182
L45.9209 133.4087
" />
<path d="M45.9209 133.4087
L45.8257 133.5039
" />
<path d="M45.8257 133.5039
L45.6352 133.5992
" />
<path d="M45.6352 133.5992
L45.1590 133.5992
" />
<path d="M45.1590 133.5992
L44.9686 133.5039
" />
<path d="M44.9686 133.5039
L44.8733 133.4087
" />
<path d="M46.9686 133.5992
L47.3495 133.5992
" />
<path d="M47.3495 133.5992
L47.5400 133.5039
" />
<path d="M47.5400 133.5039
L47.6352 133.4087
" />
<path d="M47.6352 133.4087
L47.8257 133.1230
" />
<path d="M47.8257 133.1230
L47.9209 132.7420
" />
<path d="M47.9209 132.7420
L47.9209 131.9801
" />
<path d="M47.9209 131.9801
L47.8257 131.7896
" />
<path d="M47.8257 131.7896
L47.7305 131.6944
" />
<path d="M47.7305 131.6944
L47.5400 131.5992
" />
<path d="M47.5400 131.5992
L47.1590 131.5992
" />
<path d="M47.1590 131.5992
L46.9686 131.6944
" />
<path d="M46.9686 131.6944
L46.8733 131.7896
" />
<path d="M46.8733 131.7896
L46.7781 131.9801
" />
<path d="M46.7781 131.9801
L46.7781 132.4563
" />
<path d="M46.7781 132.4563
L46.8733 132.6468
" />
<path d="M46.8733 132.6468
L46.9686 132.7420
" />
<path d="M46.9686 132.7420
L47.1590 132.8373
" />
<path d="M47.1590 132.8373
L47.5400 132.8373
" />
<path d="M47.5400 132.8373
L47.7305 132.7420
" />
<path d="M47.7305 132.7420
L47.8257 132.6468
" />
<path d="M47.8257 132.6468
L47.9209 132.4563
" />
<path d="M49.8257 133.5992
L48.6829 133.5992
" />
<path d="M49.2543 133.5992
L49.2543 131.5992
" />
<path d="M49.2543 131.5992
L49.0638 131.8849
" />
<path d="M49.0638 131.8849
L48.8733 132.0754
" />
<path d="M48.8733 132.0754
L48.6829 132.1706
" />
<path d="M50.5876 131.5992
L50.5876 131.9801
" />
<path d="M51.3495 131.5992
L51.3495 131.9801
" />
<path d="M54.3019 134.3611
L54.2067 134.2658
" />
<path d="M54.2067 134.2658
L54.0162 133.9801
" />
<path d="M54.0162 133.9801
L53.9209 133.7896
" />
<path d="M53.9209 133.7896
L53.8257 133.5039
" />
<path d="M53.8257 133.5039
L53.7305 133.0277
" />
<path d="M53.7305 133.0277
L53.7305 132.6468
" />
<path d="M53.7305 132.6468
L53.8257 132.1706
" />
<path d="M53.8257 132.1706
L53.9209 131.8849
" />
<path d="M53.9209 131.8849
L54.0162 131.6944
" />
<path d="M54.0162 131.6944
L54.2067 131.4087
" />
<path d="M54.2067 131.4087
L54.3019 131.3134
" />
<path d="M55.9209 131.5992
L55.5400 131.5992
" />
<path d="M55.5400 131.5992
L55.3495 131.6944
" />
<path d="M55.3495 131.6944
L55.2543 131.7896
" />
<path d="M55.2543 131.7896
L55.0638 132.0754
" />
<path d="M55.0638 132.0754
L54.9686 132.4563
" />
<path d="M54.9686 132.4563
L54.9686 133.2182
" />
<path d="M54.9686 133.2182
L55.0638 133.4087
" />
<path d="M55.0638 133.4087
L55.1590 133.5039
" />
<path d="M55.1590 133.5039
L55.3495 133.5992
" />
<path d="M55.3495 133.5992
L55.7305 133.5992
" />
<path d="M55.7305 133.5992
L55.9209 133.5039
" />
<path d="M55.9209 133.5039
L56.0162 133.4087
" />
<path d="M56.0162 133.4087
L56.1114 133.2182
" />
<path d="M56.1114 133.2182
L56.1114 132.7420
" />
<path d="M56.1114 132.7420
L56.0162 132.5515
" />
<path d="M56.0162 132.5515
L55.9209 132.4563
" />
<path d="M55.9209 132.4563
L55.7305 132.3611
" />
<path d="M55.7305 132.3611
L55.3495 132.3611
" />
<path d="M55.3495 132.3611
L55.1590 132.4563
" />
<path d="M55.1590 132.4563
L55.0638 132.5515
" />
<path d="M55.0638 132.5515
L54.9686 132.7420
" />
<path d="M57.8257 132.2658
L57.8257 133.5992
" />
<path d="M57.3495 131.5039
L56.8733 132.9325
" />
<path d="M56.8733 132.9325
L58.1114 132.9325
" />
<path d="M60.3971 133.5992
L60.3971 131.5992
" />
<path d="M61.2543 133.5992
L61.2543 132.5515
" />
<path d="M61.2543 132.5515
L61.1590 132.3611
" />
<path d="M61.1590 132.3611
L60.9686 132.2658
" />
<path d="M60.9686 132.2658
L60.6829 132.2658
" />
<path d="M60.6829 132.2658
L60.4924 132.3611
" />
<path d="M60.4924 132.3611
L60.3971 132.4563
" />
<path d="M62.4924 133.5992
L62.3019 133.5039
" />
<path d="M62.3019 133.5039
L62.2067 133.4087
" />
<path d="M62.2067 133.4087
L62.1114 133.2182
" />
<path d="M62.1114 133.2182
L62.1114 132.6468
" />
<path d="M62.1114 132.6468
L62.2067 132.4563
" />
<path d="M62.2067 132.4563
L62.3019 132.3611
" />
<path d="M62.3019 132.3611
L62.4924 132.2658
" />
<path d="M62.4924 132.2658
L62.7781 132.2658
" />
<path d="M62.7781 132.2658
L62.9686 132.3611
" />
<path d="M62.9686 132.3611
L63.0638 132.4563
" />
<path d="M63.0638 132.4563
L63.1590 132.6468
" />
<path d="M63.1590 132.6468
L63.1590 133.2182
" />
<path d="M63.1590 133.2182
L63.0638 133.4087
" />
<path d="M63.0638 133.4087
L62.9686 133.5039
" />
<path d="M62.9686 133.5039
L62.7781 133.5992
" />
<path d="M62.7781 133.5992
L62.4924 133.5992
" />
<path d="M64.3019 133.5992
L64.1114 133.5039
" />
<path d="M64.1114 133.5039
L64.0162 133.3134
" />
<path d="M64.0162 133.3134
L64.0162 131.5992
" />
<path d="M65.8257 133.5039
L65.6352 133.5992
" />
<path d="M65.6352 133.5992
L65.2543 133.5992
" />
<path d="M65.2543 133.5992
L65.0638 133.5039
" />
<path d="M65.0638 133.5039
L64.9686 133.3134
" />
<path d="M64.9686 133.3134
L64.9686 132.5515
" />
<path d="M64.9686 132.5515
L65.0638 132.3611
" />
<path d="M65.0638 132.3611
L65.2543 132.2658
" />
<path d="M65.2543 132.2658
L65.6352 132.2658
" />
<path d="M65.6352 132.2658
L65.8257 132.3611
" />
<path d="M65.8257 132.3611
L65.9210 132.5515
" />
<path d="M65.9210 132.5515
L65.9210 132.7420
" />
<path d="M65.9210 132.7420
L64.9686 132.9325
" />
<path d="M66.6829 133.5039
L66.8733 133.5992
" />
<path d="M66.8733 133.5992
L67.2543 133.5992
" />
<path d="M67.2543 133.5992
L67.4448 133.5039
" />
<path d="M67.4448 133.5039
L67.5400 133.3134
" />
<path d="M67.5400 133.3134
L67.5400 133.2182
" />
<path d="M67.5400 133.2182
L67.4448 133.0277
" />
<path d="M67.4448 133.0277
L67.2543 132.9325
" />
<path d="M67.2543 132.9325
L66.9686 132.9325
" />
<path d="M66.9686 132.9325
L66.7781 132.8373
" />
<path d="M66.7781 132.8373
L66.6829 132.6468
" />
<path d="M66.6829 132.6468
L66.6829 132.5515
" />
<path d="M66.6829 132.5515
L66.7781 132.3611
" />
<path d="M66.7781 132.3611
L66.9686 132.2658
" />
<path d="M66.9686 132.2658
L67.2543 132.2658
" />
<path d="M67.2543 132.2658
L67.4448 132.3611
" />
<path d="M68.2067 134.3611
L68.3019 134.2658
" />
<path d="M68.3019 134.2658
L68.4924 133.9801
" />
<path d="M68.4924 133.9801
L68.5876 133.7896
" />
<path d="M68.5876 133.7896
L68.6829 133.5039
" />
<path d="M68.6829 133.5039
L68.7781 133.0277
" />
<path d="M68.7781 133.0277
L68.7781 132.6468
" />
<path d="M68.7781 132.6468
L68.6829 132.1706
" />
<path d="M68.6829 132.1706
L68.5876 131.8849
" />
<path d="M68.5876 131.8849
L68.4924 131.6944
" />
<path d="M68.4924 131.6944
L68.3019 131.4087
" />
<path d="M68.3019 131.4087
L68.2067 131.3134
" />
</g></g>
<g style="fill:#000000; fill-opacity:0.0; 
stroke:#000000; stroke-width:0.2000; stroke-opacity:1; 
stroke-linecap:round; stroke-linejoin:round;">
<path style="fill:#000000; fill-opacity:0.0; 
stroke:#000000; stroke-width:0.2000; stroke-opacity:1; 
stroke-linecap:round; stroke-linejoin:round;fill:none"
d="M 18.2584,136.5914
18.2584,135.1772
16.8442,135.1772
16.8442,136.5914
Z" /> 
</g>
<g style="fill:#000000; fill-opacity:0.0; 
stroke:#000000; stroke-width:0.3032; stroke-opacity:1; 
stroke-linecap:round; stroke-linejoin:round;">
</g>
<g style="fill:#000000; fill-opacity:0.0; 
stroke:#000000; stroke-width:0.2000; stroke-opacity:1; 
stroke-linecap:round; stroke-linejoin:round;">
<text x="20.5513" y="136.8843"
textLength="48.7714" font-size="2.6667" lengthAdjust="spacingAndGlyphs"
text-anchor="start" opacity="0">2.500mm / 0.0984" (12 holes)</text>
<g class="stroked-text"><desc>2.500mm / 0.0984" (12 holes)</desc>
<path d="M21.0638 134.9896
L21.1590 134.8944
" />
<path d="M21.1590 134.8944
L21.3495 134.7992
" />
<path d="M21.3495 134.7992
L21.8257 134.7992
" />
<path d="M21.8257 134.7992
L22.0162 134.8944
" />
<path d="M22.0162 134.8944
L22.1114 134.9896
" />
<path d="M22.1114 134.9896
L22.2067 135.1801
" />
<path d="M22.2067 135.1801
L22.2067 135.3706
" />
<path d="M22.2067 135.3706
L22.1114 135.6563
" />
<path d="M22.1114 135.6563
L20.9686 136.7992
" />
<path d="M20.9686 136.7992
L22.2067 136.7992
" />
<path d="M23.0638 136.6087
L23.1590 136.7039
" />
<path d="M23.1590 136.7039
L23.0638 136.7992
" />
<path d="M23.0638 136.7992
L22.9686 136.7039
" />
<path d="M22.9686 136.7039
L23.0638 136.6087
" />
<path d="M23.0638 136.6087
L23.0638 136.7992
" />
<path d="M24.9686 134.7992
L24.0162 134.7992
" />
<path d="M24.0162 134.7992
L23.9209 135.7515
" />
<path d="M23.9209 135.7515
L24.0162 135.6563
" />
<path d="M24.0162 135.6563
L24.2067 135.5611
" />
<path d="M24.2067 135.5611
L24.6828 135.5611
" />
<path d="M24.6828 135.5611
L24.8733 135.6563
" />
<path d="M24.8733 135.6563
L24.9686 135.7515
" />
<path d="M24.9686 135.7515
L25.0638 135.9420
" />
<path d="M25.0638 135.9420
L25.0638 136.4182
" />
<path d="M25.0638 136.4182
L24.9686 136.6087
" />
<path d="M24.9686 136.6087
L24.8733 136.7039
" />
<path d="M24.8733 136.7039
L24.6828 136.7992
" />
<path d="M24.6828 136.7992
L24.2067 136.7992
" />
<path d="M24.2067 136.7992
L24.0162 136.7039
" />
<path d="M24.0162 136.7039
L23.9209 136.6087
" />
<path d="M26.3019 134.7992
L26.4924 134.7992
" />
<path d="M26.4924 134.7992
L26.6828 134.8944
" />
<path d="M26.6828 134.8944
L26.7781 134.9896
" />
<path d="M26.7781 134.9896
L26.8733 135.1801
" />
<path d="M26.8733 135.1801
L26.9686 135.5611
" />
<path d="M26.9686 135.5611
L26.9686 136.0373
" />
<path d="M26.9686 136.0373
L26.8733 136.4182
" />
<path d="M26.8733 136.4182
L26.7781 136.6087
" />
<path d="M26.7781 136.6087
L26.6828 136.7039
" />
<path d="M26.6828 136.7039
L26.4924 136.7992
" />
<path d="M26.4924 136.7992
L26.3019 136.7992
" />
<path d="M26.3019 136.7992
L26.1114 136.7039
" />
<path d="M26.1114 136.7039
L26.0162 136.6087
" />
<path d="M26.0162 136.6087
L25.9209 136.4182
" />
<path d="M25.9209 136.4182
L25.8257 136.0373
" />
<path d="M25.8257 136.0373
L25.8257 135.5611
" />
<path d="M25.8257 135.5611
L25.9209 135.1801
" />
<path d="M25.9209 135.1801
L26.0162 134.9896
" />
<path d="M26.0162 134.9896
L26.1114 134.8944
" />
<path d="M26.1114 134.8944
L26.3019 134.7992
" />
<path d="M28.2067 134.7992
L28.3971 134.7992
" />
<path d="M28.3971 134.7992
L28.5876 134.8944
" />
<path d="M28.5876 134.8944
L28.6828 134.9896
" />
<path d="M28.6828 134.9896
L28.7781 135.1801
" />
<path d="M28.7781 135.1801
L28.8733 135.5611
" />
<path d="M28.8733 135.5611
L28.8733 136.0373
" />
<path d="M28.8733 136.0373
L28.7781 136.4182
" />
<path d="M28.7781 136.4182
L28.6828 136.6087
" />
<path d="M28.6828 136.6087
L28.5876 136.7039
" />
<path d="M28.5876 136.7039
L28.3971 136.7992
" />
<path d="M28.3971 136.7992
L28.2067 136.7992
" />
<path d="M28.2067 136.7992
L28.0162 136.7039
" />
<path d="M28.0162 136.7039
L27.9209 136.6087
" />
<path d="M27.9209 136.6087
L27.8257 136.4182
" />
<path d="M27.8257 136.4182
L27.7305 136.0373
" />
<path d="M27.7305 136.0373
L27.7305 135.5611
" />
<path d="M27.7305 135.5611
L27.8257 135.1801
" />
<path d="M27.8257 135.1801
L27.9209 134.9896
" />
<path d="M27.9209 134.9896
L28.0162 134.8944
" />
<path d="M28.0162 134.8944
L28.2067 134.7992
" />
<path d="M29.7305 136.7992
L29.7305 135.4658
" />
<path d="M29.7305 135.6563
L29.8257 135.5611
" />
<path d="M29.8257 135.5611
L30.0162 135.4658
" />
<path d="M30.0162 135.4658
L30.3019 135.4658
" />
<path d="M30.3019 135.4658
L30.4924 135.5611
" />
<path d="M30.4924 135.5611
L30.5876 135.7515
" />
<path d="M30.5876 135.7515
L30.5876 136.7992
" />
<path d="M30.5876 135.7515
L30.6829 135.5611
" />
<path d="M30.6829 135.5611
L30.8733 135.4658
" />
<path d="M30.8733 135.4658
L31.1590 135.4658
" />
<path d="M31.1590 135.4658
L31.3495 135.5611
" />
<path d="M31.3495 135.5611
L31.4448 135.7515
" />
<path d="M31.4448 135.7515
L31.4448 136.7992
" />
<path d="M32.3971 136.7992
L32.3971 135.4658
" />
<path d="M32.3971 135.6563
L32.4924 135.5611
" />
<path d="M32.4924 135.5611
L32.6828 135.4658
" />
<path d="M32.6828 135.4658
L32.9686 135.4658
" />
<path d="M32.9686 135.4658
L33.1590 135.5611
" />
<path d="M33.1590 135.5611
L33.2543 135.7515
" />
<path d="M33.2543 135.7515
L33.2543 136.7992
" />
<path d="M33.2543 135.7515
L33.3495 135.5611
" />
<path d="M33.3495 135.5611
L33.5400 135.4658
" />
<path d="M33.5400 135.4658
L33.8257 135.4658
" />
<path d="M33.8257 135.4658
L34.0162 135.5611
" />
<path d="M34.0162 135.5611
L34.1114 135.7515
" />
<path d="M34.1114 135.7515
L34.1114 136.7992
" />
<path d="M38.0162 134.7039
L36.3019 137.2754
" />
<path d="M40.5876 134.7992
L40.7781 134.7992
" />
<path d="M40.7781 134.7992
L40.9686 134.8944
" />
<path d="M40.9686 134.8944
L41.0638 134.9896
" />
<path d="M41.0638 134.9896
L41.1590 135.1801
" />
<path d="M41.1590 135.1801
L41.2543 135.5611
" />
<path d="M41.2543 135.5611
L41.2543 136.0373
" />
<path d="M41.2543 136.0373
L41.1590 136.4182
" />
<path d="M41.1590 136.4182
L41.0638 136.6087
" />
<path d="M41.0638 136.6087
L40.9686 136.7039
" />
<path d="M40.9686 136.7039
L40.7781 136.7992
" />
<path d="M40.7781 136.7992
L40.5876 136.7992
" />
<path d="M40.5876 136.7992
L40.3971 136.7039
" />
<path d="M40.3971 136.7039
L40.3019 136.6087
" />
<path d="M40.3019 136.6087
L40.2067 136.4182
" />
<path d="M40.2067 136.4182
L40.1114 136.0373
" />
<path d="M40.1114 136.0373
L40.1114 135.5611
" />
<path d="M40.1114 135.5611
L40.2067 135.1801
" />
<path d="M40.2067 135.1801
L40.3019 134.9896
" />
<path d="M40.3019 134.9896
L40.3971 134.8944
" />
<path d="M40.3971 134.8944
L40.5876 134.7992
" />
<path d="M42.1114 136.6087
L42.2067 136.7039
" />
<path d="M42.2067 136.7039
L42.1114 136.7992
" />
<path d="M42.1114 136.7992
L42.0162 136.7039
" />
<path d="M42.0162 136.7039
L42.1114 136.6087
" />
<path d="M42.1114 136.6087
L42.1114 136.7992
" />
<path d="M43.4448 134.7992
L43.6352 134.7992
" />
<path d="M43.6352 134.7992
L43.8257 134.8944
" />
<path d="M43.8257 134.8944
L43.9209 134.9896
" />
<path d="M43.9209 134.9896
L44.0162 135.1801
" />
<path d="M44.0162 135.1801
L44.1114 135.5611
" />
<path d="M44.1114 135.5611
L44.1114 136.0373
" />
<path d="M44.1114 136.0373
L44.0162 136.4182
" />
<path d="M44.0162 136.4182
L43.9209 136.6087
" />
<path d="M43.9209 136.6087
L43.8257 136.7039
" />
<path d="M43.8257 136.7039
L43.6352 136.7992
" />
<path d="M43.6352 136.7992
L43.4448 136.7992
" />
<path d="M43.4448 136.7992
L43.2543 136.7039
" />
<path d="M43.2543 136.7039
L43.1590 136.6087
" />
<path d="M43.1590 136.6087
L43.0638 136.4182
" />
<path d="M43.0638 136.4182
L42.9686 136.0373
" />
<path d="M42.9686 136.0373
L42.9686 135.5611
" />
<path d="M42.9686 135.5611
L43.0638 135.1801
" />
<path d="M43.0638 135.1801
L43.1590 134.9896
" />
<path d="M43.1590 134.9896
L43.2543 134.8944
" />
<path d="M43.2543 134.8944
L43.4448 134.7992
" />
<path d="M45.0638 136.7992
L45.4448 136.7992
" />
<path d="M45.4448 136.7992
L45.6352 136.7039
" />
<path d="M45.6352 136.7039
L45.7305 136.6087
" />
<path d="M45.7305 136.6087
L45.9209 136.3230
" />
<path d="M45.9209 136.3230
L46.0162 135.9420
" />
<path d="M46.0162 135.9420
L46.0162 135.1801
" />
<path d="M46.0162 135.1801
L45.9209 134.9896
" />
<path d="M45.9209 134.9896
L45.8257 134.8944
" />
<path d="M45.8257 134.8944
L45.6352 134.7992
" />
<path d="M45.6352 134.7992
L45.2543 134.7992
" />
<path d="M45.2543 134.7992
L45.0638 134.8944
" />
<path d="M45.0638 134.8944
L44.9686 134.9896
" />
<path d="M44.9686 134.9896
L44.8733 135.1801
" />
<path d="M44.8733 135.1801
L44.8733 135.6563
" />
<path d="M44.8733 135.6563
L44.9686 135.8468
" />
<path d="M44.9686 135.8468
L45.0638 135.9420
" />
<path d="M45.0638 135.9420
L45.2543 136.0373
" />
<path d="M45.2543 136.0373
L45.6352 136.0373
" />
<path d="M45.6352 136.0373
L45.8257 135.9420
" />
<path d="M45.8257 135.9420
L45.9209 135.8468
" />
<path d="M45.9209 135.8468
L46.0162 135.6563
" />
<path d="M47.1590 135.6563
L46.9686 135.5611
" />
<path d="M46.9686 135.5611
L46.8733 135.4658
" />
<path d="M46.8733 135.4658
L46.7781 135.2754
" />
<path d="M46.7781 135.2754
L46.7781 135.1801
" />
<path d="M46.7781 135.1801
L46.8733 134.9896
" />
<path d="M46.8733 134.9896
L46.9686 134.8944
" />
<path d="M46.9686 134.8944
L47.1590 134.7992
" />
<path d="M47.1590 134.7992
L47.5400 134.7992
" />
<path d="M47.5400 134.7992
L47.7305 134.8944
" />
<path d="M47.7305 134.8944
L47.8257 134.9896
" />
<path d="M47.8257 134.9896
L47.9209 135.1801
" />
<path d="M47.9209 135.1801
L47.9209 135.2754
" />
<path d="M47.9209 135.2754
L47.8257 135.4658
" />
<path d="M47.8257 135.4658
L47.7305 135.5611
" />
<path d="M47.7305 135.5611
L47.5400 135.6563
" />
<path d="M47.5400 135.6563
L47.1590 135.6563
" />
<path d="M47.1590 135.6563
L46.9686 135.7515
" />
<path d="M46.9686 135.7515
L46.8733 135.8468
" />
<path d="M46.8733 135.8468
L46.7781 136.0373
" />
<path d="M46.7781 136.0373
L46.7781 136.4182
" />
<path d="M46.7781 136.4182
L46.8733 136.6087
" />
<path d="M46.8733 136.6087
L46.9686 136.7039
" />
<path d="M46.9686 136.7039
L47.1590 136.7992
" />
<path d="M47.1590 136.7992
L47.5400 136.7992
" />
<path d="M47.5400 136.7992
L47.7305 136.7039
" />
<path d="M47.7305 136.7039
L47.8257 136.6087
" />
<path d="M47.8257 136.6087
L47.9209 136.4182
" />
<path d="M47.9209 136.4182
L47.9209 136.0373
" />
<path d="M47.9209 136.0373
L47.8257 135.8468
" />
<path d="M47.8257 135.8468
L47.7305 135.7515
" />
<path d="M47.7305 135.7515
L47.5400 135.6563
" />
<path d="M49.6352 135.4658
L49.6352 136.7992
" />
<path d="M49.1590 134.7039
L48.6829 136.1325
" />
<path d="M48.6829 136.1325
L49.9209 136.1325
" />
<path d="M50.5876 134.7992
L50.5876 135.1801
" />
<path d="M51.3495 134.7992
L51.3495 135.1801
" />
<path d="M54.3019 137.5611
L54.2067 137.4658
" />
<path d="M54.2067 137.4658
L54.0162 137.1801
" />
<path d="M54.0162 137.1801
L53.9209 136.9896
" />
<path d="M53.9209 136.9896
L53.8257 136.7039
" />
<path d="M53.8257 136.7039
L53.7305 136.2277
" />
<path d="M53.7305 136.2277
L53.7305 135.8468
" />
<path d="M53.7305 135.8468
L53.8257 135.3706
" />
<path d="M53.8257 135.3706
L53.9209 135.0849
" />
<path d="M53.9209 135.0849
L54.0162 134.8944
" />
<path d="M54.0162 134.8944
L54.2067 134.6087
" />
<path d="M54.2067 134.6087
L54.3019 134.5134
" />
<path d="M56.1114 136.7992
L54.9686 136.7992
" />
<path d="M55.5400 136.7992
L55.5400 134.7992
" />
<path d="M55.5400 134.7992
L55.3495 135.0849
" />
<path d="M55.3495 135.0849
L55.1590 135.2754
" />
<path d="M55.1590 135.2754
L54.9686 135.3706
" />
<path d="M56.8733 134.9896
L56.9686 134.8944
" />
<path d="M56.9686 134.8944
L57.1590 134.7992
" />
<path d="M57.1590 134.7992
L57.6352 134.7992
" />
<path d="M57.6352 134.7992
L57.8257 134.8944
" />
<path d="M57.8257 134.8944
L57.9210 134.9896
" />
<path d="M57.9210 134.9896
L58.0162 135.1801
" />
<path d="M58.0162 135.1801
L58.0162 135.3706
" />
<path d="M58.0162 135.3706
L57.9210 135.6563
" />
<path d="M57.9210 135.6563
L56.7781 136.7992
" />
<path d="M56.7781 136.7992
L58.0162 136.7992
" />
<path d="M60.3971 136.7992
L60.3971 134.7992
" />
<path d="M61.2543 136.7992
L61.2543 135.7515
" />
<path d="M61.2543 135.7515
L61.1590 135.5611
" />
<path d="M61.1590 135.5611
L60.9686 135.4658
" />
<path d="M60.9686 135.4658
L60.6829 135.4658
" />
<path d="M60.6829 135.4658
L60.4924 135.5611
" />
<path d="M60.4924 135.5611
L60.3971 135.6563
" />
<path d="M62.4924 136.7992
L62.3019 136.7039
" />
<path d="M62.3019 136.7039
L62.2067 136.6087
" />
<path d="M62.2067 136.6087
L62.1114 136.4182
" />
<path d="M62.1114 136.4182
L62.1114 135.8468
" />
<path d="M62.1114 135.8468
L62.2067 135.6563
" />
<path d="M62.2067 135.6563
L62.3019 135.5611
" />
<path d="M62.3019 135.5611
L62.4924 135.4658
" />
<path d="M62.4924 135.4658
L62.7781 135.4658
" />
<path d="M62.7781 135.4658
L62.9686 135.5611
" />
<path d="M62.9686 135.5611
L63.0638 135.6563
" />
<path d="M63.0638 135.6563
L63.1590 135.8468
" />
<path d="M63.1590 135.8468
L63.1590 136.4182
" />
<path d="M63.1590 136.4182
L63.0638 136.6087
" />
<path d="M63.0638 136.6087
L62.9686 136.7039
" />
<path d="M62.9686 136.7039
L62.7781 136.7992
" />
<path d="M62.7781 136.7992
L62.4924 136.7992
" />
<path d="M64.3019 136.7992
L64.1114 136.7039
" />
<path d="M64.1114 136.7039
L64.0162 136.5134
" />
<path d="M64.0162 136.5134
L64.0162 134.7992
" />
<path d="M65.8257 136.7039
L65.6352 136.7992
" />
<path d="M65.6352 136.7992
L65.2543 136.7992
" />
<path d="M65.2543 136.7992
L65.0638 136.7039
" />
<path d="M65.0638 136.7039
L64.9686 136.5134
" />
<path d="M64.9686 136.5134
L64.9686 135.7515
" />
<path d="M64.9686 135.7515
L65.0638 135.5611
" />
<path d="M65.0638 135.5611
L65.2543 135.4658
" />
<path d="M65.2543 135.4658
L65.6352 135.4658
" />
<path d="M65.6352 135.4658
L65.8257 135.5611
" />
<path d="M65.8257 135.5611
L65.9210 135.7515
" />
<path d="M65.9210 135.7515
L65.9210 135.9420
" />
<path d="M65.9210 135.9420
L64.9686 136.1325
" />
<path d="M66.6829 136.7039
L66.8733 136.7992
" />
<path d="M66.8733 136.7992
L67.2543 136.7992
" />
<path d="M67.2543 136.7992
L67.4448 136.7039
" />
<path d="M67.4448 136.7039
L67.5400 136.5134
" />
<path d="M67.5400 136.5134
L67.5400 136.4182
" />
<path d="M67.5400 136.4182
L67.4448 136.2277
" />
<path d="M67.4448 136.2277
L67.2543 136.1325
" />
<path d="M67.2543 136.1325
L66.9686 136.1325
" />
<path d="M66.9686 136.1325
L66.7781 136.0373
" />
<path d="M66.7781 136.0373
L66.6829 135.8468
" />
<path d="M66.6829 135.8468
L66.6829 135.7515
" />
<path d="M66.6829 135.7515
L66.7781 135.5611
" />
<path d="M66.7781 135.5611
L66.9686 135.4658
" />
<path d="M66.9686 135.4658
L67.2543 135.4658
" />
<path d="M67.2543 135.4658
L67.4448 135.5611
" />
<path d="M68.2067 137.5611
L68.3019 137.4658
" />
<path d="M68.3019 137.4658
L68.4924 137.1801
" />
<path d="M68.4924 137.1801
L68.5876 136.9896
" />
<path d="M68.5876 136.9896
L68.6829 136.7039
" />
<path d="M68.6829 136.7039
L68.7781 136.2277
" />
<path d="M68.7781 136.2277
L68.7781 135.8468
" />
<path d="M68.7781 135.8468
L68.6829 135.3706
" />
<path d="M68.6829 135.3706
L68.5876 135.0849
" />
<path d="M68.5876 135.0849
L68.4924 134.8944
" />
<path d="M68.4924 134.8944
L68.3019 134.6087
" />
<path d="M68.3019 134.6087
L68.2067 134.5134
" />
</g></g> 
</svg>
