%TF.GenerationSoftware,KiCad,Pcbnew,7.0.8*%
%TF.CreationDate,2024-02-21T20:33:01-06:00*%
%TF.ProjectId,rattlemebones32,72617474-6c65-46d6-9562-6f6e65733332,rev?*%
%TF.SameCoordinates,Original*%
%TF.FileFunction,Legend,Bot*%
%TF.FilePolarity,Positive*%
%FSLAX46Y46*%
G04 Gerber Fmt 4.6, Leading zero omitted, Abs format (unit mm)*
G04 Created by KiCad (PCBNEW 7.0.8) date 2024-02-21 20:33:01*
%MOMM*%
%LPD*%
G01*
G04 APERTURE LIST*
%ADD10C,0.000000*%
%ADD11C,0.300000*%
%ADD12C,0.200000*%
%ADD13C,0.150000*%
%ADD14C,0.120000*%
G04 APERTURE END LIST*
D10*
G36*
X106695617Y-67214488D02*
G01*
X106279483Y-68767518D01*
X105888412Y-70227010D01*
X102875891Y-71034213D01*
X100670571Y-68828894D01*
X100879334Y-68049780D01*
X101422958Y-68049780D01*
X101424079Y-68142564D01*
X101429032Y-68234781D01*
X101437747Y-68326326D01*
X101450179Y-68417100D01*
X101466260Y-68507001D01*
X101485933Y-68595927D01*
X101509144Y-68683778D01*
X101535830Y-68770450D01*
X101565932Y-68855841D01*
X101599396Y-68939852D01*
X101620938Y-68889667D01*
X101643888Y-68840408D01*
X101651206Y-68825877D01*
X102508976Y-68825877D01*
X102509035Y-68829866D01*
X102509282Y-68833861D01*
X102509720Y-68837849D01*
X102510350Y-68841834D01*
X102511177Y-68845798D01*
X102512199Y-68849740D01*
X102513417Y-68853658D01*
X102514838Y-68857534D01*
X102516461Y-68861368D01*
X102518289Y-68865154D01*
X102520320Y-68868882D01*
X102522534Y-68872505D01*
X102524898Y-68875981D01*
X102527408Y-68879300D01*
X102530056Y-68882471D01*
X102532834Y-68885483D01*
X102535738Y-68888341D01*
X102538760Y-68891040D01*
X102541891Y-68893575D01*
X102545129Y-68895951D01*
X102548466Y-68898163D01*
X102551890Y-68900207D01*
X102555401Y-68902083D01*
X102558988Y-68903790D01*
X102562645Y-68905326D01*
X102566367Y-68906687D01*
X102570147Y-68907874D01*
X102573975Y-68908884D01*
X102577847Y-68909716D01*
X102581759Y-68910368D01*
X102585697Y-68910835D01*
X102589662Y-68911120D01*
X102593642Y-68911218D01*
X102597631Y-68911128D01*
X102601627Y-68910849D01*
X102605615Y-68910377D01*
X102609597Y-68909714D01*
X102613556Y-68908857D01*
X102617497Y-68907803D01*
X102621406Y-68906548D01*
X102625274Y-68905093D01*
X102629101Y-68903435D01*
X102632878Y-68901577D01*
X102632898Y-68901607D01*
X102632906Y-68901624D01*
X102632915Y-68901641D01*
X102635978Y-68899872D01*
X102865639Y-68767279D01*
X103000000Y-69000000D01*
X103000018Y-68999990D01*
X103000032Y-68999980D01*
X103000050Y-68999971D01*
X103000065Y-68999963D01*
X103002406Y-69003463D01*
X103004892Y-69006810D01*
X103007517Y-69010006D01*
X103010275Y-69013044D01*
X103013158Y-69015930D01*
X103016161Y-69018654D01*
X103019275Y-69021217D01*
X103022493Y-69023621D01*
X103025815Y-69025858D01*
X103029224Y-69027931D01*
X103032719Y-69029837D01*
X103036295Y-69031572D01*
X103039940Y-69033137D01*
X103043653Y-69034531D01*
X103047422Y-69035743D01*
X103051244Y-69036786D01*
X103055110Y-69037646D01*
X103059014Y-69038327D01*
X103062951Y-69038826D01*
X103066910Y-69039141D01*
X103070888Y-69039272D01*
X103074878Y-69039214D01*
X103078872Y-69038968D01*
X103082861Y-69038530D01*
X103086843Y-69037900D01*
X103090808Y-69037074D01*
X103094752Y-69036050D01*
X103098665Y-69034831D01*
X103102542Y-69033410D01*
X103106378Y-69031788D01*
X103110163Y-69029959D01*
X103113893Y-69027929D01*
X103117516Y-69025716D01*
X103120989Y-69023351D01*
X103124311Y-69020840D01*
X103127482Y-69018192D01*
X103130496Y-69015414D01*
X103133352Y-69012510D01*
X103136050Y-69009487D01*
X103138586Y-69006355D01*
X103140963Y-69003118D01*
X103143173Y-68999783D01*
X103145218Y-68996359D01*
X103147093Y-68992847D01*
X103148801Y-68989258D01*
X103150337Y-68985603D01*
X103151699Y-68981879D01*
X103152886Y-68978100D01*
X103153896Y-68974272D01*
X103154728Y-68970398D01*
X103155376Y-68966489D01*
X103155845Y-68962548D01*
X103156131Y-68958585D01*
X103156228Y-68954606D01*
X103156139Y-68950616D01*
X103155859Y-68946621D01*
X103155390Y-68942632D01*
X103154725Y-68938652D01*
X103153868Y-68934689D01*
X103152813Y-68930751D01*
X103151558Y-68926842D01*
X103150103Y-68922972D01*
X103148448Y-68919147D01*
X103146586Y-68915369D01*
X103146601Y-68915361D01*
X103146619Y-68915351D01*
X103146651Y-68915331D01*
X103119661Y-68868583D01*
X103626629Y-68868583D01*
X103626662Y-68872657D01*
X103626890Y-68876700D01*
X103627311Y-68880709D01*
X103627921Y-68884679D01*
X103628714Y-68888598D01*
X103629695Y-68892468D01*
X103630845Y-68896275D01*
X103632176Y-68900019D01*
X103633677Y-68903692D01*
X103635347Y-68907287D01*
X103637179Y-68910798D01*
X103639173Y-68914222D01*
X103641322Y-68917546D01*
X103643628Y-68920772D01*
X103646083Y-68923889D01*
X103648685Y-68926893D01*
X103651430Y-68929777D01*
X103654314Y-68932536D01*
X103657335Y-68935161D01*
X103660489Y-68937649D01*
X103663771Y-68939995D01*
X103667179Y-68942189D01*
X103670713Y-68944226D01*
X103674364Y-68946104D01*
X103678129Y-68947813D01*
X103682006Y-68949349D01*
X103685992Y-68950703D01*
X103685970Y-68950779D01*
X103945539Y-69020331D01*
X103902999Y-69179094D01*
X103875987Y-69279898D01*
X103876065Y-69279919D01*
X103875246Y-69284048D01*
X103874633Y-69288174D01*
X103874229Y-69292289D01*
X103874032Y-69296388D01*
X103874031Y-69300466D01*
X103874230Y-69304516D01*
X103874618Y-69308530D01*
X103875195Y-69312508D01*
X103875958Y-69316435D01*
X103876905Y-69320313D01*
X103878033Y-69324134D01*
X103879333Y-69327887D01*
X103880803Y-69331571D01*
X103882445Y-69335179D01*
X103884251Y-69338706D01*
X103886217Y-69342144D01*
X103888341Y-69345486D01*
X103890618Y-69348729D01*
X103893051Y-69351865D01*
X103895628Y-69354889D01*
X103898349Y-69357792D01*
X103901209Y-69360574D01*
X103904207Y-69363220D01*
X103907339Y-69365732D01*
X103910602Y-69368104D01*
X103913988Y-69370323D01*
X103917500Y-69372386D01*
X103921132Y-69374293D01*
X103924877Y-69376029D01*
X103928737Y-69377594D01*
X103932704Y-69378980D01*
X103936777Y-69380181D01*
X103940908Y-69381176D01*
X103945035Y-69381963D01*
X103949159Y-69382536D01*
X103953271Y-69382904D01*
X103957368Y-69383073D01*
X103961442Y-69383040D01*
X103965486Y-69382810D01*
X103969496Y-69382386D01*
X103973462Y-69381779D01*
X103977387Y-69380983D01*
X103981252Y-69380007D01*
X103985061Y-69378851D01*
X103988805Y-69377523D01*
X103992475Y-69376022D01*
X103996072Y-69374354D01*
X103999584Y-69372521D01*
X104003006Y-69370526D01*
X104006332Y-69368376D01*
X104009555Y-69366071D01*
X104012676Y-69363617D01*
X104015679Y-69361014D01*
X104018562Y-69358272D01*
X104021321Y-69355385D01*
X104023947Y-69352366D01*
X104026434Y-69349209D01*
X104028779Y-69345926D01*
X104030977Y-69342517D01*
X104033014Y-69338987D01*
X104034890Y-69335336D01*
X104036599Y-69331571D01*
X104038133Y-69327692D01*
X104039488Y-69323708D01*
X104039564Y-69323727D01*
X104109116Y-69064161D01*
X104368685Y-69133710D01*
X104368704Y-69133634D01*
X104372833Y-69134454D01*
X104376957Y-69135067D01*
X104381073Y-69135469D01*
X104385172Y-69135667D01*
X104389251Y-69135668D01*
X104393301Y-69135470D01*
X104397316Y-69135084D01*
X104401292Y-69134505D01*
X104405221Y-69133740D01*
X104409098Y-69132794D01*
X104412917Y-69131668D01*
X104416673Y-69130368D01*
X104420358Y-69128896D01*
X104423966Y-69127255D01*
X104427491Y-69125450D01*
X104430930Y-69123484D01*
X104434272Y-69121361D01*
X104437516Y-69119077D01*
X104440650Y-69116650D01*
X104443671Y-69114072D01*
X104446575Y-69111352D01*
X104449359Y-69108489D01*
X104452008Y-69105491D01*
X104454520Y-69102360D01*
X104456889Y-69099098D01*
X104459109Y-69095712D01*
X104461174Y-69092199D01*
X104463077Y-69088568D01*
X104464817Y-69084822D01*
X104466381Y-69080964D01*
X104467767Y-69076995D01*
X104468964Y-69072921D01*
X104469963Y-69068795D01*
X104470748Y-69064665D01*
X104471321Y-69060543D01*
X104471690Y-69056428D01*
X104471856Y-69052331D01*
X104471824Y-69048258D01*
X104471596Y-69044214D01*
X104471173Y-69040204D01*
X104470564Y-69036237D01*
X104469769Y-69032315D01*
X104468792Y-69028446D01*
X104467639Y-69024638D01*
X104466310Y-69020893D01*
X104464806Y-69017223D01*
X104463138Y-69013627D01*
X104461306Y-69010118D01*
X104459311Y-69006692D01*
X104457162Y-69003369D01*
X104454856Y-69000143D01*
X104452400Y-68997024D01*
X104449801Y-68994022D01*
X104447056Y-68991137D01*
X104444169Y-68988379D01*
X104441150Y-68985752D01*
X104437998Y-68983261D01*
X104434714Y-68980919D01*
X104431304Y-68978724D01*
X104427773Y-68976685D01*
X104424123Y-68974809D01*
X104420357Y-68973100D01*
X104416481Y-68971566D01*
X104412493Y-68970211D01*
X104412515Y-68970136D01*
X104152945Y-68900585D01*
X104222497Y-68641016D01*
X104222421Y-68640995D01*
X104223240Y-68636868D01*
X104223849Y-68632741D01*
X104224253Y-68628626D01*
X104224452Y-68624526D01*
X104224453Y-68620449D01*
X104224257Y-68616398D01*
X104223867Y-68612383D01*
X104223289Y-68608407D01*
X104222524Y-68604478D01*
X104221578Y-68600598D01*
X104220453Y-68596780D01*
X104219153Y-68593027D01*
X104217684Y-68589343D01*
X104216041Y-68585733D01*
X104214236Y-68582209D01*
X104212266Y-68578768D01*
X104210142Y-68575426D01*
X104207864Y-68572186D01*
X104205435Y-68569050D01*
X104202857Y-68566026D01*
X104200135Y-68563121D01*
X104197275Y-68560341D01*
X104194275Y-68557693D01*
X104191144Y-68555180D01*
X104187884Y-68552810D01*
X104184494Y-68550590D01*
X104180985Y-68548524D01*
X104177353Y-68546620D01*
X104173606Y-68544884D01*
X104169747Y-68543318D01*
X104165777Y-68541934D01*
X104161707Y-68540734D01*
X104157578Y-68539737D01*
X104153451Y-68538952D01*
X104149326Y-68538377D01*
X104145212Y-68538006D01*
X104141116Y-68537841D01*
X104137045Y-68537875D01*
X104133000Y-68538104D01*
X104128989Y-68538525D01*
X104125022Y-68539135D01*
X104121100Y-68539931D01*
X104117233Y-68540907D01*
X104113424Y-68542061D01*
X104109681Y-68543391D01*
X104106007Y-68544892D01*
X104102413Y-68546560D01*
X104098899Y-68548395D01*
X104095479Y-68550387D01*
X104092152Y-68552535D01*
X104088927Y-68554842D01*
X104085810Y-68557297D01*
X104082806Y-68559899D01*
X104079922Y-68562642D01*
X104077164Y-68565527D01*
X104074537Y-68568550D01*
X104072048Y-68571704D01*
X104069704Y-68574985D01*
X104067509Y-68578395D01*
X104065471Y-68581928D01*
X104063594Y-68585578D01*
X104061884Y-68589343D01*
X104060350Y-68593221D01*
X104058997Y-68597207D01*
X104058920Y-68597186D01*
X103989371Y-68856755D01*
X103733113Y-68788092D01*
X103729800Y-68787202D01*
X103729782Y-68787279D01*
X103725652Y-68786460D01*
X103721526Y-68785847D01*
X103717411Y-68785445D01*
X103713312Y-68785246D01*
X103709234Y-68785247D01*
X103705184Y-68785443D01*
X103701168Y-68785834D01*
X103697194Y-68786409D01*
X103693263Y-68787173D01*
X103689385Y-68788121D01*
X103685569Y-68789245D01*
X103681812Y-68790547D01*
X103678127Y-68792019D01*
X103674519Y-68793659D01*
X103670993Y-68795464D01*
X103667555Y-68797432D01*
X103664214Y-68799556D01*
X103660971Y-68801835D01*
X103657835Y-68804263D01*
X103654811Y-68806842D01*
X103651906Y-68809561D01*
X103649130Y-68812421D01*
X103646478Y-68815423D01*
X103643966Y-68818555D01*
X103641596Y-68821816D01*
X103639378Y-68825205D01*
X103637309Y-68828714D01*
X103635405Y-68832346D01*
X103633668Y-68836092D01*
X103632105Y-68839951D01*
X103630720Y-68843919D01*
X103629520Y-68847992D01*
X103628522Y-68852120D01*
X103627737Y-68856248D01*
X103627162Y-68860373D01*
X103626794Y-68864487D01*
X103626629Y-68868583D01*
X103119661Y-68868583D01*
X103012287Y-68682610D01*
X103241950Y-68550014D01*
X103245010Y-68548246D01*
X103244992Y-68548214D01*
X103244973Y-68548182D01*
X103248472Y-68545842D01*
X103251822Y-68543356D01*
X103255017Y-68540733D01*
X103258057Y-68537972D01*
X103260939Y-68535091D01*
X103263664Y-68532088D01*
X103266230Y-68528972D01*
X103268630Y-68525752D01*
X103270869Y-68522433D01*
X103272942Y-68519022D01*
X103274847Y-68515527D01*
X103276582Y-68511953D01*
X103278145Y-68508307D01*
X103279538Y-68504596D01*
X103280754Y-68500825D01*
X103281793Y-68497002D01*
X103282656Y-68493136D01*
X103283337Y-68489233D01*
X103283837Y-68485299D01*
X103284151Y-68481337D01*
X103284281Y-68477358D01*
X103284223Y-68473371D01*
X103283978Y-68469377D01*
X103283537Y-68465387D01*
X103282907Y-68461405D01*
X103282081Y-68457437D01*
X103281059Y-68453495D01*
X103279839Y-68449582D01*
X103278418Y-68445704D01*
X103276796Y-68441869D01*
X103274968Y-68438084D01*
X103272939Y-68434355D01*
X103270724Y-68430731D01*
X103268358Y-68427258D01*
X103265847Y-68423935D01*
X103263201Y-68420765D01*
X103260423Y-68417751D01*
X103257519Y-68414894D01*
X103254497Y-68412197D01*
X103251363Y-68409658D01*
X103248127Y-68407282D01*
X103244793Y-68405073D01*
X103241367Y-68403028D01*
X103237856Y-68401152D01*
X103234270Y-68399445D01*
X103230613Y-68397909D01*
X103226888Y-68396544D01*
X103223110Y-68395360D01*
X103219280Y-68394351D01*
X103215409Y-68393519D01*
X103211498Y-68392866D01*
X103207559Y-68392399D01*
X103203596Y-68392115D01*
X103199614Y-68392015D01*
X103195625Y-68392106D01*
X103191633Y-68392386D01*
X103187643Y-68392853D01*
X103183662Y-68393518D01*
X103179700Y-68394376D01*
X103175761Y-68395433D01*
X103171853Y-68396687D01*
X103167980Y-68398142D01*
X103164153Y-68399797D01*
X103160380Y-68401659D01*
X103160370Y-68401643D01*
X103160359Y-68401627D01*
X103160340Y-68401595D01*
X103157277Y-68403362D01*
X102927618Y-68535957D01*
X102795023Y-68306295D01*
X102794995Y-68306246D01*
X102794969Y-68306199D01*
X102793257Y-68303235D01*
X102793226Y-68303254D01*
X102793209Y-68303265D01*
X102793194Y-68303273D01*
X102790854Y-68299773D01*
X102788367Y-68296424D01*
X102785743Y-68293230D01*
X102782986Y-68290189D01*
X102780101Y-68287306D01*
X102777098Y-68284581D01*
X102773984Y-68282018D01*
X102770765Y-68279616D01*
X102767446Y-68277378D01*
X102764034Y-68275305D01*
X102760540Y-68273399D01*
X102756964Y-68271664D01*
X102753319Y-68270099D01*
X102749607Y-68268709D01*
X102745836Y-68267494D01*
X102742014Y-68266452D01*
X102738149Y-68265592D01*
X102734246Y-68264910D01*
X102730310Y-68264410D01*
X102726350Y-68264095D01*
X102722370Y-68263965D01*
X102718383Y-68264023D01*
X102714390Y-68264270D01*
X102710399Y-68264708D01*
X102706415Y-68265339D01*
X102702451Y-68266164D01*
X102698508Y-68267187D01*
X102694595Y-68268407D01*
X102690715Y-68269829D01*
X102686882Y-68271452D01*
X102683097Y-68273276D01*
X102679367Y-68275310D01*
X102675744Y-68277523D01*
X102672268Y-68279888D01*
X102668947Y-68282397D01*
X102665778Y-68285044D01*
X102662765Y-68287823D01*
X102659907Y-68290729D01*
X102657209Y-68293749D01*
X102654671Y-68296882D01*
X102652299Y-68300120D01*
X102650087Y-68303453D01*
X102648042Y-68306880D01*
X102646167Y-68310389D01*
X102644459Y-68313976D01*
X102642923Y-68317634D01*
X102641561Y-68321356D01*
X102640375Y-68325134D01*
X102639364Y-68328965D01*
X102638533Y-68332838D01*
X102637882Y-68336748D01*
X102637414Y-68340688D01*
X102637129Y-68344649D01*
X102637031Y-68348630D01*
X102637122Y-68352622D01*
X102637400Y-68356615D01*
X102637870Y-68360605D01*
X102638534Y-68364585D01*
X102639393Y-68368548D01*
X102640447Y-68372487D01*
X102641702Y-68376394D01*
X102643156Y-68380265D01*
X102644812Y-68384092D01*
X102646673Y-68387868D01*
X102646656Y-68387879D01*
X102646641Y-68387886D01*
X102646610Y-68387904D01*
X102648377Y-68390970D01*
X102780971Y-68620629D01*
X102551312Y-68753224D01*
X102548247Y-68754990D01*
X102548257Y-68755007D01*
X102548267Y-68755022D01*
X102548277Y-68755039D01*
X102548287Y-68755055D01*
X102544786Y-68757394D01*
X102541438Y-68759880D01*
X102538243Y-68762506D01*
X102535202Y-68765262D01*
X102532319Y-68768148D01*
X102529593Y-68771148D01*
X102527031Y-68774262D01*
X102524628Y-68777483D01*
X102522389Y-68780802D01*
X102520316Y-68784212D01*
X102518413Y-68787709D01*
X102516675Y-68791284D01*
X102515113Y-68794929D01*
X102513718Y-68798643D01*
X102512502Y-68802412D01*
X102511465Y-68806234D01*
X102510602Y-68810099D01*
X102509921Y-68814004D01*
X102509421Y-68817940D01*
X102509106Y-68821897D01*
X102508976Y-68825877D01*
X101651206Y-68825877D01*
X101668215Y-68792100D01*
X101693885Y-68744755D01*
X101720873Y-68698387D01*
X101749142Y-68653020D01*
X101778667Y-68608671D01*
X101809414Y-68565357D01*
X101841352Y-68523096D01*
X101874449Y-68481903D01*
X101908677Y-68441801D01*
X101944006Y-68402805D01*
X101980398Y-68364931D01*
X102017830Y-68328199D01*
X102056268Y-68292630D01*
X102095681Y-68258236D01*
X102068881Y-68221583D01*
X102044207Y-68183511D01*
X102021712Y-68144125D01*
X102001456Y-68103527D01*
X101983497Y-68061817D01*
X101967895Y-68019090D01*
X101954707Y-67975457D01*
X101943993Y-67931012D01*
X101935808Y-67885860D01*
X101930214Y-67840101D01*
X101927267Y-67793835D01*
X101927027Y-67747165D01*
X101929551Y-67700192D01*
X101934899Y-67653017D01*
X101943129Y-67605738D01*
X101954299Y-67558460D01*
X101965989Y-67518868D01*
X101979524Y-67480329D01*
X101994844Y-67442878D01*
X102011886Y-67406551D01*
X102030587Y-67371386D01*
X102050892Y-67337418D01*
X102072729Y-67304680D01*
X102096042Y-67273209D01*
X102120766Y-67243042D01*
X102146841Y-67214217D01*
X102174207Y-67186763D01*
X102202797Y-67160721D01*
X102232554Y-67136125D01*
X102263414Y-67113010D01*
X102295316Y-67091414D01*
X102328197Y-67071372D01*
X102361994Y-67052915D01*
X102396650Y-67036088D01*
X102432096Y-67020919D01*
X102468275Y-67007446D01*
X102505124Y-66995707D01*
X102542582Y-66985735D01*
X102580586Y-66977568D01*
X102619072Y-66971238D01*
X102657982Y-66966786D01*
X102697253Y-66964242D01*
X102736822Y-66963642D01*
X102776628Y-66965029D01*
X102816608Y-66968434D01*
X102856700Y-66973892D01*
X102896844Y-66981437D01*
X102936979Y-66991109D01*
X102972904Y-67001623D01*
X103007969Y-67013659D01*
X103042142Y-67027173D01*
X103075401Y-67042111D01*
X103107719Y-67058434D01*
X103139066Y-67076094D01*
X103169418Y-67095042D01*
X103198752Y-67115236D01*
X103227035Y-67136630D01*
X103254242Y-67159174D01*
X103280350Y-67182824D01*
X103305328Y-67207535D01*
X103329149Y-67233261D01*
X103351793Y-67259953D01*
X103373227Y-67287569D01*
X103393427Y-67316061D01*
X103412363Y-67345382D01*
X103430014Y-67375487D01*
X103446349Y-67406327D01*
X103461346Y-67437860D01*
X103474974Y-67470042D01*
X103487208Y-67502820D01*
X103498018Y-67536152D01*
X103507382Y-67569994D01*
X103515273Y-67604293D01*
X103521664Y-67639010D01*
X103526527Y-67674097D01*
X103529836Y-67709503D01*
X103531563Y-67745188D01*
X103531686Y-67781104D01*
X103530176Y-67817204D01*
X103527003Y-67853445D01*
X103550797Y-67857304D01*
X103574598Y-67861495D01*
X103598406Y-67866015D01*
X103622210Y-67870869D01*
X103646016Y-67876058D01*
X103669817Y-67881585D01*
X103693614Y-67887448D01*
X103717401Y-67893651D01*
X103717402Y-67893652D01*
X103742813Y-67900656D01*
X103768042Y-67908006D01*
X103793080Y-67915695D01*
X103817927Y-67923722D01*
X103842585Y-67932077D01*
X103867046Y-67940766D01*
X103891316Y-67949781D01*
X103915386Y-67959119D01*
X103931016Y-67926721D01*
X103947977Y-67895268D01*
X103966221Y-67864777D01*
X103985708Y-67835280D01*
X104006388Y-67806799D01*
X104028223Y-67779364D01*
X104051163Y-67752998D01*
X104075161Y-67727728D01*
X104100179Y-67703578D01*
X104126168Y-67680575D01*
X104153087Y-67658745D01*
X104180886Y-67638115D01*
X104209524Y-67618711D01*
X104238953Y-67600557D01*
X104269127Y-67583678D01*
X104300009Y-67568102D01*
X104331549Y-67553858D01*
X104363699Y-67540962D01*
X104396422Y-67529451D01*
X104429664Y-67519345D01*
X104463388Y-67510669D01*
X104497545Y-67503451D01*
X104532093Y-67497719D01*
X104566983Y-67493495D01*
X104602175Y-67490806D01*
X104637622Y-67489677D01*
X104673277Y-67490136D01*
X104709099Y-67492209D01*
X104745042Y-67495921D01*
X104781061Y-67501295D01*
X104817110Y-67508363D01*
X104853143Y-67517145D01*
X104892736Y-67528835D01*
X104931276Y-67542371D01*
X104968726Y-67557693D01*
X105005052Y-67574734D01*
X105040216Y-67593437D01*
X105074186Y-67613739D01*
X105106924Y-67635574D01*
X105138394Y-67658888D01*
X105168560Y-67683615D01*
X105197388Y-67709688D01*
X105224838Y-67737052D01*
X105250883Y-67765645D01*
X105275479Y-67795400D01*
X105298593Y-67826262D01*
X105320190Y-67858162D01*
X105340233Y-67891045D01*
X105358686Y-67924841D01*
X105375516Y-67959495D01*
X105390683Y-67994943D01*
X105404158Y-68031121D01*
X105415895Y-68067973D01*
X105425867Y-68105429D01*
X105434037Y-68143432D01*
X105440364Y-68181919D01*
X105444819Y-68220830D01*
X105447363Y-68260101D01*
X105447960Y-68299668D01*
X105446573Y-68339475D01*
X105443170Y-68379454D01*
X105437713Y-68419549D01*
X105430166Y-68459691D01*
X105420494Y-68499824D01*
X105420491Y-68499824D01*
X105406460Y-68546550D01*
X105389863Y-68591795D01*
X105370797Y-68635497D01*
X105349369Y-68677597D01*
X105325681Y-68718036D01*
X105299834Y-68756756D01*
X105271933Y-68793697D01*
X105242079Y-68828800D01*
X105210376Y-68862003D01*
X105176923Y-68893252D01*
X105141825Y-68922486D01*
X105105186Y-68949643D01*
X105067105Y-68974666D01*
X105027684Y-68997499D01*
X104987029Y-69018075D01*
X104945244Y-69036342D01*
X104961391Y-69084994D01*
X104976158Y-69134147D01*
X104989529Y-69183771D01*
X104996834Y-69214364D01*
X105001484Y-69233843D01*
X105012010Y-69284321D01*
X105021087Y-69335190D01*
X105028699Y-69386414D01*
X105034831Y-69437968D01*
X105039466Y-69489818D01*
X105042584Y-69541939D01*
X105044170Y-69594298D01*
X105044208Y-69646871D01*
X105042682Y-69699623D01*
X105039575Y-69752531D01*
X105034869Y-69805561D01*
X105028549Y-69858690D01*
X105099533Y-69802665D01*
X105168298Y-69743765D01*
X105234745Y-69682047D01*
X105298771Y-69617572D01*
X105360271Y-69550398D01*
X105419150Y-69480582D01*
X105475301Y-69408184D01*
X105528624Y-69333264D01*
X105579017Y-69255876D01*
X105626380Y-69176086D01*
X105670610Y-69093944D01*
X105711607Y-69009515D01*
X105749268Y-68922856D01*
X105783490Y-68834023D01*
X105814171Y-68743079D01*
X105841216Y-68650083D01*
X105868304Y-68537680D01*
X105889442Y-68425244D01*
X105904728Y-68312953D01*
X105914261Y-68200974D01*
X105918142Y-68089488D01*
X105916470Y-67978665D01*
X105909349Y-67868677D01*
X105896873Y-67759698D01*
X105879145Y-67651901D01*
X105856269Y-67545462D01*
X105828341Y-67440552D01*
X105795458Y-67337345D01*
X105757727Y-67236014D01*
X105715243Y-67136734D01*
X105668110Y-67039676D01*
X105616425Y-66945015D01*
X105560286Y-66852920D01*
X105499799Y-66763574D01*
X105435062Y-66677141D01*
X105366171Y-66593799D01*
X105293233Y-66513722D01*
X105216342Y-66437078D01*
X105135603Y-66364046D01*
X105051112Y-66294796D01*
X104962972Y-66229501D01*
X104871280Y-66168341D01*
X104776138Y-66111481D01*
X104677649Y-66059099D01*
X104575910Y-66011365D01*
X104471016Y-65968459D01*
X104363075Y-65930543D01*
X104252187Y-65897804D01*
X104139782Y-65870714D01*
X104027348Y-65849576D01*
X103915055Y-65834292D01*
X103803078Y-65824760D01*
X103691592Y-65820878D01*
X103580767Y-65822548D01*
X103470779Y-65829671D01*
X103361801Y-65842145D01*
X103254004Y-65859874D01*
X103147565Y-65882749D01*
X103042656Y-65910680D01*
X102939446Y-65943559D01*
X102838116Y-65981294D01*
X102738836Y-66023776D01*
X102641779Y-66070911D01*
X102547118Y-66122596D01*
X102455025Y-66178731D01*
X102365676Y-66239220D01*
X102279244Y-66303960D01*
X102195901Y-66372846D01*
X102115824Y-66445788D01*
X102039182Y-66522677D01*
X101966148Y-66603419D01*
X101896900Y-66687907D01*
X101831607Y-66776050D01*
X101770444Y-66867738D01*
X101713584Y-66962882D01*
X101661202Y-67061370D01*
X101613467Y-67163113D01*
X101570561Y-67268003D01*
X101532649Y-67375944D01*
X101499907Y-67486833D01*
X101476828Y-67580894D01*
X101457930Y-67674994D01*
X101443150Y-67769036D01*
X101432437Y-67862915D01*
X101425725Y-67956531D01*
X101422958Y-68049780D01*
X100879334Y-68049780D01*
X101477773Y-65816370D01*
X104490295Y-65009168D01*
X106695617Y-67214488D01*
G37*
D11*
X153440138Y-64239849D02*
X153233082Y-63467109D01*
X153292241Y-63687892D02*
X153207466Y-63592290D01*
X153207466Y-63592290D02*
X153137481Y-63551884D01*
X153137481Y-63551884D02*
X153012299Y-63526267D01*
X153012299Y-63526267D02*
X152901908Y-63555847D01*
X152225831Y-64565222D02*
X152063145Y-63958069D01*
X152063145Y-63958069D02*
X152088761Y-63832887D01*
X152088761Y-63832887D02*
X152184363Y-63748112D01*
X152184363Y-63748112D02*
X152405146Y-63688954D01*
X152405146Y-63688954D02*
X152530327Y-63714570D01*
X152211041Y-64510026D02*
X152336223Y-64535643D01*
X152336223Y-64535643D02*
X152612201Y-64461694D01*
X152612201Y-64461694D02*
X152707803Y-64376919D01*
X152707803Y-64376919D02*
X152733420Y-64251738D01*
X152733420Y-64251738D02*
X152703840Y-64141347D01*
X152703840Y-64141347D02*
X152619065Y-64045745D01*
X152619065Y-64045745D02*
X152493884Y-64020128D01*
X152493884Y-64020128D02*
X152217905Y-64094077D01*
X152217905Y-64094077D02*
X152092724Y-64068460D01*
X151632406Y-63896009D02*
X151190840Y-64014326D01*
X151363291Y-63554007D02*
X151629505Y-64547531D01*
X151629505Y-64547531D02*
X151603888Y-64672712D01*
X151603888Y-64672712D02*
X151508286Y-64757487D01*
X151508286Y-64757487D02*
X151397895Y-64787067D01*
X150970057Y-64073485D02*
X150528491Y-64191802D01*
X150700942Y-63731483D02*
X150967156Y-64725007D01*
X150967156Y-64725007D02*
X150941539Y-64850188D01*
X150941539Y-64850188D02*
X150845938Y-64934963D01*
X150845938Y-64934963D02*
X150735546Y-64964543D01*
X150183589Y-65112439D02*
X150279191Y-65027664D01*
X150279191Y-65027664D02*
X150304807Y-64902483D01*
X150304807Y-64902483D02*
X150038593Y-63908959D01*
X149285667Y-65293878D02*
X149410848Y-65319494D01*
X149410848Y-65319494D02*
X149631632Y-65260336D01*
X149631632Y-65260336D02*
X149727233Y-65175561D01*
X149727233Y-65175561D02*
X149752850Y-65050379D01*
X149752850Y-65050379D02*
X149634533Y-64608813D01*
X149634533Y-64608813D02*
X149549757Y-64513211D01*
X149549757Y-64513211D02*
X149424576Y-64487595D01*
X149424576Y-64487595D02*
X149203793Y-64546754D01*
X149203793Y-64546754D02*
X149108191Y-64631529D01*
X149108191Y-64631529D02*
X149082575Y-64756710D01*
X149082575Y-64756710D02*
X149112154Y-64867101D01*
X149112154Y-64867101D02*
X149693691Y-64829596D01*
X148748500Y-65496970D02*
X148541445Y-64724229D01*
X148571024Y-64834621D02*
X148501038Y-64794215D01*
X148501038Y-64794215D02*
X148375857Y-64768598D01*
X148375857Y-64768598D02*
X148210270Y-64812967D01*
X148210270Y-64812967D02*
X148114668Y-64897742D01*
X148114668Y-64897742D02*
X148089052Y-65022924D01*
X148089052Y-65022924D02*
X148251738Y-65630077D01*
X148089052Y-65022924D02*
X148004277Y-64927322D01*
X148004277Y-64927322D02*
X147879095Y-64901705D01*
X147879095Y-64901705D02*
X147713508Y-64946074D01*
X147713508Y-64946074D02*
X147617906Y-65030849D01*
X147617906Y-65030849D02*
X147592290Y-65156031D01*
X147592290Y-65156031D02*
X147754976Y-65763184D01*
X146746663Y-65974202D02*
X146871844Y-65999818D01*
X146871844Y-65999818D02*
X147092627Y-65940660D01*
X147092627Y-65940660D02*
X147188229Y-65855885D01*
X147188229Y-65855885D02*
X147213845Y-65730704D01*
X147213845Y-65730704D02*
X147095528Y-65289137D01*
X147095528Y-65289137D02*
X147010753Y-65193536D01*
X147010753Y-65193536D02*
X146885572Y-65167919D01*
X146885572Y-65167919D02*
X146664789Y-65227078D01*
X146664789Y-65227078D02*
X146569187Y-65311853D01*
X146569187Y-65311853D02*
X146543570Y-65437034D01*
X146543570Y-65437034D02*
X146573150Y-65547426D01*
X146573150Y-65547426D02*
X147154687Y-65509921D01*
X146209495Y-66177294D02*
X145898912Y-65018183D01*
X146017230Y-65459749D02*
X145892048Y-65434133D01*
X145892048Y-65434133D02*
X145671265Y-65493292D01*
X145671265Y-65493292D02*
X145575663Y-65578067D01*
X145575663Y-65578067D02*
X145535257Y-65648052D01*
X145535257Y-65648052D02*
X145509641Y-65773233D01*
X145509641Y-65773233D02*
X145598379Y-66104408D01*
X145598379Y-66104408D02*
X145683154Y-66200010D01*
X145683154Y-66200010D02*
X145753139Y-66240416D01*
X145753139Y-66240416D02*
X145878321Y-66266032D01*
X145878321Y-66266032D02*
X146099104Y-66206874D01*
X146099104Y-66206874D02*
X146194705Y-66122099D01*
X144995189Y-66502667D02*
X145090791Y-66417892D01*
X145090791Y-66417892D02*
X145131197Y-66347906D01*
X145131197Y-66347906D02*
X145156813Y-66222725D01*
X145156813Y-66222725D02*
X145068075Y-65891550D01*
X145068075Y-65891550D02*
X144983300Y-65795949D01*
X144983300Y-65795949D02*
X144913315Y-65755542D01*
X144913315Y-65755542D02*
X144788133Y-65729926D01*
X144788133Y-65729926D02*
X144622546Y-65774295D01*
X144622546Y-65774295D02*
X144526944Y-65859070D01*
X144526944Y-65859070D02*
X144486538Y-65929056D01*
X144486538Y-65929056D02*
X144460922Y-66054237D01*
X144460922Y-66054237D02*
X144549660Y-66385411D01*
X144549660Y-66385411D02*
X144634435Y-66481013D01*
X144634435Y-66481013D02*
X144704420Y-66521419D01*
X144704420Y-66521419D02*
X144829601Y-66547036D01*
X144829601Y-66547036D02*
X144995189Y-66502667D01*
X143905002Y-65966561D02*
X144112057Y-66739301D01*
X143934581Y-66076952D02*
X143864595Y-66036546D01*
X143864595Y-66036546D02*
X143739414Y-66010930D01*
X143739414Y-66010930D02*
X143573827Y-66055298D01*
X143573827Y-66055298D02*
X143478225Y-66140074D01*
X143478225Y-66140074D02*
X143452609Y-66265255D01*
X143452609Y-66265255D02*
X143615295Y-66872408D01*
X142606982Y-67083426D02*
X142732163Y-67109043D01*
X142732163Y-67109043D02*
X142952946Y-67049884D01*
X142952946Y-67049884D02*
X143048548Y-66965109D01*
X143048548Y-66965109D02*
X143074164Y-66839928D01*
X143074164Y-66839928D02*
X142955847Y-66398362D01*
X142955847Y-66398362D02*
X142871072Y-66302760D01*
X142871072Y-66302760D02*
X142745891Y-66277143D01*
X142745891Y-66277143D02*
X142525108Y-66336302D01*
X142525108Y-66336302D02*
X142429506Y-66421077D01*
X142429506Y-66421077D02*
X142403889Y-66546258D01*
X142403889Y-66546258D02*
X142433469Y-66656650D01*
X142433469Y-66656650D02*
X143015006Y-66619145D01*
X141973151Y-66484198D02*
X141365997Y-66646885D01*
X141365997Y-66646885D02*
X142180206Y-67256939D01*
X142180206Y-67256939D02*
X141573052Y-67419625D01*
X140931295Y-66349252D02*
X140213750Y-66541518D01*
X140213750Y-66541518D02*
X140718437Y-66879556D01*
X140718437Y-66879556D02*
X140552850Y-66923925D01*
X140552850Y-66923925D02*
X140457248Y-67008701D01*
X140457248Y-67008701D02*
X140416842Y-67078686D01*
X140416842Y-67078686D02*
X140391226Y-67203867D01*
X140391226Y-67203867D02*
X140465174Y-67479846D01*
X140465174Y-67479846D02*
X140549949Y-67575448D01*
X140549949Y-67575448D02*
X140619934Y-67615854D01*
X140619934Y-67615854D02*
X140745116Y-67641470D01*
X140745116Y-67641470D02*
X141076290Y-67552732D01*
X141076290Y-67552732D02*
X141171892Y-67467957D01*
X141171892Y-67467957D02*
X141212298Y-67397972D01*
X139801763Y-66770227D02*
X139731778Y-66729821D01*
X139731778Y-66729821D02*
X139606596Y-66704204D01*
X139606596Y-66704204D02*
X139330618Y-66778153D01*
X139330618Y-66778153D02*
X139235016Y-66862928D01*
X139235016Y-66862928D02*
X139194610Y-66932913D01*
X139194610Y-66932913D02*
X139168993Y-67058094D01*
X139168993Y-67058094D02*
X139198573Y-67168486D01*
X139198573Y-67168486D02*
X139298137Y-67319283D01*
X139298137Y-67319283D02*
X140137962Y-67804157D01*
X140137962Y-67804157D02*
X139420417Y-67996422D01*
X152118717Y-66594077D02*
X151808134Y-65434966D01*
X151926451Y-65876532D02*
X151801270Y-65850916D01*
X151801270Y-65850916D02*
X151580487Y-65910074D01*
X151580487Y-65910074D02*
X151484885Y-65994849D01*
X151484885Y-65994849D02*
X151444479Y-66064835D01*
X151444479Y-66064835D02*
X151418863Y-66190016D01*
X151418863Y-66190016D02*
X151507601Y-66521190D01*
X151507601Y-66521190D02*
X151592376Y-66616792D01*
X151592376Y-66616792D02*
X151662361Y-66657198D01*
X151662361Y-66657198D02*
X151787542Y-66682815D01*
X151787542Y-66682815D02*
X152008325Y-66623656D01*
X152008325Y-66623656D02*
X152103927Y-66538881D01*
X150973334Y-66072760D02*
X150904410Y-66919449D01*
X150421376Y-66220657D02*
X150904410Y-66919449D01*
X150904410Y-66919449D02*
X151088750Y-67165849D01*
X151088750Y-67165849D02*
X151158736Y-67206255D01*
X151158736Y-67206255D02*
X151283917Y-67231871D01*
X149344139Y-67278364D02*
X149248537Y-67363139D01*
X149248537Y-67363139D02*
X149027754Y-67422298D01*
X149027754Y-67422298D02*
X148902573Y-67396681D01*
X148902573Y-67396681D02*
X148817798Y-67301080D01*
X148817798Y-67301080D02*
X148803008Y-67245884D01*
X148803008Y-67245884D02*
X148828624Y-67120703D01*
X148828624Y-67120703D02*
X148924226Y-67035928D01*
X148924226Y-67035928D02*
X149089814Y-66991559D01*
X149089814Y-66991559D02*
X149185415Y-66906784D01*
X149185415Y-66906784D02*
X149211032Y-66781602D01*
X149211032Y-66781602D02*
X149196242Y-66726407D01*
X149196242Y-66726407D02*
X149111467Y-66630805D01*
X149111467Y-66630805D02*
X148986286Y-66605188D01*
X148986286Y-66605188D02*
X148820699Y-66649557D01*
X148820699Y-66649557D02*
X148725097Y-66734332D01*
X148158349Y-66827033D02*
X148468932Y-67986144D01*
X148173139Y-66882229D02*
X148047958Y-66856613D01*
X148047958Y-66856613D02*
X147827175Y-66915771D01*
X147827175Y-66915771D02*
X147731573Y-67000546D01*
X147731573Y-67000546D02*
X147691167Y-67070532D01*
X147691167Y-67070532D02*
X147665550Y-67195713D01*
X147665550Y-67195713D02*
X147754288Y-67526887D01*
X147754288Y-67526887D02*
X147839063Y-67622489D01*
X147839063Y-67622489D02*
X147909049Y-67662895D01*
X147909049Y-67662895D02*
X148034230Y-67688512D01*
X148034230Y-67688512D02*
X148255013Y-67629353D01*
X148255013Y-67629353D02*
X148350615Y-67544578D01*
X147151098Y-67925146D02*
X147246700Y-67840371D01*
X147246700Y-67840371D02*
X147287106Y-67770386D01*
X147287106Y-67770386D02*
X147312722Y-67645205D01*
X147312722Y-67645205D02*
X147223984Y-67314030D01*
X147223984Y-67314030D02*
X147139209Y-67218428D01*
X147139209Y-67218428D02*
X147069224Y-67178022D01*
X147069224Y-67178022D02*
X146944043Y-67152406D01*
X146944043Y-67152406D02*
X146778455Y-67196775D01*
X146778455Y-67196775D02*
X146682853Y-67281550D01*
X146682853Y-67281550D02*
X146642447Y-67351535D01*
X146642447Y-67351535D02*
X146616831Y-67476716D01*
X146616831Y-67476716D02*
X146705569Y-67807891D01*
X146705569Y-67807891D02*
X146790344Y-67903493D01*
X146790344Y-67903493D02*
X146860329Y-67943899D01*
X146860329Y-67943899D02*
X146985511Y-67969515D01*
X146985511Y-67969515D02*
X147151098Y-67925146D01*
X146267966Y-68161781D02*
X146060911Y-67389040D01*
X146120069Y-67609823D02*
X146035294Y-67514221D01*
X146035294Y-67514221D02*
X145965309Y-67473815D01*
X145965309Y-67473815D02*
X145840128Y-67448199D01*
X145840128Y-67448199D02*
X145729736Y-67477778D01*
X145094065Y-68417168D02*
X145219247Y-68442784D01*
X145219247Y-68442784D02*
X145440030Y-68383626D01*
X145440030Y-68383626D02*
X145535632Y-68298851D01*
X145535632Y-68298851D02*
X145561248Y-68173669D01*
X145561248Y-68173669D02*
X145442931Y-67732103D01*
X145442931Y-67732103D02*
X145358156Y-67636501D01*
X145358156Y-67636501D02*
X145232974Y-67610885D01*
X145232974Y-67610885D02*
X145012191Y-67670044D01*
X145012191Y-67670044D02*
X144916589Y-67754819D01*
X144916589Y-67754819D02*
X144890973Y-67880000D01*
X144890973Y-67880000D02*
X144920552Y-67990391D01*
X144920552Y-67990391D02*
X145502089Y-67952886D01*
X144460234Y-67817940D02*
X144446506Y-68649839D01*
X144446506Y-68649839D02*
X144077827Y-68157040D01*
X144077827Y-68157040D02*
X144004940Y-68768157D01*
X144004940Y-68768157D02*
X143577102Y-68054575D01*
X143177004Y-68990002D02*
X143272606Y-68905227D01*
X143272606Y-68905227D02*
X143313012Y-68835241D01*
X143313012Y-68835241D02*
X143338628Y-68710060D01*
X143338628Y-68710060D02*
X143249890Y-68378885D01*
X143249890Y-68378885D02*
X143165115Y-68283284D01*
X143165115Y-68283284D02*
X143095130Y-68242877D01*
X143095130Y-68242877D02*
X142969948Y-68217261D01*
X142969948Y-68217261D02*
X142804361Y-68261630D01*
X142804361Y-68261630D02*
X142708759Y-68346405D01*
X142708759Y-68346405D02*
X142668353Y-68416390D01*
X142668353Y-68416390D02*
X142642737Y-68541572D01*
X142642737Y-68541572D02*
X142731475Y-68872746D01*
X142731475Y-68872746D02*
X142816250Y-68968348D01*
X142816250Y-68968348D02*
X142886235Y-69008754D01*
X142886235Y-69008754D02*
X143011416Y-69034371D01*
X143011416Y-69034371D02*
X143177004Y-68990002D01*
X142293872Y-69226636D02*
X141983289Y-68067525D01*
X141797110Y-69359743D02*
X141634424Y-68752590D01*
X141634424Y-68752590D02*
X141660040Y-68627409D01*
X141660040Y-68627409D02*
X141755642Y-68542633D01*
X141755642Y-68542633D02*
X141921229Y-68498264D01*
X141921229Y-68498264D02*
X142046410Y-68523881D01*
X142046410Y-68523881D02*
X142116396Y-68564287D01*
X148906769Y-68626649D02*
X148837845Y-69473338D01*
X148837845Y-69473338D02*
X148354811Y-68774545D01*
X147588934Y-68565651D02*
X147478543Y-68595230D01*
X147478543Y-68595230D02*
X147382941Y-68680005D01*
X147382941Y-68680005D02*
X147342535Y-68749991D01*
X147342535Y-68749991D02*
X147316918Y-68875172D01*
X147316918Y-68875172D02*
X147320881Y-69110745D01*
X147320881Y-69110745D02*
X147394829Y-69386723D01*
X147394829Y-69386723D02*
X147509184Y-69592717D01*
X147509184Y-69592717D02*
X147593959Y-69688319D01*
X147593959Y-69688319D02*
X147663944Y-69728725D01*
X147663944Y-69728725D02*
X147789126Y-69754341D01*
X147789126Y-69754341D02*
X147899517Y-69724762D01*
X147899517Y-69724762D02*
X147995119Y-69639987D01*
X147995119Y-69639987D02*
X148035525Y-69570001D01*
X148035525Y-69570001D02*
X148061141Y-69444820D01*
X148061141Y-69444820D02*
X148057179Y-69209247D01*
X148057179Y-69209247D02*
X147983230Y-68933269D01*
X147983230Y-68933269D02*
X147868876Y-68727275D01*
X147868876Y-68727275D02*
X147784101Y-68631673D01*
X147784101Y-68631673D02*
X147714115Y-68591267D01*
X147714115Y-68591267D02*
X147588934Y-68565651D01*
X146986806Y-69851005D02*
X146946400Y-69920990D01*
X146946400Y-69920990D02*
X147016385Y-69961396D01*
X147016385Y-69961396D02*
X147056791Y-69891411D01*
X147056791Y-69891411D02*
X146986806Y-69851005D01*
X146986806Y-69851005D02*
X147016385Y-69961396D01*
X145933061Y-69009341D02*
X145822670Y-69038920D01*
X145822670Y-69038920D02*
X145727068Y-69123695D01*
X145727068Y-69123695D02*
X145686662Y-69193681D01*
X145686662Y-69193681D02*
X145661045Y-69318862D01*
X145661045Y-69318862D02*
X145665008Y-69554434D01*
X145665008Y-69554434D02*
X145738956Y-69830413D01*
X145738956Y-69830413D02*
X145853311Y-70036407D01*
X145853311Y-70036407D02*
X145938086Y-70132008D01*
X145938086Y-70132008D02*
X146008071Y-70172415D01*
X146008071Y-70172415D02*
X146133252Y-70198031D01*
X146133252Y-70198031D02*
X146243644Y-70168452D01*
X146243644Y-70168452D02*
X146339246Y-70083677D01*
X146339246Y-70083677D02*
X146379652Y-70013691D01*
X146379652Y-70013691D02*
X146405268Y-69888510D01*
X146405268Y-69888510D02*
X146401305Y-69652937D01*
X146401305Y-69652937D02*
X146327357Y-69376958D01*
X146327357Y-69376958D02*
X146213003Y-69170965D01*
X146213003Y-69170965D02*
X146128228Y-69075363D01*
X146128228Y-69075363D02*
X146058242Y-69034957D01*
X146058242Y-69034957D02*
X145933061Y-69009341D01*
D12*
X139025564Y-98726457D02*
X138168422Y-98640742D01*
X138596993Y-98383600D02*
X138682707Y-99326457D01*
X138682707Y-99326457D02*
X138511279Y-100097885D01*
X138254136Y-98983600D02*
X138511279Y-99755028D01*
X138511279Y-99755028D02*
X138854136Y-100183600D01*
X138854136Y-100183600D02*
X139025564Y-99755028D01*
X139025564Y-99755028D02*
X138682707Y-99326457D01*
X138682707Y-99326457D02*
X138168422Y-99155028D01*
X138168422Y-99155028D02*
X137911279Y-99497885D01*
X137911279Y-99497885D02*
X137911279Y-100012171D01*
X137911279Y-100012171D02*
X138254136Y-100269314D01*
X137139850Y-98726457D02*
X136625565Y-98726457D01*
X136796993Y-98297885D02*
X137139850Y-99755028D01*
X136196993Y-98640742D02*
X135939850Y-98983600D01*
X136368422Y-98983600D02*
X136368422Y-100012171D01*
X136368422Y-100012171D02*
X136539850Y-100097885D01*
X136539850Y-100097885D02*
X136796993Y-100012171D01*
X136796993Y-100012171D02*
X136796993Y-99669314D01*
X136796993Y-99669314D02*
X136539850Y-99583600D01*
X136539850Y-99583600D02*
X136025565Y-100012171D01*
X135254136Y-98726457D02*
X134654136Y-98726457D01*
X134825565Y-98297885D02*
X135254136Y-100097885D01*
X134739851Y-99155028D02*
X134225565Y-99155028D01*
X134825565Y-99583600D02*
X134739851Y-99926457D01*
X134739851Y-99926457D02*
X134568422Y-100097885D01*
X134568422Y-100097885D02*
X134139851Y-100097885D01*
X132939851Y-98726457D02*
X132254137Y-98726457D01*
X132511280Y-98383600D02*
X132511280Y-100097885D01*
X132511280Y-100097885D02*
X132939851Y-100012171D01*
X132939851Y-100012171D02*
X132939851Y-99669314D01*
X132939851Y-99669314D02*
X132682708Y-99583600D01*
X132682708Y-99583600D02*
X132254137Y-99926457D01*
X133282708Y-98383600D02*
X133368422Y-98897885D01*
X133368422Y-98897885D02*
X133368422Y-99412171D01*
X133368422Y-99412171D02*
X133282708Y-100097885D01*
X133282708Y-100097885D02*
X133196994Y-99497885D01*
X131568423Y-98812171D02*
X130368423Y-98812171D01*
X130711280Y-98383600D02*
X130711280Y-99583600D01*
X130711280Y-99583600D02*
X130796994Y-99926457D01*
X130796994Y-99926457D02*
X131139851Y-100269314D01*
X130796994Y-99240742D02*
X130968423Y-99069314D01*
X130968423Y-99069314D02*
X131054137Y-99069314D01*
X131054137Y-99069314D02*
X131225566Y-99326457D01*
X131225566Y-99326457D02*
X131225566Y-99497885D01*
X131225566Y-99497885D02*
X131054137Y-99583600D01*
X131054137Y-99583600D02*
X130968423Y-99583600D01*
X130968423Y-99583600D02*
X130796994Y-99412171D01*
X129596994Y-98726457D02*
X128482709Y-98555028D01*
X128654137Y-98640742D02*
X128996994Y-98897885D01*
X128996994Y-98897885D02*
X129168423Y-99326457D01*
X129168423Y-99326457D02*
X129168423Y-99840742D01*
X129168423Y-99840742D02*
X128996994Y-100097885D01*
X128996994Y-100097885D02*
X128739852Y-100183600D01*
X128568423Y-98212171D02*
X128396994Y-98469314D01*
X128311280Y-98126457D02*
X128139852Y-98383600D01*
X127196995Y-98640742D02*
X126596995Y-98640742D01*
X127625566Y-98297885D02*
X127711280Y-98983600D01*
X127711280Y-98983600D02*
X127711280Y-99497885D01*
X127711280Y-99497885D02*
X127625566Y-100097885D01*
X127625566Y-100097885D02*
X127454138Y-99497885D01*
X127196995Y-99583600D02*
X127196995Y-99926457D01*
X127196995Y-99926457D02*
X127111280Y-100012171D01*
X127111280Y-100012171D02*
X126596995Y-100012171D01*
X124968424Y-98640742D02*
X124111281Y-98640742D01*
X125568424Y-99583600D02*
X124196995Y-99583600D01*
X125568424Y-99926457D02*
X124196995Y-99926457D01*
X124625566Y-100269314D02*
X124196995Y-100269314D01*
X125568424Y-98297885D02*
X125568424Y-98983600D01*
X125568424Y-99240742D02*
X125568424Y-100269314D01*
X125568424Y-99240742D02*
X124196995Y-99240742D01*
X124196995Y-99240742D02*
X124196995Y-100269314D01*
X125568424Y-98297885D02*
X124111281Y-98297885D01*
X124111281Y-98297885D02*
X124111281Y-98983600D01*
X124968424Y-98640742D02*
X124968424Y-98983600D01*
X125996995Y-98983600D02*
X125996995Y-99326457D01*
X125996995Y-98983600D02*
X123768424Y-98983600D01*
X123768424Y-98983600D02*
X123768424Y-99326457D01*
X122654138Y-98640742D02*
X122054138Y-98640742D01*
X123082709Y-98297885D02*
X123168423Y-98983600D01*
X123168423Y-98983600D02*
X123168423Y-99497885D01*
X123168423Y-99497885D02*
X123082709Y-100097885D01*
X123082709Y-100097885D02*
X122911281Y-99497885D01*
X122654138Y-99583600D02*
X122654138Y-99926457D01*
X122654138Y-99926457D02*
X122568423Y-100012171D01*
X122568423Y-100012171D02*
X122054138Y-100012171D01*
X121282709Y-98726457D02*
X120768424Y-98726457D01*
X120939852Y-98297885D02*
X121282709Y-99755028D01*
X120339852Y-98640742D02*
X120082709Y-98983600D01*
X120511281Y-98983600D02*
X120511281Y-100012171D01*
X120511281Y-100012171D02*
X120682709Y-100097885D01*
X120682709Y-100097885D02*
X120939852Y-100012171D01*
X120939852Y-100012171D02*
X120939852Y-99669314D01*
X120939852Y-99669314D02*
X120682709Y-99583600D01*
X120682709Y-99583600D02*
X120168424Y-100012171D01*
X119396995Y-99240742D02*
X118625567Y-99069314D01*
X118625567Y-99069314D02*
X118368424Y-99155028D01*
X118368424Y-99155028D02*
X118282710Y-99497885D01*
X118282710Y-99497885D02*
X118454138Y-99755028D01*
X118454138Y-99755028D02*
X118968424Y-100012171D01*
X117511281Y-98726457D02*
X116396996Y-98555028D01*
X116568424Y-98640742D02*
X116911281Y-98897885D01*
X116911281Y-98897885D02*
X117082710Y-99326457D01*
X117082710Y-99326457D02*
X117082710Y-99840742D01*
X117082710Y-99840742D02*
X116911281Y-100097885D01*
X116911281Y-100097885D02*
X116654139Y-100183600D01*
X114768425Y-98812171D02*
X114596996Y-99155028D01*
X114596996Y-99155028D02*
X114511282Y-99583600D01*
X115625567Y-98640742D02*
X115625567Y-99240742D01*
X115625567Y-99240742D02*
X115539853Y-99669314D01*
X115539853Y-99669314D02*
X115368425Y-100183600D01*
X115368425Y-100183600D02*
X115111282Y-99669314D01*
X113739853Y-98640742D02*
X112711282Y-98640742D01*
X113568425Y-99069314D02*
X112882711Y-99069314D01*
X113139853Y-98297885D02*
X113139853Y-100097885D01*
X113139853Y-100097885D02*
X113396996Y-100097885D01*
X113396996Y-100097885D02*
X113654139Y-99926457D01*
X113654139Y-99926457D02*
X113568425Y-99755028D01*
X113568425Y-99755028D02*
X113225568Y-99669314D01*
X113225568Y-99669314D02*
X112711282Y-99926457D01*
X111939854Y-98812171D02*
X110739854Y-98812171D01*
X111082711Y-98383600D02*
X111082711Y-99583600D01*
X111082711Y-99583600D02*
X111168425Y-99926457D01*
X111168425Y-99926457D02*
X111511282Y-100269314D01*
X111168425Y-99240742D02*
X111339854Y-99069314D01*
X111339854Y-99069314D02*
X111425568Y-99069314D01*
X111425568Y-99069314D02*
X111596997Y-99326457D01*
X111596997Y-99326457D02*
X111596997Y-99497885D01*
X111596997Y-99497885D02*
X111425568Y-99583600D01*
X111425568Y-99583600D02*
X111339854Y-99583600D01*
X111339854Y-99583600D02*
X111168425Y-99412171D01*
D13*
X58765265Y-61822221D02*
X57799339Y-61563401D01*
X57799339Y-61563401D02*
X57737716Y-61793384D01*
X57737716Y-61793384D02*
X57746738Y-61943698D01*
X57746738Y-61943698D02*
X57814081Y-62060340D01*
X57814081Y-62060340D02*
X57893750Y-62130986D01*
X57893750Y-62130986D02*
X58065411Y-62226282D01*
X58065411Y-62226282D02*
X58203400Y-62263256D01*
X58203400Y-62263256D02*
X58399711Y-62266558D01*
X58399711Y-62266558D02*
X58504028Y-62245211D01*
X58504028Y-62245211D02*
X58620671Y-62177868D01*
X58620671Y-62177868D02*
X58703641Y-62052203D01*
X58703641Y-62052203D02*
X58765265Y-61822221D01*
X58370874Y-63294108D02*
X58518771Y-62742150D01*
X58444822Y-63018129D02*
X57478896Y-62759310D01*
X57478896Y-62759310D02*
X57641535Y-62704291D01*
X57641535Y-62704291D02*
X57758178Y-62636947D01*
X57758178Y-62636947D02*
X57828824Y-62557279D01*
X121945391Y-83488951D02*
X121993010Y-83536571D01*
X121993010Y-83536571D02*
X122135867Y-83584190D01*
X122135867Y-83584190D02*
X122231105Y-83584190D01*
X122231105Y-83584190D02*
X122373962Y-83536571D01*
X122373962Y-83536571D02*
X122469200Y-83441332D01*
X122469200Y-83441332D02*
X122516819Y-83346094D01*
X122516819Y-83346094D02*
X122564438Y-83155618D01*
X122564438Y-83155618D02*
X122564438Y-83012761D01*
X122564438Y-83012761D02*
X122516819Y-82822285D01*
X122516819Y-82822285D02*
X122469200Y-82727047D01*
X122469200Y-82727047D02*
X122373962Y-82631809D01*
X122373962Y-82631809D02*
X122231105Y-82584190D01*
X122231105Y-82584190D02*
X122135867Y-82584190D01*
X122135867Y-82584190D02*
X121993010Y-82631809D01*
X121993010Y-82631809D02*
X121945391Y-82679428D01*
X121564438Y-82679428D02*
X121516819Y-82631809D01*
X121516819Y-82631809D02*
X121421581Y-82584190D01*
X121421581Y-82584190D02*
X121183486Y-82584190D01*
X121183486Y-82584190D02*
X121088248Y-82631809D01*
X121088248Y-82631809D02*
X121040629Y-82679428D01*
X121040629Y-82679428D02*
X120993010Y-82774666D01*
X120993010Y-82774666D02*
X120993010Y-82869904D01*
X120993010Y-82869904D02*
X121040629Y-83012761D01*
X121040629Y-83012761D02*
X121612057Y-83584190D01*
X121612057Y-83584190D02*
X120993010Y-83584190D01*
X176623818Y-67425452D02*
X177589744Y-67166633D01*
X177589744Y-67166633D02*
X177528120Y-66936651D01*
X177528120Y-66936651D02*
X177445150Y-66810986D01*
X177445150Y-66810986D02*
X177328507Y-66743643D01*
X177328507Y-66743643D02*
X177224190Y-66722296D01*
X177224190Y-66722296D02*
X177027879Y-66725598D01*
X177027879Y-66725598D02*
X176889890Y-66762572D01*
X176889890Y-66762572D02*
X176718228Y-66857867D01*
X176718228Y-66857867D02*
X176638560Y-66928513D01*
X176638560Y-66928513D02*
X176571217Y-67045156D01*
X176571217Y-67045156D02*
X176562194Y-67195470D01*
X176562194Y-67195470D02*
X176623818Y-67425452D01*
X177220002Y-65786739D02*
X177269301Y-65970725D01*
X177269301Y-65970725D02*
X177247954Y-66075043D01*
X177247954Y-66075043D02*
X177214282Y-66133364D01*
X177214282Y-66133364D02*
X177100942Y-66262331D01*
X177100942Y-66262331D02*
X176929281Y-66357626D01*
X176929281Y-66357626D02*
X176561310Y-66456224D01*
X176561310Y-66456224D02*
X176456992Y-66434877D01*
X176456992Y-66434877D02*
X176398671Y-66401205D01*
X176398671Y-66401205D02*
X176328025Y-66321537D01*
X176328025Y-66321537D02*
X176278726Y-66137551D01*
X176278726Y-66137551D02*
X176300073Y-66033233D01*
X176300073Y-66033233D02*
X176333745Y-65974912D01*
X176333745Y-65974912D02*
X176413413Y-65904266D01*
X176413413Y-65904266D02*
X176643395Y-65842643D01*
X176643395Y-65842643D02*
X176747713Y-65863990D01*
X176747713Y-65863990D02*
X176806034Y-65897661D01*
X176806034Y-65897661D02*
X176876680Y-65977330D01*
X176876680Y-65977330D02*
X176925979Y-66161316D01*
X176925979Y-66161316D02*
X176904632Y-66265633D01*
X176904632Y-66265633D02*
X176870960Y-66323954D01*
X176870960Y-66323954D02*
X176791292Y-66394600D01*
X73254156Y-65704509D02*
X72288230Y-65445689D01*
X72288230Y-65445689D02*
X72226607Y-65675672D01*
X72226607Y-65675672D02*
X72235629Y-65825986D01*
X72235629Y-65825986D02*
X72302972Y-65942628D01*
X72302972Y-65942628D02*
X72382641Y-66013274D01*
X72382641Y-66013274D02*
X72554302Y-66108570D01*
X72554302Y-66108570D02*
X72692291Y-66145544D01*
X72692291Y-66145544D02*
X72888602Y-66148846D01*
X72888602Y-66148846D02*
X72992919Y-66127499D01*
X72992919Y-66127499D02*
X73109562Y-66060156D01*
X73109562Y-66060156D02*
X73192532Y-65934491D01*
X73192532Y-65934491D02*
X73254156Y-65704509D01*
X72054061Y-66319622D02*
X71893839Y-66917576D01*
X71893839Y-66917576D02*
X72348084Y-66694199D01*
X72348084Y-66694199D02*
X72311110Y-66832188D01*
X72311110Y-66832188D02*
X72332457Y-66936506D01*
X72332457Y-66936506D02*
X72366129Y-66994827D01*
X72366129Y-66994827D02*
X72445797Y-67065473D01*
X72445797Y-67065473D02*
X72675779Y-67127097D01*
X72675779Y-67127097D02*
X72780097Y-67105750D01*
X72780097Y-67105750D02*
X72838418Y-67072078D01*
X72838418Y-67072078D02*
X72909064Y-66992410D01*
X72909064Y-66992410D02*
X72983012Y-66716431D01*
X72983012Y-66716431D02*
X72961665Y-66612113D01*
X72961665Y-66612113D02*
X72927993Y-66553792D01*
X87743043Y-69586793D02*
X86777117Y-69327973D01*
X86777117Y-69327973D02*
X86715494Y-69557956D01*
X86715494Y-69557956D02*
X86724516Y-69708270D01*
X86724516Y-69708270D02*
X86791859Y-69824912D01*
X86791859Y-69824912D02*
X86871528Y-69895558D01*
X86871528Y-69895558D02*
X87043189Y-69990854D01*
X87043189Y-69990854D02*
X87181178Y-70027828D01*
X87181178Y-70027828D02*
X87377489Y-70031130D01*
X87377489Y-70031130D02*
X87481806Y-70009783D01*
X87481806Y-70009783D02*
X87598449Y-69942440D01*
X87598449Y-69942440D02*
X87681419Y-69816775D01*
X87681419Y-69816775D02*
X87743043Y-69586793D01*
X86395051Y-70753864D02*
X86518298Y-70293899D01*
X86518298Y-70293899D02*
X86990587Y-70371150D01*
X86990587Y-70371150D02*
X86932266Y-70404822D01*
X86932266Y-70404822D02*
X86861620Y-70484490D01*
X86861620Y-70484490D02*
X86799997Y-70714472D01*
X86799997Y-70714472D02*
X86821344Y-70818790D01*
X86821344Y-70818790D02*
X86855016Y-70877111D01*
X86855016Y-70877111D02*
X86934684Y-70947757D01*
X86934684Y-70947757D02*
X87164666Y-71009381D01*
X87164666Y-71009381D02*
X87268984Y-70988034D01*
X87268984Y-70988034D02*
X87327305Y-70954362D01*
X87327305Y-70954362D02*
X87397951Y-70874694D01*
X87397951Y-70874694D02*
X87459574Y-70644711D01*
X87459574Y-70644711D02*
X87438227Y-70540394D01*
X87438227Y-70540394D02*
X87404556Y-70482072D01*
X205601594Y-59660879D02*
X206567520Y-59402060D01*
X206567520Y-59402060D02*
X206505896Y-59172078D01*
X206505896Y-59172078D02*
X206422926Y-59046413D01*
X206422926Y-59046413D02*
X206306283Y-58979070D01*
X206306283Y-58979070D02*
X206201966Y-58957723D01*
X206201966Y-58957723D02*
X206005655Y-58961025D01*
X206005655Y-58961025D02*
X205867666Y-58997999D01*
X205867666Y-58997999D02*
X205696004Y-59093294D01*
X205696004Y-59093294D02*
X205616336Y-59163940D01*
X205616336Y-59163940D02*
X205548993Y-59280583D01*
X205548993Y-59280583D02*
X205539970Y-59430897D01*
X205539970Y-59430897D02*
X205601594Y-59660879D01*
X206229033Y-58506780D02*
X206262704Y-58448459D01*
X206262704Y-58448459D02*
X206284051Y-58344141D01*
X206284051Y-58344141D02*
X206222428Y-58114159D01*
X206222428Y-58114159D02*
X206151782Y-58034491D01*
X206151782Y-58034491D02*
X206093461Y-58000819D01*
X206093461Y-58000819D02*
X205989143Y-57979472D01*
X205989143Y-57979472D02*
X205897150Y-58004121D01*
X205897150Y-58004121D02*
X205771485Y-58087092D01*
X205771485Y-58087092D02*
X205367424Y-58786946D01*
X205367424Y-58786946D02*
X205207203Y-58188992D01*
X195118242Y-78492016D02*
X196084168Y-78233197D01*
X196084168Y-78233197D02*
X196022545Y-78003215D01*
X196022545Y-78003215D02*
X195939574Y-77877550D01*
X195939574Y-77877550D02*
X195822932Y-77810207D01*
X195822932Y-77810207D02*
X195718614Y-77788860D01*
X195718614Y-77788860D02*
X195522303Y-77792162D01*
X195522303Y-77792162D02*
X195384314Y-77829136D01*
X195384314Y-77829136D02*
X195212653Y-77924432D01*
X195212653Y-77924432D02*
X195132985Y-77995077D01*
X195132985Y-77995077D02*
X195065641Y-78111720D01*
X195065641Y-78111720D02*
X195056619Y-78262034D01*
X195056619Y-78262034D02*
X195118242Y-78492016D01*
X194723851Y-77020129D02*
X194871748Y-77572087D01*
X194797800Y-77296108D02*
X195763726Y-77037289D01*
X195763726Y-77037289D02*
X195650386Y-77166256D01*
X195650386Y-77166256D02*
X195583042Y-77282899D01*
X195583042Y-77282899D02*
X195561695Y-77387216D01*
X195145957Y-76019647D02*
X194502006Y-76192193D01*
X195575552Y-76151031D02*
X194947229Y-76565885D01*
X194947229Y-76565885D02*
X194787008Y-75967930D01*
X83984005Y-83615714D02*
X83018079Y-83356895D01*
X83018079Y-83356895D02*
X82956456Y-83586878D01*
X82956456Y-83586878D02*
X82965478Y-83737192D01*
X82965478Y-83737192D02*
X83032822Y-83853834D01*
X83032822Y-83853834D02*
X83112490Y-83924480D01*
X83112490Y-83924480D02*
X83284151Y-84019775D01*
X83284151Y-84019775D02*
X83422140Y-84056750D01*
X83422140Y-84056750D02*
X83618451Y-84060052D01*
X83618451Y-84060052D02*
X83722769Y-84038705D01*
X83722769Y-84038705D02*
X83839411Y-83971361D01*
X83839411Y-83971361D02*
X83922382Y-83845697D01*
X83922382Y-83845697D02*
X83984005Y-83615714D01*
X83589614Y-85087601D02*
X83737511Y-84535644D01*
X83663563Y-84811623D02*
X82697637Y-84552803D01*
X82697637Y-84552803D02*
X82860276Y-84497785D01*
X82860276Y-84497785D02*
X82976918Y-84430441D01*
X82976918Y-84430441D02*
X83047564Y-84350773D01*
X82389519Y-85702715D02*
X82512766Y-85242751D01*
X82512766Y-85242751D02*
X82985055Y-85320001D01*
X82985055Y-85320001D02*
X82926734Y-85353673D01*
X82926734Y-85353673D02*
X82856088Y-85433341D01*
X82856088Y-85433341D02*
X82794465Y-85663324D01*
X82794465Y-85663324D02*
X82815812Y-85767641D01*
X82815812Y-85767641D02*
X82849484Y-85825962D01*
X82849484Y-85825962D02*
X82929152Y-85896608D01*
X82929152Y-85896608D02*
X83159134Y-85958232D01*
X83159134Y-85958232D02*
X83263452Y-85936885D01*
X83263452Y-85936885D02*
X83321773Y-85903213D01*
X83321773Y-85903213D02*
X83392419Y-85823545D01*
X83392419Y-85823545D02*
X83454042Y-85593563D01*
X83454042Y-85593563D02*
X83432695Y-85489245D01*
X83432695Y-85489245D02*
X83399024Y-85430924D01*
X191112705Y-63543164D02*
X192078631Y-63284345D01*
X192078631Y-63284345D02*
X192017007Y-63054363D01*
X192017007Y-63054363D02*
X191934037Y-62928698D01*
X191934037Y-62928698D02*
X191817394Y-62861355D01*
X191817394Y-62861355D02*
X191713077Y-62840008D01*
X191713077Y-62840008D02*
X191516766Y-62843310D01*
X191516766Y-62843310D02*
X191378777Y-62880284D01*
X191378777Y-62880284D02*
X191207115Y-62975579D01*
X191207115Y-62975579D02*
X191127447Y-63046225D01*
X191127447Y-63046225D02*
X191060104Y-63162868D01*
X191060104Y-63162868D02*
X191051081Y-63313182D01*
X191051081Y-63313182D02*
X191112705Y-63543164D01*
X191386914Y-61990724D02*
X190742964Y-62163270D01*
X191816509Y-62122109D02*
X191188186Y-62536962D01*
X191188186Y-62536962D02*
X191027965Y-61939008D01*
X54882980Y-76311108D02*
X53917054Y-76052288D01*
X53917054Y-76052288D02*
X53855431Y-76282271D01*
X53855431Y-76282271D02*
X53864453Y-76432585D01*
X53864453Y-76432585D02*
X53931796Y-76549227D01*
X53931796Y-76549227D02*
X54011465Y-76619873D01*
X54011465Y-76619873D02*
X54183126Y-76715169D01*
X54183126Y-76715169D02*
X54321115Y-76752143D01*
X54321115Y-76752143D02*
X54517426Y-76755445D01*
X54517426Y-76755445D02*
X54621743Y-76734098D01*
X54621743Y-76734098D02*
X54738386Y-76666755D01*
X54738386Y-76666755D02*
X54821356Y-76541090D01*
X54821356Y-76541090D02*
X54882980Y-76311108D01*
X54611836Y-77323030D02*
X54562537Y-77507016D01*
X54562537Y-77507016D02*
X54491891Y-77586684D01*
X54491891Y-77586684D02*
X54433570Y-77620356D01*
X54433570Y-77620356D02*
X54270931Y-77675374D01*
X54270931Y-77675374D02*
X54074621Y-77672072D01*
X54074621Y-77672072D02*
X53706649Y-77573474D01*
X53706649Y-77573474D02*
X53626981Y-77502828D01*
X53626981Y-77502828D02*
X53593309Y-77444507D01*
X53593309Y-77444507D02*
X53571962Y-77340190D01*
X53571962Y-77340190D02*
X53621261Y-77156204D01*
X53621261Y-77156204D02*
X53691907Y-77076536D01*
X53691907Y-77076536D02*
X53750228Y-77042864D01*
X53750228Y-77042864D02*
X53854546Y-77021517D01*
X53854546Y-77021517D02*
X54084528Y-77083140D01*
X54084528Y-77083140D02*
X54164196Y-77153786D01*
X54164196Y-77153786D02*
X54197868Y-77212107D01*
X54197868Y-77212107D02*
X54219215Y-77316425D01*
X54219215Y-77316425D02*
X54169916Y-77500411D01*
X54169916Y-77500411D02*
X54099270Y-77580079D01*
X54099270Y-77580079D02*
X54040949Y-77613751D01*
X54040949Y-77613751D02*
X53936631Y-77635098D01*
X209607130Y-74609730D02*
X210573056Y-74350911D01*
X210573056Y-74350911D02*
X210511433Y-74120929D01*
X210511433Y-74120929D02*
X210428462Y-73995264D01*
X210428462Y-73995264D02*
X210311820Y-73927921D01*
X210311820Y-73927921D02*
X210207502Y-73906574D01*
X210207502Y-73906574D02*
X210011191Y-73909876D01*
X210011191Y-73909876D02*
X209873202Y-73946850D01*
X209873202Y-73946850D02*
X209701541Y-74042146D01*
X209701541Y-74042146D02*
X209621873Y-74112791D01*
X209621873Y-74112791D02*
X209554529Y-74229434D01*
X209554529Y-74229434D02*
X209545507Y-74379748D01*
X209545507Y-74379748D02*
X209607130Y-74609730D01*
X209212739Y-73137843D02*
X209360636Y-73689801D01*
X209286688Y-73413822D02*
X210252614Y-73155003D01*
X210252614Y-73155003D02*
X210139274Y-73283970D01*
X210139274Y-73283970D02*
X210071930Y-73400613D01*
X210071930Y-73400613D02*
X210050583Y-73504930D01*
X210018444Y-72281070D02*
X209993794Y-72189077D01*
X209993794Y-72189077D02*
X209923149Y-72109409D01*
X209923149Y-72109409D02*
X209864827Y-72075737D01*
X209864827Y-72075737D02*
X209760510Y-72054390D01*
X209760510Y-72054390D02*
X209564199Y-72057693D01*
X209564199Y-72057693D02*
X209334217Y-72119316D01*
X209334217Y-72119316D02*
X209162556Y-72214612D01*
X209162556Y-72214612D02*
X209082887Y-72285257D01*
X209082887Y-72285257D02*
X209049216Y-72343579D01*
X209049216Y-72343579D02*
X209027869Y-72447896D01*
X209027869Y-72447896D02*
X209052518Y-72539889D01*
X209052518Y-72539889D02*
X209123164Y-72619557D01*
X209123164Y-72619557D02*
X209181485Y-72653229D01*
X209181485Y-72653229D02*
X209285803Y-72674576D01*
X209285803Y-72674576D02*
X209482113Y-72671274D01*
X209482113Y-72671274D02*
X209712096Y-72609650D01*
X209712096Y-72609650D02*
X209883757Y-72514355D01*
X209883757Y-72514355D02*
X209963425Y-72443709D01*
X209963425Y-72443709D02*
X209997097Y-72385388D01*
X209997097Y-72385388D02*
X210018444Y-72281070D01*
X119208306Y-86135684D02*
X119255926Y-86088065D01*
X119255926Y-86088065D02*
X119303545Y-85945208D01*
X119303545Y-85945208D02*
X119303545Y-85849970D01*
X119303545Y-85849970D02*
X119255926Y-85707113D01*
X119255926Y-85707113D02*
X119160687Y-85611875D01*
X119160687Y-85611875D02*
X119065449Y-85564256D01*
X119065449Y-85564256D02*
X118874973Y-85516637D01*
X118874973Y-85516637D02*
X118732116Y-85516637D01*
X118732116Y-85516637D02*
X118541640Y-85564256D01*
X118541640Y-85564256D02*
X118446402Y-85611875D01*
X118446402Y-85611875D02*
X118351164Y-85707113D01*
X118351164Y-85707113D02*
X118303545Y-85849970D01*
X118303545Y-85849970D02*
X118303545Y-85945208D01*
X118303545Y-85945208D02*
X118351164Y-86088065D01*
X118351164Y-86088065D02*
X118398783Y-86135684D01*
X119303545Y-87088065D02*
X119303545Y-86516637D01*
X119303545Y-86802351D02*
X118303545Y-86802351D01*
X118303545Y-86802351D02*
X118446402Y-86707113D01*
X118446402Y-86707113D02*
X118541640Y-86611875D01*
X118541640Y-86611875D02*
X118589259Y-86516637D01*
X151651578Y-90138874D02*
X152617504Y-89880055D01*
X152617504Y-89880055D02*
X152555881Y-89650073D01*
X152555881Y-89650073D02*
X152472910Y-89524408D01*
X152472910Y-89524408D02*
X152356268Y-89457065D01*
X152356268Y-89457065D02*
X152251950Y-89435718D01*
X152251950Y-89435718D02*
X152055639Y-89439020D01*
X152055639Y-89439020D02*
X151917650Y-89475994D01*
X151917650Y-89475994D02*
X151745989Y-89571290D01*
X151745989Y-89571290D02*
X151666321Y-89641935D01*
X151666321Y-89641935D02*
X151598977Y-89758578D01*
X151598977Y-89758578D02*
X151589955Y-89908892D01*
X151589955Y-89908892D02*
X151651578Y-90138874D01*
X152279017Y-88984775D02*
X152312689Y-88926454D01*
X152312689Y-88926454D02*
X152334036Y-88822137D01*
X152334036Y-88822137D02*
X152272412Y-88592154D01*
X152272412Y-88592154D02*
X152201766Y-88512486D01*
X152201766Y-88512486D02*
X152143445Y-88478814D01*
X152143445Y-88478814D02*
X152039127Y-88457467D01*
X152039127Y-88457467D02*
X151947134Y-88482117D01*
X151947134Y-88482117D02*
X151821470Y-88565087D01*
X151821470Y-88565087D02*
X151417409Y-89264941D01*
X151417409Y-89264941D02*
X151257187Y-88666987D01*
X152062892Y-87810214D02*
X152038242Y-87718221D01*
X152038242Y-87718221D02*
X151967597Y-87638553D01*
X151967597Y-87638553D02*
X151909275Y-87604881D01*
X151909275Y-87604881D02*
X151804958Y-87583534D01*
X151804958Y-87583534D02*
X151608647Y-87586837D01*
X151608647Y-87586837D02*
X151378665Y-87648460D01*
X151378665Y-87648460D02*
X151207004Y-87743756D01*
X151207004Y-87743756D02*
X151127335Y-87814401D01*
X151127335Y-87814401D02*
X151093664Y-87872723D01*
X151093664Y-87872723D02*
X151072317Y-87977040D01*
X151072317Y-87977040D02*
X151096966Y-88069033D01*
X151096966Y-88069033D02*
X151167612Y-88148701D01*
X151167612Y-88148701D02*
X151225933Y-88182373D01*
X151225933Y-88182373D02*
X151330251Y-88203720D01*
X151330251Y-88203720D02*
X151526561Y-88200418D01*
X151526561Y-88200418D02*
X151756544Y-88138794D01*
X151756544Y-88138794D02*
X151928205Y-88043499D01*
X151928205Y-88043499D02*
X152007873Y-87972853D01*
X152007873Y-87972853D02*
X152041545Y-87914532D01*
X152041545Y-87914532D02*
X152062892Y-87810214D01*
X80101717Y-98104601D02*
X79135791Y-97845782D01*
X79135791Y-97845782D02*
X79074168Y-98075765D01*
X79074168Y-98075765D02*
X79083190Y-98226079D01*
X79083190Y-98226079D02*
X79150534Y-98342721D01*
X79150534Y-98342721D02*
X79230202Y-98413367D01*
X79230202Y-98413367D02*
X79401863Y-98508662D01*
X79401863Y-98508662D02*
X79539852Y-98545637D01*
X79539852Y-98545637D02*
X79736163Y-98548939D01*
X79736163Y-98548939D02*
X79840481Y-98527592D01*
X79840481Y-98527592D02*
X79957123Y-98460248D01*
X79957123Y-98460248D02*
X80040094Y-98334584D01*
X80040094Y-98334584D02*
X80101717Y-98104601D01*
X78981290Y-98790361D02*
X78922969Y-98824033D01*
X78922969Y-98824033D02*
X78852323Y-98903701D01*
X78852323Y-98903701D02*
X78790699Y-99133683D01*
X78790699Y-99133683D02*
X78812046Y-99238001D01*
X78812046Y-99238001D02*
X78845718Y-99296322D01*
X78845718Y-99296322D02*
X78925386Y-99366968D01*
X78925386Y-99366968D02*
X79017379Y-99391618D01*
X79017379Y-99391618D02*
X79167693Y-99382595D01*
X79167693Y-99382595D02*
X79867548Y-98978534D01*
X79867548Y-98978534D02*
X79707326Y-99576488D01*
X79460832Y-100496418D02*
X79608729Y-99944460D01*
X79534780Y-100220439D02*
X78568854Y-99961620D01*
X78568854Y-99961620D02*
X78731493Y-99906601D01*
X78731493Y-99906601D02*
X78848136Y-99839258D01*
X78848136Y-99839258D02*
X78918782Y-99759589D01*
X184511639Y-96863190D02*
X185477565Y-96604371D01*
X185477565Y-96604371D02*
X185415942Y-96374389D01*
X185415942Y-96374389D02*
X185332971Y-96248724D01*
X185332971Y-96248724D02*
X185216329Y-96181381D01*
X185216329Y-96181381D02*
X185112011Y-96160034D01*
X185112011Y-96160034D02*
X184915700Y-96163336D01*
X184915700Y-96163336D02*
X184777711Y-96200310D01*
X184777711Y-96200310D02*
X184606050Y-96295606D01*
X184606050Y-96295606D02*
X184526382Y-96366251D01*
X184526382Y-96366251D02*
X184459038Y-96482894D01*
X184459038Y-96482894D02*
X184450016Y-96633208D01*
X184450016Y-96633208D02*
X184511639Y-96863190D01*
X185139078Y-95709091D02*
X185172750Y-95650770D01*
X185172750Y-95650770D02*
X185194097Y-95546453D01*
X185194097Y-95546453D02*
X185132473Y-95316470D01*
X185132473Y-95316470D02*
X185061827Y-95236802D01*
X185061827Y-95236802D02*
X185003506Y-95203130D01*
X185003506Y-95203130D02*
X184899188Y-95181783D01*
X184899188Y-95181783D02*
X184807195Y-95206433D01*
X184807195Y-95206433D02*
X184681531Y-95289403D01*
X184681531Y-95289403D02*
X184277470Y-95989257D01*
X184277470Y-95989257D02*
X184117248Y-95391303D01*
X184892584Y-94789162D02*
X184926255Y-94730841D01*
X184926255Y-94730841D02*
X184947602Y-94626523D01*
X184947602Y-94626523D02*
X184885979Y-94396541D01*
X184885979Y-94396541D02*
X184815333Y-94316873D01*
X184815333Y-94316873D02*
X184757012Y-94283201D01*
X184757012Y-94283201D02*
X184652694Y-94261854D01*
X184652694Y-94261854D02*
X184560701Y-94286503D01*
X184560701Y-94286503D02*
X184435036Y-94369474D01*
X184435036Y-94369474D02*
X184030975Y-95069328D01*
X184030975Y-95069328D02*
X183870754Y-94471374D01*
X94590603Y-101986888D02*
X93624677Y-101728069D01*
X93624677Y-101728069D02*
X93563054Y-101958052D01*
X93563054Y-101958052D02*
X93572076Y-102108366D01*
X93572076Y-102108366D02*
X93639420Y-102225008D01*
X93639420Y-102225008D02*
X93719088Y-102295654D01*
X93719088Y-102295654D02*
X93890749Y-102390949D01*
X93890749Y-102390949D02*
X94028738Y-102427924D01*
X94028738Y-102427924D02*
X94225049Y-102431226D01*
X94225049Y-102431226D02*
X94329367Y-102409879D01*
X94329367Y-102409879D02*
X94446009Y-102342535D01*
X94446009Y-102342535D02*
X94528980Y-102216871D01*
X94528980Y-102216871D02*
X94590603Y-101986888D01*
X93470176Y-102672648D02*
X93411855Y-102706320D01*
X93411855Y-102706320D02*
X93341209Y-102785988D01*
X93341209Y-102785988D02*
X93279585Y-103015970D01*
X93279585Y-103015970D02*
X93300932Y-103120288D01*
X93300932Y-103120288D02*
X93334604Y-103178609D01*
X93334604Y-103178609D02*
X93414272Y-103249255D01*
X93414272Y-103249255D02*
X93506265Y-103273905D01*
X93506265Y-103273905D02*
X93656579Y-103264882D01*
X93656579Y-103264882D02*
X94356434Y-102860821D01*
X94356434Y-102860821D02*
X94196212Y-103458775D01*
X93144013Y-103521932D02*
X92983792Y-104119886D01*
X92983792Y-104119886D02*
X93438037Y-103896508D01*
X93438037Y-103896508D02*
X93401063Y-104034498D01*
X93401063Y-104034498D02*
X93422410Y-104138815D01*
X93422410Y-104138815D02*
X93456082Y-104197136D01*
X93456082Y-104197136D02*
X93535750Y-104267782D01*
X93535750Y-104267782D02*
X93765732Y-104329406D01*
X93765732Y-104329406D02*
X93870050Y-104308059D01*
X93870050Y-104308059D02*
X93928371Y-104274387D01*
X93928371Y-104274387D02*
X93999017Y-104194719D01*
X93999017Y-104194719D02*
X94072965Y-103918740D01*
X94072965Y-103918740D02*
X94051618Y-103814422D01*
X94051618Y-103814422D02*
X94017946Y-103756101D01*
X170022750Y-100745477D02*
X170988676Y-100486658D01*
X170988676Y-100486658D02*
X170927053Y-100256676D01*
X170927053Y-100256676D02*
X170844082Y-100131011D01*
X170844082Y-100131011D02*
X170727440Y-100063668D01*
X170727440Y-100063668D02*
X170623122Y-100042321D01*
X170623122Y-100042321D02*
X170426811Y-100045623D01*
X170426811Y-100045623D02*
X170288822Y-100082597D01*
X170288822Y-100082597D02*
X170117161Y-100177893D01*
X170117161Y-100177893D02*
X170037493Y-100248538D01*
X170037493Y-100248538D02*
X169970149Y-100365181D01*
X169970149Y-100365181D02*
X169961127Y-100515495D01*
X169961127Y-100515495D02*
X170022750Y-100745477D01*
X170650189Y-99591378D02*
X170683861Y-99533057D01*
X170683861Y-99533057D02*
X170705208Y-99428740D01*
X170705208Y-99428740D02*
X170643584Y-99198757D01*
X170643584Y-99198757D02*
X170572938Y-99119089D01*
X170572938Y-99119089D02*
X170514617Y-99085417D01*
X170514617Y-99085417D02*
X170410299Y-99064070D01*
X170410299Y-99064070D02*
X170318306Y-99088720D01*
X170318306Y-99088720D02*
X170192642Y-99171690D01*
X170192642Y-99171690D02*
X169788581Y-99871544D01*
X169788581Y-99871544D02*
X169628359Y-99273590D01*
X170050465Y-98273108D02*
X169406514Y-98445654D01*
X170480060Y-98404492D02*
X169851737Y-98819346D01*
X169851737Y-98819346D02*
X169691516Y-98221391D01*
X109079493Y-105869173D02*
X108113567Y-105610354D01*
X108113567Y-105610354D02*
X108051944Y-105840337D01*
X108051944Y-105840337D02*
X108060966Y-105990651D01*
X108060966Y-105990651D02*
X108128310Y-106107293D01*
X108128310Y-106107293D02*
X108207978Y-106177939D01*
X108207978Y-106177939D02*
X108379639Y-106273234D01*
X108379639Y-106273234D02*
X108517628Y-106310209D01*
X108517628Y-106310209D02*
X108713939Y-106313511D01*
X108713939Y-106313511D02*
X108818257Y-106292164D01*
X108818257Y-106292164D02*
X108934899Y-106224820D01*
X108934899Y-106224820D02*
X109017870Y-106099156D01*
X109017870Y-106099156D02*
X109079493Y-105869173D01*
X107959066Y-106554933D02*
X107900745Y-106588605D01*
X107900745Y-106588605D02*
X107830099Y-106668273D01*
X107830099Y-106668273D02*
X107768475Y-106898255D01*
X107768475Y-106898255D02*
X107789822Y-107002573D01*
X107789822Y-107002573D02*
X107823494Y-107060894D01*
X107823494Y-107060894D02*
X107903162Y-107131540D01*
X107903162Y-107131540D02*
X107995155Y-107156190D01*
X107995155Y-107156190D02*
X108145469Y-107147167D01*
X108145469Y-107147167D02*
X108845324Y-106743106D01*
X108845324Y-106743106D02*
X108685102Y-107341060D01*
X107485007Y-107956174D02*
X107608254Y-107496210D01*
X107608254Y-107496210D02*
X108080543Y-107573460D01*
X108080543Y-107573460D02*
X108022222Y-107607132D01*
X108022222Y-107607132D02*
X107951576Y-107686800D01*
X107951576Y-107686800D02*
X107889953Y-107916783D01*
X107889953Y-107916783D02*
X107911300Y-108021100D01*
X107911300Y-108021100D02*
X107944972Y-108079421D01*
X107944972Y-108079421D02*
X108024640Y-108150067D01*
X108024640Y-108150067D02*
X108254622Y-108211691D01*
X108254622Y-108211691D02*
X108358940Y-108190344D01*
X108358940Y-108190344D02*
X108417261Y-108156672D01*
X108417261Y-108156672D02*
X108487907Y-108077004D01*
X108487907Y-108077004D02*
X108549530Y-107847022D01*
X108549530Y-107847022D02*
X108528183Y-107742704D01*
X108528183Y-107742704D02*
X108494512Y-107684383D01*
X155533864Y-104627762D02*
X156499790Y-104368943D01*
X156499790Y-104368943D02*
X156438167Y-104138961D01*
X156438167Y-104138961D02*
X156355196Y-104013296D01*
X156355196Y-104013296D02*
X156238554Y-103945953D01*
X156238554Y-103945953D02*
X156134236Y-103924606D01*
X156134236Y-103924606D02*
X155937925Y-103927908D01*
X155937925Y-103927908D02*
X155799936Y-103964882D01*
X155799936Y-103964882D02*
X155628275Y-104060178D01*
X155628275Y-104060178D02*
X155548607Y-104130823D01*
X155548607Y-104130823D02*
X155481263Y-104247466D01*
X155481263Y-104247466D02*
X155472241Y-104397780D01*
X155472241Y-104397780D02*
X155533864Y-104627762D01*
X156161303Y-103473663D02*
X156194975Y-103415342D01*
X156194975Y-103415342D02*
X156216322Y-103311025D01*
X156216322Y-103311025D02*
X156154698Y-103081042D01*
X156154698Y-103081042D02*
X156084052Y-103001374D01*
X156084052Y-103001374D02*
X156025731Y-102967702D01*
X156025731Y-102967702D02*
X155921413Y-102946355D01*
X155921413Y-102946355D02*
X155829420Y-102971005D01*
X155829420Y-102971005D02*
X155703756Y-103053975D01*
X155703756Y-103053975D02*
X155299695Y-103753829D01*
X155299695Y-103753829D02*
X155139473Y-103155875D01*
X155883554Y-102069120D02*
X155932853Y-102253106D01*
X155932853Y-102253106D02*
X155911506Y-102357423D01*
X155911506Y-102357423D02*
X155877834Y-102415745D01*
X155877834Y-102415745D02*
X155764494Y-102544712D01*
X155764494Y-102544712D02*
X155592833Y-102640007D01*
X155592833Y-102640007D02*
X155224862Y-102738605D01*
X155224862Y-102738605D02*
X155120544Y-102717258D01*
X155120544Y-102717258D02*
X155062223Y-102683586D01*
X155062223Y-102683586D02*
X154991577Y-102603918D01*
X154991577Y-102603918D02*
X154942278Y-102419932D01*
X154942278Y-102419932D02*
X154963625Y-102315614D01*
X154963625Y-102315614D02*
X154997297Y-102257293D01*
X154997297Y-102257293D02*
X155076965Y-102186647D01*
X155076965Y-102186647D02*
X155306947Y-102125023D01*
X155306947Y-102125023D02*
X155411265Y-102146371D01*
X155411265Y-102146371D02*
X155469586Y-102180042D01*
X155469586Y-102180042D02*
X155540232Y-102259710D01*
X155540232Y-102259710D02*
X155589531Y-102443696D01*
X155589531Y-102443696D02*
X155568184Y-102548014D01*
X155568184Y-102548014D02*
X155534512Y-102606335D01*
X155534512Y-102606335D02*
X155454844Y-102676981D01*
X76219430Y-112593490D02*
X75253504Y-112334671D01*
X75253504Y-112334671D02*
X75191881Y-112564654D01*
X75191881Y-112564654D02*
X75200903Y-112714968D01*
X75200903Y-112714968D02*
X75268247Y-112831610D01*
X75268247Y-112831610D02*
X75347915Y-112902256D01*
X75347915Y-112902256D02*
X75519576Y-112997551D01*
X75519576Y-112997551D02*
X75657565Y-113034526D01*
X75657565Y-113034526D02*
X75853876Y-113037828D01*
X75853876Y-113037828D02*
X75958194Y-113016481D01*
X75958194Y-113016481D02*
X76074836Y-112949137D01*
X76074836Y-112949137D02*
X76157807Y-112823473D01*
X76157807Y-112823473D02*
X76219430Y-112593490D01*
X75099003Y-113279250D02*
X75040682Y-113312922D01*
X75040682Y-113312922D02*
X74970036Y-113392590D01*
X74970036Y-113392590D02*
X74908412Y-113622572D01*
X74908412Y-113622572D02*
X74929759Y-113726890D01*
X74929759Y-113726890D02*
X74963431Y-113785211D01*
X74963431Y-113785211D02*
X75043099Y-113855857D01*
X75043099Y-113855857D02*
X75135092Y-113880507D01*
X75135092Y-113880507D02*
X75285406Y-113871484D01*
X75285406Y-113871484D02*
X75985261Y-113467423D01*
X75985261Y-113467423D02*
X75825039Y-114065377D01*
X74772840Y-114128534D02*
X74600294Y-114772484D01*
X74600294Y-114772484D02*
X75677143Y-114617335D01*
X188393924Y-111352077D02*
X189359850Y-111093258D01*
X189359850Y-111093258D02*
X189298227Y-110863276D01*
X189298227Y-110863276D02*
X189215256Y-110737611D01*
X189215256Y-110737611D02*
X189098614Y-110670268D01*
X189098614Y-110670268D02*
X188994296Y-110648921D01*
X188994296Y-110648921D02*
X188797985Y-110652223D01*
X188797985Y-110652223D02*
X188659996Y-110689197D01*
X188659996Y-110689197D02*
X188488335Y-110784493D01*
X188488335Y-110784493D02*
X188408667Y-110855138D01*
X188408667Y-110855138D02*
X188341323Y-110971781D01*
X188341323Y-110971781D02*
X188332301Y-111122095D01*
X188332301Y-111122095D02*
X188393924Y-111352077D01*
X189021363Y-110197978D02*
X189055035Y-110139657D01*
X189055035Y-110139657D02*
X189076382Y-110035340D01*
X189076382Y-110035340D02*
X189014758Y-109805357D01*
X189014758Y-109805357D02*
X188944112Y-109725689D01*
X188944112Y-109725689D02*
X188885791Y-109692017D01*
X188885791Y-109692017D02*
X188781473Y-109670670D01*
X188781473Y-109670670D02*
X188689480Y-109695320D01*
X188689480Y-109695320D02*
X188563816Y-109778290D01*
X188563816Y-109778290D02*
X188159755Y-110478144D01*
X188159755Y-110478144D02*
X187999533Y-109880190D01*
X188403594Y-109180336D02*
X188474240Y-109260004D01*
X188474240Y-109260004D02*
X188532561Y-109293676D01*
X188532561Y-109293676D02*
X188636879Y-109315023D01*
X188636879Y-109315023D02*
X188682876Y-109302698D01*
X188682876Y-109302698D02*
X188762544Y-109232052D01*
X188762544Y-109232052D02*
X188796216Y-109173731D01*
X188796216Y-109173731D02*
X188817563Y-109069414D01*
X188817563Y-109069414D02*
X188768264Y-108885428D01*
X188768264Y-108885428D02*
X188697618Y-108805760D01*
X188697618Y-108805760D02*
X188639297Y-108772088D01*
X188639297Y-108772088D02*
X188534979Y-108750741D01*
X188534979Y-108750741D02*
X188488983Y-108763065D01*
X188488983Y-108763065D02*
X188409314Y-108833711D01*
X188409314Y-108833711D02*
X188375643Y-108892033D01*
X188375643Y-108892033D02*
X188354296Y-108996350D01*
X188354296Y-108996350D02*
X188403594Y-109180336D01*
X188403594Y-109180336D02*
X188382247Y-109284654D01*
X188382247Y-109284654D02*
X188348576Y-109342975D01*
X188348576Y-109342975D02*
X188268907Y-109413621D01*
X188268907Y-109413621D02*
X188084922Y-109462920D01*
X188084922Y-109462920D02*
X187980604Y-109441573D01*
X187980604Y-109441573D02*
X187922283Y-109407901D01*
X187922283Y-109407901D02*
X187851637Y-109328233D01*
X187851637Y-109328233D02*
X187802338Y-109144247D01*
X187802338Y-109144247D02*
X187823685Y-109039929D01*
X187823685Y-109039929D02*
X187857357Y-108981608D01*
X187857357Y-108981608D02*
X187937025Y-108910962D01*
X187937025Y-108910962D02*
X188121011Y-108861663D01*
X188121011Y-108861663D02*
X188225328Y-108883010D01*
X188225328Y-108883010D02*
X188283650Y-108916682D01*
X188283650Y-108916682D02*
X188354296Y-108996350D01*
X147769291Y-75649987D02*
X148735217Y-75391168D01*
X148735217Y-75391168D02*
X148673594Y-75161186D01*
X148673594Y-75161186D02*
X148590623Y-75035521D01*
X148590623Y-75035521D02*
X148473981Y-74968178D01*
X148473981Y-74968178D02*
X148369663Y-74946831D01*
X148369663Y-74946831D02*
X148173352Y-74950133D01*
X148173352Y-74950133D02*
X148035363Y-74987107D01*
X148035363Y-74987107D02*
X147863702Y-75082403D01*
X147863702Y-75082403D02*
X147784034Y-75153048D01*
X147784034Y-75153048D02*
X147716690Y-75269691D01*
X147716690Y-75269691D02*
X147707668Y-75420005D01*
X147707668Y-75420005D02*
X147769291Y-75649987D01*
X147374900Y-74178100D02*
X147522797Y-74730058D01*
X147448849Y-74454079D02*
X148414775Y-74195260D01*
X148414775Y-74195260D02*
X148301435Y-74324227D01*
X148301435Y-74324227D02*
X148234091Y-74440870D01*
X148234091Y-74440870D02*
X148212744Y-74545187D01*
X148150236Y-73575959D02*
X148183907Y-73517638D01*
X148183907Y-73517638D02*
X148205254Y-73413320D01*
X148205254Y-73413320D02*
X148143631Y-73183338D01*
X148143631Y-73183338D02*
X148072985Y-73103670D01*
X148072985Y-73103670D02*
X148014664Y-73069998D01*
X148014664Y-73069998D02*
X147910346Y-73048651D01*
X147910346Y-73048651D02*
X147818353Y-73073300D01*
X147818353Y-73073300D02*
X147692688Y-73156271D01*
X147692688Y-73156271D02*
X147288627Y-73856125D01*
X147288627Y-73856125D02*
X147128406Y-73258171D01*
X123829665Y-104732228D02*
X123877284Y-104875085D01*
X123877284Y-104875085D02*
X123924903Y-104922704D01*
X123924903Y-104922704D02*
X124020141Y-104970323D01*
X124020141Y-104970323D02*
X124162998Y-104970323D01*
X124162998Y-104970323D02*
X124258236Y-104922704D01*
X124258236Y-104922704D02*
X124305856Y-104875085D01*
X124305856Y-104875085D02*
X124353475Y-104779847D01*
X124353475Y-104779847D02*
X124353475Y-104398895D01*
X124353475Y-104398895D02*
X123353475Y-104398895D01*
X123353475Y-104398895D02*
X123353475Y-104732228D01*
X123353475Y-104732228D02*
X123401094Y-104827466D01*
X123401094Y-104827466D02*
X123448713Y-104875085D01*
X123448713Y-104875085D02*
X123543951Y-104922704D01*
X123543951Y-104922704D02*
X123639189Y-104922704D01*
X123639189Y-104922704D02*
X123734427Y-104875085D01*
X123734427Y-104875085D02*
X123782046Y-104827466D01*
X123782046Y-104827466D02*
X123829665Y-104732228D01*
X123829665Y-104732228D02*
X123829665Y-104398895D01*
X123353475Y-105589371D02*
X123353475Y-105779847D01*
X123353475Y-105779847D02*
X123401094Y-105875085D01*
X123401094Y-105875085D02*
X123496332Y-105970323D01*
X123496332Y-105970323D02*
X123686808Y-106017942D01*
X123686808Y-106017942D02*
X124020141Y-106017942D01*
X124020141Y-106017942D02*
X124210617Y-105970323D01*
X124210617Y-105970323D02*
X124305856Y-105875085D01*
X124305856Y-105875085D02*
X124353475Y-105779847D01*
X124353475Y-105779847D02*
X124353475Y-105589371D01*
X124353475Y-105589371D02*
X124305856Y-105494133D01*
X124305856Y-105494133D02*
X124210617Y-105398895D01*
X124210617Y-105398895D02*
X124020141Y-105351276D01*
X124020141Y-105351276D02*
X123686808Y-105351276D01*
X123686808Y-105351276D02*
X123496332Y-105398895D01*
X123496332Y-105398895D02*
X123401094Y-105494133D01*
X123401094Y-105494133D02*
X123353475Y-105589371D01*
X123353475Y-106636990D02*
X123353475Y-106827466D01*
X123353475Y-106827466D02*
X123401094Y-106922704D01*
X123401094Y-106922704D02*
X123496332Y-107017942D01*
X123496332Y-107017942D02*
X123686808Y-107065561D01*
X123686808Y-107065561D02*
X124020141Y-107065561D01*
X124020141Y-107065561D02*
X124210617Y-107017942D01*
X124210617Y-107017942D02*
X124305856Y-106922704D01*
X124305856Y-106922704D02*
X124353475Y-106827466D01*
X124353475Y-106827466D02*
X124353475Y-106636990D01*
X124353475Y-106636990D02*
X124305856Y-106541752D01*
X124305856Y-106541752D02*
X124210617Y-106446514D01*
X124210617Y-106446514D02*
X124020141Y-106398895D01*
X124020141Y-106398895D02*
X123686808Y-106398895D01*
X123686808Y-106398895D02*
X123496332Y-106446514D01*
X123496332Y-106446514D02*
X123401094Y-106541752D01*
X123401094Y-106541752D02*
X123353475Y-106636990D01*
X123353475Y-107351276D02*
X123353475Y-107922704D01*
X124353475Y-107636990D02*
X123353475Y-107636990D01*
X134353477Y-104636989D02*
X133877286Y-104303656D01*
X134353477Y-104065561D02*
X133353477Y-104065561D01*
X133353477Y-104065561D02*
X133353477Y-104446513D01*
X133353477Y-104446513D02*
X133401096Y-104541751D01*
X133401096Y-104541751D02*
X133448715Y-104589370D01*
X133448715Y-104589370D02*
X133543953Y-104636989D01*
X133543953Y-104636989D02*
X133686810Y-104636989D01*
X133686810Y-104636989D02*
X133782048Y-104589370D01*
X133782048Y-104589370D02*
X133829667Y-104541751D01*
X133829667Y-104541751D02*
X133877286Y-104446513D01*
X133877286Y-104446513D02*
X133877286Y-104065561D01*
X133829667Y-105065561D02*
X133829667Y-105398894D01*
X134353477Y-105541751D02*
X134353477Y-105065561D01*
X134353477Y-105065561D02*
X133353477Y-105065561D01*
X133353477Y-105065561D02*
X133353477Y-105541751D01*
X134305858Y-105922704D02*
X134353477Y-106065561D01*
X134353477Y-106065561D02*
X134353477Y-106303656D01*
X134353477Y-106303656D02*
X134305858Y-106398894D01*
X134305858Y-106398894D02*
X134258238Y-106446513D01*
X134258238Y-106446513D02*
X134163000Y-106494132D01*
X134163000Y-106494132D02*
X134067762Y-106494132D01*
X134067762Y-106494132D02*
X133972524Y-106446513D01*
X133972524Y-106446513D02*
X133924905Y-106398894D01*
X133924905Y-106398894D02*
X133877286Y-106303656D01*
X133877286Y-106303656D02*
X133829667Y-106113180D01*
X133829667Y-106113180D02*
X133782048Y-106017942D01*
X133782048Y-106017942D02*
X133734429Y-105970323D01*
X133734429Y-105970323D02*
X133639191Y-105922704D01*
X133639191Y-105922704D02*
X133543953Y-105922704D01*
X133543953Y-105922704D02*
X133448715Y-105970323D01*
X133448715Y-105970323D02*
X133401096Y-106017942D01*
X133401096Y-106017942D02*
X133353477Y-106113180D01*
X133353477Y-106113180D02*
X133353477Y-106351275D01*
X133353477Y-106351275D02*
X133401096Y-106494132D01*
X133829667Y-106922704D02*
X133829667Y-107256037D01*
X134353477Y-107398894D02*
X134353477Y-106922704D01*
X134353477Y-106922704D02*
X133353477Y-106922704D01*
X133353477Y-106922704D02*
X133353477Y-107398894D01*
X133353477Y-107684609D02*
X133353477Y-108256037D01*
X134353477Y-107970323D02*
X133353477Y-107970323D01*
X126060562Y-84344189D02*
X126060562Y-85153712D01*
X126060562Y-85153712D02*
X126012943Y-85248950D01*
X126012943Y-85248950D02*
X125965324Y-85296570D01*
X125965324Y-85296570D02*
X125870086Y-85344189D01*
X125870086Y-85344189D02*
X125679610Y-85344189D01*
X125679610Y-85344189D02*
X125584372Y-85296570D01*
X125584372Y-85296570D02*
X125536753Y-85248950D01*
X125536753Y-85248950D02*
X125489134Y-85153712D01*
X125489134Y-85153712D02*
X125489134Y-84344189D01*
X124489134Y-85344189D02*
X125060562Y-85344189D01*
X124774848Y-85344189D02*
X124774848Y-84344189D01*
X124774848Y-84344189D02*
X124870086Y-84487046D01*
X124870086Y-84487046D02*
X124965324Y-84582284D01*
X124965324Y-84582284D02*
X125060562Y-84629903D01*
X180629355Y-82374301D02*
X181595281Y-82115482D01*
X181595281Y-82115482D02*
X181533658Y-81885500D01*
X181533658Y-81885500D02*
X181450687Y-81759835D01*
X181450687Y-81759835D02*
X181334045Y-81692492D01*
X181334045Y-81692492D02*
X181229727Y-81671145D01*
X181229727Y-81671145D02*
X181033416Y-81674447D01*
X181033416Y-81674447D02*
X180895427Y-81711421D01*
X180895427Y-81711421D02*
X180723766Y-81806717D01*
X180723766Y-81806717D02*
X180644098Y-81877362D01*
X180644098Y-81877362D02*
X180576754Y-81994005D01*
X180576754Y-81994005D02*
X180567732Y-82144319D01*
X180567732Y-82144319D02*
X180629355Y-82374301D01*
X180234964Y-80902414D02*
X180382861Y-81454372D01*
X180308913Y-81178393D02*
X181274839Y-80919574D01*
X181274839Y-80919574D02*
X181161499Y-81048541D01*
X181161499Y-81048541D02*
X181094155Y-81165184D01*
X181094155Y-81165184D02*
X181072808Y-81269501D01*
X180979045Y-79815659D02*
X181028344Y-79999645D01*
X181028344Y-79999645D02*
X181006997Y-80103962D01*
X181006997Y-80103962D02*
X180973325Y-80162284D01*
X180973325Y-80162284D02*
X180859985Y-80291251D01*
X180859985Y-80291251D02*
X180688324Y-80386546D01*
X180688324Y-80386546D02*
X180320353Y-80485144D01*
X180320353Y-80485144D02*
X180216035Y-80463797D01*
X180216035Y-80463797D02*
X180157714Y-80430125D01*
X180157714Y-80430125D02*
X180087068Y-80350457D01*
X180087068Y-80350457D02*
X180037769Y-80166471D01*
X180037769Y-80166471D02*
X180059116Y-80062153D01*
X180059116Y-80062153D02*
X180092788Y-80003832D01*
X180092788Y-80003832D02*
X180172456Y-79933186D01*
X180172456Y-79933186D02*
X180402438Y-79871562D01*
X180402438Y-79871562D02*
X180506756Y-79892910D01*
X180506756Y-79892910D02*
X180565077Y-79926581D01*
X180565077Y-79926581D02*
X180635723Y-80006249D01*
X180635723Y-80006249D02*
X180685022Y-80190235D01*
X180685022Y-80190235D02*
X180663675Y-80294553D01*
X180663675Y-80294553D02*
X180630003Y-80352874D01*
X180630003Y-80352874D02*
X180550335Y-80423520D01*
X98472891Y-87498001D02*
X97506965Y-87239182D01*
X97506965Y-87239182D02*
X97445342Y-87469165D01*
X97445342Y-87469165D02*
X97454364Y-87619479D01*
X97454364Y-87619479D02*
X97521708Y-87736121D01*
X97521708Y-87736121D02*
X97601376Y-87806767D01*
X97601376Y-87806767D02*
X97773037Y-87902062D01*
X97773037Y-87902062D02*
X97911026Y-87939037D01*
X97911026Y-87939037D02*
X98107337Y-87942339D01*
X98107337Y-87942339D02*
X98211655Y-87920992D01*
X98211655Y-87920992D02*
X98328297Y-87853648D01*
X98328297Y-87853648D02*
X98411268Y-87727984D01*
X98411268Y-87727984D02*
X98472891Y-87498001D01*
X98078500Y-88969888D02*
X98226397Y-88417931D01*
X98152449Y-88693910D02*
X97186523Y-88435090D01*
X97186523Y-88435090D02*
X97349162Y-88380072D01*
X97349162Y-88380072D02*
X97465804Y-88312728D01*
X97465804Y-88312728D02*
X97536450Y-88233060D01*
X97026301Y-89033045D02*
X96853755Y-89676995D01*
X96853755Y-89676995D02*
X97930604Y-89521846D01*
X116844064Y-76891399D02*
X115878138Y-76632580D01*
X115878138Y-76632580D02*
X115816515Y-76862563D01*
X115816515Y-76862563D02*
X115825537Y-77012877D01*
X115825537Y-77012877D02*
X115892881Y-77129519D01*
X115892881Y-77129519D02*
X115972549Y-77200165D01*
X115972549Y-77200165D02*
X116144210Y-77295460D01*
X116144210Y-77295460D02*
X116282199Y-77332435D01*
X116282199Y-77332435D02*
X116478510Y-77335737D01*
X116478510Y-77335737D02*
X116582828Y-77314390D01*
X116582828Y-77314390D02*
X116699470Y-77247046D01*
X116699470Y-77247046D02*
X116782441Y-77121382D01*
X116782441Y-77121382D02*
X116844064Y-76891399D01*
X116449673Y-78363286D02*
X116597570Y-77811329D01*
X116523622Y-78087308D02*
X115557696Y-77828488D01*
X115557696Y-77828488D02*
X115720335Y-77773470D01*
X115720335Y-77773470D02*
X115836977Y-77706126D01*
X115836977Y-77706126D02*
X115907623Y-77626458D01*
X116203179Y-79283216D02*
X116351076Y-78731258D01*
X116277127Y-79007237D02*
X115311201Y-78748418D01*
X115311201Y-78748418D02*
X115473840Y-78693399D01*
X115473840Y-78693399D02*
X115590483Y-78626056D01*
X115590483Y-78626056D02*
X115661129Y-78546387D01*
X69495116Y-79733428D02*
X68529190Y-79474609D01*
X68529190Y-79474609D02*
X68467567Y-79704592D01*
X68467567Y-79704592D02*
X68476589Y-79854906D01*
X68476589Y-79854906D02*
X68543933Y-79971548D01*
X68543933Y-79971548D02*
X68623601Y-80042194D01*
X68623601Y-80042194D02*
X68795262Y-80137489D01*
X68795262Y-80137489D02*
X68933251Y-80174464D01*
X68933251Y-80174464D02*
X69129562Y-80177766D01*
X69129562Y-80177766D02*
X69233880Y-80156419D01*
X69233880Y-80156419D02*
X69350522Y-80089075D01*
X69350522Y-80089075D02*
X69433493Y-79963411D01*
X69433493Y-79963411D02*
X69495116Y-79733428D01*
X69100725Y-81205315D02*
X69248622Y-80653358D01*
X69174674Y-80929337D02*
X68208748Y-80670517D01*
X68208748Y-80670517D02*
X68371387Y-80615499D01*
X68371387Y-80615499D02*
X68488029Y-80548155D01*
X68488029Y-80548155D02*
X68558675Y-80468487D01*
X68048526Y-81268472D02*
X67888305Y-81866426D01*
X67888305Y-81866426D02*
X68342550Y-81643048D01*
X68342550Y-81643048D02*
X68305576Y-81781038D01*
X68305576Y-81781038D02*
X68326923Y-81885355D01*
X68326923Y-81885355D02*
X68360595Y-81943676D01*
X68360595Y-81943676D02*
X68440263Y-82014322D01*
X68440263Y-82014322D02*
X68670245Y-82075946D01*
X68670245Y-82075946D02*
X68774563Y-82054599D01*
X68774563Y-82054599D02*
X68832884Y-82020927D01*
X68832884Y-82020927D02*
X68903530Y-81941259D01*
X68903530Y-81941259D02*
X68977478Y-81665280D01*
X68977478Y-81665280D02*
X68956131Y-81560962D01*
X68956131Y-81560962D02*
X68922459Y-81502641D01*
X102231931Y-73469078D02*
X101266005Y-73210258D01*
X101266005Y-73210258D02*
X101204382Y-73440241D01*
X101204382Y-73440241D02*
X101213404Y-73590555D01*
X101213404Y-73590555D02*
X101280747Y-73707197D01*
X101280747Y-73707197D02*
X101360416Y-73777843D01*
X101360416Y-73777843D02*
X101532077Y-73873139D01*
X101532077Y-73873139D02*
X101670066Y-73910113D01*
X101670066Y-73910113D02*
X101866377Y-73913415D01*
X101866377Y-73913415D02*
X101970694Y-73892068D01*
X101970694Y-73892068D02*
X102087337Y-73824725D01*
X102087337Y-73824725D02*
X102170307Y-73699060D01*
X102170307Y-73699060D02*
X102231931Y-73469078D01*
X101031836Y-74084191D02*
X100859289Y-74728142D01*
X100859289Y-74728142D02*
X101936138Y-74572993D01*
X162134931Y-71307735D02*
X163100857Y-71048916D01*
X163100857Y-71048916D02*
X163039233Y-70818934D01*
X163039233Y-70818934D02*
X162956263Y-70693269D01*
X162956263Y-70693269D02*
X162839620Y-70625926D01*
X162839620Y-70625926D02*
X162735303Y-70604579D01*
X162735303Y-70604579D02*
X162538992Y-70607881D01*
X162538992Y-70607881D02*
X162401003Y-70644855D01*
X162401003Y-70644855D02*
X162229341Y-70740150D01*
X162229341Y-70740150D02*
X162149673Y-70810796D01*
X162149673Y-70810796D02*
X162082330Y-70927439D01*
X162082330Y-70927439D02*
X162073307Y-71077753D01*
X162073307Y-71077753D02*
X162134931Y-71307735D01*
X162391095Y-70055923D02*
X162461741Y-70135592D01*
X162461741Y-70135592D02*
X162520063Y-70169263D01*
X162520063Y-70169263D02*
X162624380Y-70190610D01*
X162624380Y-70190610D02*
X162670377Y-70178286D01*
X162670377Y-70178286D02*
X162750045Y-70107640D01*
X162750045Y-70107640D02*
X162783717Y-70049319D01*
X162783717Y-70049319D02*
X162805064Y-69945001D01*
X162805064Y-69945001D02*
X162755765Y-69761015D01*
X162755765Y-69761015D02*
X162685119Y-69681347D01*
X162685119Y-69681347D02*
X162626798Y-69647675D01*
X162626798Y-69647675D02*
X162522480Y-69626328D01*
X162522480Y-69626328D02*
X162476484Y-69638653D01*
X162476484Y-69638653D02*
X162396815Y-69709299D01*
X162396815Y-69709299D02*
X162363144Y-69767620D01*
X162363144Y-69767620D02*
X162341797Y-69871937D01*
X162341797Y-69871937D02*
X162391095Y-70055923D01*
X162391095Y-70055923D02*
X162369748Y-70160241D01*
X162369748Y-70160241D02*
X162336077Y-70218562D01*
X162336077Y-70218562D02*
X162256408Y-70289208D01*
X162256408Y-70289208D02*
X162072423Y-70338507D01*
X162072423Y-70338507D02*
X161968105Y-70317160D01*
X161968105Y-70317160D02*
X161909784Y-70283488D01*
X161909784Y-70283488D02*
X161839138Y-70203820D01*
X161839138Y-70203820D02*
X161789839Y-70019834D01*
X161789839Y-70019834D02*
X161811186Y-69915516D01*
X161811186Y-69915516D02*
X161844858Y-69857195D01*
X161844858Y-69857195D02*
X161924526Y-69786549D01*
X161924526Y-69786549D02*
X162108512Y-69737250D01*
X162108512Y-69737250D02*
X162212829Y-69758597D01*
X162212829Y-69758597D02*
X162271151Y-69792269D01*
X162271151Y-69792269D02*
X162341797Y-69871937D01*
X90708317Y-116475775D02*
X89742391Y-116216956D01*
X89742391Y-116216956D02*
X89680768Y-116446939D01*
X89680768Y-116446939D02*
X89689790Y-116597253D01*
X89689790Y-116597253D02*
X89757134Y-116713895D01*
X89757134Y-116713895D02*
X89836802Y-116784541D01*
X89836802Y-116784541D02*
X90008463Y-116879836D01*
X90008463Y-116879836D02*
X90146452Y-116916811D01*
X90146452Y-116916811D02*
X90342763Y-116920113D01*
X90342763Y-116920113D02*
X90447081Y-116898766D01*
X90447081Y-116898766D02*
X90563723Y-116831422D01*
X90563723Y-116831422D02*
X90646694Y-116705758D01*
X90646694Y-116705758D02*
X90708317Y-116475775D01*
X89587890Y-117161535D02*
X89529569Y-117195207D01*
X89529569Y-117195207D02*
X89458923Y-117274875D01*
X89458923Y-117274875D02*
X89397299Y-117504857D01*
X89397299Y-117504857D02*
X89418646Y-117609175D01*
X89418646Y-117609175D02*
X89452318Y-117667496D01*
X89452318Y-117667496D02*
X89531986Y-117738142D01*
X89531986Y-117738142D02*
X89623979Y-117762792D01*
X89623979Y-117762792D02*
X89774293Y-117753769D01*
X89774293Y-117753769D02*
X90474148Y-117349708D01*
X90474148Y-117349708D02*
X90313926Y-117947662D01*
X90190679Y-118407627D02*
X90141380Y-118591613D01*
X90141380Y-118591613D02*
X90070734Y-118671281D01*
X90070734Y-118671281D02*
X90012413Y-118704953D01*
X90012413Y-118704953D02*
X89849774Y-118759972D01*
X89849774Y-118759972D02*
X89653464Y-118756669D01*
X89653464Y-118756669D02*
X89285492Y-118658072D01*
X89285492Y-118658072D02*
X89205824Y-118587426D01*
X89205824Y-118587426D02*
X89172152Y-118529104D01*
X89172152Y-118529104D02*
X89150805Y-118424787D01*
X89150805Y-118424787D02*
X89200104Y-118240801D01*
X89200104Y-118240801D02*
X89270750Y-118161133D01*
X89270750Y-118161133D02*
X89329071Y-118127461D01*
X89329071Y-118127461D02*
X89433389Y-118106114D01*
X89433389Y-118106114D02*
X89663371Y-118167738D01*
X89663371Y-118167738D02*
X89743039Y-118238383D01*
X89743039Y-118238383D02*
X89776711Y-118296705D01*
X89776711Y-118296705D02*
X89798058Y-118401022D01*
X89798058Y-118401022D02*
X89748759Y-118585008D01*
X89748759Y-118585008D02*
X89678113Y-118664676D01*
X89678113Y-118664676D02*
X89619792Y-118698348D01*
X89619792Y-118698348D02*
X89515474Y-118719695D01*
X166140464Y-86256587D02*
X167106390Y-85997768D01*
X167106390Y-85997768D02*
X167044767Y-85767786D01*
X167044767Y-85767786D02*
X166961796Y-85642121D01*
X166961796Y-85642121D02*
X166845154Y-85574778D01*
X166845154Y-85574778D02*
X166740836Y-85553431D01*
X166740836Y-85553431D02*
X166544525Y-85556733D01*
X166544525Y-85556733D02*
X166406536Y-85593707D01*
X166406536Y-85593707D02*
X166234875Y-85689003D01*
X166234875Y-85689003D02*
X166155207Y-85759648D01*
X166155207Y-85759648D02*
X166087863Y-85876291D01*
X166087863Y-85876291D02*
X166078841Y-86026605D01*
X166078841Y-86026605D02*
X166140464Y-86256587D01*
X165746073Y-84784700D02*
X165893970Y-85336658D01*
X165820022Y-85060679D02*
X166785948Y-84801860D01*
X166785948Y-84801860D02*
X166672608Y-84930827D01*
X166672608Y-84930827D02*
X166605264Y-85047470D01*
X166605264Y-85047470D02*
X166583917Y-85151787D01*
X166150134Y-84084846D02*
X166220780Y-84164514D01*
X166220780Y-84164514D02*
X166279101Y-84198186D01*
X166279101Y-84198186D02*
X166383419Y-84219533D01*
X166383419Y-84219533D02*
X166429416Y-84207208D01*
X166429416Y-84207208D02*
X166509084Y-84136562D01*
X166509084Y-84136562D02*
X166542756Y-84078241D01*
X166542756Y-84078241D02*
X166564103Y-83973924D01*
X166564103Y-83973924D02*
X166514804Y-83789938D01*
X166514804Y-83789938D02*
X166444158Y-83710270D01*
X166444158Y-83710270D02*
X166385837Y-83676598D01*
X166385837Y-83676598D02*
X166281519Y-83655251D01*
X166281519Y-83655251D02*
X166235523Y-83667575D01*
X166235523Y-83667575D02*
X166155854Y-83738221D01*
X166155854Y-83738221D02*
X166122183Y-83796543D01*
X166122183Y-83796543D02*
X166100836Y-83900860D01*
X166100836Y-83900860D02*
X166150134Y-84084846D01*
X166150134Y-84084846D02*
X166128787Y-84189164D01*
X166128787Y-84189164D02*
X166095116Y-84247485D01*
X166095116Y-84247485D02*
X166015447Y-84318131D01*
X166015447Y-84318131D02*
X165831462Y-84367430D01*
X165831462Y-84367430D02*
X165727144Y-84346083D01*
X165727144Y-84346083D02*
X165668823Y-84312411D01*
X165668823Y-84312411D02*
X165598177Y-84232743D01*
X165598177Y-84232743D02*
X165548878Y-84048757D01*
X165548878Y-84048757D02*
X165570225Y-83944439D01*
X165570225Y-83944439D02*
X165603897Y-83886118D01*
X165603897Y-83886118D02*
X165683565Y-83815472D01*
X165683565Y-83815472D02*
X165867551Y-83766173D01*
X165867551Y-83766173D02*
X165971868Y-83787520D01*
X165971868Y-83787520D02*
X166030190Y-83821192D01*
X166030190Y-83821192D02*
X166100836Y-83900860D01*
X112961780Y-91380284D02*
X111995854Y-91121465D01*
X111995854Y-91121465D02*
X111934231Y-91351448D01*
X111934231Y-91351448D02*
X111943253Y-91501762D01*
X111943253Y-91501762D02*
X112010597Y-91618404D01*
X112010597Y-91618404D02*
X112090265Y-91689050D01*
X112090265Y-91689050D02*
X112261926Y-91784345D01*
X112261926Y-91784345D02*
X112399915Y-91821320D01*
X112399915Y-91821320D02*
X112596226Y-91824622D01*
X112596226Y-91824622D02*
X112700544Y-91803275D01*
X112700544Y-91803275D02*
X112817186Y-91735931D01*
X112817186Y-91735931D02*
X112900157Y-91610267D01*
X112900157Y-91610267D02*
X112961780Y-91380284D01*
X112567389Y-92852171D02*
X112715286Y-92300214D01*
X112641338Y-92576193D02*
X111675412Y-92317373D01*
X111675412Y-92317373D02*
X111838051Y-92262355D01*
X111838051Y-92262355D02*
X111954693Y-92195011D01*
X111954693Y-92195011D02*
X112025339Y-92115343D01*
X112444142Y-93312136D02*
X112394843Y-93496122D01*
X112394843Y-93496122D02*
X112324197Y-93575790D01*
X112324197Y-93575790D02*
X112265876Y-93609462D01*
X112265876Y-93609462D02*
X112103237Y-93664481D01*
X112103237Y-93664481D02*
X111906927Y-93661178D01*
X111906927Y-93661178D02*
X111538955Y-93562581D01*
X111538955Y-93562581D02*
X111459287Y-93491935D01*
X111459287Y-93491935D02*
X111425615Y-93433613D01*
X111425615Y-93433613D02*
X111404268Y-93329296D01*
X111404268Y-93329296D02*
X111453567Y-93145310D01*
X111453567Y-93145310D02*
X111524213Y-93065642D01*
X111524213Y-93065642D02*
X111582534Y-93031970D01*
X111582534Y-93031970D02*
X111686852Y-93010623D01*
X111686852Y-93010623D02*
X111916834Y-93072247D01*
X111916834Y-93072247D02*
X111996502Y-93142892D01*
X111996502Y-93142892D02*
X112030174Y-93201214D01*
X112030174Y-93201214D02*
X112051521Y-93305531D01*
X112051521Y-93305531D02*
X112002222Y-93489517D01*
X112002222Y-93489517D02*
X111931576Y-93569185D01*
X111931576Y-93569185D02*
X111873255Y-93602857D01*
X111873255Y-93602857D02*
X111768937Y-93624204D01*
X173905034Y-115234361D02*
X174870960Y-114975542D01*
X174870960Y-114975542D02*
X174809337Y-114745560D01*
X174809337Y-114745560D02*
X174726366Y-114619895D01*
X174726366Y-114619895D02*
X174609724Y-114552552D01*
X174609724Y-114552552D02*
X174505406Y-114531205D01*
X174505406Y-114531205D02*
X174309095Y-114534507D01*
X174309095Y-114534507D02*
X174171106Y-114571481D01*
X174171106Y-114571481D02*
X173999445Y-114666777D01*
X173999445Y-114666777D02*
X173919777Y-114737422D01*
X173919777Y-114737422D02*
X173852433Y-114854065D01*
X173852433Y-114854065D02*
X173843411Y-115004379D01*
X173843411Y-115004379D02*
X173905034Y-115234361D01*
X174636791Y-114101609D02*
X174476569Y-113503655D01*
X174476569Y-113503655D02*
X174194870Y-113924228D01*
X174194870Y-113924228D02*
X174157896Y-113786239D01*
X174157896Y-113786239D02*
X174087250Y-113706571D01*
X174087250Y-113706571D02*
X174028929Y-113672899D01*
X174028929Y-113672899D02*
X173924612Y-113651552D01*
X173924612Y-113651552D02*
X173694629Y-113713175D01*
X173694629Y-113713175D02*
X173614961Y-113783821D01*
X173614961Y-113783821D02*
X173581289Y-113842143D01*
X173581289Y-113842143D02*
X173559942Y-113946460D01*
X173559942Y-113946460D02*
X173633891Y-114222439D01*
X173633891Y-114222439D02*
X173704536Y-114302107D01*
X173704536Y-114302107D02*
X173762858Y-114335779D01*
X174316348Y-112905701D02*
X174291698Y-112813708D01*
X174291698Y-112813708D02*
X174221053Y-112734040D01*
X174221053Y-112734040D02*
X174162731Y-112700368D01*
X174162731Y-112700368D02*
X174058414Y-112679021D01*
X174058414Y-112679021D02*
X173862103Y-112682324D01*
X173862103Y-112682324D02*
X173632121Y-112743947D01*
X173632121Y-112743947D02*
X173460460Y-112839243D01*
X173460460Y-112839243D02*
X173380791Y-112909888D01*
X173380791Y-112909888D02*
X173347120Y-112968210D01*
X173347120Y-112968210D02*
X173325773Y-113072527D01*
X173325773Y-113072527D02*
X173350422Y-113164520D01*
X173350422Y-113164520D02*
X173421068Y-113244188D01*
X173421068Y-113244188D02*
X173479389Y-113277860D01*
X173479389Y-113277860D02*
X173583707Y-113299207D01*
X173583707Y-113299207D02*
X173780017Y-113295905D01*
X173780017Y-113295905D02*
X174010000Y-113234281D01*
X174010000Y-113234281D02*
X174181661Y-113138986D01*
X174181661Y-113138986D02*
X174261329Y-113068340D01*
X174261329Y-113068340D02*
X174295001Y-113010019D01*
X174295001Y-113010019D02*
X174316348Y-112905701D01*
X105197207Y-120358059D02*
X104231281Y-120099240D01*
X104231281Y-120099240D02*
X104169658Y-120329223D01*
X104169658Y-120329223D02*
X104178680Y-120479537D01*
X104178680Y-120479537D02*
X104246024Y-120596179D01*
X104246024Y-120596179D02*
X104325692Y-120666825D01*
X104325692Y-120666825D02*
X104497353Y-120762120D01*
X104497353Y-120762120D02*
X104635342Y-120799095D01*
X104635342Y-120799095D02*
X104831653Y-120802397D01*
X104831653Y-120802397D02*
X104935971Y-120781050D01*
X104935971Y-120781050D02*
X105052613Y-120713706D01*
X105052613Y-120713706D02*
X105135584Y-120588042D01*
X105135584Y-120588042D02*
X105197207Y-120358059D01*
X103997112Y-120973173D02*
X103836890Y-121571127D01*
X103836890Y-121571127D02*
X104291135Y-121347750D01*
X104291135Y-121347750D02*
X104254161Y-121485739D01*
X104254161Y-121485739D02*
X104275508Y-121590057D01*
X104275508Y-121590057D02*
X104309180Y-121648378D01*
X104309180Y-121648378D02*
X104388848Y-121719024D01*
X104388848Y-121719024D02*
X104618830Y-121780647D01*
X104618830Y-121780647D02*
X104723148Y-121759300D01*
X104723148Y-121759300D02*
X104781469Y-121725629D01*
X104781469Y-121725629D02*
X104852115Y-121645960D01*
X104852115Y-121645960D02*
X104926063Y-121369982D01*
X104926063Y-121369982D02*
X104904716Y-121265664D01*
X104904716Y-121265664D02*
X104871045Y-121207343D01*
X104556322Y-122749876D02*
X104704219Y-122197918D01*
X104630270Y-122473897D02*
X103664344Y-122215078D01*
X103664344Y-122215078D02*
X103826983Y-122160059D01*
X103826983Y-122160059D02*
X103943626Y-122092716D01*
X103943626Y-122092716D02*
X104014272Y-122013047D01*
X159416149Y-119116650D02*
X160382075Y-118857831D01*
X160382075Y-118857831D02*
X160320452Y-118627849D01*
X160320452Y-118627849D02*
X160237481Y-118502184D01*
X160237481Y-118502184D02*
X160120839Y-118434841D01*
X160120839Y-118434841D02*
X160016521Y-118413494D01*
X160016521Y-118413494D02*
X159820210Y-118416796D01*
X159820210Y-118416796D02*
X159682221Y-118453770D01*
X159682221Y-118453770D02*
X159510560Y-118549066D01*
X159510560Y-118549066D02*
X159430892Y-118619711D01*
X159430892Y-118619711D02*
X159363548Y-118736354D01*
X159363548Y-118736354D02*
X159354526Y-118886668D01*
X159354526Y-118886668D02*
X159416149Y-119116650D01*
X160147906Y-117983898D02*
X159987684Y-117385944D01*
X159987684Y-117385944D02*
X159705985Y-117806517D01*
X159705985Y-117806517D02*
X159669011Y-117668528D01*
X159669011Y-117668528D02*
X159598365Y-117588860D01*
X159598365Y-117588860D02*
X159540044Y-117555188D01*
X159540044Y-117555188D02*
X159435727Y-117533841D01*
X159435727Y-117533841D02*
X159205744Y-117595464D01*
X159205744Y-117595464D02*
X159126076Y-117666110D01*
X159126076Y-117666110D02*
X159092404Y-117724432D01*
X159092404Y-117724432D02*
X159071057Y-117828749D01*
X159071057Y-117828749D02*
X159145006Y-118104728D01*
X159145006Y-118104728D02*
X159215651Y-118184396D01*
X159215651Y-118184396D02*
X159273973Y-118218068D01*
X159797094Y-117042622D02*
X159830765Y-116984301D01*
X159830765Y-116984301D02*
X159852112Y-116879983D01*
X159852112Y-116879983D02*
X159790489Y-116650001D01*
X159790489Y-116650001D02*
X159719843Y-116570333D01*
X159719843Y-116570333D02*
X159661522Y-116536661D01*
X159661522Y-116536661D02*
X159557204Y-116515314D01*
X159557204Y-116515314D02*
X159465211Y-116539963D01*
X159465211Y-116539963D02*
X159339546Y-116622934D01*
X159339546Y-116622934D02*
X158935485Y-117322788D01*
X158935485Y-117322788D02*
X158775264Y-116724834D01*
X125631990Y-75147645D02*
X125631990Y-75861930D01*
X125631990Y-75861930D02*
X125679609Y-76004787D01*
X125679609Y-76004787D02*
X125774847Y-76100026D01*
X125774847Y-76100026D02*
X125917704Y-76147645D01*
X125917704Y-76147645D02*
X126012942Y-76147645D01*
X124631990Y-76147645D02*
X125203418Y-76147645D01*
X124917704Y-76147645D02*
X124917704Y-75147645D01*
X124917704Y-75147645D02*
X125012942Y-75290502D01*
X125012942Y-75290502D02*
X125108180Y-75385740D01*
X125108180Y-75385740D02*
X125203418Y-75433359D01*
X115863545Y-105612704D02*
X115387354Y-105279371D01*
X115863545Y-105041276D02*
X114863545Y-105041276D01*
X114863545Y-105041276D02*
X114863545Y-105422228D01*
X114863545Y-105422228D02*
X114911164Y-105517466D01*
X114911164Y-105517466D02*
X114958783Y-105565085D01*
X114958783Y-105565085D02*
X115054021Y-105612704D01*
X115054021Y-105612704D02*
X115196878Y-105612704D01*
X115196878Y-105612704D02*
X115292116Y-105565085D01*
X115292116Y-105565085D02*
X115339735Y-105517466D01*
X115339735Y-105517466D02*
X115387354Y-105422228D01*
X115387354Y-105422228D02*
X115387354Y-105041276D01*
X115863545Y-106565085D02*
X115863545Y-105993657D01*
X115863545Y-106279371D02*
X114863545Y-106279371D01*
X114863545Y-106279371D02*
X115006402Y-106184133D01*
X115006402Y-106184133D02*
X115101640Y-106088895D01*
X115101640Y-106088895D02*
X115149259Y-105993657D01*
X121003548Y-70922704D02*
X120527357Y-70589371D01*
X121003548Y-70351276D02*
X120003548Y-70351276D01*
X120003548Y-70351276D02*
X120003548Y-70732228D01*
X120003548Y-70732228D02*
X120051167Y-70827466D01*
X120051167Y-70827466D02*
X120098786Y-70875085D01*
X120098786Y-70875085D02*
X120194024Y-70922704D01*
X120194024Y-70922704D02*
X120336881Y-70922704D01*
X120336881Y-70922704D02*
X120432119Y-70875085D01*
X120432119Y-70875085D02*
X120479738Y-70827466D01*
X120479738Y-70827466D02*
X120527357Y-70732228D01*
X120527357Y-70732228D02*
X120527357Y-70351276D01*
X120336881Y-71779847D02*
X121003548Y-71779847D01*
X119955929Y-71541752D02*
X120670214Y-71303657D01*
X120670214Y-71303657D02*
X120670214Y-71922704D01*
X132803544Y-70922703D02*
X132327353Y-70589370D01*
X132803544Y-70351275D02*
X131803544Y-70351275D01*
X131803544Y-70351275D02*
X131803544Y-70732227D01*
X131803544Y-70732227D02*
X131851163Y-70827465D01*
X131851163Y-70827465D02*
X131898782Y-70875084D01*
X131898782Y-70875084D02*
X131994020Y-70922703D01*
X131994020Y-70922703D02*
X132136877Y-70922703D01*
X132136877Y-70922703D02*
X132232115Y-70875084D01*
X132232115Y-70875084D02*
X132279734Y-70827465D01*
X132279734Y-70827465D02*
X132327353Y-70732227D01*
X132327353Y-70732227D02*
X132327353Y-70351275D01*
X131803544Y-71827465D02*
X131803544Y-71351275D01*
X131803544Y-71351275D02*
X132279734Y-71303656D01*
X132279734Y-71303656D02*
X132232115Y-71351275D01*
X132232115Y-71351275D02*
X132184496Y-71446513D01*
X132184496Y-71446513D02*
X132184496Y-71684608D01*
X132184496Y-71684608D02*
X132232115Y-71779846D01*
X132232115Y-71779846D02*
X132279734Y-71827465D01*
X132279734Y-71827465D02*
X132374972Y-71875084D01*
X132374972Y-71875084D02*
X132613067Y-71875084D01*
X132613067Y-71875084D02*
X132708305Y-71827465D01*
X132708305Y-71827465D02*
X132755925Y-71779846D01*
X132755925Y-71779846D02*
X132803544Y-71684608D01*
X132803544Y-71684608D02*
X132803544Y-71446513D01*
X132803544Y-71446513D02*
X132755925Y-71351275D01*
X132755925Y-71351275D02*
X132708305Y-71303656D01*
X138918724Y-103414514D02*
X138659905Y-102448589D01*
X138783152Y-102908553D02*
X138231195Y-103056450D01*
X138366766Y-103562411D02*
X138107947Y-102596485D01*
X137400841Y-103821230D02*
X137952798Y-103673333D01*
X137676819Y-103747282D02*
X137418000Y-102781356D01*
X137418000Y-102781356D02*
X137546967Y-102894696D01*
X137546967Y-102894696D02*
X137663610Y-102962039D01*
X137663610Y-102962039D02*
X137767928Y-102983386D01*
X136798699Y-103045895D02*
X136740378Y-103012223D01*
X136740378Y-103012223D02*
X136636060Y-102990876D01*
X136636060Y-102990876D02*
X136406078Y-103052500D01*
X136406078Y-103052500D02*
X136326410Y-103123146D01*
X136326410Y-103123146D02*
X136292738Y-103181467D01*
X136292738Y-103181467D02*
X136271391Y-103285784D01*
X136271391Y-103285784D02*
X136296040Y-103377777D01*
X136296040Y-103377777D02*
X136379011Y-103503442D01*
X136379011Y-103503442D02*
X137078865Y-103907503D01*
X137078865Y-103907503D02*
X136480911Y-104067724D01*
X114070206Y-104055397D02*
X114329025Y-103089472D01*
X114205778Y-103549436D02*
X113653821Y-103401540D01*
X113518249Y-103907501D02*
X113777068Y-102941575D01*
X112552323Y-103648682D02*
X113104281Y-103796578D01*
X112828302Y-103722630D02*
X113087121Y-102756704D01*
X113087121Y-102756704D02*
X113142140Y-102919343D01*
X113142140Y-102919343D02*
X113209483Y-103035986D01*
X113209483Y-103035986D02*
X113289151Y-103106631D01*
X111632394Y-103402187D02*
X112184351Y-103550084D01*
X111908372Y-103476136D02*
X112167191Y-102510210D01*
X112167191Y-102510210D02*
X112222210Y-102672849D01*
X112222210Y-102672849D02*
X112289554Y-102789491D01*
X112289554Y-102789491D02*
X112369222Y-102860137D01*
X131154153Y-74436739D02*
X130895334Y-73470814D01*
X131018581Y-73930778D02*
X130466624Y-74078675D01*
X130602195Y-74584636D02*
X130343376Y-73618710D01*
X129636270Y-74843455D02*
X130188227Y-74695558D01*
X129912248Y-74769507D02*
X129653429Y-73803581D01*
X129653429Y-73803581D02*
X129782396Y-73916921D01*
X129782396Y-73916921D02*
X129899039Y-73984264D01*
X129899039Y-73984264D02*
X130003357Y-74005611D01*
X128779496Y-74037751D02*
X128687504Y-74062400D01*
X128687504Y-74062400D02*
X128607835Y-74133046D01*
X128607835Y-74133046D02*
X128574164Y-74191367D01*
X128574164Y-74191367D02*
X128552817Y-74295685D01*
X128552817Y-74295685D02*
X128556119Y-74491995D01*
X128556119Y-74491995D02*
X128617743Y-74721978D01*
X128617743Y-74721978D02*
X128713038Y-74893639D01*
X128713038Y-74893639D02*
X128783684Y-74973307D01*
X128783684Y-74973307D02*
X128842005Y-75006979D01*
X128842005Y-75006979D02*
X128946323Y-75028326D01*
X128946323Y-75028326D02*
X129038316Y-75003676D01*
X129038316Y-75003676D02*
X129117984Y-74933031D01*
X129117984Y-74933031D02*
X129151655Y-74874709D01*
X129151655Y-74874709D02*
X129173003Y-74770392D01*
X129173003Y-74770392D02*
X129169700Y-74574081D01*
X129169700Y-74574081D02*
X129108077Y-74344099D01*
X129108077Y-74344099D02*
X129012781Y-74172438D01*
X129012781Y-74172438D02*
X128942135Y-74092769D01*
X128942135Y-74092769D02*
X128883814Y-74059098D01*
X128883814Y-74059098D02*
X128779496Y-74037751D01*
X121374815Y-74954374D02*
X121633634Y-73988449D01*
X121510387Y-74448413D02*
X120958429Y-74300517D01*
X120822858Y-74806478D02*
X121081677Y-73840552D01*
X120316896Y-74670906D02*
X120132911Y-74621607D01*
X120132911Y-74621607D02*
X120053242Y-74550961D01*
X120053242Y-74550961D02*
X120019571Y-74492640D01*
X120019571Y-74492640D02*
X119964552Y-74330001D01*
X119964552Y-74330001D02*
X119967854Y-74133691D01*
X119967854Y-74133691D02*
X120066452Y-73765719D01*
X120066452Y-73765719D02*
X120137098Y-73686051D01*
X120137098Y-73686051D02*
X120195419Y-73652379D01*
X120195419Y-73652379D02*
X120299737Y-73631032D01*
X120299737Y-73631032D02*
X120483723Y-73680331D01*
X120483723Y-73680331D02*
X120563391Y-73750977D01*
X120563391Y-73750977D02*
X120597063Y-73809298D01*
X120597063Y-73809298D02*
X120618410Y-73913615D01*
X120618410Y-73913615D02*
X120556786Y-74143598D01*
X120556786Y-74143598D02*
X120486140Y-74223266D01*
X120486140Y-74223266D02*
X120427819Y-74256938D01*
X120427819Y-74256938D02*
X120323501Y-74278285D01*
X120323501Y-74278285D02*
X120139515Y-74228986D01*
X120139515Y-74228986D02*
X120059847Y-74158340D01*
X120059847Y-74158340D02*
X120026175Y-74100019D01*
X120026175Y-74100019D02*
X120004828Y-73995701D01*
X171887228Y-100792288D02*
X171628409Y-99826362D01*
X171751656Y-100286326D02*
X171199698Y-100434223D01*
X171335270Y-100940184D02*
X171076451Y-99974258D01*
X170589420Y-100548448D02*
X170669088Y-100477802D01*
X170669088Y-100477802D02*
X170702760Y-100419481D01*
X170702760Y-100419481D02*
X170724107Y-100315163D01*
X170724107Y-100315163D02*
X170711782Y-100269167D01*
X170711782Y-100269167D02*
X170641136Y-100189498D01*
X170641136Y-100189498D02*
X170582815Y-100155827D01*
X170582815Y-100155827D02*
X170478497Y-100134480D01*
X170478497Y-100134480D02*
X170294511Y-100183778D01*
X170294511Y-100183778D02*
X170214843Y-100254424D01*
X170214843Y-100254424D02*
X170181171Y-100312746D01*
X170181171Y-100312746D02*
X170159824Y-100417063D01*
X170159824Y-100417063D02*
X170172149Y-100463060D01*
X170172149Y-100463060D02*
X170242795Y-100542728D01*
X170242795Y-100542728D02*
X170301116Y-100576400D01*
X170301116Y-100576400D02*
X170405434Y-100597747D01*
X170405434Y-100597747D02*
X170589420Y-100548448D01*
X170589420Y-100548448D02*
X170693737Y-100569795D01*
X170693737Y-100569795D02*
X170752058Y-100603467D01*
X170752058Y-100603467D02*
X170822704Y-100683135D01*
X170822704Y-100683135D02*
X170872003Y-100867121D01*
X170872003Y-100867121D02*
X170850656Y-100971438D01*
X170850656Y-100971438D02*
X170816984Y-101029759D01*
X170816984Y-101029759D02*
X170737316Y-101100405D01*
X170737316Y-101100405D02*
X170553330Y-101149704D01*
X170553330Y-101149704D02*
X170449013Y-101128357D01*
X170449013Y-101128357D02*
X170390691Y-101094685D01*
X170390691Y-101094685D02*
X170320046Y-101015017D01*
X170320046Y-101015017D02*
X170270747Y-100831031D01*
X170270747Y-100831031D02*
X170292094Y-100726714D01*
X170292094Y-100726714D02*
X170325765Y-100668393D01*
X170325765Y-100668393D02*
X170405434Y-100597747D01*
X157398339Y-104674573D02*
X157139520Y-103708647D01*
X157262767Y-104168611D02*
X156710809Y-104316508D01*
X156846381Y-104822469D02*
X156587562Y-103856543D01*
X156219590Y-103955141D02*
X155575640Y-104127687D01*
X155575640Y-104127687D02*
X156248427Y-104982690D01*
X193100431Y-64049940D02*
X192841612Y-63084014D01*
X192964859Y-63543978D02*
X192412901Y-63691875D01*
X192548473Y-64197836D02*
X192289654Y-63231910D01*
X191415721Y-63466080D02*
X191599707Y-63416781D01*
X191599707Y-63416781D02*
X191704025Y-63438128D01*
X191704025Y-63438128D02*
X191762346Y-63471800D01*
X191762346Y-63471800D02*
X191891313Y-63585140D01*
X191891313Y-63585140D02*
X191986608Y-63756801D01*
X191986608Y-63756801D02*
X192085206Y-64124773D01*
X192085206Y-64124773D02*
X192063859Y-64229090D01*
X192063859Y-64229090D02*
X192030187Y-64287411D01*
X192030187Y-64287411D02*
X191950519Y-64358057D01*
X191950519Y-64358057D02*
X191766533Y-64407356D01*
X191766533Y-64407356D02*
X191662216Y-64386009D01*
X191662216Y-64386009D02*
X191603894Y-64352337D01*
X191603894Y-64352337D02*
X191533249Y-64272669D01*
X191533249Y-64272669D02*
X191471625Y-64042687D01*
X191471625Y-64042687D02*
X191492972Y-63938369D01*
X191492972Y-63938369D02*
X191526644Y-63880048D01*
X191526644Y-63880048D02*
X191606312Y-63809402D01*
X191606312Y-63809402D02*
X191790298Y-63760103D01*
X191790298Y-63760103D02*
X191894616Y-63781450D01*
X191894616Y-63781450D02*
X191952937Y-63815122D01*
X191952937Y-63815122D02*
X192023583Y-63894790D01*
X149633772Y-75696796D02*
X149374953Y-74730870D01*
X149498200Y-75190834D02*
X148946242Y-75338731D01*
X149081814Y-75844692D02*
X148822995Y-74878766D01*
X147903066Y-75125261D02*
X148363031Y-75002013D01*
X148363031Y-75002013D02*
X148532274Y-75449653D01*
X148532274Y-75449653D02*
X148473953Y-75415982D01*
X148473953Y-75415982D02*
X148369635Y-75394635D01*
X148369635Y-75394635D02*
X148139653Y-75456258D01*
X148139653Y-75456258D02*
X148059985Y-75526904D01*
X148059985Y-75526904D02*
X148026313Y-75585225D01*
X148026313Y-75585225D02*
X148004966Y-75689543D01*
X148004966Y-75689543D02*
X148066590Y-75919525D01*
X148066590Y-75919525D02*
X148137235Y-75999193D01*
X148137235Y-75999193D02*
X148195557Y-76032865D01*
X148195557Y-76032865D02*
X148299874Y-76054212D01*
X148299874Y-76054212D02*
X148529857Y-75992589D01*
X148529857Y-75992589D02*
X148609525Y-75921943D01*
X148609525Y-75921943D02*
X148643197Y-75863622D01*
X94670665Y-105068961D02*
X94929484Y-104103036D01*
X94806237Y-104563000D02*
X94254279Y-104415104D01*
X94118708Y-104921065D02*
X94377527Y-103955139D01*
X93417321Y-104042945D02*
X93244775Y-104686895D01*
X93745901Y-103736597D02*
X93791012Y-104488167D01*
X93791012Y-104488167D02*
X93193058Y-104327946D01*
X80181777Y-101186678D02*
X80440596Y-100220753D01*
X80317349Y-100680717D02*
X79765391Y-100532821D01*
X79629820Y-101038782D02*
X79888639Y-100072856D01*
X79520667Y-99974258D02*
X78922713Y-99814037D01*
X78922713Y-99814037D02*
X79146090Y-100268282D01*
X79146090Y-100268282D02*
X79008101Y-100231308D01*
X79008101Y-100231308D02*
X78903783Y-100252655D01*
X78903783Y-100252655D02*
X78845462Y-100286326D01*
X78845462Y-100286326D02*
X78774816Y-100365995D01*
X78774816Y-100365995D02*
X78713193Y-100595977D01*
X78713193Y-100595977D02*
X78734540Y-100700295D01*
X78734540Y-100700295D02*
X78768211Y-100758616D01*
X78768211Y-100758616D02*
X78847880Y-100829262D01*
X78847880Y-100829262D02*
X79123858Y-100903210D01*
X79123858Y-100903210D02*
X79228176Y-100881863D01*
X79228176Y-100881863D02*
X79286497Y-100848191D01*
X102435238Y-76091186D02*
X102694057Y-75125261D01*
X102570810Y-75585225D02*
X102018852Y-75437329D01*
X101883281Y-75943290D02*
X102142100Y-74977364D01*
X101703482Y-74958435D02*
X101669810Y-74900113D01*
X101669810Y-74900113D02*
X101590142Y-74829467D01*
X101590142Y-74829467D02*
X101360160Y-74767844D01*
X101360160Y-74767844D02*
X101255842Y-74789191D01*
X101255842Y-74789191D02*
X101197521Y-74822863D01*
X101197521Y-74822863D02*
X101126875Y-74902531D01*
X101126875Y-74902531D02*
X101102226Y-74994524D01*
X101102226Y-74994524D02*
X101111248Y-75144838D01*
X101111248Y-75144838D02*
X101515309Y-75844692D01*
X101515309Y-75844692D02*
X100917355Y-75684471D01*
X58968574Y-64444331D02*
X59227393Y-63478406D01*
X59104146Y-63938370D02*
X58552188Y-63790474D01*
X58416617Y-64296435D02*
X58675436Y-63330509D01*
X57450691Y-64037616D02*
X58002648Y-64185512D01*
X57726670Y-64111564D02*
X57985489Y-63145638D01*
X57985489Y-63145638D02*
X58040507Y-63308277D01*
X58040507Y-63308277D02*
X58107851Y-63424919D01*
X58107851Y-63424919D02*
X58187519Y-63495565D01*
D14*
%TO.C,D1*%
X56752286Y-63713772D02*
X55110212Y-63273779D01*
X55110212Y-63273779D02*
X55798671Y-60704417D01*
X56752286Y-63713772D02*
X57440745Y-61144409D01*
%TO.C,C2*%
X121886561Y-83929371D02*
X121670889Y-83929371D01*
X121886561Y-84649371D02*
X121670889Y-84649371D01*
%TO.C,D6*%
X176322880Y-68408751D02*
X174680806Y-68848744D01*
X174680806Y-68848744D02*
X173992347Y-66279381D01*
X176322880Y-68408751D02*
X175634421Y-65839389D01*
%TO.C,D3*%
X71241177Y-67596060D02*
X69599103Y-67156067D01*
X69599103Y-67156067D02*
X70287562Y-64586705D01*
X71241177Y-67596060D02*
X71929636Y-65026697D01*
%TO.C,D5*%
X85730064Y-71478344D02*
X84087990Y-71038351D01*
X84087990Y-71038351D02*
X84776449Y-68468989D01*
X85730064Y-71478344D02*
X86418523Y-68908981D01*
%TO.C,D2*%
X205300656Y-60644178D02*
X204612197Y-58074816D01*
X203658582Y-61084171D02*
X202970123Y-58514808D01*
X205300656Y-60644178D02*
X203658582Y-61084171D01*
%TO.C,D14*%
X194694057Y-79015350D02*
X194005598Y-76445988D01*
X193051983Y-79455343D02*
X192363524Y-76885980D01*
X194694057Y-79015350D02*
X193051983Y-79455343D01*
%TO.C,D15*%
X81847779Y-85967231D02*
X80205705Y-85527238D01*
X80205705Y-85527238D02*
X80894164Y-82957876D01*
X81847779Y-85967231D02*
X82536238Y-83397868D01*
%TO.C,D4*%
X190811767Y-64526463D02*
X190123308Y-61957101D01*
X189169693Y-64966456D02*
X188481234Y-62397093D01*
X190811767Y-64526463D02*
X189169693Y-64966456D01*
%TO.C,D9*%
X52870001Y-78202659D02*
X51227927Y-77762666D01*
X51227927Y-77762666D02*
X51916386Y-75193304D01*
X52870001Y-78202659D02*
X53558460Y-75633296D01*
%TO.C,D10*%
X209182945Y-75133064D02*
X208494486Y-72563702D01*
X207540871Y-75573057D02*
X206852412Y-73003694D01*
X209182945Y-75133064D02*
X207540871Y-75573057D01*
%TO.C,C1*%
X119818726Y-86234515D02*
X119818726Y-86450187D01*
X120538726Y-86234515D02*
X120538726Y-86450187D01*
%TO.C,D20*%
X151227393Y-90662208D02*
X149585319Y-91102201D01*
X149585319Y-91102201D02*
X148896860Y-88532838D01*
X151227393Y-90662208D02*
X150538934Y-88092846D01*
%TO.C,D21*%
X77965491Y-100456118D02*
X76323417Y-100016125D01*
X76323417Y-100016125D02*
X77011876Y-97446763D01*
X77965491Y-100456118D02*
X78653950Y-97886755D01*
%TO.C,D22*%
X184087454Y-97386524D02*
X182445380Y-97826517D01*
X182445380Y-97826517D02*
X181756921Y-95257154D01*
X184087454Y-97386524D02*
X183398995Y-94817162D01*
%TO.C,D23*%
X92454377Y-104338405D02*
X90812303Y-103898412D01*
X90812303Y-103898412D02*
X91500762Y-101329050D01*
X92454377Y-104338405D02*
X93142836Y-101769042D01*
%TO.C,D24*%
X169598565Y-101268811D02*
X167956491Y-101708804D01*
X167956491Y-101708804D02*
X167268032Y-99139441D01*
X169598565Y-101268811D02*
X168910106Y-98699449D01*
%TO.C,D25*%
X106943267Y-108220690D02*
X105301193Y-107780697D01*
X105301193Y-107780697D02*
X105989652Y-105211335D01*
X106943267Y-108220690D02*
X107631726Y-105651327D01*
%TO.C,D26*%
X155109679Y-105151096D02*
X153467605Y-105591089D01*
X153467605Y-105591089D02*
X152779146Y-103021726D01*
X155109679Y-105151096D02*
X154421220Y-102581734D01*
%TO.C,D27*%
X74083204Y-114945007D02*
X72441130Y-114505014D01*
X72441130Y-114505014D02*
X73129589Y-111935652D01*
X74083204Y-114945007D02*
X74771663Y-112375644D01*
%TO.C,D28*%
X187969739Y-111875411D02*
X186327665Y-112315404D01*
X186327665Y-112315404D02*
X185639206Y-109746041D01*
X187969739Y-111875411D02*
X187281280Y-109306049D01*
%TO.C,D12*%
X147345106Y-76173321D02*
X145703032Y-76613314D01*
X145703032Y-76613314D02*
X145014573Y-74043951D01*
X147345106Y-76173321D02*
X146656647Y-73603959D01*
%TO.C,SW33*%
X121338656Y-103369371D02*
X119258656Y-103369371D01*
X123018656Y-104639371D02*
X123018656Y-107539371D01*
X117578656Y-104639371D02*
X117578656Y-107539371D01*
X121338656Y-108809371D02*
X119258656Y-108809371D01*
X117578656Y-104639371D02*
X118068656Y-104149371D01*
X123018656Y-107539371D02*
X122528656Y-108029371D01*
X123018656Y-104639371D02*
X122528656Y-104149371D01*
X117578656Y-107539371D02*
X118068656Y-108029371D01*
%TO.C,SW34*%
X131338658Y-103369371D02*
X129258658Y-103369371D01*
X133018658Y-104639371D02*
X133018658Y-107539371D01*
X127578658Y-104639371D02*
X127578658Y-107539371D01*
X131338658Y-108809371D02*
X129258658Y-108809371D01*
X127578658Y-104639371D02*
X128068658Y-104149371D01*
X133018658Y-107539371D02*
X132528658Y-108029371D01*
X133018658Y-104639371D02*
X132528658Y-104149371D01*
X127578658Y-107539371D02*
X128068658Y-108029371D01*
%TO.C,U1*%
X125298658Y-92474370D02*
X127498658Y-92474370D01*
X125298658Y-92474370D02*
X123098658Y-92474370D01*
X125298658Y-85704370D02*
X128898658Y-85704370D01*
X125298658Y-85704370D02*
X123098658Y-85704370D01*
%TO.C,D16*%
X180205170Y-82897635D02*
X178563096Y-83337628D01*
X178563096Y-83337628D02*
X177874637Y-80768265D01*
X180205170Y-82897635D02*
X179516711Y-80328273D01*
%TO.C,D17*%
X96336665Y-89849518D02*
X94694591Y-89409525D01*
X94694591Y-89409525D02*
X95383050Y-86840163D01*
X96336665Y-89849518D02*
X97025124Y-87280155D01*
%TO.C,D11*%
X114707838Y-79242916D02*
X113065764Y-78802923D01*
X113065764Y-78802923D02*
X113754223Y-76233561D01*
X114707838Y-79242916D02*
X115396297Y-76673553D01*
%TO.C,D13*%
X67358890Y-82084945D02*
X65716816Y-81644952D01*
X65716816Y-81644952D02*
X66405275Y-79075590D01*
X67358890Y-82084945D02*
X68047349Y-79515582D01*
%TO.C,D7*%
X100218952Y-75360629D02*
X98576878Y-74920636D01*
X98576878Y-74920636D02*
X99265337Y-72351274D01*
X100218952Y-75360629D02*
X100907411Y-72791266D01*
%TO.C,D8*%
X161833993Y-72291034D02*
X160191919Y-72731027D01*
X160191919Y-72731027D02*
X159503460Y-70161664D01*
X161833993Y-72291034D02*
X161145534Y-69721672D01*
%TO.C,D29*%
X88572091Y-118827292D02*
X86930017Y-118387299D01*
X86930017Y-118387299D02*
X87618476Y-115817937D01*
X88572091Y-118827292D02*
X89260550Y-116257929D01*
%TO.C,D18*%
X165716279Y-86779921D02*
X164074205Y-87219914D01*
X164074205Y-87219914D02*
X163385746Y-84650551D01*
X165716279Y-86779921D02*
X165027820Y-84210559D01*
%TO.C,D19*%
X110825554Y-93731801D02*
X109183480Y-93291808D01*
X109183480Y-93291808D02*
X109871939Y-90722446D01*
X110825554Y-93731801D02*
X111514013Y-91162438D01*
%TO.C,D30*%
X173480849Y-115757695D02*
X171838775Y-116197688D01*
X171838775Y-116197688D02*
X171150316Y-113628325D01*
X173480849Y-115757695D02*
X172792390Y-113188333D01*
%TO.C,D31*%
X103060981Y-122709576D02*
X101418907Y-122269583D01*
X101418907Y-122269583D02*
X102107366Y-119700221D01*
X103060981Y-122709576D02*
X103749440Y-120140213D01*
%TO.C,D32*%
X158991964Y-119639984D02*
X157349890Y-120079977D01*
X157349890Y-120079977D02*
X156661431Y-117510614D01*
X158991964Y-119639984D02*
X158303505Y-117070622D01*
%TO.C,J1*%
X120598657Y-66147826D02*
X129998657Y-66147826D01*
X129998657Y-68047826D02*
X129998657Y-66147826D01*
X120598657Y-71947826D02*
X120598657Y-69947826D01*
X120598657Y-68047826D02*
X120598657Y-66147826D01*
X129998657Y-71947826D02*
X129998657Y-69947826D01*
%TO.C,R1*%
X116958726Y-105625730D02*
X116958726Y-105933012D01*
X116198726Y-105625730D02*
X116198726Y-105933012D01*
%TO.C,R4*%
X119758729Y-71243012D02*
X119758729Y-70935730D01*
X118998729Y-71243012D02*
X118998729Y-70935730D01*
%TO.C,R5*%
X131558725Y-71243011D02*
X131558725Y-70935729D01*
X130798725Y-71243011D02*
X130798725Y-70935729D01*
%TD*%
M02*
