<?xml version="1.0" standalone="no"?>
 <!DOCTYPE svg PUBLIC "-//W3C//DTD SVG 1.1//EN" 
 "http://www.w3.org/Graphics/SVG/1.1/DTD/svg11.dtd"> 
<svg
  xmlns:svg="http://www.w3.org/2000/svg"
  xmlns="http://www.w3.org/2000/svg"
  xmlns:xlink="http://www.w3.org/1999/xlink"
  version="1.1"
  width="297.0022mm" height="210.0072mm" viewBox="0.0000 0.0000 297.0022 210.0072">
<title>SVG Image created as rattlemebones32-NPTH-drl-drl_map.svg date 2024/02/21 20:33:03 </title>
  <desc>Image generated by PCBNEW </desc>
<g style="fill:#000000; fill-opacity:1.0000;stroke:#000000; stroke-opacity:1.0000;
stroke-linecap:round; stroke-linejoin:round;"
 transform="translate(0 0) scale(1 1)">
</g>
<g style="fill:#000000; fill-opacity:0.0; 
stroke:#000000; stroke-width:0.0000; stroke-opacity:1; 
stroke-linecap:round; stroke-linejoin:round;">
</g>
<g style="fill:#000000; fill-opacity:0.0; 
stroke:#000000; stroke-width:0.0758; stroke-opacity:1; 
stroke-linecap:round; stroke-linejoin:round;">
<path d="M18.6925 45.3592 A3.0321 3.0321 0.0 0 0 20.8365 49.0727" />
<path d="M61.0544 62.9881 A3.0320 3.0320 0.0 0 0 58.9104 59.2746" />
<path d="M50.8525 101.0620 A3.0321 3.0321 0.0 0 0 52.9965 104.7755" />
<path d="M113.0362 120.8631 A3.0321 3.0321 0.0 0 0 116.7497 118.7191" />
<path d="M124.1773 99.6821 A3.0320 3.0320 0.0 0 0 121.2485 101.9295" />
<path d="M175.7537 101.9295 A3.0320 3.0320 0.0 0 0 172.8249 99.6821" />
<path d="M180.2525 118.7191 A3.0321 3.0321 0.0 0 0 183.9660 120.8631" />
<path d="M244.0057 104.7755 A3.0320 3.0320 0.0 0 0 246.1497 101.0620" />
<path d="M238.0918 59.2746 A3.0321 3.0321 0.0 0 0 235.9478 62.9881" />
<path d="M276.1657 49.0727 A3.0321 3.0321 0.0 0 0 278.3097 45.3592" />
<path d="M268.1078 7.2852 A3.0320 3.0320 0.0 0 0 264.3943 5.1412" />
<path d="M157.0953 33.7850 A3.0322 3.0322 0.0 0 0 157.8800 33.6816" />
<path d="M139.1222 33.6816 A3.0322 3.0322 0.0 0 0 139.9069 33.7850" />
<path d="M32.6079 5.1412 A3.0321 3.0321 0.0 0 0 28.8944 7.2852" />
<path d="M58.9104 59.2746
L20.8365 49.0727
" />
<path d="M50.8525 101.0620
L61.0544 62.9881
" />
<path d="M113.0362 120.8631
L52.9965 104.7755
" />
<path d="M121.2485 101.9295
L116.7497 118.7191
" />
<path d="M172.8249 99.6821
L124.1773 99.6821
" />
<path d="M180.2525 118.7191
L175.7537 101.9295
" />
<path d="M244.0057 104.7755
L183.9660 120.8631
" />
<path d="M235.9478 62.9881
L246.1497 101.0620
" />
<path d="M276.1657 49.0727
L238.0918 59.2746
" />
<path d="M268.1078 7.2852
L278.3097 45.3592
" />
<path d="M157.8800 33.6816
L264.3943 5.1412
" />
<path d="M139.9069 33.7850
L157.0953 33.7850
" />
<path d="M32.6079 5.1412
L139.1222 33.6816
" />
<path d="M18.6925 45.3592
L28.8944 7.2852
" />
</g>
<g style="fill:#000000; fill-opacity:0.0; 
stroke:#000000; stroke-width:0.3032; stroke-opacity:1; 
stroke-linecap:round; stroke-linejoin:round;">
</g>
<g style="fill:#000000; fill-opacity:0.0; 
stroke:#000000; stroke-width:0.0985; stroke-opacity:1; 
stroke-linecap:round; stroke-linejoin:round;">
<path d="M143.6272 40.4676
L144.6126 41.4530
" />
<path d="M144.6126 40.4676
L143.6272 41.4530
" />
<path d="M152.3899 40.4676
L153.3753 41.4530
" />
<path d="M153.3753 40.4676
L152.3899 41.4530
" />
</g>
<g style="fill:#000000; fill-opacity:0.0; 
stroke:#000000; stroke-width:0.7959; stroke-opacity:1; 
stroke-linecap:round; stroke-linejoin:round;">
<circle cx="31.8334" cy="40.2601" r="3.9796" /> 
<circle cx="37.7191" cy="18.2944" r="3.9796" /> 
<circle cx="53.7991" cy="46.1458" r="3.9796" /> 
<circle cx="59.6848" cy="24.1801" r="3.9796" /> 
<circle cx="63.9935" cy="95.9629" r="3.9796" /> 
<circle cx="69.8791" cy="73.9972" r="3.9796" /> 
<circle cx="75.7649" cy="52.0315" r="3.9796" /> 
<circle cx="81.6506" cy="30.0658" r="3.9796" /> 
<circle cx="85.9592" cy="101.8486" r="3.9796" /> 
<circle cx="91.8449" cy="79.8829" r="3.9796" /> 
<circle cx="97.7306" cy="57.9172" r="3.9796" /> 
<circle cx="103.6163" cy="35.9515" r="3.9796" /> 
<circle cx="107.9249" cy="107.7343" r="3.9796" /> 
<circle cx="113.8106" cy="85.7686" r="3.9796" /> 
<circle cx="119.6963" cy="63.8029" r="3.9796" /> 
<circle cx="125.5820" cy="41.8372" r="3.9796" /> 
<circle cx="171.4201" cy="41.8372" r="3.9796" /> 
<circle cx="177.3058" cy="63.8029" r="3.9796" /> 
<circle cx="183.1915" cy="85.7686" r="3.9796" /> 
<circle cx="189.0772" cy="107.7343" r="3.9796" /> 
<circle cx="193.3858" cy="35.9515" r="3.9796" /> 
<circle cx="199.2715" cy="57.9172" r="3.9796" /> 
<circle cx="205.1572" cy="79.8829" r="3.9796" /> 
<circle cx="211.0429" cy="101.8486" r="3.9796" /> 
<circle cx="215.3516" cy="30.0658" r="3.9796" /> 
<circle cx="221.2373" cy="52.0315" r="3.9796" /> 
<circle cx="227.1230" cy="73.9972" r="3.9796" /> 
<circle cx="233.0087" cy="95.9629" r="3.9796" /> 
<circle cx="237.3173" cy="24.1801" r="3.9796" /> 
<circle cx="243.2030" cy="46.1458" r="3.9796" /> 
<circle cx="259.2830" cy="18.2944" r="3.9796" /> 
<circle cx="265.1687" cy="40.2601" r="3.9796" /> 
</g>
<g style="fill:#000000; fill-opacity:0.0; 
stroke:#000000; stroke-width:0.3032; stroke-opacity:1; 
stroke-linecap:round; stroke-linejoin:round;">
</g>
<g style="fill:#000000; fill-opacity:0.0; 
stroke:#000000; stroke-width:0.2000; stroke-opacity:1; 
stroke-linecap:round; stroke-linejoin:round;">
<text x="20.5513" y="124.2043"
textLength="14.8667" font-size="2.6667" lengthAdjust="spacingAndGlyphs"
text-anchor="start" opacity="0">Drill Map:</text>
<g class="stroked-text"><desc>Drill Map:</desc>
<path d="M21.1590 124.1192
L21.1590 122.1192
" />
<path d="M21.1590 122.1192
L21.6352 122.1192
" />
<path d="M21.6352 122.1192
L21.9209 122.2144
" />
<path d="M21.9209 122.2144
L22.1114 122.4049
" />
<path d="M22.1114 122.4049
L22.2067 122.5954
" />
<path d="M22.2067 122.5954
L22.3019 122.9763
" />
<path d="M22.3019 122.9763
L22.3019 123.2620
" />
<path d="M22.3019 123.2620
L22.2067 123.6430
" />
<path d="M22.2067 123.6430
L22.1114 123.8334
" />
<path d="M22.1114 123.8334
L21.9209 124.0239
" />
<path d="M21.9209 124.0239
L21.6352 124.1192
" />
<path d="M21.6352 124.1192
L21.1590 124.1192
" />
<path d="M23.1590 124.1192
L23.1590 122.7858
" />
<path d="M23.1590 123.1668
L23.2543 122.9763
" />
<path d="M23.2543 122.9763
L23.3495 122.8811
" />
<path d="M23.3495 122.8811
L23.5400 122.7858
" />
<path d="M23.5400 122.7858
L23.7305 122.7858
" />
<path d="M24.3971 124.1192
L24.3971 122.7858
" />
<path d="M24.3971 122.1192
L24.3019 122.2144
" />
<path d="M24.3019 122.2144
L24.3971 122.3096
" />
<path d="M24.3971 122.3096
L24.4924 122.2144
" />
<path d="M24.4924 122.2144
L24.3971 122.1192
" />
<path d="M24.3971 122.1192
L24.3971 122.3096
" />
<path d="M25.6352 124.1192
L25.4448 124.0239
" />
<path d="M25.4448 124.0239
L25.3495 123.8334
" />
<path d="M25.3495 123.8334
L25.3495 122.1192
" />
<path d="M26.6828 124.1192
L26.4924 124.0239
" />
<path d="M26.4924 124.0239
L26.3971 123.8334
" />
<path d="M26.3971 123.8334
L26.3971 122.1192
" />
<path d="M28.9686 124.1192
L28.9686 122.1192
" />
<path d="M28.9686 122.1192
L29.6352 123.5477
" />
<path d="M29.6352 123.5477
L30.3019 122.1192
" />
<path d="M30.3019 122.1192
L30.3019 124.1192
" />
<path d="M32.1114 124.1192
L32.1114 123.0715
" />
<path d="M32.1114 123.0715
L32.0162 122.8811
" />
<path d="M32.0162 122.8811
L31.8257 122.7858
" />
<path d="M31.8257 122.7858
L31.4448 122.7858
" />
<path d="M31.4448 122.7858
L31.2543 122.8811
" />
<path d="M32.1114 124.0239
L31.9209 124.1192
" />
<path d="M31.9209 124.1192
L31.4448 124.1192
" />
<path d="M31.4448 124.1192
L31.2543 124.0239
" />
<path d="M31.2543 124.0239
L31.1590 123.8334
" />
<path d="M31.1590 123.8334
L31.1590 123.6430
" />
<path d="M31.1590 123.6430
L31.2543 123.4525
" />
<path d="M31.2543 123.4525
L31.4448 123.3573
" />
<path d="M31.4448 123.3573
L31.9209 123.3573
" />
<path d="M31.9209 123.3573
L32.1114 123.2620
" />
<path d="M33.0638 122.7858
L33.0638 124.7858
" />
<path d="M33.0638 122.8811
L33.2543 122.7858
" />
<path d="M33.2543 122.7858
L33.6352 122.7858
" />
<path d="M33.6352 122.7858
L33.8257 122.8811
" />
<path d="M33.8257 122.8811
L33.9209 122.9763
" />
<path d="M33.9209 122.9763
L34.0162 123.1668
" />
<path d="M34.0162 123.1668
L34.0162 123.7382
" />
<path d="M34.0162 123.7382
L33.9209 123.9287
" />
<path d="M33.9209 123.9287
L33.8257 124.0239
" />
<path d="M33.8257 124.0239
L33.6352 124.1192
" />
<path d="M33.6352 124.1192
L33.2543 124.1192
" />
<path d="M33.2543 124.1192
L33.0638 124.0239
" />
<path d="M34.8733 123.9287
L34.9686 124.0239
" />
<path d="M34.9686 124.0239
L34.8733 124.1192
" />
<path d="M34.8733 124.1192
L34.7781 124.0239
" />
<path d="M34.7781 124.0239
L34.8733 123.9287
" />
<path d="M34.8733 123.9287
L34.8733 124.1192
" />
<path d="M34.8733 122.8811
L34.9686 122.9763
" />
<path d="M34.9686 122.9763
L34.8733 123.0715
" />
<path d="M34.8733 123.0715
L34.7781 122.9763
" />
<path d="M34.7781 122.9763
L34.8733 122.8811
" />
<path d="M34.8733 122.8811
L34.8733 123.0715
" />
</g></g>
<g style="fill:#000000; fill-opacity:0.0; 
stroke:#000000; stroke-width:0.0985; stroke-opacity:1; 
stroke-linecap:round; stroke-linejoin:round;">
<path d="M17.5658 126.9116
L18.5513 127.8970
" />
<path d="M18.5513 126.9116
L17.5658 127.8970
" />
</g>
<g style="fill:#000000; fill-opacity:0.0; 
stroke:#000000; stroke-width:0.3032; stroke-opacity:1; 
stroke-linecap:round; stroke-linejoin:round;">
</g>
<g style="fill:#000000; fill-opacity:0.0; 
stroke:#000000; stroke-width:0.2000; stroke-opacity:1; 
stroke-linecap:round; stroke-linejoin:round;">
<text x="20.5513" y="128.4043"
textLength="66.6762" font-size="2.6667" lengthAdjust="spacingAndGlyphs"
text-anchor="start" opacity="0">0.650mm / 0.0256" (2 holes) (not plated)</text>
<g class="stroked-text"><desc>0.650mm / 0.0256" (2 holes) (not plated)</desc>
<path d="M21.5400 126.3192
L21.7305 126.3192
" />
<path d="M21.7305 126.3192
L21.9209 126.4144
" />
<path d="M21.9209 126.4144
L22.0162 126.5096
" />
<path d="M22.0162 126.5096
L22.1114 126.7001
" />
<path d="M22.1114 126.7001
L22.2067 127.0811
" />
<path d="M22.2067 127.0811
L22.2067 127.5573
" />
<path d="M22.2067 127.5573
L22.1114 127.9382
" />
<path d="M22.1114 127.9382
L22.0162 128.1287
" />
<path d="M22.0162 128.1287
L21.9209 128.2239
" />
<path d="M21.9209 128.2239
L21.7305 128.3192
" />
<path d="M21.7305 128.3192
L21.5400 128.3192
" />
<path d="M21.5400 128.3192
L21.3495 128.2239
" />
<path d="M21.3495 128.2239
L21.2543 128.1287
" />
<path d="M21.2543 128.1287
L21.1590 127.9382
" />
<path d="M21.1590 127.9382
L21.0638 127.5573
" />
<path d="M21.0638 127.5573
L21.0638 127.0811
" />
<path d="M21.0638 127.0811
L21.1590 126.7001
" />
<path d="M21.1590 126.7001
L21.2543 126.5096
" />
<path d="M21.2543 126.5096
L21.3495 126.4144
" />
<path d="M21.3495 126.4144
L21.5400 126.3192
" />
<path d="M23.0638 128.1287
L23.1590 128.2239
" />
<path d="M23.1590 128.2239
L23.0638 128.3192
" />
<path d="M23.0638 128.3192
L22.9686 128.2239
" />
<path d="M22.9686 128.2239
L23.0638 128.1287
" />
<path d="M23.0638 128.1287
L23.0638 128.3192
" />
<path d="M24.8733 126.3192
L24.4924 126.3192
" />
<path d="M24.4924 126.3192
L24.3019 126.4144
" />
<path d="M24.3019 126.4144
L24.2067 126.5096
" />
<path d="M24.2067 126.5096
L24.0162 126.7954
" />
<path d="M24.0162 126.7954
L23.9209 127.1763
" />
<path d="M23.9209 127.1763
L23.9209 127.9382
" />
<path d="M23.9209 127.9382
L24.0162 128.1287
" />
<path d="M24.0162 128.1287
L24.1114 128.2239
" />
<path d="M24.1114 128.2239
L24.3019 128.3192
" />
<path d="M24.3019 128.3192
L24.6828 128.3192
" />
<path d="M24.6828 128.3192
L24.8733 128.2239
" />
<path d="M24.8733 128.2239
L24.9686 128.1287
" />
<path d="M24.9686 128.1287
L25.0638 127.9382
" />
<path d="M25.0638 127.9382
L25.0638 127.4620
" />
<path d="M25.0638 127.4620
L24.9686 127.2715
" />
<path d="M24.9686 127.2715
L24.8733 127.1763
" />
<path d="M24.8733 127.1763
L24.6828 127.0811
" />
<path d="M24.6828 127.0811
L24.3019 127.0811
" />
<path d="M24.3019 127.0811
L24.1114 127.1763
" />
<path d="M24.1114 127.1763
L24.0162 127.2715
" />
<path d="M24.0162 127.2715
L23.9209 127.4620
" />
<path d="M26.8733 126.3192
L25.9209 126.3192
" />
<path d="M25.9209 126.3192
L25.8257 127.2715
" />
<path d="M25.8257 127.2715
L25.9209 127.1763
" />
<path d="M25.9209 127.1763
L26.1114 127.0811
" />
<path d="M26.1114 127.0811
L26.5876 127.0811
" />
<path d="M26.5876 127.0811
L26.7781 127.1763
" />
<path d="M26.7781 127.1763
L26.8733 127.2715
" />
<path d="M26.8733 127.2715
L26.9686 127.4620
" />
<path d="M26.9686 127.4620
L26.9686 127.9382
" />
<path d="M26.9686 127.9382
L26.8733 128.1287
" />
<path d="M26.8733 128.1287
L26.7781 128.2239
" />
<path d="M26.7781 128.2239
L26.5876 128.3192
" />
<path d="M26.5876 128.3192
L26.1114 128.3192
" />
<path d="M26.1114 128.3192
L25.9209 128.2239
" />
<path d="M25.9209 128.2239
L25.8257 128.1287
" />
<path d="M28.2067 126.3192
L28.3971 126.3192
" />
<path d="M28.3971 126.3192
L28.5876 126.4144
" />
<path d="M28.5876 126.4144
L28.6828 126.5096
" />
<path d="M28.6828 126.5096
L28.7781 126.7001
" />
<path d="M28.7781 126.7001
L28.8733 127.0811
" />
<path d="M28.8733 127.0811
L28.8733 127.5573
" />
<path d="M28.8733 127.5573
L28.7781 127.9382
" />
<path d="M28.7781 127.9382
L28.6828 128.1287
" />
<path d="M28.6828 128.1287
L28.5876 128.2239
" />
<path d="M28.5876 128.2239
L28.3971 128.3192
" />
<path d="M28.3971 128.3192
L28.2067 128.3192
" />
<path d="M28.2067 128.3192
L28.0162 128.2239
" />
<path d="M28.0162 128.2239
L27.9209 128.1287
" />
<path d="M27.9209 128.1287
L27.8257 127.9382
" />
<path d="M27.8257 127.9382
L27.7305 127.5573
" />
<path d="M27.7305 127.5573
L27.7305 127.0811
" />
<path d="M27.7305 127.0811
L27.8257 126.7001
" />
<path d="M27.8257 126.7001
L27.9209 126.5096
" />
<path d="M27.9209 126.5096
L28.0162 126.4144
" />
<path d="M28.0162 126.4144
L28.2067 126.3192
" />
<path d="M29.7305 128.3192
L29.7305 126.9858
" />
<path d="M29.7305 127.1763
L29.8257 127.0811
" />
<path d="M29.8257 127.0811
L30.0162 126.9858
" />
<path d="M30.0162 126.9858
L30.3019 126.9858
" />
<path d="M30.3019 126.9858
L30.4924 127.0811
" />
<path d="M30.4924 127.0811
L30.5876 127.2715
" />
<path d="M30.5876 127.2715
L30.5876 128.3192
" />
<path d="M30.5876 127.2715
L30.6829 127.0811
" />
<path d="M30.6829 127.0811
L30.8733 126.9858
" />
<path d="M30.8733 126.9858
L31.1590 126.9858
" />
<path d="M31.1590 126.9858
L31.3495 127.0811
" />
<path d="M31.3495 127.0811
L31.4448 127.2715
" />
<path d="M31.4448 127.2715
L31.4448 128.3192
" />
<path d="M32.3971 128.3192
L32.3971 126.9858
" />
<path d="M32.3971 127.1763
L32.4924 127.0811
" />
<path d="M32.4924 127.0811
L32.6828 126.9858
" />
<path d="M32.6828 126.9858
L32.9686 126.9858
" />
<path d="M32.9686 126.9858
L33.1590 127.0811
" />
<path d="M33.1590 127.0811
L33.2543 127.2715
" />
<path d="M33.2543 127.2715
L33.2543 128.3192
" />
<path d="M33.2543 127.2715
L33.3495 127.0811
" />
<path d="M33.3495 127.0811
L33.5400 126.9858
" />
<path d="M33.5400 126.9858
L33.8257 126.9858
" />
<path d="M33.8257 126.9858
L34.0162 127.0811
" />
<path d="M34.0162 127.0811
L34.1114 127.2715
" />
<path d="M34.1114 127.2715
L34.1114 128.3192
" />
<path d="M38.0162 126.2239
L36.3019 128.7954
" />
<path d="M40.5876 126.3192
L40.7781 126.3192
" />
<path d="M40.7781 126.3192
L40.9686 126.4144
" />
<path d="M40.9686 126.4144
L41.0638 126.5096
" />
<path d="M41.0638 126.5096
L41.1590 126.7001
" />
<path d="M41.1590 126.7001
L41.2543 127.0811
" />
<path d="M41.2543 127.0811
L41.2543 127.5573
" />
<path d="M41.2543 127.5573
L41.1590 127.9382
" />
<path d="M41.1590 127.9382
L41.0638 128.1287
" />
<path d="M41.0638 128.1287
L40.9686 128.2239
" />
<path d="M40.9686 128.2239
L40.7781 128.3192
" />
<path d="M40.7781 128.3192
L40.5876 128.3192
" />
<path d="M40.5876 128.3192
L40.3971 128.2239
" />
<path d="M40.3971 128.2239
L40.3019 128.1287
" />
<path d="M40.3019 128.1287
L40.2067 127.9382
" />
<path d="M40.2067 127.9382
L40.1114 127.5573
" />
<path d="M40.1114 127.5573
L40.1114 127.0811
" />
<path d="M40.1114 127.0811
L40.2067 126.7001
" />
<path d="M40.2067 126.7001
L40.3019 126.5096
" />
<path d="M40.3019 126.5096
L40.3971 126.4144
" />
<path d="M40.3971 126.4144
L40.5876 126.3192
" />
<path d="M42.1114 128.1287
L42.2067 128.2239
" />
<path d="M42.2067 128.2239
L42.1114 128.3192
" />
<path d="M42.1114 128.3192
L42.0162 128.2239
" />
<path d="M42.0162 128.2239
L42.1114 128.1287
" />
<path d="M42.1114 128.1287
L42.1114 128.3192
" />
<path d="M43.4448 126.3192
L43.6352 126.3192
" />
<path d="M43.6352 126.3192
L43.8257 126.4144
" />
<path d="M43.8257 126.4144
L43.9209 126.5096
" />
<path d="M43.9209 126.5096
L44.0162 126.7001
" />
<path d="M44.0162 126.7001
L44.1114 127.0811
" />
<path d="M44.1114 127.0811
L44.1114 127.5573
" />
<path d="M44.1114 127.5573
L44.0162 127.9382
" />
<path d="M44.0162 127.9382
L43.9209 128.1287
" />
<path d="M43.9209 128.1287
L43.8257 128.2239
" />
<path d="M43.8257 128.2239
L43.6352 128.3192
" />
<path d="M43.6352 128.3192
L43.4448 128.3192
" />
<path d="M43.4448 128.3192
L43.2543 128.2239
" />
<path d="M43.2543 128.2239
L43.1590 128.1287
" />
<path d="M43.1590 128.1287
L43.0638 127.9382
" />
<path d="M43.0638 127.9382
L42.9686 127.5573
" />
<path d="M42.9686 127.5573
L42.9686 127.0811
" />
<path d="M42.9686 127.0811
L43.0638 126.7001
" />
<path d="M43.0638 126.7001
L43.1590 126.5096
" />
<path d="M43.1590 126.5096
L43.2543 126.4144
" />
<path d="M43.2543 126.4144
L43.4448 126.3192
" />
<path d="M44.8733 126.5096
L44.9686 126.4144
" />
<path d="M44.9686 126.4144
L45.1590 126.3192
" />
<path d="M45.1590 126.3192
L45.6352 126.3192
" />
<path d="M45.6352 126.3192
L45.8257 126.4144
" />
<path d="M45.8257 126.4144
L45.9209 126.5096
" />
<path d="M45.9209 126.5096
L46.0162 126.7001
" />
<path d="M46.0162 126.7001
L46.0162 126.8906
" />
<path d="M46.0162 126.8906
L45.9209 127.1763
" />
<path d="M45.9209 127.1763
L44.7781 128.3192
" />
<path d="M44.7781 128.3192
L46.0162 128.3192
" />
<path d="M47.8257 126.3192
L46.8733 126.3192
" />
<path d="M46.8733 126.3192
L46.7781 127.2715
" />
<path d="M46.7781 127.2715
L46.8733 127.1763
" />
<path d="M46.8733 127.1763
L47.0638 127.0811
" />
<path d="M47.0638 127.0811
L47.5400 127.0811
" />
<path d="M47.5400 127.0811
L47.7305 127.1763
" />
<path d="M47.7305 127.1763
L47.8257 127.2715
" />
<path d="M47.8257 127.2715
L47.9209 127.4620
" />
<path d="M47.9209 127.4620
L47.9209 127.9382
" />
<path d="M47.9209 127.9382
L47.8257 128.1287
" />
<path d="M47.8257 128.1287
L47.7305 128.2239
" />
<path d="M47.7305 128.2239
L47.5400 128.3192
" />
<path d="M47.5400 128.3192
L47.0638 128.3192
" />
<path d="M47.0638 128.3192
L46.8733 128.2239
" />
<path d="M46.8733 128.2239
L46.7781 128.1287
" />
<path d="M49.6352 126.3192
L49.2543 126.3192
" />
<path d="M49.2543 126.3192
L49.0638 126.4144
" />
<path d="M49.0638 126.4144
L48.9686 126.5096
" />
<path d="M48.9686 126.5096
L48.7781 126.7954
" />
<path d="M48.7781 126.7954
L48.6829 127.1763
" />
<path d="M48.6829 127.1763
L48.6829 127.9382
" />
<path d="M48.6829 127.9382
L48.7781 128.1287
" />
<path d="M48.7781 128.1287
L48.8733 128.2239
" />
<path d="M48.8733 128.2239
L49.0638 128.3192
" />
<path d="M49.0638 128.3192
L49.4448 128.3192
" />
<path d="M49.4448 128.3192
L49.6352 128.2239
" />
<path d="M49.6352 128.2239
L49.7305 128.1287
" />
<path d="M49.7305 128.1287
L49.8257 127.9382
" />
<path d="M49.8257 127.9382
L49.8257 127.4620
" />
<path d="M49.8257 127.4620
L49.7305 127.2715
" />
<path d="M49.7305 127.2715
L49.6352 127.1763
" />
<path d="M49.6352 127.1763
L49.4448 127.0811
" />
<path d="M49.4448 127.0811
L49.0638 127.0811
" />
<path d="M49.0638 127.0811
L48.8733 127.1763
" />
<path d="M48.8733 127.1763
L48.7781 127.2715
" />
<path d="M48.7781 127.2715
L48.6829 127.4620
" />
<path d="M50.5876 126.3192
L50.5876 126.7001
" />
<path d="M51.3495 126.3192
L51.3495 126.7001
" />
<path d="M54.3019 129.0811
L54.2067 128.9858
" />
<path d="M54.2067 128.9858
L54.0162 128.7001
" />
<path d="M54.0162 128.7001
L53.9209 128.5096
" />
<path d="M53.9209 128.5096
L53.8257 128.2239
" />
<path d="M53.8257 128.2239
L53.7305 127.7477
" />
<path d="M53.7305 127.7477
L53.7305 127.3668
" />
<path d="M53.7305 127.3668
L53.8257 126.8906
" />
<path d="M53.8257 126.8906
L53.9209 126.6049
" />
<path d="M53.9209 126.6049
L54.0162 126.4144
" />
<path d="M54.0162 126.4144
L54.2067 126.1287
" />
<path d="M54.2067 126.1287
L54.3019 126.0334
" />
<path d="M54.9686 126.5096
L55.0638 126.4144
" />
<path d="M55.0638 126.4144
L55.2543 126.3192
" />
<path d="M55.2543 126.3192
L55.7305 126.3192
" />
<path d="M55.7305 126.3192
L55.9209 126.4144
" />
<path d="M55.9209 126.4144
L56.0162 126.5096
" />
<path d="M56.0162 126.5096
L56.1114 126.7001
" />
<path d="M56.1114 126.7001
L56.1114 126.8906
" />
<path d="M56.1114 126.8906
L56.0162 127.1763
" />
<path d="M56.0162 127.1763
L54.8733 128.3192
" />
<path d="M54.8733 128.3192
L56.1114 128.3192
" />
<path d="M58.4924 128.3192
L58.4924 126.3192
" />
<path d="M59.3495 128.3192
L59.3495 127.2715
" />
<path d="M59.3495 127.2715
L59.2543 127.0811
" />
<path d="M59.2543 127.0811
L59.0638 126.9858
" />
<path d="M59.0638 126.9858
L58.7781 126.9858
" />
<path d="M58.7781 126.9858
L58.5876 127.0811
" />
<path d="M58.5876 127.0811
L58.4924 127.1763
" />
<path d="M60.5876 128.3192
L60.3971 128.2239
" />
<path d="M60.3971 128.2239
L60.3019 128.1287
" />
<path d="M60.3019 128.1287
L60.2067 127.9382
" />
<path d="M60.2067 127.9382
L60.2067 127.3668
" />
<path d="M60.2067 127.3668
L60.3019 127.1763
" />
<path d="M60.3019 127.1763
L60.3971 127.0811
" />
<path d="M60.3971 127.0811
L60.5876 126.9858
" />
<path d="M60.5876 126.9858
L60.8733 126.9858
" />
<path d="M60.8733 126.9858
L61.0638 127.0811
" />
<path d="M61.0638 127.0811
L61.1590 127.1763
" />
<path d="M61.1590 127.1763
L61.2543 127.3668
" />
<path d="M61.2543 127.3668
L61.2543 127.9382
" />
<path d="M61.2543 127.9382
L61.1590 128.1287
" />
<path d="M61.1590 128.1287
L61.0638 128.2239
" />
<path d="M61.0638 128.2239
L60.8733 128.3192
" />
<path d="M60.8733 128.3192
L60.5876 128.3192
" />
<path d="M62.3971 128.3192
L62.2067 128.2239
" />
<path d="M62.2067 128.2239
L62.1114 128.0334
" />
<path d="M62.1114 128.0334
L62.1114 126.3192
" />
<path d="M63.9209 128.2239
L63.7305 128.3192
" />
<path d="M63.7305 128.3192
L63.3495 128.3192
" />
<path d="M63.3495 128.3192
L63.1590 128.2239
" />
<path d="M63.1590 128.2239
L63.0638 128.0334
" />
<path d="M63.0638 128.0334
L63.0638 127.2715
" />
<path d="M63.0638 127.2715
L63.1590 127.0811
" />
<path d="M63.1590 127.0811
L63.3495 126.9858
" />
<path d="M63.3495 126.9858
L63.7305 126.9858
" />
<path d="M63.7305 126.9858
L63.9209 127.0811
" />
<path d="M63.9209 127.0811
L64.0162 127.2715
" />
<path d="M64.0162 127.2715
L64.0162 127.4620
" />
<path d="M64.0162 127.4620
L63.0638 127.6525
" />
<path d="M64.7781 128.2239
L64.9686 128.3192
" />
<path d="M64.9686 128.3192
L65.3495 128.3192
" />
<path d="M65.3495 128.3192
L65.5400 128.2239
" />
<path d="M65.5400 128.2239
L65.6352 128.0334
" />
<path d="M65.6352 128.0334
L65.6352 127.9382
" />
<path d="M65.6352 127.9382
L65.5400 127.7477
" />
<path d="M65.5400 127.7477
L65.3495 127.6525
" />
<path d="M65.3495 127.6525
L65.0638 127.6525
" />
<path d="M65.0638 127.6525
L64.8733 127.5573
" />
<path d="M64.8733 127.5573
L64.7781 127.3668
" />
<path d="M64.7781 127.3668
L64.7781 127.2715
" />
<path d="M64.7781 127.2715
L64.8733 127.0811
" />
<path d="M64.8733 127.0811
L65.0638 126.9858
" />
<path d="M65.0638 126.9858
L65.3495 126.9858
" />
<path d="M65.3495 126.9858
L65.5400 127.0811
" />
<path d="M66.3019 129.0811
L66.3971 128.9858
" />
<path d="M66.3971 128.9858
L66.5876 128.7001
" />
<path d="M66.5876 128.7001
L66.6829 128.5096
" />
<path d="M66.6829 128.5096
L66.7781 128.2239
" />
<path d="M66.7781 128.2239
L66.8733 127.7477
" />
<path d="M66.8733 127.7477
L66.8733 127.3668
" />
<path d="M66.8733 127.3668
L66.7781 126.8906
" />
<path d="M66.7781 126.8906
L66.6829 126.6049
" />
<path d="M66.6829 126.6049
L66.5876 126.4144
" />
<path d="M66.5876 126.4144
L66.3971 126.1287
" />
<path d="M66.3971 126.1287
L66.3019 126.0334
" />
<path d="M69.9210 129.0811
L69.8257 128.9858
" />
<path d="M69.8257 128.9858
L69.6352 128.7001
" />
<path d="M69.6352 128.7001
L69.5400 128.5096
" />
<path d="M69.5400 128.5096
L69.4448 128.2239
" />
<path d="M69.4448 128.2239
L69.3495 127.7477
" />
<path d="M69.3495 127.7477
L69.3495 127.3668
" />
<path d="M69.3495 127.3668
L69.4448 126.8906
" />
<path d="M69.4448 126.8906
L69.5400 126.6049
" />
<path d="M69.5400 126.6049
L69.6352 126.4144
" />
<path d="M69.6352 126.4144
L69.8257 126.1287
" />
<path d="M69.8257 126.1287
L69.9210 126.0334
" />
<path d="M70.6829 126.9858
L70.6829 128.3192
" />
<path d="M70.6829 127.1763
L70.7781 127.0811
" />
<path d="M70.7781 127.0811
L70.9686 126.9858
" />
<path d="M70.9686 126.9858
L71.2543 126.9858
" />
<path d="M71.2543 126.9858
L71.4448 127.0811
" />
<path d="M71.4448 127.0811
L71.5400 127.2715
" />
<path d="M71.5400 127.2715
L71.5400 128.3192
" />
<path d="M72.7781 128.3192
L72.5876 128.2239
" />
<path d="M72.5876 128.2239
L72.4924 128.1287
" />
<path d="M72.4924 128.1287
L72.3971 127.9382
" />
<path d="M72.3971 127.9382
L72.3971 127.3668
" />
<path d="M72.3971 127.3668
L72.4924 127.1763
" />
<path d="M72.4924 127.1763
L72.5876 127.0811
" />
<path d="M72.5876 127.0811
L72.7781 126.9858
" />
<path d="M72.7781 126.9858
L73.0638 126.9858
" />
<path d="M73.0638 126.9858
L73.2543 127.0811
" />
<path d="M73.2543 127.0811
L73.3495 127.1763
" />
<path d="M73.3495 127.1763
L73.4448 127.3668
" />
<path d="M73.4448 127.3668
L73.4448 127.9382
" />
<path d="M73.4448 127.9382
L73.3495 128.1287
" />
<path d="M73.3495 128.1287
L73.2543 128.2239
" />
<path d="M73.2543 128.2239
L73.0638 128.3192
" />
<path d="M73.0638 128.3192
L72.7781 128.3192
" />
<path d="M74.0162 126.9858
L74.7781 126.9858
" />
<path d="M74.3019 126.3192
L74.3019 128.0334
" />
<path d="M74.3019 128.0334
L74.3971 128.2239
" />
<path d="M74.3971 128.2239
L74.5876 128.3192
" />
<path d="M74.5876 128.3192
L74.7781 128.3192
" />
<path d="M76.9686 126.9858
L76.9686 128.9858
" />
<path d="M76.9686 127.0811
L77.1590 126.9858
" />
<path d="M77.1590 126.9858
L77.5400 126.9858
" />
<path d="M77.5400 126.9858
L77.7305 127.0811
" />
<path d="M77.7305 127.0811
L77.8257 127.1763
" />
<path d="M77.8257 127.1763
L77.9210 127.3668
" />
<path d="M77.9210 127.3668
L77.9210 127.9382
" />
<path d="M77.9210 127.9382
L77.8257 128.1287
" />
<path d="M77.8257 128.1287
L77.7305 128.2239
" />
<path d="M77.7305 128.2239
L77.5400 128.3192
" />
<path d="M77.5400 128.3192
L77.1590 128.3192
" />
<path d="M77.1590 128.3192
L76.9686 128.2239
" />
<path d="M79.0638 128.3192
L78.8733 128.2239
" />
<path d="M78.8733 128.2239
L78.7781 128.0334
" />
<path d="M78.7781 128.0334
L78.7781 126.3192
" />
<path d="M80.6829 128.3192
L80.6829 127.2715
" />
<path d="M80.6829 127.2715
L80.5876 127.0811
" />
<path d="M80.5876 127.0811
L80.3971 126.9858
" />
<path d="M80.3971 126.9858
L80.0162 126.9858
" />
<path d="M80.0162 126.9858
L79.8257 127.0811
" />
<path d="M80.6829 128.2239
L80.4924 128.3192
" />
<path d="M80.4924 128.3192
L80.0162 128.3192
" />
<path d="M80.0162 128.3192
L79.8257 128.2239
" />
<path d="M79.8257 128.2239
L79.7305 128.0334
" />
<path d="M79.7305 128.0334
L79.7305 127.8430
" />
<path d="M79.7305 127.8430
L79.8257 127.6525
" />
<path d="M79.8257 127.6525
L80.0162 127.5573
" />
<path d="M80.0162 127.5573
L80.4924 127.5573
" />
<path d="M80.4924 127.5573
L80.6829 127.4620
" />
<path d="M81.3495 126.9858
L82.1114 126.9858
" />
<path d="M81.6352 126.3192
L81.6352 128.0334
" />
<path d="M81.6352 128.0334
L81.7305 128.2239
" />
<path d="M81.7305 128.2239
L81.9210 128.3192
" />
<path d="M81.9210 128.3192
L82.1114 128.3192
" />
<path d="M83.5400 128.2239
L83.3495 128.3192
" />
<path d="M83.3495 128.3192
L82.9686 128.3192
" />
<path d="M82.9686 128.3192
L82.7781 128.2239
" />
<path d="M82.7781 128.2239
L82.6829 128.0334
" />
<path d="M82.6829 128.0334
L82.6829 127.2715
" />
<path d="M82.6829 127.2715
L82.7781 127.0811
" />
<path d="M82.7781 127.0811
L82.9686 126.9858
" />
<path d="M82.9686 126.9858
L83.3495 126.9858
" />
<path d="M83.3495 126.9858
L83.5400 127.0811
" />
<path d="M83.5400 127.0811
L83.6352 127.2715
" />
<path d="M83.6352 127.2715
L83.6352 127.4620
" />
<path d="M83.6352 127.4620
L82.6829 127.6525
" />
<path d="M85.3495 128.3192
L85.3495 126.3192
" />
<path d="M85.3495 128.2239
L85.1590 128.3192
" />
<path d="M85.1590 128.3192
L84.7781 128.3192
" />
<path d="M84.7781 128.3192
L84.5876 128.2239
" />
<path d="M84.5876 128.2239
L84.4924 128.1287
" />
<path d="M84.4924 128.1287
L84.3971 127.9382
" />
<path d="M84.3971 127.9382
L84.3971 127.3668
" />
<path d="M84.3971 127.3668
L84.4924 127.1763
" />
<path d="M84.4924 127.1763
L84.5876 127.0811
" />
<path d="M84.5876 127.0811
L84.7781 126.9858
" />
<path d="M84.7781 126.9858
L85.1590 126.9858
" />
<path d="M85.1590 126.9858
L85.3495 127.0811
" />
<path d="M86.1114 129.0811
L86.2067 128.9858
" />
<path d="M86.2067 128.9858
L86.3971 128.7001
" />
<path d="M86.3971 128.7001
L86.4924 128.5096
" />
<path d="M86.4924 128.5096
L86.5876 128.2239
" />
<path d="M86.5876 128.2239
L86.6829 127.7477
" />
<path d="M86.6829 127.7477
L86.6829 127.3668
" />
<path d="M86.6829 127.3668
L86.5876 126.8906
" />
<path d="M86.5876 126.8906
L86.4924 126.6049
" />
<path d="M86.4924 126.6049
L86.3971 126.4144
" />
<path d="M86.3971 126.4144
L86.2067 126.1287
" />
<path d="M86.2067 126.1287
L86.1114 126.0334
" />
</g></g>
<g style="fill:#000000; fill-opacity:0.0; 
stroke:#000000; stroke-width:0.2000; stroke-opacity:1; 
stroke-linecap:round; stroke-linejoin:round;">
<circle cx="17.5513" cy="130.0443" r="1.0000" /> 
</g>
<g style="fill:#000000; fill-opacity:0.0; 
stroke:#000000; stroke-width:0.3032; stroke-opacity:1; 
stroke-linecap:round; stroke-linejoin:round;">
</g>
<g style="fill:#000000; fill-opacity:0.0; 
stroke:#000000; stroke-width:0.2000; stroke-opacity:1; 
stroke-linecap:round; stroke-linejoin:round;">
<text x="20.5513" y="131.0443"
textLength="68.5810" font-size="2.6667" lengthAdjust="spacingAndGlyphs"
text-anchor="start" opacity="0">5.250mm / 0.2067" (32 holes) (not plated)</text>
<g class="stroked-text"><desc>5.250mm / 0.2067" (32 holes) (not plated)</desc>
<path d="M22.1114 128.9592
L21.1590 128.9592
" />
<path d="M21.1590 128.9592
L21.0638 129.9115
" />
<path d="M21.0638 129.9115
L21.1590 129.8163
" />
<path d="M21.1590 129.8163
L21.3495 129.7211
" />
<path d="M21.3495 129.7211
L21.8257 129.7211
" />
<path d="M21.8257 129.7211
L22.0162 129.8163
" />
<path d="M22.0162 129.8163
L22.1114 129.9115
" />
<path d="M22.1114 129.9115
L22.2067 130.1020
" />
<path d="M22.2067 130.1020
L22.2067 130.5782
" />
<path d="M22.2067 130.5782
L22.1114 130.7687
" />
<path d="M22.1114 130.7687
L22.0162 130.8639
" />
<path d="M22.0162 130.8639
L21.8257 130.9592
" />
<path d="M21.8257 130.9592
L21.3495 130.9592
" />
<path d="M21.3495 130.9592
L21.1590 130.8639
" />
<path d="M21.1590 130.8639
L21.0638 130.7687
" />
<path d="M23.0638 130.7687
L23.1590 130.8639
" />
<path d="M23.1590 130.8639
L23.0638 130.9592
" />
<path d="M23.0638 130.9592
L22.9686 130.8639
" />
<path d="M22.9686 130.8639
L23.0638 130.7687
" />
<path d="M23.0638 130.7687
L23.0638 130.9592
" />
<path d="M23.9209 129.1496
L24.0162 129.0544
" />
<path d="M24.0162 129.0544
L24.2067 128.9592
" />
<path d="M24.2067 128.9592
L24.6828 128.9592
" />
<path d="M24.6828 128.9592
L24.8733 129.0544
" />
<path d="M24.8733 129.0544
L24.9686 129.1496
" />
<path d="M24.9686 129.1496
L25.0638 129.3401
" />
<path d="M25.0638 129.3401
L25.0638 129.5306
" />
<path d="M25.0638 129.5306
L24.9686 129.8163
" />
<path d="M24.9686 129.8163
L23.8257 130.9592
" />
<path d="M23.8257 130.9592
L25.0638 130.9592
" />
<path d="M26.8733 128.9592
L25.9209 128.9592
" />
<path d="M25.9209 128.9592
L25.8257 129.9115
" />
<path d="M25.8257 129.9115
L25.9209 129.8163
" />
<path d="M25.9209 129.8163
L26.1114 129.7211
" />
<path d="M26.1114 129.7211
L26.5876 129.7211
" />
<path d="M26.5876 129.7211
L26.7781 129.8163
" />
<path d="M26.7781 129.8163
L26.8733 129.9115
" />
<path d="M26.8733 129.9115
L26.9686 130.1020
" />
<path d="M26.9686 130.1020
L26.9686 130.5782
" />
<path d="M26.9686 130.5782
L26.8733 130.7687
" />
<path d="M26.8733 130.7687
L26.7781 130.8639
" />
<path d="M26.7781 130.8639
L26.5876 130.9592
" />
<path d="M26.5876 130.9592
L26.1114 130.9592
" />
<path d="M26.1114 130.9592
L25.9209 130.8639
" />
<path d="M25.9209 130.8639
L25.8257 130.7687
" />
<path d="M28.2067 128.9592
L28.3971 128.9592
" />
<path d="M28.3971 128.9592
L28.5876 129.0544
" />
<path d="M28.5876 129.0544
L28.6828 129.1496
" />
<path d="M28.6828 129.1496
L28.7781 129.3401
" />
<path d="M28.7781 129.3401
L28.8733 129.7211
" />
<path d="M28.8733 129.7211
L28.8733 130.1973
" />
<path d="M28.8733 130.1973
L28.7781 130.5782
" />
<path d="M28.7781 130.5782
L28.6828 130.7687
" />
<path d="M28.6828 130.7687
L28.5876 130.8639
" />
<path d="M28.5876 130.8639
L28.3971 130.9592
" />
<path d="M28.3971 130.9592
L28.2067 130.9592
" />
<path d="M28.2067 130.9592
L28.0162 130.8639
" />
<path d="M28.0162 130.8639
L27.9209 130.7687
" />
<path d="M27.9209 130.7687
L27.8257 130.5782
" />
<path d="M27.8257 130.5782
L27.7305 130.1973
" />
<path d="M27.7305 130.1973
L27.7305 129.7211
" />
<path d="M27.7305 129.7211
L27.8257 129.3401
" />
<path d="M27.8257 129.3401
L27.9209 129.1496
" />
<path d="M27.9209 129.1496
L28.0162 129.0544
" />
<path d="M28.0162 129.0544
L28.2067 128.9592
" />
<path d="M29.7305 130.9592
L29.7305 129.6258
" />
<path d="M29.7305 129.8163
L29.8257 129.7211
" />
<path d="M29.8257 129.7211
L30.0162 129.6258
" />
<path d="M30.0162 129.6258
L30.3019 129.6258
" />
<path d="M30.3019 129.6258
L30.4924 129.7211
" />
<path d="M30.4924 129.7211
L30.5876 129.9115
" />
<path d="M30.5876 129.9115
L30.5876 130.9592
" />
<path d="M30.5876 129.9115
L30.6829 129.7211
" />
<path d="M30.6829 129.7211
L30.8733 129.6258
" />
<path d="M30.8733 129.6258
L31.1590 129.6258
" />
<path d="M31.1590 129.6258
L31.3495 129.7211
" />
<path d="M31.3495 129.7211
L31.4448 129.9115
" />
<path d="M31.4448 129.9115
L31.4448 130.9592
" />
<path d="M32.3971 130.9592
L32.3971 129.6258
" />
<path d="M32.3971 129.8163
L32.4924 129.7211
" />
<path d="M32.4924 129.7211
L32.6828 129.6258
" />
<path d="M32.6828 129.6258
L32.9686 129.6258
" />
<path d="M32.9686 129.6258
L33.1590 129.7211
" />
<path d="M33.1590 129.7211
L33.2543 129.9115
" />
<path d="M33.2543 129.9115
L33.2543 130.9592
" />
<path d="M33.2543 129.9115
L33.3495 129.7211
" />
<path d="M33.3495 129.7211
L33.5400 129.6258
" />
<path d="M33.5400 129.6258
L33.8257 129.6258
" />
<path d="M33.8257 129.6258
L34.0162 129.7211
" />
<path d="M34.0162 129.7211
L34.1114 129.9115
" />
<path d="M34.1114 129.9115
L34.1114 130.9592
" />
<path d="M38.0162 128.8639
L36.3019 131.4354
" />
<path d="M40.5876 128.9592
L40.7781 128.9592
" />
<path d="M40.7781 128.9592
L40.9686 129.0544
" />
<path d="M40.9686 129.0544
L41.0638 129.1496
" />
<path d="M41.0638 129.1496
L41.1590 129.3401
" />
<path d="M41.1590 129.3401
L41.2543 129.7211
" />
<path d="M41.2543 129.7211
L41.2543 130.1973
" />
<path d="M41.2543 130.1973
L41.1590 130.5782
" />
<path d="M41.1590 130.5782
L41.0638 130.7687
" />
<path d="M41.0638 130.7687
L40.9686 130.8639
" />
<path d="M40.9686 130.8639
L40.7781 130.9592
" />
<path d="M40.7781 130.9592
L40.5876 130.9592
" />
<path d="M40.5876 130.9592
L40.3971 130.8639
" />
<path d="M40.3971 130.8639
L40.3019 130.7687
" />
<path d="M40.3019 130.7687
L40.2067 130.5782
" />
<path d="M40.2067 130.5782
L40.1114 130.1973
" />
<path d="M40.1114 130.1973
L40.1114 129.7211
" />
<path d="M40.1114 129.7211
L40.2067 129.3401
" />
<path d="M40.2067 129.3401
L40.3019 129.1496
" />
<path d="M40.3019 129.1496
L40.3971 129.0544
" />
<path d="M40.3971 129.0544
L40.5876 128.9592
" />
<path d="M42.1114 130.7687
L42.2067 130.8639
" />
<path d="M42.2067 130.8639
L42.1114 130.9592
" />
<path d="M42.1114 130.9592
L42.0162 130.8639
" />
<path d="M42.0162 130.8639
L42.1114 130.7687
" />
<path d="M42.1114 130.7687
L42.1114 130.9592
" />
<path d="M42.9686 129.1496
L43.0638 129.0544
" />
<path d="M43.0638 129.0544
L43.2543 128.9592
" />
<path d="M43.2543 128.9592
L43.7305 128.9592
" />
<path d="M43.7305 128.9592
L43.9209 129.0544
" />
<path d="M43.9209 129.0544
L44.0162 129.1496
" />
<path d="M44.0162 129.1496
L44.1114 129.3401
" />
<path d="M44.1114 129.3401
L44.1114 129.5306
" />
<path d="M44.1114 129.5306
L44.0162 129.8163
" />
<path d="M44.0162 129.8163
L42.8733 130.9592
" />
<path d="M42.8733 130.9592
L44.1114 130.9592
" />
<path d="M45.3495 128.9592
L45.5400 128.9592
" />
<path d="M45.5400 128.9592
L45.7305 129.0544
" />
<path d="M45.7305 129.0544
L45.8257 129.1496
" />
<path d="M45.8257 129.1496
L45.9209 129.3401
" />
<path d="M45.9209 129.3401
L46.0162 129.7211
" />
<path d="M46.0162 129.7211
L46.0162 130.1973
" />
<path d="M46.0162 130.1973
L45.9209 130.5782
" />
<path d="M45.9209 130.5782
L45.8257 130.7687
" />
<path d="M45.8257 130.7687
L45.7305 130.8639
" />
<path d="M45.7305 130.8639
L45.5400 130.9592
" />
<path d="M45.5400 130.9592
L45.3495 130.9592
" />
<path d="M45.3495 130.9592
L45.1590 130.8639
" />
<path d="M45.1590 130.8639
L45.0638 130.7687
" />
<path d="M45.0638 130.7687
L44.9686 130.5782
" />
<path d="M44.9686 130.5782
L44.8733 130.1973
" />
<path d="M44.8733 130.1973
L44.8733 129.7211
" />
<path d="M44.8733 129.7211
L44.9686 129.3401
" />
<path d="M44.9686 129.3401
L45.0638 129.1496
" />
<path d="M45.0638 129.1496
L45.1590 129.0544
" />
<path d="M45.1590 129.0544
L45.3495 128.9592
" />
<path d="M47.7305 128.9592
L47.3495 128.9592
" />
<path d="M47.3495 128.9592
L47.1590 129.0544
" />
<path d="M47.1590 129.0544
L47.0638 129.1496
" />
<path d="M47.0638 129.1496
L46.8733 129.4354
" />
<path d="M46.8733 129.4354
L46.7781 129.8163
" />
<path d="M46.7781 129.8163
L46.7781 130.5782
" />
<path d="M46.7781 130.5782
L46.8733 130.7687
" />
<path d="M46.8733 130.7687
L46.9686 130.8639
" />
<path d="M46.9686 130.8639
L47.1590 130.9592
" />
<path d="M47.1590 130.9592
L47.5400 130.9592
" />
<path d="M47.5400 130.9592
L47.7305 130.8639
" />
<path d="M47.7305 130.8639
L47.8257 130.7687
" />
<path d="M47.8257 130.7687
L47.9209 130.5782
" />
<path d="M47.9209 130.5782
L47.9209 130.1020
" />
<path d="M47.9209 130.1020
L47.8257 129.9115
" />
<path d="M47.8257 129.9115
L47.7305 129.8163
" />
<path d="M47.7305 129.8163
L47.5400 129.7211
" />
<path d="M47.5400 129.7211
L47.1590 129.7211
" />
<path d="M47.1590 129.7211
L46.9686 129.8163
" />
<path d="M46.9686 129.8163
L46.8733 129.9115
" />
<path d="M46.8733 129.9115
L46.7781 130.1020
" />
<path d="M48.5876 128.9592
L49.9209 128.9592
" />
<path d="M49.9209 128.9592
L49.0638 130.9592
" />
<path d="M50.5876 128.9592
L50.5876 129.3401
" />
<path d="M51.3495 128.9592
L51.3495 129.3401
" />
<path d="M54.3019 131.7211
L54.2067 131.6258
" />
<path d="M54.2067 131.6258
L54.0162 131.3401
" />
<path d="M54.0162 131.3401
L53.9209 131.1496
" />
<path d="M53.9209 131.1496
L53.8257 130.8639
" />
<path d="M53.8257 130.8639
L53.7305 130.3877
" />
<path d="M53.7305 130.3877
L53.7305 130.0068
" />
<path d="M53.7305 130.0068
L53.8257 129.5306
" />
<path d="M53.8257 129.5306
L53.9209 129.2449
" />
<path d="M53.9209 129.2449
L54.0162 129.0544
" />
<path d="M54.0162 129.0544
L54.2067 128.7687
" />
<path d="M54.2067 128.7687
L54.3019 128.6734
" />
<path d="M54.8733 128.9592
L56.1114 128.9592
" />
<path d="M56.1114 128.9592
L55.4448 129.7211
" />
<path d="M55.4448 129.7211
L55.7305 129.7211
" />
<path d="M55.7305 129.7211
L55.9209 129.8163
" />
<path d="M55.9209 129.8163
L56.0162 129.9115
" />
<path d="M56.0162 129.9115
L56.1114 130.1020
" />
<path d="M56.1114 130.1020
L56.1114 130.5782
" />
<path d="M56.1114 130.5782
L56.0162 130.7687
" />
<path d="M56.0162 130.7687
L55.9209 130.8639
" />
<path d="M55.9209 130.8639
L55.7305 130.9592
" />
<path d="M55.7305 130.9592
L55.1590 130.9592
" />
<path d="M55.1590 130.9592
L54.9686 130.8639
" />
<path d="M54.9686 130.8639
L54.8733 130.7687
" />
<path d="M56.8733 129.1496
L56.9686 129.0544
" />
<path d="M56.9686 129.0544
L57.1590 128.9592
" />
<path d="M57.1590 128.9592
L57.6352 128.9592
" />
<path d="M57.6352 128.9592
L57.8257 129.0544
" />
<path d="M57.8257 129.0544
L57.9210 129.1496
" />
<path d="M57.9210 129.1496
L58.0162 129.3401
" />
<path d="M58.0162 129.3401
L58.0162 129.5306
" />
<path d="M58.0162 129.5306
L57.9210 129.8163
" />
<path d="M57.9210 129.8163
L56.7781 130.9592
" />
<path d="M56.7781 130.9592
L58.0162 130.9592
" />
<path d="M60.3971 130.9592
L60.3971 128.9592
" />
<path d="M61.2543 130.9592
L61.2543 129.9115
" />
<path d="M61.2543 129.9115
L61.1590 129.7211
" />
<path d="M61.1590 129.7211
L60.9686 129.6258
" />
<path d="M60.9686 129.6258
L60.6829 129.6258
" />
<path d="M60.6829 129.6258
L60.4924 129.7211
" />
<path d="M60.4924 129.7211
L60.3971 129.8163
" />
<path d="M62.4924 130.9592
L62.3019 130.8639
" />
<path d="M62.3019 130.8639
L62.2067 130.7687
" />
<path d="M62.2067 130.7687
L62.1114 130.5782
" />
<path d="M62.1114 130.5782
L62.1114 130.0068
" />
<path d="M62.1114 130.0068
L62.2067 129.8163
" />
<path d="M62.2067 129.8163
L62.3019 129.7211
" />
<path d="M62.3019 129.7211
L62.4924 129.6258
" />
<path d="M62.4924 129.6258
L62.7781 129.6258
" />
<path d="M62.7781 129.6258
L62.9686 129.7211
" />
<path d="M62.9686 129.7211
L63.0638 129.8163
" />
<path d="M63.0638 129.8163
L63.1590 130.0068
" />
<path d="M63.1590 130.0068
L63.1590 130.5782
" />
<path d="M63.1590 130.5782
L63.0638 130.7687
" />
<path d="M63.0638 130.7687
L62.9686 130.8639
" />
<path d="M62.9686 130.8639
L62.7781 130.9592
" />
<path d="M62.7781 130.9592
L62.4924 130.9592
" />
<path d="M64.3019 130.9592
L64.1114 130.8639
" />
<path d="M64.1114 130.8639
L64.0162 130.6734
" />
<path d="M64.0162 130.6734
L64.0162 128.9592
" />
<path d="M65.8257 130.8639
L65.6352 130.9592
" />
<path d="M65.6352 130.9592
L65.2543 130.9592
" />
<path d="M65.2543 130.9592
L65.0638 130.8639
" />
<path d="M65.0638 130.8639
L64.9686 130.6734
" />
<path d="M64.9686 130.6734
L64.9686 129.9115
" />
<path d="M64.9686 129.9115
L65.0638 129.7211
" />
<path d="M65.0638 129.7211
L65.2543 129.6258
" />
<path d="M65.2543 129.6258
L65.6352 129.6258
" />
<path d="M65.6352 129.6258
L65.8257 129.7211
" />
<path d="M65.8257 129.7211
L65.9210 129.9115
" />
<path d="M65.9210 129.9115
L65.9210 130.1020
" />
<path d="M65.9210 130.1020
L64.9686 130.2925
" />
<path d="M66.6829 130.8639
L66.8733 130.9592
" />
<path d="M66.8733 130.9592
L67.2543 130.9592
" />
<path d="M67.2543 130.9592
L67.4448 130.8639
" />
<path d="M67.4448 130.8639
L67.5400 130.6734
" />
<path d="M67.5400 130.6734
L67.5400 130.5782
" />
<path d="M67.5400 130.5782
L67.4448 130.3877
" />
<path d="M67.4448 130.3877
L67.2543 130.2925
" />
<path d="M67.2543 130.2925
L66.9686 130.2925
" />
<path d="M66.9686 130.2925
L66.7781 130.1973
" />
<path d="M66.7781 130.1973
L66.6829 130.0068
" />
<path d="M66.6829 130.0068
L66.6829 129.9115
" />
<path d="M66.6829 129.9115
L66.7781 129.7211
" />
<path d="M66.7781 129.7211
L66.9686 129.6258
" />
<path d="M66.9686 129.6258
L67.2543 129.6258
" />
<path d="M67.2543 129.6258
L67.4448 129.7211
" />
<path d="M68.2067 131.7211
L68.3019 131.6258
" />
<path d="M68.3019 131.6258
L68.4924 131.3401
" />
<path d="M68.4924 131.3401
L68.5876 131.1496
" />
<path d="M68.5876 131.1496
L68.6829 130.8639
" />
<path d="M68.6829 130.8639
L68.7781 130.3877
" />
<path d="M68.7781 130.3877
L68.7781 130.0068
" />
<path d="M68.7781 130.0068
L68.6829 129.5306
" />
<path d="M68.6829 129.5306
L68.5876 129.2449
" />
<path d="M68.5876 129.2449
L68.4924 129.0544
" />
<path d="M68.4924 129.0544
L68.3019 128.7687
" />
<path d="M68.3019 128.7687
L68.2067 128.6734
" />
<path d="M71.8257 131.7211
L71.7305 131.6258
" />
<path d="M71.7305 131.6258
L71.5400 131.3401
" />
<path d="M71.5400 131.3401
L71.4448 131.1496
" />
<path d="M71.4448 131.1496
L71.3495 130.8639
" />
<path d="M71.3495 130.8639
L71.2543 130.3877
" />
<path d="M71.2543 130.3877
L71.2543 130.0068
" />
<path d="M71.2543 130.0068
L71.3495 129.5306
" />
<path d="M71.3495 129.5306
L71.4448 129.2449
" />
<path d="M71.4448 129.2449
L71.5400 129.0544
" />
<path d="M71.5400 129.0544
L71.7305 128.7687
" />
<path d="M71.7305 128.7687
L71.8257 128.6734
" />
<path d="M72.5876 129.6258
L72.5876 130.9592
" />
<path d="M72.5876 129.8163
L72.6829 129.7211
" />
<path d="M72.6829 129.7211
L72.8733 129.6258
" />
<path d="M72.8733 129.6258
L73.1590 129.6258
" />
<path d="M73.1590 129.6258
L73.3495 129.7211
" />
<path d="M73.3495 129.7211
L73.4448 129.9115
" />
<path d="M73.4448 129.9115
L73.4448 130.9592
" />
<path d="M74.6829 130.9592
L74.4924 130.8639
" />
<path d="M74.4924 130.8639
L74.3971 130.7687
" />
<path d="M74.3971 130.7687
L74.3019 130.5782
" />
<path d="M74.3019 130.5782
L74.3019 130.0068
" />
<path d="M74.3019 130.0068
L74.3971 129.8163
" />
<path d="M74.3971 129.8163
L74.4924 129.7211
" />
<path d="M74.4924 129.7211
L74.6829 129.6258
" />
<path d="M74.6829 129.6258
L74.9686 129.6258
" />
<path d="M74.9686 129.6258
L75.1590 129.7211
" />
<path d="M75.1590 129.7211
L75.2543 129.8163
" />
<path d="M75.2543 129.8163
L75.3495 130.0068
" />
<path d="M75.3495 130.0068
L75.3495 130.5782
" />
<path d="M75.3495 130.5782
L75.2543 130.7687
" />
<path d="M75.2543 130.7687
L75.1590 130.8639
" />
<path d="M75.1590 130.8639
L74.9686 130.9592
" />
<path d="M74.9686 130.9592
L74.6829 130.9592
" />
<path d="M75.9210 129.6258
L76.6829 129.6258
" />
<path d="M76.2067 128.9592
L76.2067 130.6734
" />
<path d="M76.2067 130.6734
L76.3019 130.8639
" />
<path d="M76.3019 130.8639
L76.4924 130.9592
" />
<path d="M76.4924 130.9592
L76.6829 130.9592
" />
<path d="M78.8733 129.6258
L78.8733 131.6258
" />
<path d="M78.8733 129.7211
L79.0638 129.6258
" />
<path d="M79.0638 129.6258
L79.4448 129.6258
" />
<path d="M79.4448 129.6258
L79.6352 129.7211
" />
<path d="M79.6352 129.7211
L79.7305 129.8163
" />
<path d="M79.7305 129.8163
L79.8257 130.0068
" />
<path d="M79.8257 130.0068
L79.8257 130.5782
" />
<path d="M79.8257 130.5782
L79.7305 130.7687
" />
<path d="M79.7305 130.7687
L79.6352 130.8639
" />
<path d="M79.6352 130.8639
L79.4448 130.9592
" />
<path d="M79.4448 130.9592
L79.0638 130.9592
" />
<path d="M79.0638 130.9592
L78.8733 130.8639
" />
<path d="M80.9686 130.9592
L80.7781 130.8639
" />
<path d="M80.7781 130.8639
L80.6829 130.6734
" />
<path d="M80.6829 130.6734
L80.6829 128.9592
" />
<path d="M82.5876 130.9592
L82.5876 129.9115
" />
<path d="M82.5876 129.9115
L82.4924 129.7211
" />
<path d="M82.4924 129.7211
L82.3019 129.6258
" />
<path d="M82.3019 129.6258
L81.9210 129.6258
" />
<path d="M81.9210 129.6258
L81.7305 129.7211
" />
<path d="M82.5876 130.8639
L82.3971 130.9592
" />
<path d="M82.3971 130.9592
L81.9210 130.9592
" />
<path d="M81.9210 130.9592
L81.7305 130.8639
" />
<path d="M81.7305 130.8639
L81.6352 130.6734
" />
<path d="M81.6352 130.6734
L81.6352 130.4830
" />
<path d="M81.6352 130.4830
L81.7305 130.2925
" />
<path d="M81.7305 130.2925
L81.9210 130.1973
" />
<path d="M81.9210 130.1973
L82.3971 130.1973
" />
<path d="M82.3971 130.1973
L82.5876 130.1020
" />
<path d="M83.2543 129.6258
L84.0162 129.6258
" />
<path d="M83.5400 128.9592
L83.5400 130.6734
" />
<path d="M83.5400 130.6734
L83.6352 130.8639
" />
<path d="M83.6352 130.8639
L83.8257 130.9592
" />
<path d="M83.8257 130.9592
L84.0162 130.9592
" />
<path d="M85.4448 130.8639
L85.2543 130.9592
" />
<path d="M85.2543 130.9592
L84.8733 130.9592
" />
<path d="M84.8733 130.9592
L84.6829 130.8639
" />
<path d="M84.6829 130.8639
L84.5876 130.6734
" />
<path d="M84.5876 130.6734
L84.5876 129.9115
" />
<path d="M84.5876 129.9115
L84.6829 129.7211
" />
<path d="M84.6829 129.7211
L84.8733 129.6258
" />
<path d="M84.8733 129.6258
L85.2543 129.6258
" />
<path d="M85.2543 129.6258
L85.4448 129.7211
" />
<path d="M85.4448 129.7211
L85.5400 129.9115
" />
<path d="M85.5400 129.9115
L85.5400 130.1020
" />
<path d="M85.5400 130.1020
L84.5876 130.2925
" />
<path d="M87.2543 130.9592
L87.2543 128.9592
" />
<path d="M87.2543 130.8639
L87.0638 130.9592
" />
<path d="M87.0638 130.9592
L86.6829 130.9592
" />
<path d="M86.6829 130.9592
L86.4924 130.8639
" />
<path d="M86.4924 130.8639
L86.3971 130.7687
" />
<path d="M86.3971 130.7687
L86.3019 130.5782
" />
<path d="M86.3019 130.5782
L86.3019 130.0068
" />
<path d="M86.3019 130.0068
L86.3971 129.8163
" />
<path d="M86.3971 129.8163
L86.4924 129.7211
" />
<path d="M86.4924 129.7211
L86.6829 129.6258
" />
<path d="M86.6829 129.6258
L87.0638 129.6258
" />
<path d="M87.0638 129.6258
L87.2543 129.7211
" />
<path d="M88.0162 131.7211
L88.1114 131.6258
" />
<path d="M88.1114 131.6258
L88.3019 131.3401
" />
<path d="M88.3019 131.3401
L88.3971 131.1496
" />
<path d="M88.3971 131.1496
L88.4924 130.8639
" />
<path d="M88.4924 130.8639
L88.5876 130.3877
" />
<path d="M88.5876 130.3877
L88.5876 130.0068
" />
<path d="M88.5876 130.0068
L88.4924 129.5306
" />
<path d="M88.4924 129.5306
L88.3971 129.2449
" />
<path d="M88.3971 129.2449
L88.3019 129.0544
" />
<path d="M88.3019 129.0544
L88.1114 128.7687
" />
<path d="M88.1114 128.7687
L88.0162 128.6734
" />
</g></g> 
</svg>
