%TF.GenerationSoftware,KiCad,Pcbnew,8.0.0*%
%TF.CreationDate,2024-03-16T16:30:29-05:00*%
%TF.ProjectId,rattlemebones32,72617474-6c65-46d6-9562-6f6e65733332,rev?*%
%TF.SameCoordinates,Original*%
%TF.FileFunction,Soldermask,Bot*%
%TF.FilePolarity,Negative*%
%FSLAX46Y46*%
G04 Gerber Fmt 4.6, Leading zero omitted, Abs format (unit mm)*
G04 Created by KiCad (PCBNEW 8.0.0) date 2024-03-16 16:30:29*
%MOMM*%
%LPD*%
G01*
G04 APERTURE LIST*
G04 Aperture macros list*
%AMRoundRect*
0 Rectangle with rounded corners*
0 $1 Rounding radius*
0 $2 $3 $4 $5 $6 $7 $8 $9 X,Y pos of 4 corners*
0 Add a 4 corners polygon primitive as box body*
4,1,4,$2,$3,$4,$5,$6,$7,$8,$9,$2,$3,0*
0 Add four circle primitives for the rounded corners*
1,1,$1+$1,$2,$3*
1,1,$1+$1,$4,$5*
1,1,$1+$1,$6,$7*
1,1,$1+$1,$8,$9*
0 Add four rect primitives between the rounded corners*
20,1,$1+$1,$2,$3,$4,$5,0*
20,1,$1+$1,$4,$5,$6,$7,0*
20,1,$1+$1,$6,$7,$8,$9,0*
20,1,$1+$1,$8,$9,$2,$3,0*%
G04 Aperture macros list end*
%ADD10C,2.032000*%
%ADD11C,1.701800*%
%ADD12C,0.990600*%
%ADD13C,3.429000*%
%ADD14C,4.190000*%
%ADD15RoundRect,0.112500X0.157195X-0.151994X0.060138X0.210228X-0.157195X0.151994X-0.060138X-0.210228X0*%
%ADD16RoundRect,0.140000X0.140000X0.170000X-0.140000X0.170000X-0.140000X-0.170000X0.140000X-0.170000X0*%
%ADD17RoundRect,0.112500X0.060138X-0.210228X0.157195X0.151994X-0.060138X0.210228X-0.157195X-0.151994X0*%
%ADD18C,0.650000*%
%ADD19R,0.600000X1.450000*%
%ADD20R,0.300000X1.450000*%
%ADD21O,1.000000X1.600000*%
%ADD22O,1.000000X2.100000*%
%ADD23R,1.100000X1.800000*%
%ADD24RoundRect,0.100000X0.637500X0.100000X-0.637500X0.100000X-0.637500X-0.100000X0.637500X-0.100000X0*%
%ADD25RoundRect,0.135000X0.185000X-0.135000X0.185000X0.135000X-0.185000X0.135000X-0.185000X-0.135000X0*%
%ADD26RoundRect,0.135000X-0.185000X0.135000X-0.185000X-0.135000X0.185000X-0.135000X0.185000X0.135000X0*%
%ADD27RoundRect,0.140000X-0.170000X0.140000X-0.170000X-0.140000X0.170000X-0.140000X0.170000X0.140000X0*%
G04 APERTURE END LIST*
D10*
%TO.C,SW21*%
X95455063Y-45453403D03*
X99741174Y-48775942D03*
D11*
X106580798Y-44500485D03*
D12*
X107397379Y-40371127D03*
D13*
X101268206Y-43076980D03*
D11*
X95955614Y-41653475D03*
%TD*%
D10*
%TO.C,SW3*%
X88730747Y-12593341D03*
X93016858Y-15915880D03*
D11*
X99856482Y-11640423D03*
D12*
X100673063Y-7511065D03*
D13*
X94543890Y-10216918D03*
D11*
X89231298Y-8793413D03*
%TD*%
D10*
%TO.C,SW28*%
X205024500Y-62530479D03*
X210397649Y-63264827D03*
D11*
X214183209Y-56142360D03*
D12*
X212825710Y-52157941D03*
D13*
X208870617Y-57565865D03*
D11*
X203558025Y-58989370D03*
%TD*%
D10*
%TO.C,SW16*%
X197259926Y-33552705D03*
X202633075Y-34287053D03*
D11*
X206418635Y-27164586D03*
D12*
X205061136Y-23180167D03*
D13*
X201106043Y-28588091D03*
D11*
X195793451Y-30011596D03*
%TD*%
D10*
%TO.C,SW7*%
X117708524Y-20357912D03*
X121994635Y-23680451D03*
D11*
X128834259Y-19404994D03*
D12*
X129650840Y-15275636D03*
D13*
X123521667Y-17981489D03*
D11*
X118209075Y-16557984D03*
%TD*%
D10*
%TO.C,SW11*%
X132197411Y-24240198D03*
X136483522Y-27562737D03*
D11*
X143323146Y-23287280D03*
D12*
X144139727Y-19157922D03*
D13*
X138010554Y-21863775D03*
D11*
X132697962Y-20440270D03*
%TD*%
D10*
%TO.C,SW27*%
X91572782Y-59942288D03*
X95858893Y-63264827D03*
D11*
X102698517Y-58989370D03*
D12*
X103515098Y-54860012D03*
D13*
X97385925Y-57565865D03*
D11*
X92073333Y-56142360D03*
%TD*%
D10*
%TO.C,SW6*%
X193377640Y-19063817D03*
X198750789Y-19798165D03*
D11*
X202536349Y-12675698D03*
D12*
X201178850Y-8691279D03*
D13*
X197223757Y-14099203D03*
D11*
X191911165Y-15522708D03*
%TD*%
D10*
%TO.C,SW31*%
X120550556Y-67706859D03*
X124836667Y-71029398D03*
D11*
X131676291Y-66753941D03*
D12*
X132492872Y-62624583D03*
D13*
X126363699Y-65330436D03*
D11*
X121051107Y-63906931D03*
%TD*%
D10*
%TO.C,SW25*%
X124432838Y-53217972D03*
X128718949Y-56540511D03*
D11*
X135558573Y-52265054D03*
D12*
X136375154Y-48135696D03*
D13*
X130245981Y-50841549D03*
D11*
X124933389Y-49418044D03*
%TD*%
D10*
%TO.C,SW5*%
X103219638Y-16475626D03*
X107505749Y-19798165D03*
D11*
X114345373Y-15522708D03*
D12*
X115161954Y-11393350D03*
D13*
X109032781Y-14099203D03*
D11*
X103720189Y-12675698D03*
%TD*%
D10*
%TO.C,SW24*%
X186653325Y-51923880D03*
X192026474Y-52658228D03*
D11*
X195812034Y-45535761D03*
D12*
X194454535Y-41551342D03*
D13*
X190499442Y-46959266D03*
D11*
X185186850Y-48382771D03*
%TD*%
D10*
%TO.C,SW9*%
X70359578Y-23199944D03*
X74645689Y-26522483D03*
D11*
X81485313Y-22247026D03*
D12*
X82301894Y-18117668D03*
D13*
X76172721Y-20823521D03*
D11*
X70860129Y-19400016D03*
%TD*%
D10*
%TO.C,SW10*%
X226237701Y-25788131D03*
X231610850Y-26522479D03*
D11*
X235396410Y-19400012D03*
D12*
X234038911Y-15415593D03*
D13*
X230083818Y-20823517D03*
D11*
X224771226Y-22247022D03*
%TD*%
D10*
%TO.C,SW23*%
X109943954Y-49335689D03*
X114230065Y-52658228D03*
D11*
X121069689Y-48382771D03*
D12*
X121886270Y-44253413D03*
D13*
X115757097Y-46959266D03*
D11*
X110444505Y-45535761D03*
%TD*%
D10*
%TO.C,SW26*%
X172164439Y-55806164D03*
X177537588Y-56540512D03*
D11*
X181323148Y-49418045D03*
D12*
X179965649Y-45433626D03*
D13*
X176010556Y-50841550D03*
D11*
X170697964Y-52265055D03*
%TD*%
D10*
%TO.C,SW13*%
X84848460Y-27082224D03*
X89134571Y-30404763D03*
D11*
X95974195Y-26129306D03*
D12*
X96790776Y-21999948D03*
D13*
X90661603Y-24705801D03*
D11*
X85349011Y-23282296D03*
%TD*%
D10*
%TO.C,SW32*%
X176046724Y-70295053D03*
X181419873Y-71029401D03*
D11*
X185205433Y-63906934D03*
D12*
X183847934Y-59922515D03*
D13*
X179892841Y-65330439D03*
D11*
X174580249Y-66753944D03*
%TD*%
D10*
%TO.C,SW19*%
X128315127Y-38729085D03*
X132601238Y-42051624D03*
D11*
X139440862Y-37776167D03*
D12*
X140257443Y-33646809D03*
D13*
X134128270Y-36352662D03*
D11*
X128815678Y-34929157D03*
%TD*%
D10*
%TO.C,SW15*%
X99337350Y-30964514D03*
X103623461Y-34287053D03*
D11*
X110463085Y-30011596D03*
D12*
X111279666Y-25882238D03*
D13*
X105150493Y-28588091D03*
D11*
X99837901Y-27164586D03*
%TD*%
D10*
%TO.C,SW12*%
X164399867Y-26828391D03*
X169773016Y-27562739D03*
D11*
X173558576Y-20440272D03*
D12*
X172201077Y-16455853D03*
D13*
X168245984Y-21863777D03*
D11*
X162933392Y-23287282D03*
%TD*%
D10*
%TO.C,SW22*%
X201142214Y-48041594D03*
X206515363Y-48775942D03*
D11*
X210300923Y-41653475D03*
D12*
X208943424Y-37669056D03*
D13*
X204988331Y-43076980D03*
D11*
X199675739Y-44500485D03*
%TD*%
D10*
%TO.C,SW20*%
X168282149Y-41317276D03*
X173655298Y-42051624D03*
D11*
X177440858Y-34929157D03*
D12*
X176083359Y-30944738D03*
D13*
X172128266Y-36352662D03*
D11*
X166815674Y-37776167D03*
%TD*%
D10*
%TO.C,SW14*%
X211748813Y-29670420D03*
X217121962Y-30404768D03*
D11*
X220907522Y-23282301D03*
D12*
X219550023Y-19297882D03*
D13*
X215594930Y-24705806D03*
D11*
X210282338Y-26129311D03*
%TD*%
D10*
%TO.C,SW30*%
X190535612Y-66412762D03*
X195908761Y-67147110D03*
D11*
X199694321Y-60024643D03*
D12*
X198336822Y-56040224D03*
D13*
X194381729Y-61448148D03*
D11*
X189069137Y-62871653D03*
%TD*%
D10*
%TO.C,SW1*%
X74241861Y-8711056D03*
X78527972Y-12033595D03*
D11*
X85367596Y-7758138D03*
D12*
X86184177Y-3628780D03*
D13*
X80055004Y-6334633D03*
D11*
X74742412Y-4911128D03*
%TD*%
D10*
%TO.C,SW18*%
X182771039Y-37434993D03*
X188144188Y-38169341D03*
D11*
X191929748Y-31046874D03*
D12*
X190572249Y-27062455D03*
D13*
X186617156Y-32470379D03*
D11*
X181304564Y-33893884D03*
%TD*%
D10*
%TO.C,SW4*%
X207866532Y-15181533D03*
X213239681Y-15915881D03*
D11*
X217025241Y-8793414D03*
D12*
X215667742Y-4808995D03*
D13*
X211712649Y-10216919D03*
D11*
X206400057Y-11640424D03*
%TD*%
D10*
%TO.C,SW2*%
X222355415Y-11299248D03*
X227728564Y-12033596D03*
D11*
X231514124Y-4911129D03*
D12*
X230156625Y-926710D03*
D13*
X226201532Y-6334634D03*
D11*
X220888940Y-7758139D03*
%TD*%
D10*
%TO.C,SW17*%
X113826240Y-34846801D03*
X118112351Y-38169340D03*
D11*
X124951975Y-33893883D03*
D12*
X125768556Y-29764525D03*
D13*
X119639383Y-32470378D03*
D11*
X114326791Y-31046873D03*
%TD*%
D10*
%TO.C,SW29*%
X106061667Y-63824574D03*
X110347778Y-67147113D03*
D11*
X117187402Y-62871656D03*
D12*
X118003983Y-58742298D03*
D13*
X111874810Y-61448151D03*
D11*
X106562218Y-60024646D03*
%TD*%
D10*
%TO.C,SW8*%
X178888757Y-22946101D03*
X184261906Y-23680449D03*
D11*
X188047466Y-16557982D03*
D12*
X186689967Y-12573563D03*
D13*
X182734874Y-17981487D03*
D11*
X177422282Y-19404992D03*
%TD*%
D14*
%TO.C,H11*%
X140000000Y-55000000D03*
%TD*%
D15*
%TO.C,D18*%
X192036519Y-33068109D03*
X192580039Y-35096553D03*
%TD*%
D14*
%TO.C,H4*%
X121060425Y-56136813D03*
%TD*%
D16*
%TO.C,C2*%
X149128462Y-32926925D03*
X150088462Y-32926925D03*
%TD*%
D15*
%TO.C,D16*%
X206525411Y-29185822D03*
X207068931Y-31214266D03*
%TD*%
D14*
%TO.C,H9*%
X147764575Y-26022225D03*
%TD*%
D17*
%TO.C,D11*%
X142404995Y-25091109D03*
X141861475Y-27119553D03*
%TD*%
D14*
%TO.C,H8*%
X199685055Y-52254529D03*
%TD*%
D15*
%TO.C,D4*%
X217132006Y-10814649D03*
X217675526Y-12843093D03*
%TD*%
D18*
%TO.C,J1*%
X150238393Y-21285378D03*
X156018393Y-21285378D03*
D19*
X149878393Y-22730378D03*
X150678393Y-22730378D03*
D20*
X151878393Y-22730378D03*
X152878393Y-22730378D03*
X153378393Y-22730378D03*
X154378393Y-22730378D03*
D19*
X155578393Y-22730378D03*
X156378393Y-22730378D03*
X156378393Y-22730378D03*
X155578393Y-22730378D03*
D20*
X154878393Y-22730378D03*
X153878393Y-22730378D03*
X152378393Y-22730378D03*
X151378393Y-22730378D03*
D19*
X150678393Y-22730378D03*
X149878393Y-22730378D03*
D21*
X148808393Y-17635378D03*
D22*
X148808393Y-21815378D03*
D21*
X157448393Y-17635378D03*
D22*
X157448393Y-21815378D03*
%TD*%
D23*
%TO.C,SW33*%
X149978393Y-57826925D03*
X149978393Y-51626924D03*
X146278393Y-57826926D03*
X146278393Y-51626925D03*
%TD*%
D17*
%TO.C,D31*%
X130758140Y-68557770D03*
X130214620Y-70586214D03*
%TD*%
D24*
%TO.C,U1*%
X150265895Y-34801924D03*
X150265895Y-35451924D03*
X150265895Y-36101924D03*
X150265896Y-36751924D03*
X150265896Y-37401924D03*
X150265896Y-38051924D03*
X150265895Y-38701924D03*
X150265895Y-39351924D03*
X150265895Y-40001924D03*
X150265895Y-40651924D03*
X155990895Y-40651924D03*
X155990895Y-40001924D03*
X155990895Y-39351924D03*
X155990894Y-38701924D03*
X155990894Y-38051924D03*
X155990894Y-37401924D03*
X155990895Y-36751924D03*
X155990895Y-36101924D03*
X155990895Y-35451924D03*
X155990895Y-34801924D03*
%TD*%
D17*
%TO.C,D27*%
X101780362Y-60793200D03*
X101236842Y-62821644D03*
%TD*%
D14*
%TO.C,H3*%
X106571537Y-52254528D03*
%TD*%
%TO.C,H10*%
X158492016Y-26022227D03*
%TD*%
D17*
%TO.C,D17*%
X124033823Y-35697712D03*
X123490303Y-37726156D03*
%TD*%
%TO.C,D9*%
X80567158Y-24050852D03*
X80023638Y-26079296D03*
%TD*%
D15*
%TO.C,D26*%
X181429919Y-51439283D03*
X181973439Y-53467727D03*
%TD*%
D23*
%TO.C,SW34*%
X159978393Y-57826925D03*
X159978393Y-51626924D03*
X156278393Y-57826926D03*
X156278393Y-51626925D03*
%TD*%
D14*
%TO.C,H2*%
X128824998Y-27159037D03*
%TD*%
D25*
%TO.C,R4*%
X147208466Y-19216923D03*
X147208466Y-20236923D03*
%TD*%
D15*
%TO.C,D6*%
X202643119Y-14696938D03*
X203186639Y-16725382D03*
%TD*%
%TO.C,D12*%
X173665346Y-22461509D03*
X174208866Y-24489953D03*
%TD*%
D14*
%TO.C,H1*%
X85358332Y-15512182D03*
%TD*%
D15*
%TO.C,D32*%
X185312204Y-65928171D03*
X185855724Y-67956615D03*
%TD*%
D25*
%TO.C,R5*%
X159008462Y-19216923D03*
X159008462Y-20236923D03*
%TD*%
D14*
%TO.C,H6*%
X220898259Y-15512180D03*
%TD*%
D15*
%TO.C,D22*%
X210407696Y-43674711D03*
X210951216Y-45703155D03*
%TD*%
D26*
%TO.C,R1*%
X144408463Y-54926923D03*
X144408463Y-53906923D03*
%TD*%
D17*
%TO.C,D13*%
X95056048Y-27933139D03*
X94512528Y-29961583D03*
%TD*%
%TO.C,D7*%
X127916110Y-21208824D03*
X127372590Y-23237268D03*
%TD*%
D15*
%TO.C,D10*%
X235503186Y-21421251D03*
X236046706Y-23449695D03*
%TD*%
D14*
%TO.C,H5*%
X177431599Y-27159038D03*
%TD*%
D15*
%TO.C,D28*%
X214289979Y-58163598D03*
X214833499Y-60192042D03*
%TD*%
D14*
%TO.C,H12*%
X166256587Y-55000004D03*
%TD*%
D17*
%TO.C,D5*%
X113427221Y-17326538D03*
X112883701Y-19354982D03*
%TD*%
%TO.C,D3*%
X98938335Y-13444255D03*
X98394815Y-15472699D03*
%TD*%
%TO.C,D23*%
X120151535Y-50186599D03*
X119608015Y-52215043D03*
%TD*%
D15*
%TO.C,D2*%
X231620896Y-6932364D03*
X232164416Y-8960808D03*
%TD*%
D17*
%TO.C,D21*%
X105662650Y-46304312D03*
X105119130Y-48332756D03*
%TD*%
D14*
%TO.C,H7*%
X185196166Y-56136813D03*
%TD*%
D17*
%TO.C,D25*%
X134640426Y-54068884D03*
X134096906Y-56097328D03*
%TD*%
D15*
%TO.C,D14*%
X221014296Y-25303538D03*
X221557816Y-27331982D03*
%TD*%
D17*
%TO.C,D29*%
X116269250Y-64675487D03*
X115725730Y-66703931D03*
%TD*%
D15*
%TO.C,D8*%
X188154234Y-18579220D03*
X188697754Y-20607664D03*
%TD*%
%TO.C,D20*%
X177547633Y-36950395D03*
X178091153Y-38978839D03*
%TD*%
D17*
%TO.C,D15*%
X109544937Y-31815426D03*
X109001417Y-33843870D03*
%TD*%
%TO.C,D19*%
X138522711Y-39579996D03*
X137979191Y-41608440D03*
%TD*%
D15*
%TO.C,D30*%
X199801090Y-62045883D03*
X200344610Y-64074327D03*
%TD*%
%TO.C,D24*%
X195918805Y-47556997D03*
X196462325Y-49585441D03*
%TD*%
D27*
%TO.C,C1*%
X148008463Y-35459903D03*
X148008463Y-34499903D03*
%TD*%
D17*
%TO.C,D1*%
X84449445Y-9561967D03*
X83905925Y-11590411D03*
%TD*%
M02*
