%TF.GenerationSoftware,KiCad,Pcbnew,8.0.0*%
%TF.CreationDate,2024-03-16T16:30:28-05:00*%
%TF.ProjectId,rattlemebones32,72617474-6c65-46d6-9562-6f6e65733332,rev?*%
%TF.SameCoordinates,Original*%
%TF.FileFunction,Plated,1,2,PTH,Mixed*%
%TF.FilePolarity,Positive*%
%FSLAX46Y46*%
G04 Gerber Fmt 4.6, Leading zero omitted, Abs format (unit mm)*
G04 Created by KiCad (PCBNEW 8.0.0) date 2024-03-16 16:30:28*
%MOMM*%
%LPD*%
G01*
G04 APERTURE LIST*
%TA.AperFunction,ViaDrill*%
%ADD10C,0.400000*%
%TD*%
G04 aperture for slot hole*
%TA.AperFunction,ComponentDrill*%
%ADD11C,0.600000*%
%TD*%
%TA.AperFunction,ComponentDrill*%
%ADD12C,1.270000*%
%TD*%
%TA.AperFunction,ComponentDrill*%
%ADD13C,2.500000*%
%TD*%
G04 APERTURE END LIST*
D10*
X81691121Y-26679672D03*
X85331925Y-12126080D03*
X88113056Y-18824119D03*
X93346935Y-29544019D03*
X99820813Y-16008366D03*
X102213718Y-24155295D03*
X102662844Y-63357314D03*
X106851315Y-48691650D03*
X107594341Y-33361601D03*
X114309701Y-19890651D03*
X114495434Y-66527846D03*
X117959462Y-51668069D03*
X122324711Y-37308590D03*
X128798588Y-23772937D03*
X128984322Y-70410134D03*
X130255523Y-30892617D03*
X130649870Y-29420893D03*
X132032653Y-28780607D03*
X132689832Y-55615060D03*
X136813598Y-41190876D03*
X140673140Y-30333738D03*
X141036274Y-34499755D03*
X141131479Y-26042250D03*
X141421861Y-33483490D03*
X141510417Y-32355444D03*
X142927196Y-51959904D03*
X143157189Y-39689893D03*
X143507916Y-31442524D03*
X143549664Y-27619124D03*
X144427195Y-49959903D03*
X145427196Y-28459904D03*
X146927197Y-33959902D03*
X148177196Y-20209903D03*
X148403964Y-29459903D03*
X148927198Y-33959905D03*
X149978393Y-53948084D03*
X150427198Y-29459905D03*
X150677196Y-24159905D03*
X151427199Y-49959904D03*
X151653894Y-34448084D03*
X151927197Y-20209905D03*
X152173139Y-53948083D03*
X153602894Y-34448085D03*
X153927196Y-39459903D03*
X154212752Y-38496008D03*
X154673140Y-58459905D03*
X154877197Y-20309903D03*
X154927196Y-28959905D03*
X155627195Y-24159906D03*
X157427197Y-41459905D03*
X158077197Y-20309905D03*
X158173139Y-39448085D03*
X158173139Y-40448084D03*
X159978393Y-53948085D03*
X160616600Y-21624999D03*
X161673140Y-41448084D03*
X164401128Y-33817200D03*
X165171318Y-32827881D03*
X165782861Y-34947598D03*
X169418274Y-33222916D03*
X172643762Y-24813576D03*
X177009011Y-39173054D03*
X182118628Y-31074641D03*
X182607356Y-59214193D03*
X183370816Y-53256375D03*
X184596805Y-68457015D03*
X187132649Y-20931290D03*
X191256417Y-35355473D03*
X192104275Y-23227504D03*
X195138702Y-49844360D03*
X196283992Y-25984948D03*
X199020988Y-64333248D03*
X201380055Y-17113709D03*
X205745304Y-31473187D03*
X209386108Y-46026779D03*
X210384654Y-20653772D03*
X213268394Y-60515667D03*
X216110424Y-13166719D03*
X220234191Y-27590902D03*
X221607839Y-4705577D03*
X230664016Y-9525915D03*
X234723079Y-23708616D03*
D11*
%TO.C,J1*%
X148808393Y-17935378D02*
X148808393Y-17335378D01*
X148808393Y-22365378D02*
X148808393Y-21265378D01*
X157448393Y-17935378D02*
X157448393Y-17335378D01*
X157448393Y-22365378D02*
X157448393Y-21265378D01*
D12*
%TO.C,SW9*%
X70359578Y-23199944D03*
%TO.C,SW1*%
X74241861Y-8711056D03*
%TO.C,SW9*%
X74645689Y-26522483D03*
%TO.C,SW1*%
X78527972Y-12033595D03*
%TO.C,SW13*%
X84848460Y-27082224D03*
%TO.C,SW3*%
X88730747Y-12593341D03*
%TO.C,SW13*%
X89134571Y-30404763D03*
%TO.C,SW27*%
X91572782Y-59942288D03*
%TO.C,SW3*%
X93016858Y-15915880D03*
%TO.C,SW21*%
X95455063Y-45453403D03*
%TO.C,SW27*%
X95858893Y-63264827D03*
%TO.C,SW15*%
X99337350Y-30964514D03*
%TO.C,SW21*%
X99741174Y-48775942D03*
%TO.C,SW5*%
X103219638Y-16475626D03*
%TO.C,SW15*%
X103623461Y-34287053D03*
%TO.C,SW29*%
X106061667Y-63824574D03*
%TO.C,SW5*%
X107505749Y-19798165D03*
%TO.C,SW23*%
X109943954Y-49335689D03*
%TO.C,SW29*%
X110347778Y-67147113D03*
%TO.C,SW17*%
X113826240Y-34846801D03*
%TO.C,SW23*%
X114230065Y-52658228D03*
%TO.C,SW7*%
X117708524Y-20357912D03*
%TO.C,SW17*%
X118112351Y-38169340D03*
%TO.C,SW31*%
X120550556Y-67706859D03*
%TO.C,SW7*%
X121994635Y-23680451D03*
%TO.C,SW25*%
X124432838Y-53217972D03*
%TO.C,SW31*%
X124836667Y-71029398D03*
%TO.C,SW19*%
X128315127Y-38729085D03*
%TO.C,SW25*%
X128718949Y-56540511D03*
%TO.C,SW11*%
X132197411Y-24240198D03*
%TO.C,SW19*%
X132601238Y-42051624D03*
%TO.C,SW11*%
X136483522Y-27562737D03*
%TO.C,SW12*%
X164399867Y-26828391D03*
%TO.C,SW20*%
X168282149Y-41317276D03*
%TO.C,SW12*%
X169773016Y-27562739D03*
%TO.C,SW26*%
X172164439Y-55806164D03*
%TO.C,SW20*%
X173655298Y-42051624D03*
%TO.C,SW32*%
X176046724Y-70295053D03*
%TO.C,SW26*%
X177537588Y-56540512D03*
%TO.C,SW8*%
X178888757Y-22946101D03*
%TO.C,SW32*%
X181419873Y-71029401D03*
%TO.C,SW18*%
X182771039Y-37434993D03*
%TO.C,SW8*%
X184261906Y-23680449D03*
%TO.C,SW24*%
X186653325Y-51923880D03*
%TO.C,SW18*%
X188144188Y-38169341D03*
%TO.C,SW30*%
X190535612Y-66412762D03*
%TO.C,SW24*%
X192026474Y-52658228D03*
%TO.C,SW6*%
X193377640Y-19063817D03*
%TO.C,SW30*%
X195908761Y-67147110D03*
%TO.C,SW16*%
X197259926Y-33552705D03*
%TO.C,SW6*%
X198750789Y-19798165D03*
%TO.C,SW22*%
X201142214Y-48041594D03*
%TO.C,SW16*%
X202633075Y-34287053D03*
%TO.C,SW28*%
X205024500Y-62530479D03*
%TO.C,SW22*%
X206515363Y-48775942D03*
%TO.C,SW4*%
X207866532Y-15181533D03*
%TO.C,SW28*%
X210397649Y-63264827D03*
%TO.C,SW14*%
X211748813Y-29670420D03*
%TO.C,SW4*%
X213239681Y-15915881D03*
%TO.C,SW14*%
X217121962Y-30404768D03*
%TO.C,SW2*%
X222355415Y-11299248D03*
%TO.C,SW10*%
X226237701Y-25788131D03*
%TO.C,SW2*%
X227728564Y-12033596D03*
%TO.C,SW10*%
X231610850Y-26522479D03*
D13*
%TO.C,H1*%
X85358332Y-15512182D03*
%TO.C,H3*%
X106571537Y-52254528D03*
%TO.C,H4*%
X121060425Y-56136813D03*
%TO.C,H2*%
X128824998Y-27159037D03*
%TO.C,H11*%
X140000000Y-55000000D03*
%TO.C,H9*%
X147764575Y-26022225D03*
%TO.C,H10*%
X158492016Y-26022227D03*
%TO.C,H12*%
X166256587Y-55000004D03*
%TO.C,H5*%
X177431599Y-27159038D03*
%TO.C,H7*%
X185196166Y-56136813D03*
%TO.C,H8*%
X199685055Y-52254529D03*
%TO.C,H6*%
X220898259Y-15512180D03*
M02*
