<?xml version="1.0" standalone="no"?>
 <!DOCTYPE svg PUBLIC "-//W3C//DTD SVG 1.1//EN" 
 "http://www.w3.org/Graphics/SVG/1.1/DTD/svg11.dtd"> 
<svg
  xmlns:svg="http://www.w3.org/2000/svg"
  xmlns="http://www.w3.org/2000/svg"
  xmlns:xlink="http://www.w3.org/1999/xlink"
  version="1.1"
  width="297.0022mm" height="210.0072mm" viewBox="0.0000 0.0000 297.0022 210.0072">
<title>SVG Image created as rattlemebones32-PTH-drl_map.svg date 2024/03/16 16:30:27 </title>
  <desc>Image generated by PCBNEW </desc>
<g style="fill:#000000; fill-opacity:1.0000;stroke:#000000; stroke-opacity:1.0000;
stroke-linecap:round; stroke-linejoin:round;"
 transform="translate(0 0) scale(1 1)">
</g>
<g style="fill:none; 
stroke:#000000; stroke-width:0.1516; stroke-opacity:1; 
stroke-linecap:round; stroke-linejoin:round;">
<path d="M139.1222 33.6817
L32.6079 5.1412
" />
</g>
<g style="fill:none; 
stroke:#000000; stroke-width:0.0758; stroke-opacity:1; 
stroke-linecap:round; stroke-linejoin:round;">
<path d="M268.1097 7.2924
L278.3097 45.3591
" />
<path d="M157.0953 33.7850 A3.0314 3.0314 0.0 0 0 157.8799 33.6817" />
<path d="M180.2525 118.7191
L175.7506 101.9177
" />
<path d="M238.0918 59.2746 A3.0320 3.0320 0.0 0 0 235.9478 62.9880" />
<path d="M18.6925 45.3591
L28.8944 7.2852
" />
<path d="M32.6079 5.1412 A3.0321 3.0321 0.0 0 0 28.8944 7.2852" />
<path d="M243.9910 104.7794 A3.0320 3.0320 0.0 0 0 246.1497 101.0621" />
<path d="M61.0565 62.9803 A3.0321 3.0321 0.0 0 0 58.9105 59.2746" />
<path d="M18.6925 45.3591 A3.0321 3.0321 0.0 0 0 20.8365 49.0727" />
<path d="M235.9478 62.9880
L246.1497 101.0621
" />
<path d="M276.1490 49.0771 A3.0322 3.0322 0.0 0 0 278.3097 45.3591" />
<path d="M268.1097 7.2924 A3.0320 3.0320 0.0 0 0 264.3944 5.1412" />
<path d="M172.8250 99.6821
L124.1643 99.6821
" />
<path d="M50.8527 101.0620 A3.0320 3.0320 0.0 0 0 52.9966 104.7755" />
<path d="M175.7506 101.9177 A3.0320 3.0320 0.0 0 0 172.8250 99.6821" />
<path d="M113.0241 120.8598
L52.9966 104.7755
" />
<path d="M139.1222 33.6817 A3.0320 3.0320 0.0 0 0 139.9069 33.7850" />
<path d="M243.9910 104.7794
L183.9660 120.8631
" />
<path d="M50.8526 101.0620
L61.0565 62.9803
" />
<path d="M139.9069 33.7850
L157.0953 33.7850
" />
<path d="M157.8799 33.6817
L264.3944 5.1412
" />
<path d="M276.1490 49.0771
L238.0918 59.2746
" />
<path d="M121.2485 101.9294
L116.7497 118.7190
" />
<path d="M58.9105 59.2746
L20.8365 49.0727
" />
<path d="M180.2525 118.7191 A3.0320 3.0320 0.0 0 0 183.9660 120.8631" />
<path d="M124.1643 99.6821 A3.0321 3.0321 0.0 0 0 121.2485 101.9294" />
<path d="M113.0241 120.8598 A3.0321 3.0321 0.0 0 0 116.7497 118.7190" />
</g>
<g style="fill:none; 
stroke:#000000; stroke-width:0.1516; stroke-opacity:1; 
stroke-linecap:round; stroke-linejoin:round;">
<path d="M39.8963 48.8350
L40.5027 49.4415
" />
<path d="M40.5027 48.8350
L39.8963 49.4415
" />
<path d="M45.4159 26.7712
L46.0224 27.3776
" />
<path d="M46.0224 26.7712
L45.4159 27.3776
" />
<path d="M49.6322 36.9257
L50.2387 37.5321
" />
<path d="M50.2387 36.9257
L49.6322 37.5321
" />
<path d="M57.5670 53.1775
L58.1734 53.7839
" />
<path d="M58.1734 53.1775
L57.5670 53.7839
" />
<path d="M67.3817 32.6569
L67.9881 33.2633
" />
<path d="M67.9881 32.6569
L67.3817 33.2633
" />
<path d="M71.0094 45.0080
L71.6158 45.6144
" />
<path d="M71.6158 45.0080
L71.0094 45.6144
" />
<path d="M71.6903 104.4398
L72.2967 105.0462
" />
<path d="M72.2967 104.4398
L71.6903 105.0462
" />
<path d="M78.0402 82.2061
L78.6466 82.8125
" />
<path d="M78.6466 82.2061
L78.0402 82.8125
" />
<path d="M79.1666 58.9651
L79.7730 59.5715
" />
<path d="M79.7730 58.9651
L79.1666 59.5715
" />
<path d="M89.3474 38.5426
L89.9538 39.1490
" />
<path d="M89.9538 38.5426
L89.3474 39.1490
" />
<path d="M89.6290 109.2464
L90.2354 109.8529
" />
<path d="M90.2354 109.2464
L89.6290 109.8529
" />
<path d="M94.8806 86.7184
L95.4870 87.3248
" />
<path d="M95.4870 86.7184
L94.8806 87.3248
" />
<path d="M101.4985 64.9489
L102.1049 65.5553
" />
<path d="M102.1049 64.9489
L101.4985 65.5553
" />
<path d="M111.3131 44.4283
L111.9195 45.0347
" />
<path d="M111.9195 44.4283
L111.3131 45.0347
" />
<path d="M111.5947 115.1321
L112.2011 115.7386
" />
<path d="M112.2011 115.1321
L111.5947 115.7386
" />
<path d="M113.5219 55.2220
L114.1283 55.8284
" />
<path d="M114.1283 55.2220
L113.5219 55.8284
" />
<path d="M114.1197 52.9908
L114.7261 53.5973
" />
<path d="M114.7261 52.9908
L114.1197 53.5973
" />
<path d="M116.2161 52.0201
L116.8225 52.6266
" />
<path d="M116.8225 52.0201
L116.2161 52.6266
" />
<path d="M117.2124 92.7022
L117.8188 93.3086
" />
<path d="M117.8188 92.7022
L117.2124 93.3086
" />
<path d="M123.4642 70.8346
L124.0706 71.4410
" />
<path d="M124.0706 70.8346
L123.4642 71.4410
" />
<path d="M129.3154 54.3747
L129.9218 54.9812
" />
<path d="M129.9218 54.3747
L129.3154 54.9812
" />
<path d="M129.8659 60.6906
L130.4723 61.2970
" />
<path d="M130.4723 60.6906
L129.8659 61.2970
" />
<path d="M130.0103 47.8687
L130.6167 48.4751
" />
<path d="M130.6167 47.8687
L130.0103 48.4751
" />
<path d="M130.4505 59.1499
L131.0569 59.7563
" />
<path d="M131.0569 59.1499
L130.4505 59.7563
" />
<path d="M130.5847 57.4397
L131.1912 58.0461
" />
<path d="M131.1912 57.4397
L130.5847 58.0461
" />
<path d="M132.7326 87.1609
L133.3390 87.7673
" />
<path d="M133.3390 87.1609
L132.7326 87.7673
" />
<path d="M133.0813 68.5590
L133.6877 69.1655
" />
<path d="M133.6877 68.5590
L133.0813 69.1655
" />
<path d="M133.6130 56.0557
L134.2194 56.6621
" />
<path d="M134.2194 56.0557
L133.6130 56.6621
" />
<path d="M133.6763 50.2593
L134.2827 50.8657
" />
<path d="M134.2827 50.2593
L133.6763 50.8657
" />
<path d="M135.0067 84.1288
L135.6131 84.7352
" />
<path d="M135.6131 84.1288
L135.0067 84.7352
" />
<path d="M136.5227 51.5339
L137.1291 52.1404
" />
<path d="M137.1291 51.5339
L136.5227 52.1404
" />
<path d="M138.7968 59.8722
L139.4032 60.4786
" />
<path d="M139.4032 59.8722
L138.7968 60.4786
" />
<path d="M140.6918 39.0266
L141.2983 39.6330
" />
<path d="M141.2983 39.0266
L140.6918 39.6330
" />
<path d="M141.0356 53.0500
L141.6420 53.6564
" />
<path d="M141.6420 53.0500
L141.0356 53.6564
" />
<path d="M141.8289 59.8722
L142.4353 60.4786
" />
<path d="M142.4353 59.8722
L141.8289 60.4786
" />
<path d="M143.4225 90.1750
L144.0289 90.7814
" />
<path d="M144.0289 90.1750
L143.4225 90.7814
" />
<path d="M144.1029 53.0500
L144.7093 53.6564
" />
<path d="M144.7093 53.0500
L144.1029 53.6564
" />
<path d="M144.4819 45.0150
L145.0884 45.6214
" />
<path d="M145.0884 45.0150
L144.4819 45.6214
" />
<path d="M145.6190 84.1288
L146.2254 84.7352
" />
<path d="M146.2254 84.1288
L145.6190 84.7352
" />
<path d="M145.9626 60.6123
L146.5691 61.2187
" />
<path d="M146.5691 60.6123
L145.9626 61.2187
" />
<path d="M146.3770 39.0266
L146.9834 39.6330
" />
<path d="M146.9834 39.0266
L146.3770 39.6330
" />
<path d="M146.7498 90.1750
L147.3563 90.7814
" />
<path d="M147.3563 90.1750
L146.7498 90.7814
" />
<path d="M148.9174 60.6123
L149.5238 61.2187
" />
<path d="M149.5238 60.6123
L148.9174 61.2187
" />
<path d="M149.4091 68.2104
L150.0155 68.8168
" />
<path d="M150.0155 68.2104
L149.4091 68.8168
" />
<path d="M149.8420 66.7491
L150.4484 67.3555
" />
<path d="M150.4484 66.7491
L149.8420 67.3555
" />
<path d="M150.5399 97.0151
L151.1464 97.6215
" />
<path d="M151.1464 97.0151
L150.5399 97.6215
" />
<path d="M150.8493 39.1782
L151.4557 39.7846
" />
<path d="M151.4557 39.1782
L150.8493 39.7846
" />
<path d="M150.9251 52.2920
L151.5315 52.8984
" />
<path d="M151.5315 52.2920
L150.9251 52.8984
" />
<path d="M151.9863 45.0150
L152.5927 45.6214
" />
<path d="M152.5927 45.0150
L151.9863 45.6214
" />
<path d="M154.7152 71.2425
L155.3216 71.8489
" />
<path d="M155.3216 71.2425
L154.7152 71.8489
" />
<path d="M155.7006 39.1782
L156.3070 39.7846
" />
<path d="M156.3070 39.1782
L155.7006 39.7846
" />
<path d="M155.8461 68.1925
L156.4525 68.7989
" />
<path d="M156.4525 68.1925
L155.8461 68.7989
" />
<path d="M155.8461 69.7085
L156.4525 70.3149
" />
<path d="M156.4525 69.7085
L155.8461 70.3149
" />
<path d="M158.5829 90.1750
L159.1893 90.7814
" />
<path d="M159.1893 90.1750
L158.5829 90.7814
" />
<path d="M159.5505 41.1720
L160.1569 41.7784
" />
<path d="M160.1569 41.1720
L159.5505 41.7784
" />
<path d="M161.1522 71.2245
L161.7586 71.8309
" />
<path d="M161.7586 71.2245
L161.1522 71.8309
" />
<path d="M165.2880 59.6558
L165.8944 60.2622
" />
<path d="M165.8944 59.6558
L165.2880 60.2622
" />
<path d="M166.4556 58.1560
L167.0620 58.7624
" />
<path d="M167.0620 58.1560
L166.4556 58.7624
" />
<path d="M167.3827 61.3695
L167.9891 61.9760
" />
<path d="M167.9891 61.3695
L167.3827 61.9760
" />
<path d="M172.8941 58.7549
L173.5006 59.3613
" />
<path d="M173.5006 58.7549
L172.8941 59.3613
" />
<path d="M177.7841 46.0060
L178.3905 46.6124
" />
<path d="M178.3905 46.0060
L177.7841 46.6124
" />
<path d="M184.4020 67.7755
L185.0084 68.3819
" />
<path d="M185.0084 67.7755
L184.4020 68.3819
" />
<path d="M192.1484 55.4980
L192.7548 56.1044
" />
<path d="M192.7548 55.4980
L192.1484 56.1044
" />
<path d="M192.8893 98.1587
L193.4957 98.7651
" />
<path d="M193.4957 98.1587
L192.8893 98.7651
" />
<path d="M194.0468 89.1264
L194.6532 89.7328
" />
<path d="M194.6532 89.1264
L194.0468 89.7328
" />
<path d="M195.9054 112.1711
L196.5118 112.7776
" />
<path d="M196.5118 112.1711
L195.9054 112.7776
" />
<path d="M199.7498 40.1203
L200.3563 40.7267
" />
<path d="M200.3563 40.1203
L199.7498 40.7267
" />
<path d="M206.0016 61.9879
L206.6080 62.5943
" />
<path d="M206.6080 61.9879
L206.0016 62.5943
" />
<path d="M207.2870 43.6014
L207.8934 44.2078
" />
<path d="M207.8934 43.6014
L207.2870 44.2078
" />
<path d="M211.8873 83.9536
L212.4937 84.5600
" />
<path d="M212.4937 83.9536
L211.8873 84.5600
" />
<path d="M213.6236 47.7818
L214.2300 48.3882
" />
<path d="M214.2300 47.7818
L213.6236 48.3882
" />
<path d="M217.7730 105.9193
L218.3794 106.5258
" />
<path d="M218.3794 105.9193
L217.7730 106.5258
" />
<path d="M221.3495 34.3327
L221.9559 34.9391
" />
<path d="M221.9559 34.3327
L221.3495 34.9391
" />
<path d="M227.9674 56.1022
L228.5738 56.7086
" />
<path d="M228.5738 56.1022
L227.9674 56.7086
" />
<path d="M233.4870 78.1660
L234.0934 78.7724
" />
<path d="M234.0934 78.1660
L233.4870 78.7724
" />
<path d="M235.0008 39.6995
L235.6072 40.3060
" />
<path d="M235.6072 39.6995
L235.0008 40.3060
" />
<path d="M239.3727 100.1317
L239.9791 100.7382
" />
<path d="M239.9791 100.1317
L239.3727 100.7382
" />
<path d="M243.6813 28.3489
L244.2877 28.9553
" />
<path d="M244.2877 28.3489
L243.6813 28.9553
" />
<path d="M249.9331 50.2165
L250.5395 50.8229
" />
<path d="M250.5395 50.2165
L249.9331 50.8229
" />
<path d="M252.0156 15.5214
L252.6220 16.1279
" />
<path d="M252.6220 15.5214
L252.0156 16.1279
" />
<path d="M265.7451 22.8293
L266.3515 23.4357
" />
<path d="M266.3515 22.8293
L265.7451 23.4357
" />
<path d="M271.8988 44.3308
L272.5052 44.9372
" />
<path d="M272.5052 44.3308
L271.8988 44.9372
" />
<circle cx="141.9520" cy="35.4267" r="0.4548" /> 
<path d="M141.4972 34.9719
L141.4972 35.8816
" />
<path d="M141.4972 35.8816 A0.4548 0.4548 0.0 0 0 142.4068 35.8816" />
<path d="M142.4068 35.8816
L142.4068 34.9719
" />
<path d="M142.4068 34.9719 A0.4548 0.4548 0.0 0 0 141.4972 34.9719" />
<circle cx="141.9520" cy="41.7638" r="0.4548" /> 
<path d="M141.4972 40.9300
L141.4972 42.5976
" />
<path d="M141.4972 42.5976 A0.4548 0.4548 0.0 0 0 142.4068 42.5976" />
<path d="M142.4068 42.5976
L142.4068 40.9300
" />
<path d="M142.4068 40.9300 A0.4548 0.4548 0.0 0 0 141.4972 40.9300" />
<circle cx="155.0505" cy="35.4267" r="0.4548" /> 
<path d="M154.5957 34.9719
L154.5957 35.8816
" />
<path d="M154.5957 35.8816 A0.4548 0.4548 0.0 0 0 155.5054 35.8816" />
<path d="M155.5054 35.8816
L155.5054 34.9719
" />
<path d="M155.5054 34.9719 A0.4548 0.4548 0.0 0 0 154.5957 34.9719" />
<circle cx="155.0505" cy="41.7638" r="0.4548" /> 
<path d="M154.5957 40.9300
L154.5957 42.5976
" />
<path d="M154.5957 42.5976 A0.4548 0.4548 0.0 0 0 155.5054 42.5976" />
<path d="M155.5054 42.5976
L155.5054 40.9300
" />
<path d="M155.5054 40.9300 A0.4548 0.4548 0.0 0 0 154.5957 40.9300" />
</g>
<g style="fill:none; 
stroke:#000000; stroke-width:0.1925; stroke-opacity:1; 
stroke-linecap:round; stroke-linejoin:round;">
<path d="M23.0205 42.9002
L23.0205 44.8255
" />
<path d="M22.0578 43.8628
L23.9832 43.8628
" />
<path d="M28.9062 20.9344
L28.9062 22.8598
" />
<path d="M27.9435 21.8971
L29.8689 21.8971
" />
<path d="M29.5184 47.9373
L29.5184 49.8626
" />
<path d="M28.5557 48.8999
L30.4811 48.8999
" />
<path d="M35.4041 25.9715
L35.4041 27.8969
" />
<path d="M34.4414 26.9342
L36.3668 26.9342
" />
<path d="M44.9862 48.7858
L44.9862 50.7112
" />
<path d="M44.0235 49.7485
L45.9489 49.7485
" />
<path d="M50.8719 26.8201
L50.8719 28.7455
" />
<path d="M49.9092 27.7828
L51.8346 27.7828
" />
<path d="M51.4841 53.8229
L51.4841 55.7483
" />
<path d="M50.5214 54.7856
L52.4468 54.7856
" />
<path d="M55.1805 98.6030
L55.1805 100.5284
" />
<path d="M54.2178 99.5657
L56.1432 99.5657
" />
<path d="M57.3698 31.8572
L57.3698 33.7826
" />
<path d="M56.4071 32.8199
L58.3325 32.8199
" />
<path d="M61.0662 76.6373
L61.0662 78.5626
" />
<path d="M60.1035 77.6000
L62.0289 77.6000
" />
<path d="M61.6784 103.6401
L61.6784 105.5655
" />
<path d="M60.7158 104.6028
L62.6411 104.6028
" />
<path d="M66.9519 54.6716
L66.9519 56.5969
" />
<path d="M65.9892 55.6342
L67.9146 55.6342
" />
<path d="M67.5641 81.6744
L67.5641 83.5997
" />
<path d="M66.6014 82.6371
L68.5268 82.6371
" />
<path d="M72.8376 32.7058
L72.8376 34.6312
" />
<path d="M71.8749 33.6685
L73.8003 33.6685
" />
<path d="M73.4498 59.7087
L73.4498 61.6340
" />
<path d="M72.4871 60.6713
L74.4125 60.6713
" />
<path d="M77.1462 104.4887
L77.1462 106.4141
" />
<path d="M76.1836 105.4514
L78.1089 105.4514
" />
<path d="M79.3355 37.7429
L79.3355 39.6683
" />
<path d="M78.3728 38.7056
L80.2982 38.7056
" />
<path d="M83.0319 82.5230
L83.0319 84.4483
" />
<path d="M82.0693 83.4857
L83.9946 83.4857
" />
<path d="M83.6442 109.5258
L83.6442 111.4512
" />
<path d="M82.6815 110.4885
L84.6068 110.4885
" />
<path d="M88.9176 60.5573
L88.9176 62.4826
" />
<path d="M87.9550 61.5199
L89.8803 61.5199
" />
<path d="M89.5299 87.5601
L89.5299 89.4854
" />
<path d="M88.5672 88.5228
L90.4925 88.5228
" />
<path d="M94.8033 38.5915
L94.8033 40.5169
" />
<path d="M93.8407 39.5542
L95.7660 39.5542
" />
<path d="M95.4156 65.5944
L95.4156 67.5197
" />
<path d="M94.4529 66.5570
L96.3782 66.5570
" />
<path d="M99.1120 110.3744
L99.1120 112.2998
" />
<path d="M98.1493 111.3371
L100.0747 111.3371
" />
<path d="M101.3013 43.6286
L101.3013 45.5540
" />
<path d="M100.3386 44.5913
L102.2639 44.5913
" />
<path d="M104.9977 88.4087
L104.9977 90.3340
" />
<path d="M104.0350 89.3714
L105.9604 89.3714
" />
<path d="M105.6099 115.4115
L105.6099 117.3369
" />
<path d="M104.6472 116.3742
L106.5726 116.3742
" />
<path d="M110.8834 66.4429
L110.8834 68.3683
" />
<path d="M109.9207 67.4056
L111.8461 67.4056
" />
<path d="M111.4956 93.4458
L111.4956 95.3711
" />
<path d="M110.5329 94.4085
L112.4583 94.4085
" />
<path d="M116.7691 44.4772
L116.7691 46.4026
" />
<path d="M115.8064 45.4399
L117.7317 45.4399
" />
<path d="M117.3813 71.4800
L117.3813 73.4054
" />
<path d="M116.4186 72.4427
L118.3440 72.4427
" />
<path d="M123.2670 49.5143
L123.2670 51.4397
" />
<path d="M122.3043 50.4770
L124.2297 50.4770
" />
<path d="M165.5893 48.4010
L165.5893 50.3264
" />
<path d="M164.6266 49.3637
L166.5519 49.3637
" />
<path d="M171.4749 70.3667
L171.4749 72.2921
" />
<path d="M170.5123 71.3294
L172.4376 71.3294
" />
<path d="M173.7352 49.5143
L173.7352 51.4397
" />
<path d="M172.7725 50.4770
L174.6978 50.4770
" />
<path d="M177.3607 92.3325
L177.3607 94.2578
" />
<path d="M176.3980 93.2952
L178.3233 93.2952
" />
<path d="M179.6209 71.4800
L179.6209 73.4054
" />
<path d="M178.6582 72.4427
L180.5835 72.4427
" />
<path d="M183.2463 114.2982
L183.2463 116.2236
" />
<path d="M182.2837 115.2609
L184.2090 115.2609
" />
<path d="M185.5066 93.4458
L185.5066 95.3711
" />
<path d="M184.5439 94.4085
L186.4692 94.4085
" />
<path d="M187.5550 42.5153
L187.5550 44.4407
" />
<path d="M186.5923 43.4780
L188.5177 43.4780
" />
<path d="M191.3923 115.4115
L191.3923 117.3369
" />
<path d="M190.4296 116.3742
L192.3549 116.3742
" />
<path d="M193.4407 64.4811
L193.4407 66.4064
" />
<path d="M192.4780 65.4437
L194.4034 65.4437
" />
<path d="M195.7009 43.6286
L195.7009 45.5540
" />
<path d="M194.7382 44.5913
L196.6636 44.5913
" />
<path d="M199.3264 86.4468
L199.3264 88.3721
" />
<path d="M198.3637 87.4095
L200.2891 87.4095
" />
<path d="M201.5866 65.5944
L201.5866 67.5197
" />
<path d="M200.6239 66.5570
L202.5493 66.5570
" />
<path d="M205.2121 108.4125
L205.2121 110.3379
" />
<path d="M204.2494 109.3752
L206.1748 109.3752
" />
<path d="M207.4723 87.5601
L207.4723 89.4854
" />
<path d="M206.5096 88.5228
L208.4350 88.5228
" />
<path d="M209.5207 36.6296
L209.5207 38.5550
" />
<path d="M208.5580 37.5923
L210.4834 37.5923
" />
<path d="M213.3580 109.5258
L213.3580 111.4512
" />
<path d="M212.3953 110.4885
L214.3207 110.4885
" />
<path d="M215.4064 58.5954
L215.4064 60.5207
" />
<path d="M214.4437 59.5580
L216.3691 59.5580
" />
<path d="M217.6666 37.7429
L217.6666 39.6683
" />
<path d="M216.7039 38.7056
L218.6293 38.7056
" />
<path d="M221.2921 80.5611
L221.2921 82.4864
" />
<path d="M220.3294 81.5238
L222.2548 81.5238
" />
<path d="M223.5523 59.7087
L223.5523 61.6340
" />
<path d="M222.5896 60.6713
L224.5150 60.6713
" />
<path d="M227.1778 102.5268
L227.1778 104.4522
" />
<path d="M226.2151 103.4895
L228.1405 103.4895
" />
<path d="M229.4380 81.6744
L229.4380 83.5997
" />
<path d="M228.4753 82.6371
L230.4007 82.6371
" />
<path d="M231.4864 30.7439
L231.4864 32.6693
" />
<path d="M230.5237 31.7066
L232.4491 31.7066
" />
<path d="M235.3237 103.6401
L235.3237 105.5655
" />
<path d="M234.3610 104.6028
L236.2864 104.6028
" />
<path d="M237.3721 52.7097
L237.3721 54.6350
" />
<path d="M236.4094 53.6723
L238.3348 53.6723
" />
<path d="M239.6323 31.8572
L239.6323 33.7826
" />
<path d="M238.6696 32.8199
L240.5950 32.8199
" />
<path d="M245.5180 53.8230
L245.5180 55.7483
" />
<path d="M244.5553 54.7856
L246.4807 54.7856
" />
<path d="M253.4521 24.8582
L253.4521 26.7836
" />
<path d="M252.4895 25.8209
L254.4148 25.8209
" />
<path d="M259.3378 46.8240
L259.3378 48.7493
" />
<path d="M258.3752 47.7866
L260.3005 47.7866
" />
<path d="M261.5981 25.9715
L261.5981 27.8969
" />
<path d="M260.6354 26.9342
L262.5607 26.9342
" />
<path d="M267.4837 47.9373
L267.4837 49.8626
" />
<path d="M266.5211 48.8999
L268.4464 48.8999
" />
<path style="fill:none; 
stroke:#000000; stroke-width:0.3790; stroke-opacity:1; 
stroke-linecap:round; stroke-linejoin:round;fill:none"
d="M 47.0992,33.5479
47.0992,30.8679
44.4192,30.8679
44.4192,33.5479
Z" /> 
<path style="fill:none; 
stroke:#000000; stroke-width:0.3790; stroke-opacity:1; 
stroke-linecap:round; stroke-linejoin:round;fill:none"
d="M 79.2592,89.2508
79.2592,86.5707
76.5792,86.5707
76.5792,89.2508
Z" /> 
<path style="fill:none; 
stroke:#000000; stroke-width:0.3790; stroke-opacity:1; 
stroke-linecap:round; stroke-linejoin:round;fill:none"
d="M 101.2250,95.1364
101.2250,92.4564
98.5449,92.4564
98.5449,95.1364
Z" /> 
<path style="fill:none; 
stroke:#000000; stroke-width:0.3790; stroke-opacity:1; 
stroke-linecap:round; stroke-linejoin:round;fill:none"
d="M 112.9964,51.2050
112.9964,48.5250
110.3163,48.5250
110.3163,51.2050
Z" /> 
<path style="fill:none; 
stroke:#000000; stroke-width:0.3790; stroke-opacity:1; 
stroke-linecap:round; stroke-linejoin:round;fill:none"
d="M 129.9381,93.4130
129.9381,90.7330
127.2581,90.7330
127.2581,93.4130
Z" /> 
<path style="fill:none; 
stroke:#000000; stroke-width:0.3790; stroke-opacity:1; 
stroke-linecap:round; stroke-linejoin:round;fill:none"
d="M 141.7095,49.4815
141.7095,46.8015
139.0295,46.8015
139.0295,49.4815
Z" /> 
<path style="fill:none; 
stroke:#000000; stroke-width:0.3790; stroke-opacity:1; 
stroke-linecap:round; stroke-linejoin:round;fill:none"
d="M 157.9727,49.4816
157.9727,46.8015
155.2927,46.8015
155.2927,49.4816
Z" /> 
<path style="fill:none; 
stroke:#000000; stroke-width:0.3790; stroke-opacity:1; 
stroke-linecap:round; stroke-linejoin:round;fill:none"
d="M 169.7441,93.4130
169.7441,90.7330
167.0641,90.7330
167.0641,93.4130
Z" /> 
<path style="fill:none; 
stroke:#000000; stroke-width:0.3790; stroke-opacity:1; 
stroke-linecap:round; stroke-linejoin:round;fill:none"
d="M 186.6859,51.2050
186.6859,48.5250
184.0059,48.5250
184.0059,51.2050
Z" /> 
<path style="fill:none; 
stroke:#000000; stroke-width:0.3790; stroke-opacity:1; 
stroke-linecap:round; stroke-linejoin:round;fill:none"
d="M 198.4573,95.1364
198.4573,92.4564
195.7772,92.4564
195.7772,95.1364
Z" /> 
<path style="fill:none; 
stroke:#000000; stroke-width:0.3790; stroke-opacity:1; 
stroke-linecap:round; stroke-linejoin:round;fill:none"
d="M 220.4230,89.2508
220.4230,86.5707
217.7430,86.5707
217.7430,89.2508
Z" /> 
<path style="fill:none; 
stroke:#000000; stroke-width:0.3790; stroke-opacity:1; 
stroke-linecap:round; stroke-linejoin:round;fill:none"
d="M 252.5831,33.5479
252.5831,30.8679
249.9030,30.8679
249.9030,33.5479
Z" /> 
</g>
<g style="fill:none; 
stroke:#000000; stroke-width:0.2000; stroke-opacity:1; 
stroke-linecap:round; stroke-linejoin:round;">
<text x="20.5513" y="124.2043"
textLength="14.8667" font-size="2.6667" lengthAdjust="spacingAndGlyphs"
text-anchor="start" opacity="0">Drill Map:</text>
<g class="stroked-text"><desc>Drill Map:</desc>
<path d="M21.1591 124.1192
L21.1591 122.1192
" />
<path d="M21.1591 122.1192
L21.6353 122.1192
" />
<path d="M21.6353 122.1192
L21.9210 122.2144
" />
<path d="M21.9210 122.2144
L22.1114 122.4049
" />
<path d="M22.1114 122.4049
L22.2067 122.5953
" />
<path d="M22.2067 122.5953
L22.3019 122.9763
" />
<path d="M22.3019 122.9763
L22.3019 123.2620
" />
<path d="M22.3019 123.2620
L22.2067 123.6430
" />
<path d="M22.2067 123.6430
L22.1114 123.8334
" />
<path d="M22.1114 123.8334
L21.9210 124.0239
" />
<path d="M21.9210 124.0239
L21.6353 124.1192
" />
<path d="M21.6353 124.1192
L21.1591 124.1192
" />
<path d="M23.1591 124.1192
L23.1591 122.7858
" />
<path d="M23.1591 123.1668
L23.2543 122.9763
" />
<path d="M23.2543 122.9763
L23.3495 122.8811
" />
<path d="M23.3495 122.8811
L23.5400 122.7858
" />
<path d="M23.5400 122.7858
L23.7305 122.7858
" />
<path d="M24.3972 124.1192
L24.3972 122.7858
" />
<path d="M24.3972 122.1192
L24.3019 122.2144
" />
<path d="M24.3019 122.2144
L24.3972 122.3096
" />
<path d="M24.3972 122.3096
L24.4924 122.2144
" />
<path d="M24.4924 122.2144
L24.3972 122.1192
" />
<path d="M24.3972 122.1192
L24.3972 122.3096
" />
<path d="M25.6353 124.1192
L25.4448 124.0239
" />
<path d="M25.4448 124.0239
L25.3495 123.8334
" />
<path d="M25.3495 123.8334
L25.3495 122.1192
" />
<path d="M26.6829 124.1192
L26.4924 124.0239
" />
<path d="M26.4924 124.0239
L26.3972 123.8334
" />
<path d="M26.3972 123.8334
L26.3972 122.1192
" />
<path d="M28.9686 124.1192
L28.9686 122.1192
" />
<path d="M28.9686 122.1192
L29.6353 123.5477
" />
<path d="M29.6353 123.5477
L30.3019 122.1192
" />
<path d="M30.3019 122.1192
L30.3019 124.1192
" />
<path d="M32.1114 124.1192
L32.1114 123.0715
" />
<path d="M32.1114 123.0715
L32.0162 122.8811
" />
<path d="M32.0162 122.8811
L31.8257 122.7858
" />
<path d="M31.8257 122.7858
L31.4448 122.7858
" />
<path d="M31.4448 122.7858
L31.2543 122.8811
" />
<path d="M32.1114 124.0239
L31.9210 124.1192
" />
<path d="M31.9210 124.1192
L31.4448 124.1192
" />
<path d="M31.4448 124.1192
L31.2543 124.0239
" />
<path d="M31.2543 124.0239
L31.1591 123.8334
" />
<path d="M31.1591 123.8334
L31.1591 123.6430
" />
<path d="M31.1591 123.6430
L31.2543 123.4525
" />
<path d="M31.2543 123.4525
L31.4448 123.3573
" />
<path d="M31.4448 123.3573
L31.9210 123.3573
" />
<path d="M31.9210 123.3573
L32.1114 123.2620
" />
<path d="M33.0638 122.7858
L33.0638 124.7858
" />
<path d="M33.0638 122.8811
L33.2543 122.7858
" />
<path d="M33.2543 122.7858
L33.6353 122.7858
" />
<path d="M33.6353 122.7858
L33.8257 122.8811
" />
<path d="M33.8257 122.8811
L33.9210 122.9763
" />
<path d="M33.9210 122.9763
L34.0162 123.1668
" />
<path d="M34.0162 123.1668
L34.0162 123.7382
" />
<path d="M34.0162 123.7382
L33.9210 123.9287
" />
<path d="M33.9210 123.9287
L33.8257 124.0239
" />
<path d="M33.8257 124.0239
L33.6353 124.1192
" />
<path d="M33.6353 124.1192
L33.2543 124.1192
" />
<path d="M33.2543 124.1192
L33.0638 124.0239
" />
<path d="M34.8733 123.9287
L34.9686 124.0239
" />
<path d="M34.9686 124.0239
L34.8733 124.1192
" />
<path d="M34.8733 124.1192
L34.7781 124.0239
" />
<path d="M34.7781 124.0239
L34.8733 123.9287
" />
<path d="M34.8733 123.9287
L34.8733 124.1192
" />
<path d="M34.8733 122.8811
L34.9686 122.9763
" />
<path d="M34.9686 122.9763
L34.8733 123.0715
" />
<path d="M34.8733 123.0715
L34.7781 122.9763
" />
<path d="M34.7781 122.9763
L34.8733 122.8811
" />
<path d="M34.8733 122.8811
L34.8733 123.0715
" />
</g></g>
<g style="fill:none; 
stroke:#000000; stroke-width:0.1516; stroke-opacity:1; 
stroke-linecap:round; stroke-linejoin:round;">
<path d="M17.9449 127.1011
L18.5513 127.7075
" />
<path d="M18.5513 127.1011
L17.9449 127.7075
" />
</g>
<g style="fill:none; 
stroke:#000000; stroke-width:0.2000; stroke-opacity:1; 
stroke-linecap:round; stroke-linejoin:round;">
<text x="20.5513" y="128.4043"
textLength="48.7714" font-size="2.6667" lengthAdjust="spacingAndGlyphs"
text-anchor="start" opacity="0">0.400mm / 0.0157" (82 holes)</text>
<g class="stroked-text"><desc>0.400mm / 0.0157" (82 holes)</desc>
<path d="M21.5400 126.3192
L21.7305 126.3192
" />
<path d="M21.7305 126.3192
L21.9210 126.4144
" />
<path d="M21.9210 126.4144
L22.0162 126.5096
" />
<path d="M22.0162 126.5096
L22.1114 126.7001
" />
<path d="M22.1114 126.7001
L22.2067 127.0811
" />
<path d="M22.2067 127.0811
L22.2067 127.5573
" />
<path d="M22.2067 127.5573
L22.1114 127.9382
" />
<path d="M22.1114 127.9382
L22.0162 128.1287
" />
<path d="M22.0162 128.1287
L21.9210 128.2239
" />
<path d="M21.9210 128.2239
L21.7305 128.3192
" />
<path d="M21.7305 128.3192
L21.5400 128.3192
" />
<path d="M21.5400 128.3192
L21.3495 128.2239
" />
<path d="M21.3495 128.2239
L21.2543 128.1287
" />
<path d="M21.2543 128.1287
L21.1591 127.9382
" />
<path d="M21.1591 127.9382
L21.0638 127.5573
" />
<path d="M21.0638 127.5573
L21.0638 127.0811
" />
<path d="M21.0638 127.0811
L21.1591 126.7001
" />
<path d="M21.1591 126.7001
L21.2543 126.5096
" />
<path d="M21.2543 126.5096
L21.3495 126.4144
" />
<path d="M21.3495 126.4144
L21.5400 126.3192
" />
<path d="M23.0638 128.1287
L23.1591 128.2239
" />
<path d="M23.1591 128.2239
L23.0638 128.3192
" />
<path d="M23.0638 128.3192
L22.9686 128.2239
" />
<path d="M22.9686 128.2239
L23.0638 128.1287
" />
<path d="M23.0638 128.1287
L23.0638 128.3192
" />
<path d="M24.8733 126.9858
L24.8733 128.3192
" />
<path d="M24.3972 126.2239
L23.9210 127.6525
" />
<path d="M23.9210 127.6525
L25.1591 127.6525
" />
<path d="M26.3019 126.3192
L26.4924 126.3192
" />
<path d="M26.4924 126.3192
L26.6829 126.4144
" />
<path d="M26.6829 126.4144
L26.7781 126.5096
" />
<path d="M26.7781 126.5096
L26.8734 126.7001
" />
<path d="M26.8734 126.7001
L26.9686 127.0811
" />
<path d="M26.9686 127.0811
L26.9686 127.5573
" />
<path d="M26.9686 127.5573
L26.8734 127.9382
" />
<path d="M26.8734 127.9382
L26.7781 128.1287
" />
<path d="M26.7781 128.1287
L26.6829 128.2239
" />
<path d="M26.6829 128.2239
L26.4924 128.3192
" />
<path d="M26.4924 128.3192
L26.3019 128.3192
" />
<path d="M26.3019 128.3192
L26.1114 128.2239
" />
<path d="M26.1114 128.2239
L26.0162 128.1287
" />
<path d="M26.0162 128.1287
L25.9210 127.9382
" />
<path d="M25.9210 127.9382
L25.8257 127.5573
" />
<path d="M25.8257 127.5573
L25.8257 127.0811
" />
<path d="M25.8257 127.0811
L25.9210 126.7001
" />
<path d="M25.9210 126.7001
L26.0162 126.5096
" />
<path d="M26.0162 126.5096
L26.1114 126.4144
" />
<path d="M26.1114 126.4144
L26.3019 126.3192
" />
<path d="M28.2067 126.3192
L28.3972 126.3192
" />
<path d="M28.3972 126.3192
L28.5876 126.4144
" />
<path d="M28.5876 126.4144
L28.6829 126.5096
" />
<path d="M28.6829 126.5096
L28.7781 126.7001
" />
<path d="M28.7781 126.7001
L28.8734 127.0811
" />
<path d="M28.8734 127.0811
L28.8734 127.5573
" />
<path d="M28.8734 127.5573
L28.7781 127.9382
" />
<path d="M28.7781 127.9382
L28.6829 128.1287
" />
<path d="M28.6829 128.1287
L28.5876 128.2239
" />
<path d="M28.5876 128.2239
L28.3972 128.3192
" />
<path d="M28.3972 128.3192
L28.2067 128.3192
" />
<path d="M28.2067 128.3192
L28.0162 128.2239
" />
<path d="M28.0162 128.2239
L27.9210 128.1287
" />
<path d="M27.9210 128.1287
L27.8257 127.9382
" />
<path d="M27.8257 127.9382
L27.7305 127.5573
" />
<path d="M27.7305 127.5573
L27.7305 127.0811
" />
<path d="M27.7305 127.0811
L27.8257 126.7001
" />
<path d="M27.8257 126.7001
L27.9210 126.5096
" />
<path d="M27.9210 126.5096
L28.0162 126.4144
" />
<path d="M28.0162 126.4144
L28.2067 126.3192
" />
<path d="M29.7305 128.3192
L29.7305 126.9858
" />
<path d="M29.7305 127.1763
L29.8257 127.0811
" />
<path d="M29.8257 127.0811
L30.0162 126.9858
" />
<path d="M30.0162 126.9858
L30.3019 126.9858
" />
<path d="M30.3019 126.9858
L30.4924 127.0811
" />
<path d="M30.4924 127.0811
L30.5876 127.2715
" />
<path d="M30.5876 127.2715
L30.5876 128.3192
" />
<path d="M30.5876 127.2715
L30.6829 127.0811
" />
<path d="M30.6829 127.0811
L30.8734 126.9858
" />
<path d="M30.8734 126.9858
L31.1591 126.9858
" />
<path d="M31.1591 126.9858
L31.3495 127.0811
" />
<path d="M31.3495 127.0811
L31.4448 127.2715
" />
<path d="M31.4448 127.2715
L31.4448 128.3192
" />
<path d="M32.3972 128.3192
L32.3972 126.9858
" />
<path d="M32.3972 127.1763
L32.4924 127.0811
" />
<path d="M32.4924 127.0811
L32.6829 126.9858
" />
<path d="M32.6829 126.9858
L32.9686 126.9858
" />
<path d="M32.9686 126.9858
L33.1591 127.0811
" />
<path d="M33.1591 127.0811
L33.2543 127.2715
" />
<path d="M33.2543 127.2715
L33.2543 128.3192
" />
<path d="M33.2543 127.2715
L33.3495 127.0811
" />
<path d="M33.3495 127.0811
L33.5400 126.9858
" />
<path d="M33.5400 126.9858
L33.8257 126.9858
" />
<path d="M33.8257 126.9858
L34.0162 127.0811
" />
<path d="M34.0162 127.0811
L34.1114 127.2715
" />
<path d="M34.1114 127.2715
L34.1114 128.3192
" />
<path d="M38.0162 126.2239
L36.3019 128.7954
" />
<path d="M40.5876 126.3192
L40.7781 126.3192
" />
<path d="M40.7781 126.3192
L40.9686 126.4144
" />
<path d="M40.9686 126.4144
L41.0638 126.5096
" />
<path d="M41.0638 126.5096
L41.1591 126.7001
" />
<path d="M41.1591 126.7001
L41.2543 127.0811
" />
<path d="M41.2543 127.0811
L41.2543 127.5573
" />
<path d="M41.2543 127.5573
L41.1591 127.9382
" />
<path d="M41.1591 127.9382
L41.0638 128.1287
" />
<path d="M41.0638 128.1287
L40.9686 128.2239
" />
<path d="M40.9686 128.2239
L40.7781 128.3192
" />
<path d="M40.7781 128.3192
L40.5876 128.3192
" />
<path d="M40.5876 128.3192
L40.3972 128.2239
" />
<path d="M40.3972 128.2239
L40.3019 128.1287
" />
<path d="M40.3019 128.1287
L40.2067 127.9382
" />
<path d="M40.2067 127.9382
L40.1114 127.5573
" />
<path d="M40.1114 127.5573
L40.1114 127.0811
" />
<path d="M40.1114 127.0811
L40.2067 126.7001
" />
<path d="M40.2067 126.7001
L40.3019 126.5096
" />
<path d="M40.3019 126.5096
L40.3972 126.4144
" />
<path d="M40.3972 126.4144
L40.5876 126.3192
" />
<path d="M42.1114 128.1287
L42.2067 128.2239
" />
<path d="M42.2067 128.2239
L42.1114 128.3192
" />
<path d="M42.1114 128.3192
L42.0162 128.2239
" />
<path d="M42.0162 128.2239
L42.1114 128.1287
" />
<path d="M42.1114 128.1287
L42.1114 128.3192
" />
<path d="M43.4448 126.3192
L43.6353 126.3192
" />
<path d="M43.6353 126.3192
L43.8257 126.4144
" />
<path d="M43.8257 126.4144
L43.9210 126.5096
" />
<path d="M43.9210 126.5096
L44.0162 126.7001
" />
<path d="M44.0162 126.7001
L44.1114 127.0811
" />
<path d="M44.1114 127.0811
L44.1114 127.5573
" />
<path d="M44.1114 127.5573
L44.0162 127.9382
" />
<path d="M44.0162 127.9382
L43.9210 128.1287
" />
<path d="M43.9210 128.1287
L43.8257 128.2239
" />
<path d="M43.8257 128.2239
L43.6353 128.3192
" />
<path d="M43.6353 128.3192
L43.4448 128.3192
" />
<path d="M43.4448 128.3192
L43.2543 128.2239
" />
<path d="M43.2543 128.2239
L43.1591 128.1287
" />
<path d="M43.1591 128.1287
L43.0638 127.9382
" />
<path d="M43.0638 127.9382
L42.9686 127.5573
" />
<path d="M42.9686 127.5573
L42.9686 127.0811
" />
<path d="M42.9686 127.0811
L43.0638 126.7001
" />
<path d="M43.0638 126.7001
L43.1591 126.5096
" />
<path d="M43.1591 126.5096
L43.2543 126.4144
" />
<path d="M43.2543 126.4144
L43.4448 126.3192
" />
<path d="M46.0162 128.3192
L44.8734 128.3192
" />
<path d="M45.4448 128.3192
L45.4448 126.3192
" />
<path d="M45.4448 126.3192
L45.2543 126.6049
" />
<path d="M45.2543 126.6049
L45.0638 126.7954
" />
<path d="M45.0638 126.7954
L44.8734 126.8906
" />
<path d="M47.8257 126.3192
L46.8734 126.3192
" />
<path d="M46.8734 126.3192
L46.7781 127.2715
" />
<path d="M46.7781 127.2715
L46.8734 127.1763
" />
<path d="M46.8734 127.1763
L47.0638 127.0811
" />
<path d="M47.0638 127.0811
L47.5400 127.0811
" />
<path d="M47.5400 127.0811
L47.7305 127.1763
" />
<path d="M47.7305 127.1763
L47.8257 127.2715
" />
<path d="M47.8257 127.2715
L47.9210 127.4620
" />
<path d="M47.9210 127.4620
L47.9210 127.9382
" />
<path d="M47.9210 127.9382
L47.8257 128.1287
" />
<path d="M47.8257 128.1287
L47.7305 128.2239
" />
<path d="M47.7305 128.2239
L47.5400 128.3192
" />
<path d="M47.5400 128.3192
L47.0638 128.3192
" />
<path d="M47.0638 128.3192
L46.8734 128.2239
" />
<path d="M46.8734 128.2239
L46.7781 128.1287
" />
<path d="M48.5876 126.3192
L49.9210 126.3192
" />
<path d="M49.9210 126.3192
L49.0638 128.3192
" />
<path d="M50.5876 126.3192
L50.5876 126.7001
" />
<path d="M51.3495 126.3192
L51.3495 126.7001
" />
<path d="M54.3019 129.0811
L54.2067 128.9858
" />
<path d="M54.2067 128.9858
L54.0162 128.7001
" />
<path d="M54.0162 128.7001
L53.9210 128.5096
" />
<path d="M53.9210 128.5096
L53.8257 128.2239
" />
<path d="M53.8257 128.2239
L53.7305 127.7477
" />
<path d="M53.7305 127.7477
L53.7305 127.3668
" />
<path d="M53.7305 127.3668
L53.8257 126.8906
" />
<path d="M53.8257 126.8906
L53.9210 126.6049
" />
<path d="M53.9210 126.6049
L54.0162 126.4144
" />
<path d="M54.0162 126.4144
L54.2067 126.1287
" />
<path d="M54.2067 126.1287
L54.3019 126.0334
" />
<path d="M55.3495 127.1763
L55.1591 127.0811
" />
<path d="M55.1591 127.0811
L55.0638 126.9858
" />
<path d="M55.0638 126.9858
L54.9686 126.7954
" />
<path d="M54.9686 126.7954
L54.9686 126.7001
" />
<path d="M54.9686 126.7001
L55.0638 126.5096
" />
<path d="M55.0638 126.5096
L55.1591 126.4144
" />
<path d="M55.1591 126.4144
L55.3495 126.3192
" />
<path d="M55.3495 126.3192
L55.7305 126.3192
" />
<path d="M55.7305 126.3192
L55.9210 126.4144
" />
<path d="M55.9210 126.4144
L56.0162 126.5096
" />
<path d="M56.0162 126.5096
L56.1114 126.7001
" />
<path d="M56.1114 126.7001
L56.1114 126.7954
" />
<path d="M56.1114 126.7954
L56.0162 126.9858
" />
<path d="M56.0162 126.9858
L55.9210 127.0811
" />
<path d="M55.9210 127.0811
L55.7305 127.1763
" />
<path d="M55.7305 127.1763
L55.3495 127.1763
" />
<path d="M55.3495 127.1763
L55.1591 127.2715
" />
<path d="M55.1591 127.2715
L55.0638 127.3668
" />
<path d="M55.0638 127.3668
L54.9686 127.5573
" />
<path d="M54.9686 127.5573
L54.9686 127.9382
" />
<path d="M54.9686 127.9382
L55.0638 128.1287
" />
<path d="M55.0638 128.1287
L55.1591 128.2239
" />
<path d="M55.1591 128.2239
L55.3495 128.3192
" />
<path d="M55.3495 128.3192
L55.7305 128.3192
" />
<path d="M55.7305 128.3192
L55.9210 128.2239
" />
<path d="M55.9210 128.2239
L56.0162 128.1287
" />
<path d="M56.0162 128.1287
L56.1114 127.9382
" />
<path d="M56.1114 127.9382
L56.1114 127.5573
" />
<path d="M56.1114 127.5573
L56.0162 127.3668
" />
<path d="M56.0162 127.3668
L55.9210 127.2715
" />
<path d="M55.9210 127.2715
L55.7305 127.1763
" />
<path d="M56.8734 126.5096
L56.9686 126.4144
" />
<path d="M56.9686 126.4144
L57.1591 126.3192
" />
<path d="M57.1591 126.3192
L57.6353 126.3192
" />
<path d="M57.6353 126.3192
L57.8257 126.4144
" />
<path d="M57.8257 126.4144
L57.9210 126.5096
" />
<path d="M57.9210 126.5096
L58.0162 126.7001
" />
<path d="M58.0162 126.7001
L58.0162 126.8906
" />
<path d="M58.0162 126.8906
L57.9210 127.1763
" />
<path d="M57.9210 127.1763
L56.7781 128.3192
" />
<path d="M56.7781 128.3192
L58.0162 128.3192
" />
<path d="M60.3972 128.3192
L60.3972 126.3192
" />
<path d="M61.2543 128.3192
L61.2543 127.2715
" />
<path d="M61.2543 127.2715
L61.1591 127.0811
" />
<path d="M61.1591 127.0811
L60.9686 126.9858
" />
<path d="M60.9686 126.9858
L60.6829 126.9858
" />
<path d="M60.6829 126.9858
L60.4924 127.0811
" />
<path d="M60.4924 127.0811
L60.3972 127.1763
" />
<path d="M62.4924 128.3192
L62.3019 128.2239
" />
<path d="M62.3019 128.2239
L62.2067 128.1287
" />
<path d="M62.2067 128.1287
L62.1114 127.9382
" />
<path d="M62.1114 127.9382
L62.1114 127.3668
" />
<path d="M62.1114 127.3668
L62.2067 127.1763
" />
<path d="M62.2067 127.1763
L62.3019 127.0811
" />
<path d="M62.3019 127.0811
L62.4924 126.9858
" />
<path d="M62.4924 126.9858
L62.7781 126.9858
" />
<path d="M62.7781 126.9858
L62.9686 127.0811
" />
<path d="M62.9686 127.0811
L63.0638 127.1763
" />
<path d="M63.0638 127.1763
L63.1591 127.3668
" />
<path d="M63.1591 127.3668
L63.1591 127.9382
" />
<path d="M63.1591 127.9382
L63.0638 128.1287
" />
<path d="M63.0638 128.1287
L62.9686 128.2239
" />
<path d="M62.9686 128.2239
L62.7781 128.3192
" />
<path d="M62.7781 128.3192
L62.4924 128.3192
" />
<path d="M64.3019 128.3192
L64.1114 128.2239
" />
<path d="M64.1114 128.2239
L64.0162 128.0334
" />
<path d="M64.0162 128.0334
L64.0162 126.3192
" />
<path d="M65.8257 128.2239
L65.6353 128.3192
" />
<path d="M65.6353 128.3192
L65.2543 128.3192
" />
<path d="M65.2543 128.3192
L65.0638 128.2239
" />
<path d="M65.0638 128.2239
L64.9686 128.0334
" />
<path d="M64.9686 128.0334
L64.9686 127.2715
" />
<path d="M64.9686 127.2715
L65.0638 127.0811
" />
<path d="M65.0638 127.0811
L65.2543 126.9858
" />
<path d="M65.2543 126.9858
L65.6353 126.9858
" />
<path d="M65.6353 126.9858
L65.8257 127.0811
" />
<path d="M65.8257 127.0811
L65.9210 127.2715
" />
<path d="M65.9210 127.2715
L65.9210 127.4620
" />
<path d="M65.9210 127.4620
L64.9686 127.6525
" />
<path d="M66.6829 128.2239
L66.8734 128.3192
" />
<path d="M66.8734 128.3192
L67.2543 128.3192
" />
<path d="M67.2543 128.3192
L67.4448 128.2239
" />
<path d="M67.4448 128.2239
L67.5400 128.0334
" />
<path d="M67.5400 128.0334
L67.5400 127.9382
" />
<path d="M67.5400 127.9382
L67.4448 127.7477
" />
<path d="M67.4448 127.7477
L67.2543 127.6525
" />
<path d="M67.2543 127.6525
L66.9686 127.6525
" />
<path d="M66.9686 127.6525
L66.7781 127.5573
" />
<path d="M66.7781 127.5573
L66.6829 127.3668
" />
<path d="M66.6829 127.3668
L66.6829 127.2715
" />
<path d="M66.6829 127.2715
L66.7781 127.0811
" />
<path d="M66.7781 127.0811
L66.9686 126.9858
" />
<path d="M66.9686 126.9858
L67.2543 126.9858
" />
<path d="M67.2543 126.9858
L67.4448 127.0811
" />
<path d="M68.2067 129.0811
L68.3019 128.9858
" />
<path d="M68.3019 128.9858
L68.4924 128.7001
" />
<path d="M68.4924 128.7001
L68.5876 128.5096
" />
<path d="M68.5876 128.5096
L68.6829 128.2239
" />
<path d="M68.6829 128.2239
L68.7781 127.7477
" />
<path d="M68.7781 127.7477
L68.7781 127.3668
" />
<path d="M68.7781 127.3668
L68.6829 126.8906
" />
<path d="M68.6829 126.8906
L68.5876 126.6049
" />
<path d="M68.5876 126.6049
L68.4924 126.4144
" />
<path d="M68.4924 126.4144
L68.3019 126.1287
" />
<path d="M68.3019 126.1287
L68.2067 126.0334
" />
</g></g>
<g style="fill:none; 
stroke:#000000; stroke-width:0.1516; stroke-opacity:1; 
stroke-linecap:round; stroke-linejoin:round;">
<circle cx="18.0965" cy="130.0443" r="0.4548" /> 
</g>
<g style="fill:none; 
stroke:#000000; stroke-width:0.2000; stroke-opacity:1; 
stroke-linecap:round; stroke-linejoin:round;">
<text x="20.5513" y="131.0443"
textLength="63.0571" font-size="2.6667" lengthAdjust="spacingAndGlyphs"
text-anchor="start" opacity="0">0.600mm / 0.0236" (0 holes + 4 slots)</text>
<g class="stroked-text"><desc>0.600mm / 0.0236" (0 holes + 4 slots)</desc>
<path d="M21.5400 128.9592
L21.7305 128.9592
" />
<path d="M21.7305 128.9592
L21.9210 129.0544
" />
<path d="M21.9210 129.0544
L22.0162 129.1496
" />
<path d="M22.0162 129.1496
L22.1114 129.3401
" />
<path d="M22.1114 129.3401
L22.2067 129.7211
" />
<path d="M22.2067 129.7211
L22.2067 130.1973
" />
<path d="M22.2067 130.1973
L22.1114 130.5782
" />
<path d="M22.1114 130.5782
L22.0162 130.7687
" />
<path d="M22.0162 130.7687
L21.9210 130.8639
" />
<path d="M21.9210 130.8639
L21.7305 130.9592
" />
<path d="M21.7305 130.9592
L21.5400 130.9592
" />
<path d="M21.5400 130.9592
L21.3495 130.8639
" />
<path d="M21.3495 130.8639
L21.2543 130.7687
" />
<path d="M21.2543 130.7687
L21.1591 130.5782
" />
<path d="M21.1591 130.5782
L21.0638 130.1973
" />
<path d="M21.0638 130.1973
L21.0638 129.7211
" />
<path d="M21.0638 129.7211
L21.1591 129.3401
" />
<path d="M21.1591 129.3401
L21.2543 129.1496
" />
<path d="M21.2543 129.1496
L21.3495 129.0544
" />
<path d="M21.3495 129.0544
L21.5400 128.9592
" />
<path d="M23.0638 130.7687
L23.1591 130.8639
" />
<path d="M23.1591 130.8639
L23.0638 130.9592
" />
<path d="M23.0638 130.9592
L22.9686 130.8639
" />
<path d="M22.9686 130.8639
L23.0638 130.7687
" />
<path d="M23.0638 130.7687
L23.0638 130.9592
" />
<path d="M24.8733 128.9592
L24.4924 128.9592
" />
<path d="M24.4924 128.9592
L24.3019 129.0544
" />
<path d="M24.3019 129.0544
L24.2067 129.1496
" />
<path d="M24.2067 129.1496
L24.0162 129.4354
" />
<path d="M24.0162 129.4354
L23.9210 129.8163
" />
<path d="M23.9210 129.8163
L23.9210 130.5782
" />
<path d="M23.9210 130.5782
L24.0162 130.7687
" />
<path d="M24.0162 130.7687
L24.1114 130.8639
" />
<path d="M24.1114 130.8639
L24.3019 130.9592
" />
<path d="M24.3019 130.9592
L24.6829 130.9592
" />
<path d="M24.6829 130.9592
L24.8733 130.8639
" />
<path d="M24.8733 130.8639
L24.9686 130.7687
" />
<path d="M24.9686 130.7687
L25.0638 130.5782
" />
<path d="M25.0638 130.5782
L25.0638 130.1020
" />
<path d="M25.0638 130.1020
L24.9686 129.9115
" />
<path d="M24.9686 129.9115
L24.8733 129.8163
" />
<path d="M24.8733 129.8163
L24.6829 129.7211
" />
<path d="M24.6829 129.7211
L24.3019 129.7211
" />
<path d="M24.3019 129.7211
L24.1114 129.8163
" />
<path d="M24.1114 129.8163
L24.0162 129.9115
" />
<path d="M24.0162 129.9115
L23.9210 130.1020
" />
<path d="M26.3019 128.9592
L26.4924 128.9592
" />
<path d="M26.4924 128.9592
L26.6829 129.0544
" />
<path d="M26.6829 129.0544
L26.7781 129.1496
" />
<path d="M26.7781 129.1496
L26.8734 129.3401
" />
<path d="M26.8734 129.3401
L26.9686 129.7211
" />
<path d="M26.9686 129.7211
L26.9686 130.1973
" />
<path d="M26.9686 130.1973
L26.8734 130.5782
" />
<path d="M26.8734 130.5782
L26.7781 130.7687
" />
<path d="M26.7781 130.7687
L26.6829 130.8639
" />
<path d="M26.6829 130.8639
L26.4924 130.9592
" />
<path d="M26.4924 130.9592
L26.3019 130.9592
" />
<path d="M26.3019 130.9592
L26.1114 130.8639
" />
<path d="M26.1114 130.8639
L26.0162 130.7687
" />
<path d="M26.0162 130.7687
L25.9210 130.5782
" />
<path d="M25.9210 130.5782
L25.8257 130.1973
" />
<path d="M25.8257 130.1973
L25.8257 129.7211
" />
<path d="M25.8257 129.7211
L25.9210 129.3401
" />
<path d="M25.9210 129.3401
L26.0162 129.1496
" />
<path d="M26.0162 129.1496
L26.1114 129.0544
" />
<path d="M26.1114 129.0544
L26.3019 128.9592
" />
<path d="M28.2067 128.9592
L28.3972 128.9592
" />
<path d="M28.3972 128.9592
L28.5876 129.0544
" />
<path d="M28.5876 129.0544
L28.6829 129.1496
" />
<path d="M28.6829 129.1496
L28.7781 129.3401
" />
<path d="M28.7781 129.3401
L28.8734 129.7211
" />
<path d="M28.8734 129.7211
L28.8734 130.1973
" />
<path d="M28.8734 130.1973
L28.7781 130.5782
" />
<path d="M28.7781 130.5782
L28.6829 130.7687
" />
<path d="M28.6829 130.7687
L28.5876 130.8639
" />
<path d="M28.5876 130.8639
L28.3972 130.9592
" />
<path d="M28.3972 130.9592
L28.2067 130.9592
" />
<path d="M28.2067 130.9592
L28.0162 130.8639
" />
<path d="M28.0162 130.8639
L27.9210 130.7687
" />
<path d="M27.9210 130.7687
L27.8257 130.5782
" />
<path d="M27.8257 130.5782
L27.7305 130.1973
" />
<path d="M27.7305 130.1973
L27.7305 129.7211
" />
<path d="M27.7305 129.7211
L27.8257 129.3401
" />
<path d="M27.8257 129.3401
L27.9210 129.1496
" />
<path d="M27.9210 129.1496
L28.0162 129.0544
" />
<path d="M28.0162 129.0544
L28.2067 128.9592
" />
<path d="M29.7305 130.9592
L29.7305 129.6258
" />
<path d="M29.7305 129.8163
L29.8257 129.7211
" />
<path d="M29.8257 129.7211
L30.0162 129.6258
" />
<path d="M30.0162 129.6258
L30.3019 129.6258
" />
<path d="M30.3019 129.6258
L30.4924 129.7211
" />
<path d="M30.4924 129.7211
L30.5876 129.9115
" />
<path d="M30.5876 129.9115
L30.5876 130.9592
" />
<path d="M30.5876 129.9115
L30.6829 129.7211
" />
<path d="M30.6829 129.7211
L30.8734 129.6258
" />
<path d="M30.8734 129.6258
L31.1591 129.6258
" />
<path d="M31.1591 129.6258
L31.3495 129.7211
" />
<path d="M31.3495 129.7211
L31.4448 129.9115
" />
<path d="M31.4448 129.9115
L31.4448 130.9592
" />
<path d="M32.3972 130.9592
L32.3972 129.6258
" />
<path d="M32.3972 129.8163
L32.4924 129.7211
" />
<path d="M32.4924 129.7211
L32.6829 129.6258
" />
<path d="M32.6829 129.6258
L32.9686 129.6258
" />
<path d="M32.9686 129.6258
L33.1591 129.7211
" />
<path d="M33.1591 129.7211
L33.2543 129.9115
" />
<path d="M33.2543 129.9115
L33.2543 130.9592
" />
<path d="M33.2543 129.9115
L33.3495 129.7211
" />
<path d="M33.3495 129.7211
L33.5400 129.6258
" />
<path d="M33.5400 129.6258
L33.8257 129.6258
" />
<path d="M33.8257 129.6258
L34.0162 129.7211
" />
<path d="M34.0162 129.7211
L34.1114 129.9115
" />
<path d="M34.1114 129.9115
L34.1114 130.9592
" />
<path d="M38.0162 128.8639
L36.3019 131.4354
" />
<path d="M40.5876 128.9592
L40.7781 128.9592
" />
<path d="M40.7781 128.9592
L40.9686 129.0544
" />
<path d="M40.9686 129.0544
L41.0638 129.1496
" />
<path d="M41.0638 129.1496
L41.1591 129.3401
" />
<path d="M41.1591 129.3401
L41.2543 129.7211
" />
<path d="M41.2543 129.7211
L41.2543 130.1973
" />
<path d="M41.2543 130.1973
L41.1591 130.5782
" />
<path d="M41.1591 130.5782
L41.0638 130.7687
" />
<path d="M41.0638 130.7687
L40.9686 130.8639
" />
<path d="M40.9686 130.8639
L40.7781 130.9592
" />
<path d="M40.7781 130.9592
L40.5876 130.9592
" />
<path d="M40.5876 130.9592
L40.3972 130.8639
" />
<path d="M40.3972 130.8639
L40.3019 130.7687
" />
<path d="M40.3019 130.7687
L40.2067 130.5782
" />
<path d="M40.2067 130.5782
L40.1114 130.1973
" />
<path d="M40.1114 130.1973
L40.1114 129.7211
" />
<path d="M40.1114 129.7211
L40.2067 129.3401
" />
<path d="M40.2067 129.3401
L40.3019 129.1496
" />
<path d="M40.3019 129.1496
L40.3972 129.0544
" />
<path d="M40.3972 129.0544
L40.5876 128.9592
" />
<path d="M42.1114 130.7687
L42.2067 130.8639
" />
<path d="M42.2067 130.8639
L42.1114 130.9592
" />
<path d="M42.1114 130.9592
L42.0162 130.8639
" />
<path d="M42.0162 130.8639
L42.1114 130.7687
" />
<path d="M42.1114 130.7687
L42.1114 130.9592
" />
<path d="M43.4448 128.9592
L43.6353 128.9592
" />
<path d="M43.6353 128.9592
L43.8257 129.0544
" />
<path d="M43.8257 129.0544
L43.9210 129.1496
" />
<path d="M43.9210 129.1496
L44.0162 129.3401
" />
<path d="M44.0162 129.3401
L44.1114 129.7211
" />
<path d="M44.1114 129.7211
L44.1114 130.1973
" />
<path d="M44.1114 130.1973
L44.0162 130.5782
" />
<path d="M44.0162 130.5782
L43.9210 130.7687
" />
<path d="M43.9210 130.7687
L43.8257 130.8639
" />
<path d="M43.8257 130.8639
L43.6353 130.9592
" />
<path d="M43.6353 130.9592
L43.4448 130.9592
" />
<path d="M43.4448 130.9592
L43.2543 130.8639
" />
<path d="M43.2543 130.8639
L43.1591 130.7687
" />
<path d="M43.1591 130.7687
L43.0638 130.5782
" />
<path d="M43.0638 130.5782
L42.9686 130.1973
" />
<path d="M42.9686 130.1973
L42.9686 129.7211
" />
<path d="M42.9686 129.7211
L43.0638 129.3401
" />
<path d="M43.0638 129.3401
L43.1591 129.1496
" />
<path d="M43.1591 129.1496
L43.2543 129.0544
" />
<path d="M43.2543 129.0544
L43.4448 128.9592
" />
<path d="M44.8734 129.1496
L44.9686 129.0544
" />
<path d="M44.9686 129.0544
L45.1591 128.9592
" />
<path d="M45.1591 128.9592
L45.6353 128.9592
" />
<path d="M45.6353 128.9592
L45.8257 129.0544
" />
<path d="M45.8257 129.0544
L45.9210 129.1496
" />
<path d="M45.9210 129.1496
L46.0162 129.3401
" />
<path d="M46.0162 129.3401
L46.0162 129.5306
" />
<path d="M46.0162 129.5306
L45.9210 129.8163
" />
<path d="M45.9210 129.8163
L44.7781 130.9592
" />
<path d="M44.7781 130.9592
L46.0162 130.9592
" />
<path d="M46.6829 128.9592
L47.9210 128.9592
" />
<path d="M47.9210 128.9592
L47.2543 129.7211
" />
<path d="M47.2543 129.7211
L47.5400 129.7211
" />
<path d="M47.5400 129.7211
L47.7305 129.8163
" />
<path d="M47.7305 129.8163
L47.8257 129.9115
" />
<path d="M47.8257 129.9115
L47.9210 130.1020
" />
<path d="M47.9210 130.1020
L47.9210 130.5782
" />
<path d="M47.9210 130.5782
L47.8257 130.7687
" />
<path d="M47.8257 130.7687
L47.7305 130.8639
" />
<path d="M47.7305 130.8639
L47.5400 130.9592
" />
<path d="M47.5400 130.9592
L46.9686 130.9592
" />
<path d="M46.9686 130.9592
L46.7781 130.8639
" />
<path d="M46.7781 130.8639
L46.6829 130.7687
" />
<path d="M49.6353 128.9592
L49.2543 128.9592
" />
<path d="M49.2543 128.9592
L49.0638 129.0544
" />
<path d="M49.0638 129.0544
L48.9686 129.1496
" />
<path d="M48.9686 129.1496
L48.7781 129.4354
" />
<path d="M48.7781 129.4354
L48.6829 129.8163
" />
<path d="M48.6829 129.8163
L48.6829 130.5782
" />
<path d="M48.6829 130.5782
L48.7781 130.7687
" />
<path d="M48.7781 130.7687
L48.8734 130.8639
" />
<path d="M48.8734 130.8639
L49.0638 130.9592
" />
<path d="M49.0638 130.9592
L49.4448 130.9592
" />
<path d="M49.4448 130.9592
L49.6353 130.8639
" />
<path d="M49.6353 130.8639
L49.7305 130.7687
" />
<path d="M49.7305 130.7687
L49.8257 130.5782
" />
<path d="M49.8257 130.5782
L49.8257 130.1020
" />
<path d="M49.8257 130.1020
L49.7305 129.9115
" />
<path d="M49.7305 129.9115
L49.6353 129.8163
" />
<path d="M49.6353 129.8163
L49.4448 129.7211
" />
<path d="M49.4448 129.7211
L49.0638 129.7211
" />
<path d="M49.0638 129.7211
L48.8734 129.8163
" />
<path d="M48.8734 129.8163
L48.7781 129.9115
" />
<path d="M48.7781 129.9115
L48.6829 130.1020
" />
<path d="M50.5876 128.9592
L50.5876 129.3401
" />
<path d="M51.3495 128.9592
L51.3495 129.3401
" />
<path d="M54.3019 131.7211
L54.2067 131.6258
" />
<path d="M54.2067 131.6258
L54.0162 131.3401
" />
<path d="M54.0162 131.3401
L53.9210 131.1496
" />
<path d="M53.9210 131.1496
L53.8257 130.8639
" />
<path d="M53.8257 130.8639
L53.7305 130.3877
" />
<path d="M53.7305 130.3877
L53.7305 130.0068
" />
<path d="M53.7305 130.0068
L53.8257 129.5306
" />
<path d="M53.8257 129.5306
L53.9210 129.2449
" />
<path d="M53.9210 129.2449
L54.0162 129.0544
" />
<path d="M54.0162 129.0544
L54.2067 128.7687
" />
<path d="M54.2067 128.7687
L54.3019 128.6734
" />
<path d="M55.4448 128.9592
L55.6353 128.9592
" />
<path d="M55.6353 128.9592
L55.8257 129.0544
" />
<path d="M55.8257 129.0544
L55.9210 129.1496
" />
<path d="M55.9210 129.1496
L56.0162 129.3401
" />
<path d="M56.0162 129.3401
L56.1114 129.7211
" />
<path d="M56.1114 129.7211
L56.1114 130.1973
" />
<path d="M56.1114 130.1973
L56.0162 130.5782
" />
<path d="M56.0162 130.5782
L55.9210 130.7687
" />
<path d="M55.9210 130.7687
L55.8257 130.8639
" />
<path d="M55.8257 130.8639
L55.6353 130.9592
" />
<path d="M55.6353 130.9592
L55.4448 130.9592
" />
<path d="M55.4448 130.9592
L55.2543 130.8639
" />
<path d="M55.2543 130.8639
L55.1591 130.7687
" />
<path d="M55.1591 130.7687
L55.0638 130.5782
" />
<path d="M55.0638 130.5782
L54.9686 130.1973
" />
<path d="M54.9686 130.1973
L54.9686 129.7211
" />
<path d="M54.9686 129.7211
L55.0638 129.3401
" />
<path d="M55.0638 129.3401
L55.1591 129.1496
" />
<path d="M55.1591 129.1496
L55.2543 129.0544
" />
<path d="M55.2543 129.0544
L55.4448 128.9592
" />
<path d="M58.4924 130.9592
L58.4924 128.9592
" />
<path d="M59.3495 130.9592
L59.3495 129.9115
" />
<path d="M59.3495 129.9115
L59.2543 129.7211
" />
<path d="M59.2543 129.7211
L59.0638 129.6258
" />
<path d="M59.0638 129.6258
L58.7781 129.6258
" />
<path d="M58.7781 129.6258
L58.5876 129.7211
" />
<path d="M58.5876 129.7211
L58.4924 129.8163
" />
<path d="M60.5876 130.9592
L60.3972 130.8639
" />
<path d="M60.3972 130.8639
L60.3019 130.7687
" />
<path d="M60.3019 130.7687
L60.2067 130.5782
" />
<path d="M60.2067 130.5782
L60.2067 130.0068
" />
<path d="M60.2067 130.0068
L60.3019 129.8163
" />
<path d="M60.3019 129.8163
L60.3972 129.7211
" />
<path d="M60.3972 129.7211
L60.5876 129.6258
" />
<path d="M60.5876 129.6258
L60.8734 129.6258
" />
<path d="M60.8734 129.6258
L61.0638 129.7211
" />
<path d="M61.0638 129.7211
L61.1591 129.8163
" />
<path d="M61.1591 129.8163
L61.2543 130.0068
" />
<path d="M61.2543 130.0068
L61.2543 130.5782
" />
<path d="M61.2543 130.5782
L61.1591 130.7687
" />
<path d="M61.1591 130.7687
L61.0638 130.8639
" />
<path d="M61.0638 130.8639
L60.8734 130.9592
" />
<path d="M60.8734 130.9592
L60.5876 130.9592
" />
<path d="M62.3972 130.9592
L62.2067 130.8639
" />
<path d="M62.2067 130.8639
L62.1114 130.6734
" />
<path d="M62.1114 130.6734
L62.1114 128.9592
" />
<path d="M63.9210 130.8639
L63.7305 130.9592
" />
<path d="M63.7305 130.9592
L63.3495 130.9592
" />
<path d="M63.3495 130.9592
L63.1591 130.8639
" />
<path d="M63.1591 130.8639
L63.0638 130.6734
" />
<path d="M63.0638 130.6734
L63.0638 129.9115
" />
<path d="M63.0638 129.9115
L63.1591 129.7211
" />
<path d="M63.1591 129.7211
L63.3495 129.6258
" />
<path d="M63.3495 129.6258
L63.7305 129.6258
" />
<path d="M63.7305 129.6258
L63.9210 129.7211
" />
<path d="M63.9210 129.7211
L64.0162 129.9115
" />
<path d="M64.0162 129.9115
L64.0162 130.1020
" />
<path d="M64.0162 130.1020
L63.0638 130.2925
" />
<path d="M64.7781 130.8639
L64.9686 130.9592
" />
<path d="M64.9686 130.9592
L65.3495 130.9592
" />
<path d="M65.3495 130.9592
L65.5400 130.8639
" />
<path d="M65.5400 130.8639
L65.6353 130.6734
" />
<path d="M65.6353 130.6734
L65.6353 130.5782
" />
<path d="M65.6353 130.5782
L65.5400 130.3877
" />
<path d="M65.5400 130.3877
L65.3495 130.2925
" />
<path d="M65.3495 130.2925
L65.0638 130.2925
" />
<path d="M65.0638 130.2925
L64.8734 130.1973
" />
<path d="M64.8734 130.1973
L64.7781 130.0068
" />
<path d="M64.7781 130.0068
L64.7781 129.9115
" />
<path d="M64.7781 129.9115
L64.8734 129.7211
" />
<path d="M64.8734 129.7211
L65.0638 129.6258
" />
<path d="M65.0638 129.6258
L65.3495 129.6258
" />
<path d="M65.3495 129.6258
L65.5400 129.7211
" />
<path d="M68.0162 130.1973
L69.5400 130.1973
" />
<path d="M68.7781 130.9592
L68.7781 129.4354
" />
<path d="M72.8734 129.6258
L72.8734 130.9592
" />
<path d="M72.3972 128.8639
L71.9210 130.2925
" />
<path d="M71.9210 130.2925
L73.1591 130.2925
" />
<path d="M75.3495 130.8639
L75.5400 130.9592
" />
<path d="M75.5400 130.9592
L75.9210 130.9592
" />
<path d="M75.9210 130.9592
L76.1114 130.8639
" />
<path d="M76.1114 130.8639
L76.2067 130.6734
" />
<path d="M76.2067 130.6734
L76.2067 130.5782
" />
<path d="M76.2067 130.5782
L76.1114 130.3877
" />
<path d="M76.1114 130.3877
L75.9210 130.2925
" />
<path d="M75.9210 130.2925
L75.6353 130.2925
" />
<path d="M75.6353 130.2925
L75.4448 130.1973
" />
<path d="M75.4448 130.1973
L75.3495 130.0068
" />
<path d="M75.3495 130.0068
L75.3495 129.9115
" />
<path d="M75.3495 129.9115
L75.4448 129.7211
" />
<path d="M75.4448 129.7211
L75.6353 129.6258
" />
<path d="M75.6353 129.6258
L75.9210 129.6258
" />
<path d="M75.9210 129.6258
L76.1114 129.7211
" />
<path d="M77.3495 130.9592
L77.1591 130.8639
" />
<path d="M77.1591 130.8639
L77.0638 130.6734
" />
<path d="M77.0638 130.6734
L77.0638 128.9592
" />
<path d="M78.3972 130.9592
L78.2067 130.8639
" />
<path d="M78.2067 130.8639
L78.1114 130.7687
" />
<path d="M78.1114 130.7687
L78.0162 130.5782
" />
<path d="M78.0162 130.5782
L78.0162 130.0068
" />
<path d="M78.0162 130.0068
L78.1114 129.8163
" />
<path d="M78.1114 129.8163
L78.2067 129.7211
" />
<path d="M78.2067 129.7211
L78.3972 129.6258
" />
<path d="M78.3972 129.6258
L78.6829 129.6258
" />
<path d="M78.6829 129.6258
L78.8734 129.7211
" />
<path d="M78.8734 129.7211
L78.9686 129.8163
" />
<path d="M78.9686 129.8163
L79.0638 130.0068
" />
<path d="M79.0638 130.0068
L79.0638 130.5782
" />
<path d="M79.0638 130.5782
L78.9686 130.7687
" />
<path d="M78.9686 130.7687
L78.8734 130.8639
" />
<path d="M78.8734 130.8639
L78.6829 130.9592
" />
<path d="M78.6829 130.9592
L78.3972 130.9592
" />
<path d="M79.6353 129.6258
L80.3972 129.6258
" />
<path d="M79.9210 128.9592
L79.9210 130.6734
" />
<path d="M79.9210 130.6734
L80.0162 130.8639
" />
<path d="M80.0162 130.8639
L80.2067 130.9592
" />
<path d="M80.2067 130.9592
L80.3972 130.9592
" />
<path d="M80.9686 130.8639
L81.1591 130.9592
" />
<path d="M81.1591 130.9592
L81.5400 130.9592
" />
<path d="M81.5400 130.9592
L81.7305 130.8639
" />
<path d="M81.7305 130.8639
L81.8257 130.6734
" />
<path d="M81.8257 130.6734
L81.8257 130.5782
" />
<path d="M81.8257 130.5782
L81.7305 130.3877
" />
<path d="M81.7305 130.3877
L81.5400 130.2925
" />
<path d="M81.5400 130.2925
L81.2543 130.2925
" />
<path d="M81.2543 130.2925
L81.0638 130.1973
" />
<path d="M81.0638 130.1973
L80.9686 130.0068
" />
<path d="M80.9686 130.0068
L80.9686 129.9115
" />
<path d="M80.9686 129.9115
L81.0638 129.7211
" />
<path d="M81.0638 129.7211
L81.2543 129.6258
" />
<path d="M81.2543 129.6258
L81.5400 129.6258
" />
<path d="M81.5400 129.6258
L81.7305 129.7211
" />
<path d="M82.4924 131.7211
L82.5876 131.6258
" />
<path d="M82.5876 131.6258
L82.7781 131.3401
" />
<path d="M82.7781 131.3401
L82.8734 131.1496
" />
<path d="M82.8734 131.1496
L82.9686 130.8639
" />
<path d="M82.9686 130.8639
L83.0638 130.3877
" />
<path d="M83.0638 130.3877
L83.0638 130.0068
" />
<path d="M83.0638 130.0068
L82.9686 129.5306
" />
<path d="M82.9686 129.5306
L82.8734 129.2449
" />
<path d="M82.8734 129.2449
L82.7781 129.0544
" />
<path d="M82.7781 129.0544
L82.5876 128.7687
" />
<path d="M82.5876 128.7687
L82.4924 128.6734
" />
</g></g>
<g style="fill:none; 
stroke:#000000; stroke-width:0.1925; stroke-opacity:1; 
stroke-linecap:round; stroke-linejoin:round;">
<path d="M17.5886 131.7216
L17.5886 133.6470
" />
<path d="M16.6259 132.6843
L18.5513 132.6843
" />
</g>
<g style="fill:none; 
stroke:#000000; stroke-width:0.2000; stroke-opacity:1; 
stroke-linecap:round; stroke-linejoin:round;">
<text x="20.5513" y="133.6843"
textLength="48.7714" font-size="2.6667" lengthAdjust="spacingAndGlyphs"
text-anchor="start" opacity="0">1.270mm / 0.0500" (64 holes)</text>
<g class="stroked-text"><desc>1.270mm / 0.0500" (64 holes)</desc>
<path d="M22.2067 133.5992
L21.0638 133.5992
" />
<path d="M21.6353 133.5992
L21.6353 131.5992
" />
<path d="M21.6353 131.5992
L21.4448 131.8849
" />
<path d="M21.4448 131.8849
L21.2543 132.0754
" />
<path d="M21.2543 132.0754
L21.0638 132.1706
" />
<path d="M23.0638 133.4087
L23.1591 133.5039
" />
<path d="M23.1591 133.5039
L23.0638 133.5992
" />
<path d="M23.0638 133.5992
L22.9686 133.5039
" />
<path d="M22.9686 133.5039
L23.0638 133.4087
" />
<path d="M23.0638 133.4087
L23.0638 133.5992
" />
<path d="M23.9210 131.7896
L24.0162 131.6944
" />
<path d="M24.0162 131.6944
L24.2067 131.5992
" />
<path d="M24.2067 131.5992
L24.6829 131.5992
" />
<path d="M24.6829 131.5992
L24.8733 131.6944
" />
<path d="M24.8733 131.6944
L24.9686 131.7896
" />
<path d="M24.9686 131.7896
L25.0638 131.9801
" />
<path d="M25.0638 131.9801
L25.0638 132.1706
" />
<path d="M25.0638 132.1706
L24.9686 132.4563
" />
<path d="M24.9686 132.4563
L23.8257 133.5992
" />
<path d="M23.8257 133.5992
L25.0638 133.5992
" />
<path d="M25.7305 131.5992
L27.0638 131.5992
" />
<path d="M27.0638 131.5992
L26.2067 133.5992
" />
<path d="M28.2067 131.5992
L28.3972 131.5992
" />
<path d="M28.3972 131.5992
L28.5876 131.6944
" />
<path d="M28.5876 131.6944
L28.6829 131.7896
" />
<path d="M28.6829 131.7896
L28.7781 131.9801
" />
<path d="M28.7781 131.9801
L28.8734 132.3611
" />
<path d="M28.8734 132.3611
L28.8734 132.8373
" />
<path d="M28.8734 132.8373
L28.7781 133.2182
" />
<path d="M28.7781 133.2182
L28.6829 133.4087
" />
<path d="M28.6829 133.4087
L28.5876 133.5039
" />
<path d="M28.5876 133.5039
L28.3972 133.5992
" />
<path d="M28.3972 133.5992
L28.2067 133.5992
" />
<path d="M28.2067 133.5992
L28.0162 133.5039
" />
<path d="M28.0162 133.5039
L27.9210 133.4087
" />
<path d="M27.9210 133.4087
L27.8257 133.2182
" />
<path d="M27.8257 133.2182
L27.7305 132.8373
" />
<path d="M27.7305 132.8373
L27.7305 132.3611
" />
<path d="M27.7305 132.3611
L27.8257 131.9801
" />
<path d="M27.8257 131.9801
L27.9210 131.7896
" />
<path d="M27.9210 131.7896
L28.0162 131.6944
" />
<path d="M28.0162 131.6944
L28.2067 131.5992
" />
<path d="M29.7305 133.5992
L29.7305 132.2658
" />
<path d="M29.7305 132.4563
L29.8257 132.3611
" />
<path d="M29.8257 132.3611
L30.0162 132.2658
" />
<path d="M30.0162 132.2658
L30.3019 132.2658
" />
<path d="M30.3019 132.2658
L30.4924 132.3611
" />
<path d="M30.4924 132.3611
L30.5876 132.5515
" />
<path d="M30.5876 132.5515
L30.5876 133.5992
" />
<path d="M30.5876 132.5515
L30.6829 132.3611
" />
<path d="M30.6829 132.3611
L30.8734 132.2658
" />
<path d="M30.8734 132.2658
L31.1591 132.2658
" />
<path d="M31.1591 132.2658
L31.3495 132.3611
" />
<path d="M31.3495 132.3611
L31.4448 132.5515
" />
<path d="M31.4448 132.5515
L31.4448 133.5992
" />
<path d="M32.3972 133.5992
L32.3972 132.2658
" />
<path d="M32.3972 132.4563
L32.4924 132.3611
" />
<path d="M32.4924 132.3611
L32.6829 132.2658
" />
<path d="M32.6829 132.2658
L32.9686 132.2658
" />
<path d="M32.9686 132.2658
L33.1591 132.3611
" />
<path d="M33.1591 132.3611
L33.2543 132.5515
" />
<path d="M33.2543 132.5515
L33.2543 133.5992
" />
<path d="M33.2543 132.5515
L33.3495 132.3611
" />
<path d="M33.3495 132.3611
L33.5400 132.2658
" />
<path d="M33.5400 132.2658
L33.8257 132.2658
" />
<path d="M33.8257 132.2658
L34.0162 132.3611
" />
<path d="M34.0162 132.3611
L34.1114 132.5515
" />
<path d="M34.1114 132.5515
L34.1114 133.5992
" />
<path d="M38.0162 131.5039
L36.3019 134.0754
" />
<path d="M40.5876 131.5992
L40.7781 131.5992
" />
<path d="M40.7781 131.5992
L40.9686 131.6944
" />
<path d="M40.9686 131.6944
L41.0638 131.7896
" />
<path d="M41.0638 131.7896
L41.1591 131.9801
" />
<path d="M41.1591 131.9801
L41.2543 132.3611
" />
<path d="M41.2543 132.3611
L41.2543 132.8373
" />
<path d="M41.2543 132.8373
L41.1591 133.2182
" />
<path d="M41.1591 133.2182
L41.0638 133.4087
" />
<path d="M41.0638 133.4087
L40.9686 133.5039
" />
<path d="M40.9686 133.5039
L40.7781 133.5992
" />
<path d="M40.7781 133.5992
L40.5876 133.5992
" />
<path d="M40.5876 133.5992
L40.3972 133.5039
" />
<path d="M40.3972 133.5039
L40.3019 133.4087
" />
<path d="M40.3019 133.4087
L40.2067 133.2182
" />
<path d="M40.2067 133.2182
L40.1114 132.8373
" />
<path d="M40.1114 132.8373
L40.1114 132.3611
" />
<path d="M40.1114 132.3611
L40.2067 131.9801
" />
<path d="M40.2067 131.9801
L40.3019 131.7896
" />
<path d="M40.3019 131.7896
L40.3972 131.6944
" />
<path d="M40.3972 131.6944
L40.5876 131.5992
" />
<path d="M42.1114 133.4087
L42.2067 133.5039
" />
<path d="M42.2067 133.5039
L42.1114 133.5992
" />
<path d="M42.1114 133.5992
L42.0162 133.5039
" />
<path d="M42.0162 133.5039
L42.1114 133.4087
" />
<path d="M42.1114 133.4087
L42.1114 133.5992
" />
<path d="M43.4448 131.5992
L43.6353 131.5992
" />
<path d="M43.6353 131.5992
L43.8257 131.6944
" />
<path d="M43.8257 131.6944
L43.9210 131.7896
" />
<path d="M43.9210 131.7896
L44.0162 131.9801
" />
<path d="M44.0162 131.9801
L44.1114 132.3611
" />
<path d="M44.1114 132.3611
L44.1114 132.8373
" />
<path d="M44.1114 132.8373
L44.0162 133.2182
" />
<path d="M44.0162 133.2182
L43.9210 133.4087
" />
<path d="M43.9210 133.4087
L43.8257 133.5039
" />
<path d="M43.8257 133.5039
L43.6353 133.5992
" />
<path d="M43.6353 133.5992
L43.4448 133.5992
" />
<path d="M43.4448 133.5992
L43.2543 133.5039
" />
<path d="M43.2543 133.5039
L43.1591 133.4087
" />
<path d="M43.1591 133.4087
L43.0638 133.2182
" />
<path d="M43.0638 133.2182
L42.9686 132.8373
" />
<path d="M42.9686 132.8373
L42.9686 132.3611
" />
<path d="M42.9686 132.3611
L43.0638 131.9801
" />
<path d="M43.0638 131.9801
L43.1591 131.7896
" />
<path d="M43.1591 131.7896
L43.2543 131.6944
" />
<path d="M43.2543 131.6944
L43.4448 131.5992
" />
<path d="M45.9210 131.5992
L44.9686 131.5992
" />
<path d="M44.9686 131.5992
L44.8734 132.5515
" />
<path d="M44.8734 132.5515
L44.9686 132.4563
" />
<path d="M44.9686 132.4563
L45.1591 132.3611
" />
<path d="M45.1591 132.3611
L45.6353 132.3611
" />
<path d="M45.6353 132.3611
L45.8257 132.4563
" />
<path d="M45.8257 132.4563
L45.9210 132.5515
" />
<path d="M45.9210 132.5515
L46.0162 132.7420
" />
<path d="M46.0162 132.7420
L46.0162 133.2182
" />
<path d="M46.0162 133.2182
L45.9210 133.4087
" />
<path d="M45.9210 133.4087
L45.8257 133.5039
" />
<path d="M45.8257 133.5039
L45.6353 133.5992
" />
<path d="M45.6353 133.5992
L45.1591 133.5992
" />
<path d="M45.1591 133.5992
L44.9686 133.5039
" />
<path d="M44.9686 133.5039
L44.8734 133.4087
" />
<path d="M47.2543 131.5992
L47.4448 131.5992
" />
<path d="M47.4448 131.5992
L47.6353 131.6944
" />
<path d="M47.6353 131.6944
L47.7305 131.7896
" />
<path d="M47.7305 131.7896
L47.8257 131.9801
" />
<path d="M47.8257 131.9801
L47.9210 132.3611
" />
<path d="M47.9210 132.3611
L47.9210 132.8373
" />
<path d="M47.9210 132.8373
L47.8257 133.2182
" />
<path d="M47.8257 133.2182
L47.7305 133.4087
" />
<path d="M47.7305 133.4087
L47.6353 133.5039
" />
<path d="M47.6353 133.5039
L47.4448 133.5992
" />
<path d="M47.4448 133.5992
L47.2543 133.5992
" />
<path d="M47.2543 133.5992
L47.0638 133.5039
" />
<path d="M47.0638 133.5039
L46.9686 133.4087
" />
<path d="M46.9686 133.4087
L46.8734 133.2182
" />
<path d="M46.8734 133.2182
L46.7781 132.8373
" />
<path d="M46.7781 132.8373
L46.7781 132.3611
" />
<path d="M46.7781 132.3611
L46.8734 131.9801
" />
<path d="M46.8734 131.9801
L46.9686 131.7896
" />
<path d="M46.9686 131.7896
L47.0638 131.6944
" />
<path d="M47.0638 131.6944
L47.2543 131.5992
" />
<path d="M49.1591 131.5992
L49.3495 131.5992
" />
<path d="M49.3495 131.5992
L49.5400 131.6944
" />
<path d="M49.5400 131.6944
L49.6353 131.7896
" />
<path d="M49.6353 131.7896
L49.7305 131.9801
" />
<path d="M49.7305 131.9801
L49.8257 132.3611
" />
<path d="M49.8257 132.3611
L49.8257 132.8373
" />
<path d="M49.8257 132.8373
L49.7305 133.2182
" />
<path d="M49.7305 133.2182
L49.6353 133.4087
" />
<path d="M49.6353 133.4087
L49.5400 133.5039
" />
<path d="M49.5400 133.5039
L49.3495 133.5992
" />
<path d="M49.3495 133.5992
L49.1591 133.5992
" />
<path d="M49.1591 133.5992
L48.9686 133.5039
" />
<path d="M48.9686 133.5039
L48.8734 133.4087
" />
<path d="M48.8734 133.4087
L48.7781 133.2182
" />
<path d="M48.7781 133.2182
L48.6829 132.8373
" />
<path d="M48.6829 132.8373
L48.6829 132.3611
" />
<path d="M48.6829 132.3611
L48.7781 131.9801
" />
<path d="M48.7781 131.9801
L48.8734 131.7896
" />
<path d="M48.8734 131.7896
L48.9686 131.6944
" />
<path d="M48.9686 131.6944
L49.1591 131.5992
" />
<path d="M50.5876 131.5992
L50.5876 131.9801
" />
<path d="M51.3495 131.5992
L51.3495 131.9801
" />
<path d="M54.3019 134.3611
L54.2067 134.2658
" />
<path d="M54.2067 134.2658
L54.0162 133.9801
" />
<path d="M54.0162 133.9801
L53.9210 133.7896
" />
<path d="M53.9210 133.7896
L53.8257 133.5039
" />
<path d="M53.8257 133.5039
L53.7305 133.0277
" />
<path d="M53.7305 133.0277
L53.7305 132.6468
" />
<path d="M53.7305 132.6468
L53.8257 132.1706
" />
<path d="M53.8257 132.1706
L53.9210 131.8849
" />
<path d="M53.9210 131.8849
L54.0162 131.6944
" />
<path d="M54.0162 131.6944
L54.2067 131.4087
" />
<path d="M54.2067 131.4087
L54.3019 131.3134
" />
<path d="M55.9210 131.5992
L55.5400 131.5992
" />
<path d="M55.5400 131.5992
L55.3495 131.6944
" />
<path d="M55.3495 131.6944
L55.2543 131.7896
" />
<path d="M55.2543 131.7896
L55.0638 132.0754
" />
<path d="M55.0638 132.0754
L54.9686 132.4563
" />
<path d="M54.9686 132.4563
L54.9686 133.2182
" />
<path d="M54.9686 133.2182
L55.0638 133.4087
" />
<path d="M55.0638 133.4087
L55.1591 133.5039
" />
<path d="M55.1591 133.5039
L55.3495 133.5992
" />
<path d="M55.3495 133.5992
L55.7305 133.5992
" />
<path d="M55.7305 133.5992
L55.9210 133.5039
" />
<path d="M55.9210 133.5039
L56.0162 133.4087
" />
<path d="M56.0162 133.4087
L56.1114 133.2182
" />
<path d="M56.1114 133.2182
L56.1114 132.7420
" />
<path d="M56.1114 132.7420
L56.0162 132.5515
" />
<path d="M56.0162 132.5515
L55.9210 132.4563
" />
<path d="M55.9210 132.4563
L55.7305 132.3611
" />
<path d="M55.7305 132.3611
L55.3495 132.3611
" />
<path d="M55.3495 132.3611
L55.1591 132.4563
" />
<path d="M55.1591 132.4563
L55.0638 132.5515
" />
<path d="M55.0638 132.5515
L54.9686 132.7420
" />
<path d="M57.8257 132.2658
L57.8257 133.5992
" />
<path d="M57.3495 131.5039
L56.8734 132.9325
" />
<path d="M56.8734 132.9325
L58.1114 132.9325
" />
<path d="M60.3972 133.5992
L60.3972 131.5992
" />
<path d="M61.2543 133.5992
L61.2543 132.5515
" />
<path d="M61.2543 132.5515
L61.1591 132.3611
" />
<path d="M61.1591 132.3611
L60.9686 132.2658
" />
<path d="M60.9686 132.2658
L60.6829 132.2658
" />
<path d="M60.6829 132.2658
L60.4924 132.3611
" />
<path d="M60.4924 132.3611
L60.3972 132.4563
" />
<path d="M62.4924 133.5992
L62.3019 133.5039
" />
<path d="M62.3019 133.5039
L62.2067 133.4087
" />
<path d="M62.2067 133.4087
L62.1114 133.2182
" />
<path d="M62.1114 133.2182
L62.1114 132.6468
" />
<path d="M62.1114 132.6468
L62.2067 132.4563
" />
<path d="M62.2067 132.4563
L62.3019 132.3611
" />
<path d="M62.3019 132.3611
L62.4924 132.2658
" />
<path d="M62.4924 132.2658
L62.7781 132.2658
" />
<path d="M62.7781 132.2658
L62.9686 132.3611
" />
<path d="M62.9686 132.3611
L63.0638 132.4563
" />
<path d="M63.0638 132.4563
L63.1591 132.6468
" />
<path d="M63.1591 132.6468
L63.1591 133.2182
" />
<path d="M63.1591 133.2182
L63.0638 133.4087
" />
<path d="M63.0638 133.4087
L62.9686 133.5039
" />
<path d="M62.9686 133.5039
L62.7781 133.5992
" />
<path d="M62.7781 133.5992
L62.4924 133.5992
" />
<path d="M64.3019 133.5992
L64.1114 133.5039
" />
<path d="M64.1114 133.5039
L64.0162 133.3134
" />
<path d="M64.0162 133.3134
L64.0162 131.5992
" />
<path d="M65.8257 133.5039
L65.6353 133.5992
" />
<path d="M65.6353 133.5992
L65.2543 133.5992
" />
<path d="M65.2543 133.5992
L65.0638 133.5039
" />
<path d="M65.0638 133.5039
L64.9686 133.3134
" />
<path d="M64.9686 133.3134
L64.9686 132.5515
" />
<path d="M64.9686 132.5515
L65.0638 132.3611
" />
<path d="M65.0638 132.3611
L65.2543 132.2658
" />
<path d="M65.2543 132.2658
L65.6353 132.2658
" />
<path d="M65.6353 132.2658
L65.8257 132.3611
" />
<path d="M65.8257 132.3611
L65.9210 132.5515
" />
<path d="M65.9210 132.5515
L65.9210 132.7420
" />
<path d="M65.9210 132.7420
L64.9686 132.9325
" />
<path d="M66.6829 133.5039
L66.8734 133.5992
" />
<path d="M66.8734 133.5992
L67.2543 133.5992
" />
<path d="M67.2543 133.5992
L67.4448 133.5039
" />
<path d="M67.4448 133.5039
L67.5400 133.3134
" />
<path d="M67.5400 133.3134
L67.5400 133.2182
" />
<path d="M67.5400 133.2182
L67.4448 133.0277
" />
<path d="M67.4448 133.0277
L67.2543 132.9325
" />
<path d="M67.2543 132.9325
L66.9686 132.9325
" />
<path d="M66.9686 132.9325
L66.7781 132.8373
" />
<path d="M66.7781 132.8373
L66.6829 132.6468
" />
<path d="M66.6829 132.6468
L66.6829 132.5515
" />
<path d="M66.6829 132.5515
L66.7781 132.3611
" />
<path d="M66.7781 132.3611
L66.9686 132.2658
" />
<path d="M66.9686 132.2658
L67.2543 132.2658
" />
<path d="M67.2543 132.2658
L67.4448 132.3611
" />
<path d="M68.2067 134.3611
L68.3019 134.2658
" />
<path d="M68.3019 134.2658
L68.4924 133.9801
" />
<path d="M68.4924 133.9801
L68.5876 133.7896
" />
<path d="M68.5876 133.7896
L68.6829 133.5039
" />
<path d="M68.6829 133.5039
L68.7781 133.0277
" />
<path d="M68.7781 133.0277
L68.7781 132.6468
" />
<path d="M68.7781 132.6468
L68.6829 132.1706
" />
<path d="M68.6829 132.1706
L68.5876 131.8849
" />
<path d="M68.5876 131.8849
L68.4924 131.6944
" />
<path d="M68.4924 131.6944
L68.3019 131.4087
" />
<path d="M68.3019 131.4087
L68.2067 131.3134
" />
</g><path style="fill:none; 
stroke:#000000; stroke-width:0.2000; stroke-opacity:1; 
stroke-linecap:round; stroke-linejoin:round;fill:none"
d="M 18.2584,136.5168
18.2584,135.1026
16.8442,135.1026
16.8442,136.5168
Z" /> 
</g>
<g style="fill:none; 
stroke:#000000; stroke-width:0.2000; stroke-opacity:1; 
stroke-linecap:round; stroke-linejoin:round;">
<text x="20.5513" y="136.8097"
textLength="48.7714" font-size="2.6667" lengthAdjust="spacingAndGlyphs"
text-anchor="start" opacity="0">2.500mm / 0.0984" (12 holes)</text>
<g class="stroked-text"><desc>2.500mm / 0.0984" (12 holes)</desc>
<path d="M21.0638 134.9150
L21.1591 134.8198
" />
<path d="M21.1591 134.8198
L21.3495 134.7245
" />
<path d="M21.3495 134.7245
L21.8257 134.7245
" />
<path d="M21.8257 134.7245
L22.0162 134.8198
" />
<path d="M22.0162 134.8198
L22.1114 134.9150
" />
<path d="M22.1114 134.9150
L22.2067 135.1055
" />
<path d="M22.2067 135.1055
L22.2067 135.2960
" />
<path d="M22.2067 135.2960
L22.1114 135.5817
" />
<path d="M22.1114 135.5817
L20.9686 136.7245
" />
<path d="M20.9686 136.7245
L22.2067 136.7245
" />
<path d="M23.0638 136.5341
L23.1591 136.6293
" />
<path d="M23.1591 136.6293
L23.0638 136.7245
" />
<path d="M23.0638 136.7245
L22.9686 136.6293
" />
<path d="M22.9686 136.6293
L23.0638 136.5341
" />
<path d="M23.0638 136.5341
L23.0638 136.7245
" />
<path d="M24.9686 134.7245
L24.0162 134.7245
" />
<path d="M24.0162 134.7245
L23.9210 135.6769
" />
<path d="M23.9210 135.6769
L24.0162 135.5817
" />
<path d="M24.0162 135.5817
L24.2067 135.4864
" />
<path d="M24.2067 135.4864
L24.6829 135.4864
" />
<path d="M24.6829 135.4864
L24.8733 135.5817
" />
<path d="M24.8733 135.5817
L24.9686 135.6769
" />
<path d="M24.9686 135.6769
L25.0638 135.8674
" />
<path d="M25.0638 135.8674
L25.0638 136.3436
" />
<path d="M25.0638 136.3436
L24.9686 136.5341
" />
<path d="M24.9686 136.5341
L24.8733 136.6293
" />
<path d="M24.8733 136.6293
L24.6829 136.7245
" />
<path d="M24.6829 136.7245
L24.2067 136.7245
" />
<path d="M24.2067 136.7245
L24.0162 136.6293
" />
<path d="M24.0162 136.6293
L23.9210 136.5341
" />
<path d="M26.3019 134.7245
L26.4924 134.7245
" />
<path d="M26.4924 134.7245
L26.6829 134.8198
" />
<path d="M26.6829 134.8198
L26.7781 134.9150
" />
<path d="M26.7781 134.9150
L26.8734 135.1055
" />
<path d="M26.8734 135.1055
L26.9686 135.4864
" />
<path d="M26.9686 135.4864
L26.9686 135.9626
" />
<path d="M26.9686 135.9626
L26.8734 136.3436
" />
<path d="M26.8734 136.3436
L26.7781 136.5341
" />
<path d="M26.7781 136.5341
L26.6829 136.6293
" />
<path d="M26.6829 136.6293
L26.4924 136.7245
" />
<path d="M26.4924 136.7245
L26.3019 136.7245
" />
<path d="M26.3019 136.7245
L26.1114 136.6293
" />
<path d="M26.1114 136.6293
L26.0162 136.5341
" />
<path d="M26.0162 136.5341
L25.9210 136.3436
" />
<path d="M25.9210 136.3436
L25.8257 135.9626
" />
<path d="M25.8257 135.9626
L25.8257 135.4864
" />
<path d="M25.8257 135.4864
L25.9210 135.1055
" />
<path d="M25.9210 135.1055
L26.0162 134.9150
" />
<path d="M26.0162 134.9150
L26.1114 134.8198
" />
<path d="M26.1114 134.8198
L26.3019 134.7245
" />
<path d="M28.2067 134.7245
L28.3972 134.7245
" />
<path d="M28.3972 134.7245
L28.5876 134.8198
" />
<path d="M28.5876 134.8198
L28.6829 134.9150
" />
<path d="M28.6829 134.9150
L28.7781 135.1055
" />
<path d="M28.7781 135.1055
L28.8734 135.4864
" />
<path d="M28.8734 135.4864
L28.8734 135.9626
" />
<path d="M28.8734 135.9626
L28.7781 136.3436
" />
<path d="M28.7781 136.3436
L28.6829 136.5341
" />
<path d="M28.6829 136.5341
L28.5876 136.6293
" />
<path d="M28.5876 136.6293
L28.3972 136.7245
" />
<path d="M28.3972 136.7245
L28.2067 136.7245
" />
<path d="M28.2067 136.7245
L28.0162 136.6293
" />
<path d="M28.0162 136.6293
L27.9210 136.5341
" />
<path d="M27.9210 136.5341
L27.8257 136.3436
" />
<path d="M27.8257 136.3436
L27.7305 135.9626
" />
<path d="M27.7305 135.9626
L27.7305 135.4864
" />
<path d="M27.7305 135.4864
L27.8257 135.1055
" />
<path d="M27.8257 135.1055
L27.9210 134.9150
" />
<path d="M27.9210 134.9150
L28.0162 134.8198
" />
<path d="M28.0162 134.8198
L28.2067 134.7245
" />
<path d="M29.7305 136.7245
L29.7305 135.3912
" />
<path d="M29.7305 135.5817
L29.8257 135.4864
" />
<path d="M29.8257 135.4864
L30.0162 135.3912
" />
<path d="M30.0162 135.3912
L30.3019 135.3912
" />
<path d="M30.3019 135.3912
L30.4924 135.4864
" />
<path d="M30.4924 135.4864
L30.5876 135.6769
" />
<path d="M30.5876 135.6769
L30.5876 136.7245
" />
<path d="M30.5876 135.6769
L30.6829 135.4864
" />
<path d="M30.6829 135.4864
L30.8734 135.3912
" />
<path d="M30.8734 135.3912
L31.1591 135.3912
" />
<path d="M31.1591 135.3912
L31.3495 135.4864
" />
<path d="M31.3495 135.4864
L31.4448 135.6769
" />
<path d="M31.4448 135.6769
L31.4448 136.7245
" />
<path d="M32.3972 136.7245
L32.3972 135.3912
" />
<path d="M32.3972 135.5817
L32.4924 135.4864
" />
<path d="M32.4924 135.4864
L32.6829 135.3912
" />
<path d="M32.6829 135.3912
L32.9686 135.3912
" />
<path d="M32.9686 135.3912
L33.1591 135.4864
" />
<path d="M33.1591 135.4864
L33.2543 135.6769
" />
<path d="M33.2543 135.6769
L33.2543 136.7245
" />
<path d="M33.2543 135.6769
L33.3495 135.4864
" />
<path d="M33.3495 135.4864
L33.5400 135.3912
" />
<path d="M33.5400 135.3912
L33.8257 135.3912
" />
<path d="M33.8257 135.3912
L34.0162 135.4864
" />
<path d="M34.0162 135.4864
L34.1114 135.6769
" />
<path d="M34.1114 135.6769
L34.1114 136.7245
" />
<path d="M38.0162 134.6293
L36.3019 137.2007
" />
<path d="M40.5876 134.7245
L40.7781 134.7245
" />
<path d="M40.7781 134.7245
L40.9686 134.8198
" />
<path d="M40.9686 134.8198
L41.0638 134.9150
" />
<path d="M41.0638 134.9150
L41.1591 135.1055
" />
<path d="M41.1591 135.1055
L41.2543 135.4864
" />
<path d="M41.2543 135.4864
L41.2543 135.9626
" />
<path d="M41.2543 135.9626
L41.1591 136.3436
" />
<path d="M41.1591 136.3436
L41.0638 136.5341
" />
<path d="M41.0638 136.5341
L40.9686 136.6293
" />
<path d="M40.9686 136.6293
L40.7781 136.7245
" />
<path d="M40.7781 136.7245
L40.5876 136.7245
" />
<path d="M40.5876 136.7245
L40.3972 136.6293
" />
<path d="M40.3972 136.6293
L40.3019 136.5341
" />
<path d="M40.3019 136.5341
L40.2067 136.3436
" />
<path d="M40.2067 136.3436
L40.1114 135.9626
" />
<path d="M40.1114 135.9626
L40.1114 135.4864
" />
<path d="M40.1114 135.4864
L40.2067 135.1055
" />
<path d="M40.2067 135.1055
L40.3019 134.9150
" />
<path d="M40.3019 134.9150
L40.3972 134.8198
" />
<path d="M40.3972 134.8198
L40.5876 134.7245
" />
<path d="M42.1114 136.5341
L42.2067 136.6293
" />
<path d="M42.2067 136.6293
L42.1114 136.7245
" />
<path d="M42.1114 136.7245
L42.0162 136.6293
" />
<path d="M42.0162 136.6293
L42.1114 136.5341
" />
<path d="M42.1114 136.5341
L42.1114 136.7245
" />
<path d="M43.4448 134.7245
L43.6353 134.7245
" />
<path d="M43.6353 134.7245
L43.8257 134.8198
" />
<path d="M43.8257 134.8198
L43.9210 134.9150
" />
<path d="M43.9210 134.9150
L44.0162 135.1055
" />
<path d="M44.0162 135.1055
L44.1114 135.4864
" />
<path d="M44.1114 135.4864
L44.1114 135.9626
" />
<path d="M44.1114 135.9626
L44.0162 136.3436
" />
<path d="M44.0162 136.3436
L43.9210 136.5341
" />
<path d="M43.9210 136.5341
L43.8257 136.6293
" />
<path d="M43.8257 136.6293
L43.6353 136.7245
" />
<path d="M43.6353 136.7245
L43.4448 136.7245
" />
<path d="M43.4448 136.7245
L43.2543 136.6293
" />
<path d="M43.2543 136.6293
L43.1591 136.5341
" />
<path d="M43.1591 136.5341
L43.0638 136.3436
" />
<path d="M43.0638 136.3436
L42.9686 135.9626
" />
<path d="M42.9686 135.9626
L42.9686 135.4864
" />
<path d="M42.9686 135.4864
L43.0638 135.1055
" />
<path d="M43.0638 135.1055
L43.1591 134.9150
" />
<path d="M43.1591 134.9150
L43.2543 134.8198
" />
<path d="M43.2543 134.8198
L43.4448 134.7245
" />
<path d="M45.0638 136.7245
L45.4448 136.7245
" />
<path d="M45.4448 136.7245
L45.6353 136.6293
" />
<path d="M45.6353 136.6293
L45.7305 136.5341
" />
<path d="M45.7305 136.5341
L45.9210 136.2483
" />
<path d="M45.9210 136.2483
L46.0162 135.8674
" />
<path d="M46.0162 135.8674
L46.0162 135.1055
" />
<path d="M46.0162 135.1055
L45.9210 134.9150
" />
<path d="M45.9210 134.9150
L45.8257 134.8198
" />
<path d="M45.8257 134.8198
L45.6353 134.7245
" />
<path d="M45.6353 134.7245
L45.2543 134.7245
" />
<path d="M45.2543 134.7245
L45.0638 134.8198
" />
<path d="M45.0638 134.8198
L44.9686 134.9150
" />
<path d="M44.9686 134.9150
L44.8734 135.1055
" />
<path d="M44.8734 135.1055
L44.8734 135.5817
" />
<path d="M44.8734 135.5817
L44.9686 135.7721
" />
<path d="M44.9686 135.7721
L45.0638 135.8674
" />
<path d="M45.0638 135.8674
L45.2543 135.9626
" />
<path d="M45.2543 135.9626
L45.6353 135.9626
" />
<path d="M45.6353 135.9626
L45.8257 135.8674
" />
<path d="M45.8257 135.8674
L45.9210 135.7721
" />
<path d="M45.9210 135.7721
L46.0162 135.5817
" />
<path d="M47.1591 135.5817
L46.9686 135.4864
" />
<path d="M46.9686 135.4864
L46.8734 135.3912
" />
<path d="M46.8734 135.3912
L46.7781 135.2007
" />
<path d="M46.7781 135.2007
L46.7781 135.1055
" />
<path d="M46.7781 135.1055
L46.8734 134.9150
" />
<path d="M46.8734 134.9150
L46.9686 134.8198
" />
<path d="M46.9686 134.8198
L47.1591 134.7245
" />
<path d="M47.1591 134.7245
L47.5400 134.7245
" />
<path d="M47.5400 134.7245
L47.7305 134.8198
" />
<path d="M47.7305 134.8198
L47.8257 134.9150
" />
<path d="M47.8257 134.9150
L47.9210 135.1055
" />
<path d="M47.9210 135.1055
L47.9210 135.2007
" />
<path d="M47.9210 135.2007
L47.8257 135.3912
" />
<path d="M47.8257 135.3912
L47.7305 135.4864
" />
<path d="M47.7305 135.4864
L47.5400 135.5817
" />
<path d="M47.5400 135.5817
L47.1591 135.5817
" />
<path d="M47.1591 135.5817
L46.9686 135.6769
" />
<path d="M46.9686 135.6769
L46.8734 135.7721
" />
<path d="M46.8734 135.7721
L46.7781 135.9626
" />
<path d="M46.7781 135.9626
L46.7781 136.3436
" />
<path d="M46.7781 136.3436
L46.8734 136.5341
" />
<path d="M46.8734 136.5341
L46.9686 136.6293
" />
<path d="M46.9686 136.6293
L47.1591 136.7245
" />
<path d="M47.1591 136.7245
L47.5400 136.7245
" />
<path d="M47.5400 136.7245
L47.7305 136.6293
" />
<path d="M47.7305 136.6293
L47.8257 136.5341
" />
<path d="M47.8257 136.5341
L47.9210 136.3436
" />
<path d="M47.9210 136.3436
L47.9210 135.9626
" />
<path d="M47.9210 135.9626
L47.8257 135.7721
" />
<path d="M47.8257 135.7721
L47.7305 135.6769
" />
<path d="M47.7305 135.6769
L47.5400 135.5817
" />
<path d="M49.6353 135.3912
L49.6353 136.7245
" />
<path d="M49.1591 134.6293
L48.6829 136.0579
" />
<path d="M48.6829 136.0579
L49.9210 136.0579
" />
<path d="M50.5876 134.7245
L50.5876 135.1055
" />
<path d="M51.3495 134.7245
L51.3495 135.1055
" />
<path d="M54.3019 137.4864
L54.2067 137.3912
" />
<path d="M54.2067 137.3912
L54.0162 137.1055
" />
<path d="M54.0162 137.1055
L53.9210 136.9150
" />
<path d="M53.9210 136.9150
L53.8257 136.6293
" />
<path d="M53.8257 136.6293
L53.7305 136.1531
" />
<path d="M53.7305 136.1531
L53.7305 135.7721
" />
<path d="M53.7305 135.7721
L53.8257 135.2960
" />
<path d="M53.8257 135.2960
L53.9210 135.0102
" />
<path d="M53.9210 135.0102
L54.0162 134.8198
" />
<path d="M54.0162 134.8198
L54.2067 134.5341
" />
<path d="M54.2067 134.5341
L54.3019 134.4388
" />
<path d="M56.1114 136.7245
L54.9686 136.7245
" />
<path d="M55.5400 136.7245
L55.5400 134.7245
" />
<path d="M55.5400 134.7245
L55.3495 135.0102
" />
<path d="M55.3495 135.0102
L55.1591 135.2007
" />
<path d="M55.1591 135.2007
L54.9686 135.2960
" />
<path d="M56.8734 134.9150
L56.9686 134.8198
" />
<path d="M56.9686 134.8198
L57.1591 134.7245
" />
<path d="M57.1591 134.7245
L57.6353 134.7245
" />
<path d="M57.6353 134.7245
L57.8257 134.8198
" />
<path d="M57.8257 134.8198
L57.9210 134.9150
" />
<path d="M57.9210 134.9150
L58.0162 135.1055
" />
<path d="M58.0162 135.1055
L58.0162 135.2960
" />
<path d="M58.0162 135.2960
L57.9210 135.5817
" />
<path d="M57.9210 135.5817
L56.7781 136.7245
" />
<path d="M56.7781 136.7245
L58.0162 136.7245
" />
<path d="M60.3972 136.7245
L60.3972 134.7245
" />
<path d="M61.2543 136.7245
L61.2543 135.6769
" />
<path d="M61.2543 135.6769
L61.1591 135.4864
" />
<path d="M61.1591 135.4864
L60.9686 135.3912
" />
<path d="M60.9686 135.3912
L60.6829 135.3912
" />
<path d="M60.6829 135.3912
L60.4924 135.4864
" />
<path d="M60.4924 135.4864
L60.3972 135.5817
" />
<path d="M62.4924 136.7245
L62.3019 136.6293
" />
<path d="M62.3019 136.6293
L62.2067 136.5341
" />
<path d="M62.2067 136.5341
L62.1114 136.3436
" />
<path d="M62.1114 136.3436
L62.1114 135.7721
" />
<path d="M62.1114 135.7721
L62.2067 135.5817
" />
<path d="M62.2067 135.5817
L62.3019 135.4864
" />
<path d="M62.3019 135.4864
L62.4924 135.3912
" />
<path d="M62.4924 135.3912
L62.7781 135.3912
" />
<path d="M62.7781 135.3912
L62.9686 135.4864
" />
<path d="M62.9686 135.4864
L63.0638 135.5817
" />
<path d="M63.0638 135.5817
L63.1591 135.7721
" />
<path d="M63.1591 135.7721
L63.1591 136.3436
" />
<path d="M63.1591 136.3436
L63.0638 136.5341
" />
<path d="M63.0638 136.5341
L62.9686 136.6293
" />
<path d="M62.9686 136.6293
L62.7781 136.7245
" />
<path d="M62.7781 136.7245
L62.4924 136.7245
" />
<path d="M64.3019 136.7245
L64.1114 136.6293
" />
<path d="M64.1114 136.6293
L64.0162 136.4388
" />
<path d="M64.0162 136.4388
L64.0162 134.7245
" />
<path d="M65.8257 136.6293
L65.6353 136.7245
" />
<path d="M65.6353 136.7245
L65.2543 136.7245
" />
<path d="M65.2543 136.7245
L65.0638 136.6293
" />
<path d="M65.0638 136.6293
L64.9686 136.4388
" />
<path d="M64.9686 136.4388
L64.9686 135.6769
" />
<path d="M64.9686 135.6769
L65.0638 135.4864
" />
<path d="M65.0638 135.4864
L65.2543 135.3912
" />
<path d="M65.2543 135.3912
L65.6353 135.3912
" />
<path d="M65.6353 135.3912
L65.8257 135.4864
" />
<path d="M65.8257 135.4864
L65.9210 135.6769
" />
<path d="M65.9210 135.6769
L65.9210 135.8674
" />
<path d="M65.9210 135.8674
L64.9686 136.0579
" />
<path d="M66.6829 136.6293
L66.8734 136.7245
" />
<path d="M66.8734 136.7245
L67.2543 136.7245
" />
<path d="M67.2543 136.7245
L67.4448 136.6293
" />
<path d="M67.4448 136.6293
L67.5400 136.4388
" />
<path d="M67.5400 136.4388
L67.5400 136.3436
" />
<path d="M67.5400 136.3436
L67.4448 136.1531
" />
<path d="M67.4448 136.1531
L67.2543 136.0579
" />
<path d="M67.2543 136.0579
L66.9686 136.0579
" />
<path d="M66.9686 136.0579
L66.7781 135.9626
" />
<path d="M66.7781 135.9626
L66.6829 135.7721
" />
<path d="M66.6829 135.7721
L66.6829 135.6769
" />
<path d="M66.6829 135.6769
L66.7781 135.4864
" />
<path d="M66.7781 135.4864
L66.9686 135.3912
" />
<path d="M66.9686 135.3912
L67.2543 135.3912
" />
<path d="M67.2543 135.3912
L67.4448 135.4864
" />
<path d="M68.2067 137.4864
L68.3019 137.3912
" />
<path d="M68.3019 137.3912
L68.4924 137.1055
" />
<path d="M68.4924 137.1055
L68.5876 136.9150
" />
<path d="M68.5876 136.9150
L68.6829 136.6293
" />
<path d="M68.6829 136.6293
L68.7781 136.1531
" />
<path d="M68.7781 136.1531
L68.7781 135.7721
" />
<path d="M68.7781 135.7721
L68.6829 135.2960
" />
<path d="M68.6829 135.2960
L68.5876 135.0102
" />
<path d="M68.5876 135.0102
L68.4924 134.8198
" />
<path d="M68.4924 134.8198
L68.3019 134.5341
" />
<path d="M68.3019 134.5341
L68.2067 134.4388
" />
</g></g> 
</svg>
