%TF.GenerationSoftware,KiCad,Pcbnew,8.0.0*%
%TF.CreationDate,2024-03-16T16:30:29-05:00*%
%TF.ProjectId,rattlemebones32,72617474-6c65-46d6-9562-6f6e65733332,rev?*%
%TF.SameCoordinates,Original*%
%TF.FileFunction,Legend,Bot*%
%TF.FilePolarity,Positive*%
%FSLAX46Y46*%
G04 Gerber Fmt 4.6, Leading zero omitted, Abs format (unit mm)*
G04 Created by KiCad (PCBNEW 8.0.0) date 2024-03-16 16:30:29*
%MOMM*%
%LPD*%
G01*
G04 APERTURE LIST*
%ADD10C,0.200000*%
%ADD11C,0.300000*%
%ADD12C,0.000000*%
%ADD13C,0.150000*%
%ADD14C,0.120000*%
G04 APERTURE END LIST*
D10*
X166855299Y-47364010D02*
X165998157Y-47278295D01*
X166426728Y-47021153D02*
X166512442Y-47964010D01*
X166512442Y-47964010D02*
X166341014Y-48735438D01*
X166083871Y-47621153D02*
X166341014Y-48392581D01*
X166341014Y-48392581D02*
X166683871Y-48821153D01*
X166683871Y-48821153D02*
X166855299Y-48392581D01*
X166855299Y-48392581D02*
X166512442Y-47964010D01*
X166512442Y-47964010D02*
X165998157Y-47792581D01*
X165998157Y-47792581D02*
X165741014Y-48135438D01*
X165741014Y-48135438D02*
X165741014Y-48649724D01*
X165741014Y-48649724D02*
X166083871Y-48906867D01*
X164969585Y-47364010D02*
X164455300Y-47364010D01*
X164626728Y-46935438D02*
X164969585Y-48392581D01*
X164026728Y-47278295D02*
X163769585Y-47621153D01*
X164198157Y-47621153D02*
X164198157Y-48649724D01*
X164198157Y-48649724D02*
X164369585Y-48735438D01*
X164369585Y-48735438D02*
X164626728Y-48649724D01*
X164626728Y-48649724D02*
X164626728Y-48306867D01*
X164626728Y-48306867D02*
X164369585Y-48221153D01*
X164369585Y-48221153D02*
X163855300Y-48649724D01*
X163083871Y-47364010D02*
X162483871Y-47364010D01*
X162655300Y-46935438D02*
X163083871Y-48735438D01*
X162569586Y-47792581D02*
X162055300Y-47792581D01*
X162655300Y-48221153D02*
X162569586Y-48564010D01*
X162569586Y-48564010D02*
X162398157Y-48735438D01*
X162398157Y-48735438D02*
X161969586Y-48735438D01*
X160769586Y-47364010D02*
X160083872Y-47364010D01*
X160341015Y-47021153D02*
X160341015Y-48735438D01*
X160341015Y-48735438D02*
X160769586Y-48649724D01*
X160769586Y-48649724D02*
X160769586Y-48306867D01*
X160769586Y-48306867D02*
X160512443Y-48221153D01*
X160512443Y-48221153D02*
X160083872Y-48564010D01*
X161112443Y-47021153D02*
X161198157Y-47535438D01*
X161198157Y-47535438D02*
X161198157Y-48049724D01*
X161198157Y-48049724D02*
X161112443Y-48735438D01*
X161112443Y-48735438D02*
X161026729Y-48135438D01*
X159398158Y-47449724D02*
X158198158Y-47449724D01*
X158541015Y-47021153D02*
X158541015Y-48221153D01*
X158541015Y-48221153D02*
X158626729Y-48564010D01*
X158626729Y-48564010D02*
X158969586Y-48906867D01*
X158626729Y-47878295D02*
X158798158Y-47706867D01*
X158798158Y-47706867D02*
X158883872Y-47706867D01*
X158883872Y-47706867D02*
X159055301Y-47964010D01*
X159055301Y-47964010D02*
X159055301Y-48135438D01*
X159055301Y-48135438D02*
X158883872Y-48221153D01*
X158883872Y-48221153D02*
X158798158Y-48221153D01*
X158798158Y-48221153D02*
X158626729Y-48049724D01*
X157426729Y-47364010D02*
X156312444Y-47192581D01*
X156483872Y-47278295D02*
X156826729Y-47535438D01*
X156826729Y-47535438D02*
X156998158Y-47964010D01*
X156998158Y-47964010D02*
X156998158Y-48478295D01*
X156998158Y-48478295D02*
X156826729Y-48735438D01*
X156826729Y-48735438D02*
X156569587Y-48821153D01*
X156398158Y-46849724D02*
X156226729Y-47106867D01*
X156141015Y-46764010D02*
X155969587Y-47021153D01*
X155026730Y-47278295D02*
X154426730Y-47278295D01*
X155455301Y-46935438D02*
X155541015Y-47621153D01*
X155541015Y-47621153D02*
X155541015Y-48135438D01*
X155541015Y-48135438D02*
X155455301Y-48735438D01*
X155455301Y-48735438D02*
X155283873Y-48135438D01*
X155026730Y-48221153D02*
X155026730Y-48564010D01*
X155026730Y-48564010D02*
X154941015Y-48649724D01*
X154941015Y-48649724D02*
X154426730Y-48649724D01*
X152798159Y-47278295D02*
X151941016Y-47278295D01*
X153398159Y-48221153D02*
X152026730Y-48221153D01*
X153398159Y-48564010D02*
X152026730Y-48564010D01*
X152455301Y-48906867D02*
X152026730Y-48906867D01*
X153398159Y-46935438D02*
X153398159Y-47621153D01*
X153398159Y-47878295D02*
X153398159Y-48906867D01*
X153398159Y-47878295D02*
X152026730Y-47878295D01*
X152026730Y-47878295D02*
X152026730Y-48906867D01*
X153398159Y-46935438D02*
X151941016Y-46935438D01*
X151941016Y-46935438D02*
X151941016Y-47621153D01*
X152798159Y-47278295D02*
X152798159Y-47621153D01*
X153826730Y-47621153D02*
X153826730Y-47964010D01*
X153826730Y-47621153D02*
X151598159Y-47621153D01*
X151598159Y-47621153D02*
X151598159Y-47964010D01*
X150483873Y-47278295D02*
X149883873Y-47278295D01*
X150912444Y-46935438D02*
X150998158Y-47621153D01*
X150998158Y-47621153D02*
X150998158Y-48135438D01*
X150998158Y-48135438D02*
X150912444Y-48735438D01*
X150912444Y-48735438D02*
X150741016Y-48135438D01*
X150483873Y-48221153D02*
X150483873Y-48564010D01*
X150483873Y-48564010D02*
X150398158Y-48649724D01*
X150398158Y-48649724D02*
X149883873Y-48649724D01*
X149112444Y-47364010D02*
X148598159Y-47364010D01*
X148769587Y-46935438D02*
X149112444Y-48392581D01*
X148169587Y-47278295D02*
X147912444Y-47621153D01*
X148341016Y-47621153D02*
X148341016Y-48649724D01*
X148341016Y-48649724D02*
X148512444Y-48735438D01*
X148512444Y-48735438D02*
X148769587Y-48649724D01*
X148769587Y-48649724D02*
X148769587Y-48306867D01*
X148769587Y-48306867D02*
X148512444Y-48221153D01*
X148512444Y-48221153D02*
X147998159Y-48649724D01*
X147226730Y-47878295D02*
X146455302Y-47706867D01*
X146455302Y-47706867D02*
X146198159Y-47792581D01*
X146198159Y-47792581D02*
X146112445Y-48135438D01*
X146112445Y-48135438D02*
X146283873Y-48392581D01*
X146283873Y-48392581D02*
X146798159Y-48649724D01*
X145341016Y-47364010D02*
X144226731Y-47192581D01*
X144398159Y-47278295D02*
X144741016Y-47535438D01*
X144741016Y-47535438D02*
X144912445Y-47964010D01*
X144912445Y-47964010D02*
X144912445Y-48478295D01*
X144912445Y-48478295D02*
X144741016Y-48735438D01*
X144741016Y-48735438D02*
X144483874Y-48821153D01*
X142598160Y-47449724D02*
X142426731Y-47792581D01*
X142426731Y-47792581D02*
X142341017Y-48221153D01*
X143455302Y-47278295D02*
X143455302Y-47878295D01*
X143455302Y-47878295D02*
X143369588Y-48306867D01*
X143369588Y-48306867D02*
X143198160Y-48821153D01*
X143198160Y-48821153D02*
X142941017Y-48306867D01*
X141569588Y-47278295D02*
X140541017Y-47278295D01*
X141398160Y-47706867D02*
X140712446Y-47706867D01*
X140969588Y-46935438D02*
X140969588Y-48735438D01*
X140969588Y-48735438D02*
X141226731Y-48735438D01*
X141226731Y-48735438D02*
X141483874Y-48564010D01*
X141483874Y-48564010D02*
X141398160Y-48392581D01*
X141398160Y-48392581D02*
X141055303Y-48306867D01*
X141055303Y-48306867D02*
X140541017Y-48564010D01*
X139769589Y-47449724D02*
X138569589Y-47449724D01*
X138912446Y-47021153D02*
X138912446Y-48221153D01*
X138912446Y-48221153D02*
X138998160Y-48564010D01*
X138998160Y-48564010D02*
X139341017Y-48906867D01*
X138998160Y-47878295D02*
X139169589Y-47706867D01*
X139169589Y-47706867D02*
X139255303Y-47706867D01*
X139255303Y-47706867D02*
X139426732Y-47964010D01*
X139426732Y-47964010D02*
X139426732Y-48135438D01*
X139426732Y-48135438D02*
X139255303Y-48221153D01*
X139255303Y-48221153D02*
X139169589Y-48221153D01*
X139169589Y-48221153D02*
X138998160Y-48049724D01*
D11*
X181269909Y-12877531D02*
X181062853Y-12104791D01*
X181122012Y-12325574D02*
X181037237Y-12229972D01*
X181037237Y-12229972D02*
X180967252Y-12189566D01*
X180967252Y-12189566D02*
X180842070Y-12163949D01*
X180842070Y-12163949D02*
X180731679Y-12193529D01*
X180055602Y-13202904D02*
X179892916Y-12595751D01*
X179892916Y-12595751D02*
X179918532Y-12470569D01*
X179918532Y-12470569D02*
X180014134Y-12385794D01*
X180014134Y-12385794D02*
X180234917Y-12326636D01*
X180234917Y-12326636D02*
X180360098Y-12352252D01*
X180040812Y-13147708D02*
X180165994Y-13173325D01*
X180165994Y-13173325D02*
X180441972Y-13099376D01*
X180441972Y-13099376D02*
X180537574Y-13014601D01*
X180537574Y-13014601D02*
X180563191Y-12889420D01*
X180563191Y-12889420D02*
X180533611Y-12779029D01*
X180533611Y-12779029D02*
X180448836Y-12683427D01*
X180448836Y-12683427D02*
X180323655Y-12657810D01*
X180323655Y-12657810D02*
X180047676Y-12731759D01*
X180047676Y-12731759D02*
X179922495Y-12706142D01*
X179462177Y-12533691D02*
X179020611Y-12652008D01*
X179193062Y-12191689D02*
X179459276Y-13185213D01*
X179459276Y-13185213D02*
X179433659Y-13310394D01*
X179433659Y-13310394D02*
X179338057Y-13395169D01*
X179338057Y-13395169D02*
X179227666Y-13424749D01*
X178799828Y-12711167D02*
X178358262Y-12829484D01*
X178530713Y-12369165D02*
X178796927Y-13362689D01*
X178796927Y-13362689D02*
X178771310Y-13487870D01*
X178771310Y-13487870D02*
X178675709Y-13572645D01*
X178675709Y-13572645D02*
X178565317Y-13602225D01*
X178013360Y-13750121D02*
X178108962Y-13665346D01*
X178108962Y-13665346D02*
X178134578Y-13540165D01*
X178134578Y-13540165D02*
X177868364Y-12546641D01*
X177115438Y-13931560D02*
X177240619Y-13957176D01*
X177240619Y-13957176D02*
X177461403Y-13898018D01*
X177461403Y-13898018D02*
X177557004Y-13813243D01*
X177557004Y-13813243D02*
X177582621Y-13688061D01*
X177582621Y-13688061D02*
X177464304Y-13246495D01*
X177464304Y-13246495D02*
X177379528Y-13150893D01*
X177379528Y-13150893D02*
X177254347Y-13125277D01*
X177254347Y-13125277D02*
X177033564Y-13184436D01*
X177033564Y-13184436D02*
X176937962Y-13269211D01*
X176937962Y-13269211D02*
X176912346Y-13394392D01*
X176912346Y-13394392D02*
X176941925Y-13504783D01*
X176941925Y-13504783D02*
X177523462Y-13467278D01*
X176578271Y-14134652D02*
X176371216Y-13361911D01*
X176400795Y-13472303D02*
X176330809Y-13431897D01*
X176330809Y-13431897D02*
X176205628Y-13406280D01*
X176205628Y-13406280D02*
X176040041Y-13450649D01*
X176040041Y-13450649D02*
X175944439Y-13535424D01*
X175944439Y-13535424D02*
X175918823Y-13660606D01*
X175918823Y-13660606D02*
X176081509Y-14267759D01*
X175918823Y-13660606D02*
X175834048Y-13565004D01*
X175834048Y-13565004D02*
X175708866Y-13539387D01*
X175708866Y-13539387D02*
X175543279Y-13583756D01*
X175543279Y-13583756D02*
X175447677Y-13668531D01*
X175447677Y-13668531D02*
X175422061Y-13793713D01*
X175422061Y-13793713D02*
X175584747Y-14400866D01*
X174576434Y-14611884D02*
X174701615Y-14637500D01*
X174701615Y-14637500D02*
X174922398Y-14578342D01*
X174922398Y-14578342D02*
X175018000Y-14493567D01*
X175018000Y-14493567D02*
X175043616Y-14368386D01*
X175043616Y-14368386D02*
X174925299Y-13926819D01*
X174925299Y-13926819D02*
X174840524Y-13831218D01*
X174840524Y-13831218D02*
X174715343Y-13805601D01*
X174715343Y-13805601D02*
X174494560Y-13864760D01*
X174494560Y-13864760D02*
X174398958Y-13949535D01*
X174398958Y-13949535D02*
X174373341Y-14074716D01*
X174373341Y-14074716D02*
X174402921Y-14185108D01*
X174402921Y-14185108D02*
X174984458Y-14147603D01*
X174039266Y-14814976D02*
X173728683Y-13655865D01*
X173847001Y-14097431D02*
X173721819Y-14071815D01*
X173721819Y-14071815D02*
X173501036Y-14130974D01*
X173501036Y-14130974D02*
X173405434Y-14215749D01*
X173405434Y-14215749D02*
X173365028Y-14285734D01*
X173365028Y-14285734D02*
X173339412Y-14410915D01*
X173339412Y-14410915D02*
X173428150Y-14742090D01*
X173428150Y-14742090D02*
X173512925Y-14837692D01*
X173512925Y-14837692D02*
X173582910Y-14878098D01*
X173582910Y-14878098D02*
X173708092Y-14903714D01*
X173708092Y-14903714D02*
X173928875Y-14844556D01*
X173928875Y-14844556D02*
X174024476Y-14759781D01*
X172824960Y-15140349D02*
X172920562Y-15055574D01*
X172920562Y-15055574D02*
X172960968Y-14985588D01*
X172960968Y-14985588D02*
X172986584Y-14860407D01*
X172986584Y-14860407D02*
X172897846Y-14529232D01*
X172897846Y-14529232D02*
X172813071Y-14433631D01*
X172813071Y-14433631D02*
X172743086Y-14393224D01*
X172743086Y-14393224D02*
X172617904Y-14367608D01*
X172617904Y-14367608D02*
X172452317Y-14411977D01*
X172452317Y-14411977D02*
X172356715Y-14496752D01*
X172356715Y-14496752D02*
X172316309Y-14566738D01*
X172316309Y-14566738D02*
X172290693Y-14691919D01*
X172290693Y-14691919D02*
X172379431Y-15023093D01*
X172379431Y-15023093D02*
X172464206Y-15118695D01*
X172464206Y-15118695D02*
X172534191Y-15159101D01*
X172534191Y-15159101D02*
X172659372Y-15184718D01*
X172659372Y-15184718D02*
X172824960Y-15140349D01*
X171734773Y-14604243D02*
X171941828Y-15376983D01*
X171764352Y-14714634D02*
X171694366Y-14674228D01*
X171694366Y-14674228D02*
X171569185Y-14648612D01*
X171569185Y-14648612D02*
X171403598Y-14692980D01*
X171403598Y-14692980D02*
X171307996Y-14777756D01*
X171307996Y-14777756D02*
X171282380Y-14902937D01*
X171282380Y-14902937D02*
X171445066Y-15510090D01*
X170436753Y-15721108D02*
X170561934Y-15746725D01*
X170561934Y-15746725D02*
X170782717Y-15687566D01*
X170782717Y-15687566D02*
X170878319Y-15602791D01*
X170878319Y-15602791D02*
X170903935Y-15477610D01*
X170903935Y-15477610D02*
X170785618Y-15036044D01*
X170785618Y-15036044D02*
X170700843Y-14940442D01*
X170700843Y-14940442D02*
X170575662Y-14914825D01*
X170575662Y-14914825D02*
X170354879Y-14973984D01*
X170354879Y-14973984D02*
X170259277Y-15058759D01*
X170259277Y-15058759D02*
X170233660Y-15183940D01*
X170233660Y-15183940D02*
X170263240Y-15294332D01*
X170263240Y-15294332D02*
X170844777Y-15256827D01*
X169802922Y-15121880D02*
X169195768Y-15284567D01*
X169195768Y-15284567D02*
X170009977Y-15894621D01*
X170009977Y-15894621D02*
X169402823Y-16057307D01*
X168761066Y-14986934D02*
X168043521Y-15179200D01*
X168043521Y-15179200D02*
X168548208Y-15517238D01*
X168548208Y-15517238D02*
X168382621Y-15561607D01*
X168382621Y-15561607D02*
X168287019Y-15646383D01*
X168287019Y-15646383D02*
X168246613Y-15716368D01*
X168246613Y-15716368D02*
X168220997Y-15841549D01*
X168220997Y-15841549D02*
X168294945Y-16117528D01*
X168294945Y-16117528D02*
X168379720Y-16213130D01*
X168379720Y-16213130D02*
X168449705Y-16253536D01*
X168449705Y-16253536D02*
X168574887Y-16279152D01*
X168574887Y-16279152D02*
X168906061Y-16190414D01*
X168906061Y-16190414D02*
X169001663Y-16105639D01*
X169001663Y-16105639D02*
X169042069Y-16035654D01*
X167631534Y-15407909D02*
X167561549Y-15367503D01*
X167561549Y-15367503D02*
X167436367Y-15341886D01*
X167436367Y-15341886D02*
X167160389Y-15415835D01*
X167160389Y-15415835D02*
X167064787Y-15500610D01*
X167064787Y-15500610D02*
X167024381Y-15570595D01*
X167024381Y-15570595D02*
X166998764Y-15695776D01*
X166998764Y-15695776D02*
X167028344Y-15806168D01*
X167028344Y-15806168D02*
X167127908Y-15956965D01*
X167127908Y-15956965D02*
X167967733Y-16441839D01*
X167967733Y-16441839D02*
X167250188Y-16634104D01*
X179948471Y-15231694D02*
X179637888Y-14072583D01*
X179756205Y-14514149D02*
X179631024Y-14488533D01*
X179631024Y-14488533D02*
X179410241Y-14547691D01*
X179410241Y-14547691D02*
X179314639Y-14632466D01*
X179314639Y-14632466D02*
X179274233Y-14702452D01*
X179274233Y-14702452D02*
X179248617Y-14827633D01*
X179248617Y-14827633D02*
X179337355Y-15158807D01*
X179337355Y-15158807D02*
X179422130Y-15254409D01*
X179422130Y-15254409D02*
X179492115Y-15294815D01*
X179492115Y-15294815D02*
X179617296Y-15320432D01*
X179617296Y-15320432D02*
X179838079Y-15261273D01*
X179838079Y-15261273D02*
X179933681Y-15176498D01*
X178803088Y-14710377D02*
X178734164Y-15557066D01*
X178251130Y-14858274D02*
X178734164Y-15557066D01*
X178734164Y-15557066D02*
X178918504Y-15803466D01*
X178918504Y-15803466D02*
X178988490Y-15843872D01*
X178988490Y-15843872D02*
X179113671Y-15869488D01*
X177173893Y-15915981D02*
X177078291Y-16000756D01*
X177078291Y-16000756D02*
X176857508Y-16059915D01*
X176857508Y-16059915D02*
X176732327Y-16034298D01*
X176732327Y-16034298D02*
X176647552Y-15938697D01*
X176647552Y-15938697D02*
X176632762Y-15883501D01*
X176632762Y-15883501D02*
X176658378Y-15758320D01*
X176658378Y-15758320D02*
X176753980Y-15673545D01*
X176753980Y-15673545D02*
X176919568Y-15629176D01*
X176919568Y-15629176D02*
X177015169Y-15544401D01*
X177015169Y-15544401D02*
X177040786Y-15419219D01*
X177040786Y-15419219D02*
X177025996Y-15364024D01*
X177025996Y-15364024D02*
X176941221Y-15268422D01*
X176941221Y-15268422D02*
X176816040Y-15242805D01*
X176816040Y-15242805D02*
X176650453Y-15287174D01*
X176650453Y-15287174D02*
X176554851Y-15371949D01*
X175988103Y-15464650D02*
X176298686Y-16623761D01*
X176002893Y-15519846D02*
X175877712Y-15494230D01*
X175877712Y-15494230D02*
X175656929Y-15553388D01*
X175656929Y-15553388D02*
X175561327Y-15638163D01*
X175561327Y-15638163D02*
X175520921Y-15708149D01*
X175520921Y-15708149D02*
X175495304Y-15833330D01*
X175495304Y-15833330D02*
X175584042Y-16164504D01*
X175584042Y-16164504D02*
X175668817Y-16260106D01*
X175668817Y-16260106D02*
X175738803Y-16300512D01*
X175738803Y-16300512D02*
X175863984Y-16326129D01*
X175863984Y-16326129D02*
X176084767Y-16266970D01*
X176084767Y-16266970D02*
X176180369Y-16182195D01*
X174980852Y-16562763D02*
X175076454Y-16477988D01*
X175076454Y-16477988D02*
X175116860Y-16408003D01*
X175116860Y-16408003D02*
X175142476Y-16282822D01*
X175142476Y-16282822D02*
X175053738Y-15951647D01*
X175053738Y-15951647D02*
X174968963Y-15856045D01*
X174968963Y-15856045D02*
X174898978Y-15815639D01*
X174898978Y-15815639D02*
X174773797Y-15790023D01*
X174773797Y-15790023D02*
X174608209Y-15834392D01*
X174608209Y-15834392D02*
X174512607Y-15919167D01*
X174512607Y-15919167D02*
X174472201Y-15989152D01*
X174472201Y-15989152D02*
X174446585Y-16114333D01*
X174446585Y-16114333D02*
X174535323Y-16445508D01*
X174535323Y-16445508D02*
X174620098Y-16541110D01*
X174620098Y-16541110D02*
X174690083Y-16581516D01*
X174690083Y-16581516D02*
X174815265Y-16607132D01*
X174815265Y-16607132D02*
X174980852Y-16562763D01*
X174097720Y-16799398D02*
X173890665Y-16026657D01*
X173949823Y-16247440D02*
X173865048Y-16151838D01*
X173865048Y-16151838D02*
X173795063Y-16111432D01*
X173795063Y-16111432D02*
X173669882Y-16085816D01*
X173669882Y-16085816D02*
X173559490Y-16115395D01*
X172923819Y-17054785D02*
X173049001Y-17080401D01*
X173049001Y-17080401D02*
X173269784Y-17021243D01*
X173269784Y-17021243D02*
X173365386Y-16936468D01*
X173365386Y-16936468D02*
X173391002Y-16811286D01*
X173391002Y-16811286D02*
X173272685Y-16369720D01*
X173272685Y-16369720D02*
X173187910Y-16274118D01*
X173187910Y-16274118D02*
X173062728Y-16248502D01*
X173062728Y-16248502D02*
X172841945Y-16307661D01*
X172841945Y-16307661D02*
X172746343Y-16392436D01*
X172746343Y-16392436D02*
X172720727Y-16517617D01*
X172720727Y-16517617D02*
X172750306Y-16628008D01*
X172750306Y-16628008D02*
X173331843Y-16590503D01*
X172289988Y-16455557D02*
X172276260Y-17287456D01*
X172276260Y-17287456D02*
X171907581Y-16794657D01*
X171907581Y-16794657D02*
X171834694Y-17405774D01*
X171834694Y-17405774D02*
X171406856Y-16692192D01*
X171006758Y-17627619D02*
X171102360Y-17542844D01*
X171102360Y-17542844D02*
X171142766Y-17472858D01*
X171142766Y-17472858D02*
X171168382Y-17347677D01*
X171168382Y-17347677D02*
X171079644Y-17016502D01*
X171079644Y-17016502D02*
X170994869Y-16920901D01*
X170994869Y-16920901D02*
X170924884Y-16880494D01*
X170924884Y-16880494D02*
X170799702Y-16854878D01*
X170799702Y-16854878D02*
X170634115Y-16899247D01*
X170634115Y-16899247D02*
X170538513Y-16984022D01*
X170538513Y-16984022D02*
X170498107Y-17054007D01*
X170498107Y-17054007D02*
X170472491Y-17179189D01*
X170472491Y-17179189D02*
X170561229Y-17510363D01*
X170561229Y-17510363D02*
X170646004Y-17605965D01*
X170646004Y-17605965D02*
X170715989Y-17646371D01*
X170715989Y-17646371D02*
X170841170Y-17671988D01*
X170841170Y-17671988D02*
X171006758Y-17627619D01*
X170123626Y-17864253D02*
X169813043Y-16705142D01*
X169626864Y-17997360D02*
X169464178Y-17390207D01*
X169464178Y-17390207D02*
X169489794Y-17265026D01*
X169489794Y-17265026D02*
X169585396Y-17180250D01*
X169585396Y-17180250D02*
X169750983Y-17135881D01*
X169750983Y-17135881D02*
X169876164Y-17161498D01*
X169876164Y-17161498D02*
X169946150Y-17201904D01*
X176736506Y-17264201D02*
X176667582Y-18110890D01*
X176667582Y-18110890D02*
X176184548Y-17412097D01*
X175342884Y-18465841D02*
X176005233Y-18288366D01*
X175674058Y-18377103D02*
X175363475Y-17217992D01*
X175363475Y-17217992D02*
X175518236Y-17354000D01*
X175518236Y-17354000D02*
X175658207Y-17434813D01*
X175658207Y-17434813D02*
X175783388Y-17460429D01*
X174816543Y-18488557D02*
X174776137Y-18558542D01*
X174776137Y-18558542D02*
X174846122Y-18598948D01*
X174846122Y-18598948D02*
X174886528Y-18528963D01*
X174886528Y-18528963D02*
X174816543Y-18488557D01*
X174816543Y-18488557D02*
X174846122Y-18598948D01*
X173762798Y-17646893D02*
X173652407Y-17676472D01*
X173652407Y-17676472D02*
X173556805Y-17761247D01*
X173556805Y-17761247D02*
X173516399Y-17831233D01*
X173516399Y-17831233D02*
X173490782Y-17956414D01*
X173490782Y-17956414D02*
X173494745Y-18191986D01*
X173494745Y-18191986D02*
X173568693Y-18467965D01*
X173568693Y-18467965D02*
X173683048Y-18673959D01*
X173683048Y-18673959D02*
X173767823Y-18769560D01*
X173767823Y-18769560D02*
X173837808Y-18809967D01*
X173837808Y-18809967D02*
X173962989Y-18835583D01*
X173962989Y-18835583D02*
X174073381Y-18806004D01*
X174073381Y-18806004D02*
X174168983Y-18721229D01*
X174168983Y-18721229D02*
X174209389Y-18651243D01*
X174209389Y-18651243D02*
X174235005Y-18526062D01*
X174235005Y-18526062D02*
X174231042Y-18290489D01*
X174231042Y-18290489D02*
X174157094Y-18014510D01*
X174157094Y-18014510D02*
X174042740Y-17808517D01*
X174042740Y-17808517D02*
X173957965Y-17712915D01*
X173957965Y-17712915D02*
X173887979Y-17672509D01*
X173887979Y-17672509D02*
X173762798Y-17646893D01*
D12*
G36*
X134525353Y-15852042D02*
G01*
X134109219Y-17405070D01*
X133718148Y-18864564D01*
X130705627Y-19671767D01*
X128500306Y-17466446D01*
X128709069Y-16687333D01*
X129252695Y-16687333D01*
X129253815Y-16780117D01*
X129258769Y-16872334D01*
X129267483Y-16963878D01*
X129279916Y-17054652D01*
X129295995Y-17144555D01*
X129315669Y-17233480D01*
X129338879Y-17321331D01*
X129365566Y-17408005D01*
X129395667Y-17493393D01*
X129429131Y-17577405D01*
X129450674Y-17527220D01*
X129473624Y-17477962D01*
X129480942Y-17463430D01*
X130338712Y-17463430D01*
X130338770Y-17467419D01*
X130339018Y-17471413D01*
X130339455Y-17475401D01*
X130340085Y-17479387D01*
X130340914Y-17483351D01*
X130341937Y-17487292D01*
X130343153Y-17491211D01*
X130344574Y-17495087D01*
X130346196Y-17498921D01*
X130348025Y-17502708D01*
X130350056Y-17506434D01*
X130352269Y-17510059D01*
X130354634Y-17513534D01*
X130357144Y-17516854D01*
X130359793Y-17520024D01*
X130362571Y-17523036D01*
X130365475Y-17525895D01*
X130368497Y-17528592D01*
X130371627Y-17531129D01*
X130374864Y-17533505D01*
X130378202Y-17535717D01*
X130381625Y-17537761D01*
X130385137Y-17539636D01*
X130388723Y-17541342D01*
X130392379Y-17542880D01*
X130396103Y-17544240D01*
X130399883Y-17545427D01*
X130403711Y-17546437D01*
X130407584Y-17547270D01*
X130411495Y-17547922D01*
X130415433Y-17548388D01*
X130419398Y-17548673D01*
X130423378Y-17548770D01*
X130427367Y-17548681D01*
X130431363Y-17548402D01*
X130435353Y-17547929D01*
X130439334Y-17547266D01*
X130443292Y-17546412D01*
X130447233Y-17545357D01*
X130451141Y-17544103D01*
X130455010Y-17542645D01*
X130458836Y-17540988D01*
X130462614Y-17539131D01*
X130462635Y-17539160D01*
X130462641Y-17539177D01*
X130462651Y-17539194D01*
X130465715Y-17537426D01*
X130695375Y-17404832D01*
X130829736Y-17637553D01*
X130829755Y-17637544D01*
X130829768Y-17637532D01*
X130829787Y-17637524D01*
X130829800Y-17637516D01*
X130832143Y-17641016D01*
X130834629Y-17644364D01*
X130837253Y-17647559D01*
X130840011Y-17650597D01*
X130842894Y-17653485D01*
X130845897Y-17656208D01*
X130849011Y-17658771D01*
X130852229Y-17661173D01*
X130855550Y-17663411D01*
X130858960Y-17665484D01*
X130862454Y-17667389D01*
X130866031Y-17669124D01*
X130869676Y-17670691D01*
X130873390Y-17672083D01*
X130877158Y-17673296D01*
X130880980Y-17674340D01*
X130884846Y-17675201D01*
X130888751Y-17675879D01*
X130892686Y-17676379D01*
X130896647Y-17676694D01*
X130900624Y-17676826D01*
X130904615Y-17676766D01*
X130908608Y-17676522D01*
X130912598Y-17676082D01*
X130916579Y-17675453D01*
X130920544Y-17674629D01*
X130924488Y-17673602D01*
X130928401Y-17672385D01*
X130932278Y-17670963D01*
X130936113Y-17669341D01*
X130939898Y-17667512D01*
X130943629Y-17665483D01*
X130947252Y-17663268D01*
X130950724Y-17660904D01*
X130954047Y-17658393D01*
X130957218Y-17655744D01*
X130960232Y-17652967D01*
X130963088Y-17650063D01*
X130965786Y-17647040D01*
X130968323Y-17643909D01*
X130970700Y-17640672D01*
X130972909Y-17637335D01*
X130974953Y-17633912D01*
X130976829Y-17630400D01*
X130978537Y-17626812D01*
X130980074Y-17623156D01*
X130981435Y-17619431D01*
X130982623Y-17615653D01*
X130983632Y-17611824D01*
X130984464Y-17607951D01*
X130985113Y-17604043D01*
X130985580Y-17600102D01*
X130985867Y-17596138D01*
X130985965Y-17592159D01*
X130985874Y-17588169D01*
X130985596Y-17584174D01*
X130985125Y-17580185D01*
X130984462Y-17576206D01*
X130983605Y-17572241D01*
X130982548Y-17568303D01*
X130981293Y-17564397D01*
X130979839Y-17560524D01*
X130978184Y-17556700D01*
X130976322Y-17552921D01*
X130976338Y-17552915D01*
X130976356Y-17552905D01*
X130976386Y-17552884D01*
X130949396Y-17506136D01*
X131456365Y-17506136D01*
X131456398Y-17510210D01*
X131456627Y-17514253D01*
X131457047Y-17518263D01*
X131457656Y-17522232D01*
X131458450Y-17526151D01*
X131459430Y-17530021D01*
X131460582Y-17533828D01*
X131461912Y-17537572D01*
X131463413Y-17541245D01*
X131465084Y-17544839D01*
X131466916Y-17548352D01*
X131468909Y-17551775D01*
X131471057Y-17555100D01*
X131473365Y-17558325D01*
X131475819Y-17561441D01*
X131478420Y-17564446D01*
X131481165Y-17567330D01*
X131484051Y-17570090D01*
X131487071Y-17572714D01*
X131490225Y-17575202D01*
X131493506Y-17577548D01*
X131496915Y-17579742D01*
X131500449Y-17581779D01*
X131504101Y-17583656D01*
X131507865Y-17585366D01*
X131511741Y-17586901D01*
X131515728Y-17588257D01*
X131515707Y-17588331D01*
X131775275Y-17657885D01*
X131732735Y-17816646D01*
X131705723Y-17917452D01*
X131705801Y-17917473D01*
X131704982Y-17921601D01*
X131704369Y-17925726D01*
X131703965Y-17929843D01*
X131703767Y-17933942D01*
X131703768Y-17938019D01*
X131703965Y-17942068D01*
X131704354Y-17946082D01*
X131704931Y-17950061D01*
X131705693Y-17953988D01*
X131706640Y-17957866D01*
X131707770Y-17961688D01*
X131709068Y-17965440D01*
X131710540Y-17969124D01*
X131712182Y-17972732D01*
X131713986Y-17976260D01*
X131715953Y-17979699D01*
X131718077Y-17983039D01*
X131720354Y-17986282D01*
X131722787Y-17989419D01*
X131725364Y-17992443D01*
X131728084Y-17995345D01*
X131730945Y-17998127D01*
X131733942Y-18000773D01*
X131737075Y-18003284D01*
X131740339Y-18005657D01*
X131743724Y-18007876D01*
X131747236Y-18009940D01*
X131750868Y-18011846D01*
X131754612Y-18013583D01*
X131758474Y-18015146D01*
X131762440Y-18016532D01*
X131766513Y-18017735D01*
X131770645Y-18018729D01*
X131774772Y-18019515D01*
X131778896Y-18020088D01*
X131783007Y-18020458D01*
X131787103Y-18020625D01*
X131791178Y-18020595D01*
X131795222Y-18020363D01*
X131799233Y-18019939D01*
X131803198Y-18019333D01*
X131807122Y-18018536D01*
X131810988Y-18017561D01*
X131814796Y-18016404D01*
X131818540Y-18015077D01*
X131822212Y-18013574D01*
X131825809Y-18011907D01*
X131829321Y-18010073D01*
X131832742Y-18008079D01*
X131836067Y-18005930D01*
X131839290Y-18003624D01*
X131842412Y-18001169D01*
X131845415Y-17998567D01*
X131848298Y-17995825D01*
X131851057Y-17992938D01*
X131853683Y-17989919D01*
X131856169Y-17986762D01*
X131858515Y-17983479D01*
X131860713Y-17980071D01*
X131862750Y-17976541D01*
X131864627Y-17972889D01*
X131866336Y-17969125D01*
X131867870Y-17965245D01*
X131869223Y-17961262D01*
X131869300Y-17961279D01*
X131938853Y-17701714D01*
X132198422Y-17771263D01*
X132198441Y-17771187D01*
X132202569Y-17772007D01*
X132206693Y-17772621D01*
X132210808Y-17773022D01*
X132214908Y-17773220D01*
X132218988Y-17773222D01*
X132223036Y-17773024D01*
X132227053Y-17772636D01*
X132231028Y-17772058D01*
X132234957Y-17771293D01*
X132238835Y-17770347D01*
X132242653Y-17769221D01*
X132246409Y-17767922D01*
X132250095Y-17766449D01*
X132253703Y-17764808D01*
X132257226Y-17763004D01*
X132260665Y-17761037D01*
X132264009Y-17758915D01*
X132267253Y-17756630D01*
X132270386Y-17754203D01*
X132273407Y-17751626D01*
X132276311Y-17748905D01*
X132279095Y-17746043D01*
X132281743Y-17743045D01*
X132284255Y-17739913D01*
X132286625Y-17736651D01*
X132288845Y-17733264D01*
X132290911Y-17729753D01*
X132292813Y-17726121D01*
X132294553Y-17722374D01*
X132296117Y-17718518D01*
X132297503Y-17714549D01*
X132298700Y-17710474D01*
X132299699Y-17706347D01*
X132300483Y-17702218D01*
X132301058Y-17698095D01*
X132301426Y-17693980D01*
X132301593Y-17689884D01*
X132301561Y-17685811D01*
X132301332Y-17681766D01*
X132300909Y-17677757D01*
X132300300Y-17673790D01*
X132299505Y-17669868D01*
X132298529Y-17665999D01*
X132297375Y-17662192D01*
X132296046Y-17658446D01*
X132294542Y-17654776D01*
X132292873Y-17651180D01*
X132291043Y-17647670D01*
X132289048Y-17644244D01*
X132286898Y-17640922D01*
X132284592Y-17637697D01*
X132282137Y-17634578D01*
X132279536Y-17631577D01*
X132276793Y-17628690D01*
X132273905Y-17625933D01*
X132270887Y-17623304D01*
X132267733Y-17620814D01*
X132264449Y-17618471D01*
X132261040Y-17616276D01*
X132257509Y-17614238D01*
X132253859Y-17612363D01*
X132250094Y-17610652D01*
X132246217Y-17609119D01*
X132242229Y-17607764D01*
X132242251Y-17607690D01*
X131982681Y-17538138D01*
X132052233Y-17278571D01*
X132052157Y-17278547D01*
X132052975Y-17274422D01*
X132053585Y-17270294D01*
X132053989Y-17266179D01*
X132054188Y-17262079D01*
X132054190Y-17258002D01*
X132053993Y-17253951D01*
X132053602Y-17249936D01*
X132053025Y-17245960D01*
X132052260Y-17242032D01*
X132051314Y-17238152D01*
X132050187Y-17234333D01*
X132048889Y-17230579D01*
X132047419Y-17226896D01*
X132045779Y-17223285D01*
X132043972Y-17219762D01*
X132042003Y-17216322D01*
X132039878Y-17212979D01*
X132037601Y-17209739D01*
X132035172Y-17206604D01*
X132032593Y-17203580D01*
X132029871Y-17200674D01*
X132027011Y-17197894D01*
X132024010Y-17195245D01*
X132020881Y-17192732D01*
X132017620Y-17190364D01*
X132014229Y-17188145D01*
X132010722Y-17186076D01*
X132007088Y-17184173D01*
X132003342Y-17182437D01*
X131999484Y-17180871D01*
X131995513Y-17179488D01*
X131991443Y-17178286D01*
X131987314Y-17177291D01*
X131983187Y-17176506D01*
X131979063Y-17175930D01*
X131974949Y-17175559D01*
X131970852Y-17175393D01*
X131966782Y-17175429D01*
X131962737Y-17175657D01*
X131958725Y-17176077D01*
X131954759Y-17176688D01*
X131950836Y-17177485D01*
X131946970Y-17178459D01*
X131943159Y-17179615D01*
X131939417Y-17180943D01*
X131935742Y-17182446D01*
X131932148Y-17184113D01*
X131928635Y-17185948D01*
X131925215Y-17187940D01*
X131921887Y-17190088D01*
X131918663Y-17192395D01*
X131915545Y-17194850D01*
X131912542Y-17197451D01*
X131909658Y-17200195D01*
X131906900Y-17203080D01*
X131904273Y-17206104D01*
X131901784Y-17209256D01*
X131899440Y-17212539D01*
X131897243Y-17215948D01*
X131895207Y-17219480D01*
X131893330Y-17223131D01*
X131891620Y-17226897D01*
X131890087Y-17230774D01*
X131888733Y-17234759D01*
X131888655Y-17234739D01*
X131819107Y-17494308D01*
X131562849Y-17425645D01*
X131559537Y-17424756D01*
X131559519Y-17424832D01*
X131555388Y-17424012D01*
X131551262Y-17423400D01*
X131547147Y-17422997D01*
X131543046Y-17422799D01*
X131538971Y-17422800D01*
X131534920Y-17422996D01*
X131530903Y-17423387D01*
X131526930Y-17423963D01*
X131522999Y-17424727D01*
X131519121Y-17425675D01*
X131515305Y-17426799D01*
X131511548Y-17428100D01*
X131507863Y-17429573D01*
X131504255Y-17431212D01*
X131500728Y-17433017D01*
X131497290Y-17434984D01*
X131493949Y-17437109D01*
X131490707Y-17439387D01*
X131487571Y-17441816D01*
X131484547Y-17444395D01*
X131481642Y-17447114D01*
X131478867Y-17449973D01*
X131476214Y-17452975D01*
X131473701Y-17456107D01*
X131471333Y-17459369D01*
X131469114Y-17462758D01*
X131467044Y-17466268D01*
X131465141Y-17469900D01*
X131463405Y-17473646D01*
X131461841Y-17477504D01*
X131460457Y-17481472D01*
X131459256Y-17485545D01*
X131458257Y-17489673D01*
X131457473Y-17493802D01*
X131456898Y-17497925D01*
X131456531Y-17502040D01*
X131456365Y-17506136D01*
X130949396Y-17506136D01*
X130842024Y-17320164D01*
X131071687Y-17187568D01*
X131074746Y-17185799D01*
X131074729Y-17185768D01*
X131074709Y-17185735D01*
X131078207Y-17183395D01*
X131081559Y-17180909D01*
X131084753Y-17178286D01*
X131087795Y-17175524D01*
X131090675Y-17172644D01*
X131093400Y-17169641D01*
X131095966Y-17166524D01*
X131098366Y-17163305D01*
X131100605Y-17159987D01*
X131102678Y-17156575D01*
X131104583Y-17153079D01*
X131106319Y-17149506D01*
X131107881Y-17145860D01*
X131109274Y-17142150D01*
X131110491Y-17138378D01*
X131111529Y-17134555D01*
X131112391Y-17130689D01*
X131113074Y-17126786D01*
X131113573Y-17122853D01*
X131113887Y-17118890D01*
X131114017Y-17114911D01*
X131113959Y-17110923D01*
X131113713Y-17106930D01*
X131113274Y-17102940D01*
X131112642Y-17098957D01*
X131111817Y-17094990D01*
X131110794Y-17091048D01*
X131109575Y-17087134D01*
X131108155Y-17083256D01*
X131106531Y-17079423D01*
X131104702Y-17075637D01*
X131102674Y-17071908D01*
X131100461Y-17068285D01*
X131098094Y-17064812D01*
X131095583Y-17061489D01*
X131092937Y-17058318D01*
X131090159Y-17055304D01*
X131087255Y-17052448D01*
X131084234Y-17049751D01*
X131081098Y-17047210D01*
X131077863Y-17044834D01*
X131074529Y-17042627D01*
X131071103Y-17040582D01*
X131067591Y-17038705D01*
X131064007Y-17036998D01*
X131060349Y-17035463D01*
X131056624Y-17034097D01*
X131052845Y-17032913D01*
X131049016Y-17031903D01*
X131045145Y-17031072D01*
X131041234Y-17030420D01*
X131037296Y-17029951D01*
X131033331Y-17029668D01*
X131029350Y-17029569D01*
X131025361Y-17029659D01*
X131021369Y-17029939D01*
X131017380Y-17030405D01*
X131013398Y-17031072D01*
X131009436Y-17031929D01*
X131005496Y-17032985D01*
X131001589Y-17034240D01*
X130997716Y-17035694D01*
X130993889Y-17037350D01*
X130990115Y-17039213D01*
X130990107Y-17039197D01*
X130990095Y-17039180D01*
X130990076Y-17039148D01*
X130987012Y-17040915D01*
X130757354Y-17173511D01*
X130624760Y-16943848D01*
X130624731Y-16943799D01*
X130624705Y-16943752D01*
X130622993Y-16940788D01*
X130622963Y-16940807D01*
X130622945Y-16940817D01*
X130622931Y-16940827D01*
X130620589Y-16937327D01*
X130618104Y-16933976D01*
X130615479Y-16930782D01*
X130612721Y-16927744D01*
X130609838Y-16924859D01*
X130606834Y-16922134D01*
X130603719Y-16919570D01*
X130600501Y-16917169D01*
X130597182Y-16914931D01*
X130593769Y-16912859D01*
X130590277Y-16910952D01*
X130586699Y-16909218D01*
X130583056Y-16907652D01*
X130579343Y-16906262D01*
X130575572Y-16905046D01*
X130571751Y-16904006D01*
X130567885Y-16903145D01*
X130563981Y-16902463D01*
X130560046Y-16901963D01*
X130556087Y-16901648D01*
X130552106Y-16901518D01*
X130548120Y-16901576D01*
X130544126Y-16901823D01*
X130540135Y-16902262D01*
X130536152Y-16902893D01*
X130532188Y-16903717D01*
X130528243Y-16904740D01*
X130524332Y-16905959D01*
X130520451Y-16907382D01*
X130516618Y-16909005D01*
X130512833Y-16910829D01*
X130509103Y-16912862D01*
X130505479Y-16915075D01*
X130502004Y-16917440D01*
X130498681Y-16919950D01*
X130495515Y-16922597D01*
X130492500Y-16925375D01*
X130489644Y-16928281D01*
X130486944Y-16931303D01*
X130484407Y-16934435D01*
X130482035Y-16937673D01*
X130479823Y-16941006D01*
X130477777Y-16944433D01*
X130475903Y-16947942D01*
X130474196Y-16951529D01*
X130472659Y-16955187D01*
X130471297Y-16958908D01*
X130470111Y-16962687D01*
X130469100Y-16966518D01*
X130468270Y-16970392D01*
X130467619Y-16974302D01*
X130467150Y-16978241D01*
X130466866Y-16982201D01*
X130466767Y-16986183D01*
X130466857Y-16990175D01*
X130467135Y-16994169D01*
X130467607Y-16998158D01*
X130468270Y-17002137D01*
X130469128Y-17006101D01*
X130470183Y-17010039D01*
X130471438Y-17013947D01*
X130472892Y-17017818D01*
X130474549Y-17021644D01*
X130476410Y-17025422D01*
X130476391Y-17025433D01*
X130476376Y-17025439D01*
X130476347Y-17025457D01*
X130478113Y-17028523D01*
X130610707Y-17258183D01*
X130381047Y-17390778D01*
X130377983Y-17392544D01*
X130377992Y-17392561D01*
X130378003Y-17392575D01*
X130378013Y-17392592D01*
X130378022Y-17392608D01*
X130374522Y-17394948D01*
X130371174Y-17397432D01*
X130367978Y-17400059D01*
X130364938Y-17402815D01*
X130362054Y-17405701D01*
X130359329Y-17408701D01*
X130356768Y-17411814D01*
X130354365Y-17415036D01*
X130352125Y-17418355D01*
X130350052Y-17421765D01*
X130348150Y-17425262D01*
X130346412Y-17428837D01*
X130344849Y-17432483D01*
X130343454Y-17436196D01*
X130342238Y-17439964D01*
X130341200Y-17443787D01*
X130340337Y-17447652D01*
X130339656Y-17451558D01*
X130339157Y-17455494D01*
X130338841Y-17459450D01*
X130338712Y-17463430D01*
X129480942Y-17463430D01*
X129497950Y-17429653D01*
X129523621Y-17382308D01*
X129550609Y-17335940D01*
X129578877Y-17290573D01*
X129608403Y-17246223D01*
X129639149Y-17202911D01*
X129671088Y-17160649D01*
X129704185Y-17119458D01*
X129738414Y-17079354D01*
X129773743Y-17040358D01*
X129810134Y-17002483D01*
X129847566Y-16965752D01*
X129886004Y-16930183D01*
X129925417Y-16895789D01*
X129898618Y-16859135D01*
X129873943Y-16821065D01*
X129851449Y-16781679D01*
X129831193Y-16741081D01*
X129813233Y-16699370D01*
X129797632Y-16656642D01*
X129784444Y-16613010D01*
X129773729Y-16568565D01*
X129765544Y-16523414D01*
X129759950Y-16477655D01*
X129757002Y-16431387D01*
X129756763Y-16384717D01*
X129759287Y-16337744D01*
X129764635Y-16290569D01*
X129772865Y-16243291D01*
X129784035Y-16196013D01*
X129795726Y-16156420D01*
X129809260Y-16117881D01*
X129824580Y-16080431D01*
X129841622Y-16044103D01*
X129860324Y-16008938D01*
X129880629Y-15974970D01*
X129902465Y-15942232D01*
X129925778Y-15910761D01*
X129950503Y-15880594D01*
X129976578Y-15851769D01*
X130003944Y-15824316D01*
X130032534Y-15798274D01*
X130062291Y-15773678D01*
X130093150Y-15750563D01*
X130125051Y-15728968D01*
X130157934Y-15708926D01*
X130191730Y-15690468D01*
X130226387Y-15673640D01*
X130261832Y-15658472D01*
X130298010Y-15644999D01*
X130334861Y-15633260D01*
X130372319Y-15623287D01*
X130410322Y-15615120D01*
X130448809Y-15608792D01*
X130487719Y-15604339D01*
X130526989Y-15601795D01*
X130566559Y-15601195D01*
X130606365Y-15602582D01*
X130646345Y-15605988D01*
X130686436Y-15611445D01*
X130726580Y-15618990D01*
X130766714Y-15628662D01*
X130802639Y-15639176D01*
X130837706Y-15651212D01*
X130871879Y-15664725D01*
X130905138Y-15679664D01*
X130937456Y-15695986D01*
X130968802Y-15713648D01*
X130999154Y-15732595D01*
X131028488Y-15752789D01*
X131056771Y-15774184D01*
X131083978Y-15796727D01*
X131110086Y-15820377D01*
X131135063Y-15845088D01*
X131158885Y-15870814D01*
X131181528Y-15897506D01*
X131202964Y-15925121D01*
X131223162Y-15953613D01*
X131242099Y-15982935D01*
X131259751Y-16013039D01*
X131276085Y-16043880D01*
X131291083Y-16075412D01*
X131304709Y-16107595D01*
X131316944Y-16140373D01*
X131327754Y-16173706D01*
X131337118Y-16207546D01*
X131345009Y-16241846D01*
X131351400Y-16276563D01*
X131356263Y-16311649D01*
X131359572Y-16347056D01*
X131361301Y-16382741D01*
X131361423Y-16418657D01*
X131359912Y-16454756D01*
X131356739Y-16490997D01*
X131380533Y-16494858D01*
X131404335Y-16499049D01*
X131428141Y-16503567D01*
X131451946Y-16508422D01*
X131475751Y-16513611D01*
X131499553Y-16519139D01*
X131523348Y-16525001D01*
X131547138Y-16531203D01*
X131547138Y-16531206D01*
X131572549Y-16538209D01*
X131597778Y-16545559D01*
X131622815Y-16553249D01*
X131647663Y-16561274D01*
X131672321Y-16569631D01*
X131696781Y-16578319D01*
X131721052Y-16587334D01*
X131745121Y-16596672D01*
X131760752Y-16564274D01*
X131777713Y-16532820D01*
X131795957Y-16502330D01*
X131815445Y-16472832D01*
X131836123Y-16444352D01*
X131857959Y-16416917D01*
X131880899Y-16390552D01*
X131904897Y-16365280D01*
X131929914Y-16341132D01*
X131955904Y-16318129D01*
X131982824Y-16296297D01*
X132010621Y-16275669D01*
X132039260Y-16256263D01*
X132068689Y-16238111D01*
X132098863Y-16221232D01*
X132129746Y-16205656D01*
X132161285Y-16191412D01*
X132193435Y-16178515D01*
X132226158Y-16167003D01*
X132259400Y-16156898D01*
X132293124Y-16148222D01*
X132327281Y-16141004D01*
X132361829Y-16135272D01*
X132396719Y-16131047D01*
X132431912Y-16128358D01*
X132467359Y-16127230D01*
X132503012Y-16127689D01*
X132538835Y-16129762D01*
X132574779Y-16133473D01*
X132610797Y-16138849D01*
X132646846Y-16145917D01*
X132682880Y-16154698D01*
X132722472Y-16166388D01*
X132761012Y-16179924D01*
X132798463Y-16195247D01*
X132834787Y-16212286D01*
X132869951Y-16230989D01*
X132903922Y-16251292D01*
X132936661Y-16273128D01*
X132968130Y-16296441D01*
X132998297Y-16321168D01*
X133027123Y-16347241D01*
X133054574Y-16374604D01*
X133080619Y-16403197D01*
X133105215Y-16432953D01*
X133128329Y-16463815D01*
X133149924Y-16495715D01*
X133169969Y-16528599D01*
X133188421Y-16562394D01*
X133205253Y-16597049D01*
X133220420Y-16632495D01*
X133233893Y-16668673D01*
X133245632Y-16705526D01*
X133255602Y-16742981D01*
X133263773Y-16780985D01*
X133270101Y-16819472D01*
X133274556Y-16858384D01*
X133277099Y-16897655D01*
X133277697Y-16937222D01*
X133276310Y-16977028D01*
X133272905Y-17017007D01*
X133267451Y-17057102D01*
X133259903Y-17097243D01*
X133250231Y-17137377D01*
X133250227Y-17137377D01*
X133236197Y-17184102D01*
X133219601Y-17229347D01*
X133200532Y-17273050D01*
X133179105Y-17315149D01*
X133155417Y-17355588D01*
X133129570Y-17394309D01*
X133101669Y-17431250D01*
X133071816Y-17466354D01*
X133040113Y-17499556D01*
X133006660Y-17530805D01*
X132971562Y-17560038D01*
X132934923Y-17587197D01*
X132896842Y-17612219D01*
X132857419Y-17635051D01*
X132816765Y-17655628D01*
X132774980Y-17673895D01*
X132791126Y-17722548D01*
X132805894Y-17771701D01*
X132819264Y-17821324D01*
X132826570Y-17851917D01*
X132831219Y-17871395D01*
X132841747Y-17921875D01*
X132850823Y-17972744D01*
X132858436Y-18023967D01*
X132864567Y-18075522D01*
X132869201Y-18127371D01*
X132872320Y-18179492D01*
X132873906Y-18231851D01*
X132873944Y-18284423D01*
X132872419Y-18337175D01*
X132869312Y-18390084D01*
X132864605Y-18443114D01*
X132858285Y-18496244D01*
X132929269Y-18440217D01*
X132998035Y-18381317D01*
X133064481Y-18319599D01*
X133128506Y-18255124D01*
X133190006Y-18187951D01*
X133248887Y-18118135D01*
X133305036Y-18045737D01*
X133358359Y-17970817D01*
X133408753Y-17893428D01*
X133456116Y-17813639D01*
X133500346Y-17731497D01*
X133541344Y-17647068D01*
X133579003Y-17560409D01*
X133613226Y-17471575D01*
X133643908Y-17380632D01*
X133670952Y-17287636D01*
X133698039Y-17175234D01*
X133719178Y-17062797D01*
X133734465Y-16950506D01*
X133743996Y-16838527D01*
X133747879Y-16727040D01*
X133746207Y-16616218D01*
X133739085Y-16506231D01*
X133726609Y-16397251D01*
X133708880Y-16289455D01*
X133686005Y-16183014D01*
X133658077Y-16078105D01*
X133625195Y-15974899D01*
X133587464Y-15873567D01*
X133544980Y-15774288D01*
X133497846Y-15677230D01*
X133446162Y-15582569D01*
X133390022Y-15490474D01*
X133329536Y-15401128D01*
X133264798Y-15314694D01*
X133195907Y-15231352D01*
X133122969Y-15151274D01*
X133046077Y-15074631D01*
X132965339Y-15001598D01*
X132880847Y-14932349D01*
X132792708Y-14867054D01*
X132701016Y-14805895D01*
X132605873Y-14749035D01*
X132507386Y-14696652D01*
X132405647Y-14648918D01*
X132300752Y-14606011D01*
X132192811Y-14568095D01*
X132081922Y-14535357D01*
X131969519Y-14508267D01*
X131857084Y-14487129D01*
X131744792Y-14471846D01*
X131632814Y-14462315D01*
X131521329Y-14458432D01*
X131410503Y-14460101D01*
X131300515Y-14467224D01*
X131191536Y-14479698D01*
X131083740Y-14497427D01*
X130977301Y-14520302D01*
X130872391Y-14548233D01*
X130769183Y-14581112D01*
X130667853Y-14618847D01*
X130568572Y-14661330D01*
X130471515Y-14708464D01*
X130376855Y-14760149D01*
X130284761Y-14816284D01*
X130195413Y-14876773D01*
X130108979Y-14941512D01*
X130025638Y-15010398D01*
X129945561Y-15083340D01*
X129868918Y-15160231D01*
X129795884Y-15240972D01*
X129726635Y-15325460D01*
X129661343Y-15413604D01*
X129600180Y-15505292D01*
X129543320Y-15600435D01*
X129490938Y-15698925D01*
X129443203Y-15800666D01*
X129400297Y-15905556D01*
X129362384Y-16013498D01*
X129329643Y-16124387D01*
X129306566Y-16218447D01*
X129287665Y-16312547D01*
X129272887Y-16406588D01*
X129262173Y-16500468D01*
X129255462Y-16594085D01*
X129252695Y-16687333D01*
X128709069Y-16687333D01*
X129307510Y-14453923D01*
X132320030Y-13646720D01*
X134525353Y-15852042D01*
G37*
D13*
X141899941Y-52692949D02*
X142158760Y-51727024D01*
X142035513Y-52186988D02*
X141483556Y-52039092D01*
X141347984Y-52545053D02*
X141606803Y-51579127D01*
X140382058Y-52286234D02*
X140934016Y-52434130D01*
X140658037Y-52360182D02*
X140916856Y-51394256D01*
X140916856Y-51394256D02*
X140971875Y-51556895D01*
X140971875Y-51556895D02*
X141039218Y-51673538D01*
X141039218Y-51673538D02*
X141118886Y-51744183D01*
X139462129Y-52039739D02*
X140014086Y-52187636D01*
X139738107Y-52113688D02*
X139996926Y-51147762D01*
X139996926Y-51147762D02*
X140051945Y-51310401D01*
X140051945Y-51310401D02*
X140119289Y-51427043D01*
X140119289Y-51427043D02*
X140198957Y-51497689D01*
X193970201Y-34894141D02*
X194936127Y-34635322D01*
X194936127Y-34635322D02*
X194874504Y-34405340D01*
X194874504Y-34405340D02*
X194791533Y-34279675D01*
X194791533Y-34279675D02*
X194674891Y-34212332D01*
X194674891Y-34212332D02*
X194570573Y-34190985D01*
X194570573Y-34190985D02*
X194374262Y-34194287D01*
X194374262Y-34194287D02*
X194236273Y-34231261D01*
X194236273Y-34231261D02*
X194064612Y-34326557D01*
X194064612Y-34326557D02*
X193984944Y-34397202D01*
X193984944Y-34397202D02*
X193917600Y-34513845D01*
X193917600Y-34513845D02*
X193908578Y-34664159D01*
X193908578Y-34664159D02*
X193970201Y-34894141D01*
X193575810Y-33422254D02*
X193723707Y-33974212D01*
X193649759Y-33698233D02*
X194615685Y-33439414D01*
X194615685Y-33439414D02*
X194502345Y-33568381D01*
X194502345Y-33568381D02*
X194435001Y-33685024D01*
X194435001Y-33685024D02*
X194413654Y-33789341D01*
X193979871Y-32722400D02*
X194050517Y-32802068D01*
X194050517Y-32802068D02*
X194108838Y-32835740D01*
X194108838Y-32835740D02*
X194213156Y-32857087D01*
X194213156Y-32857087D02*
X194259153Y-32844762D01*
X194259153Y-32844762D02*
X194338821Y-32774116D01*
X194338821Y-32774116D02*
X194372493Y-32715795D01*
X194372493Y-32715795D02*
X194393840Y-32611478D01*
X194393840Y-32611478D02*
X194344541Y-32427492D01*
X194344541Y-32427492D02*
X194273895Y-32347824D01*
X194273895Y-32347824D02*
X194215574Y-32314152D01*
X194215574Y-32314152D02*
X194111256Y-32292805D01*
X194111256Y-32292805D02*
X194065260Y-32305129D01*
X194065260Y-32305129D02*
X193985591Y-32375775D01*
X193985591Y-32375775D02*
X193951920Y-32434097D01*
X193951920Y-32434097D02*
X193930573Y-32538414D01*
X193930573Y-32538414D02*
X193979871Y-32722400D01*
X193979871Y-32722400D02*
X193958524Y-32826718D01*
X193958524Y-32826718D02*
X193924853Y-32885039D01*
X193924853Y-32885039D02*
X193845184Y-32955685D01*
X193845184Y-32955685D02*
X193661199Y-33004984D01*
X193661199Y-33004984D02*
X193556881Y-32983637D01*
X193556881Y-32983637D02*
X193498560Y-32949965D01*
X193498560Y-32949965D02*
X193427914Y-32870297D01*
X193427914Y-32870297D02*
X193378615Y-32686311D01*
X193378615Y-32686311D02*
X193399962Y-32581993D01*
X193399962Y-32581993D02*
X193433634Y-32523672D01*
X193433634Y-32523672D02*
X193513302Y-32453026D01*
X193513302Y-32453026D02*
X193697288Y-32403727D01*
X193697288Y-32403727D02*
X193801605Y-32425074D01*
X193801605Y-32425074D02*
X193859927Y-32458746D01*
X193859927Y-32458746D02*
X193930573Y-32538414D01*
X122500402Y-53706515D02*
X122759221Y-52740590D01*
X122635974Y-53200554D02*
X122084016Y-53052658D01*
X121948445Y-53558619D02*
X122207264Y-52592693D01*
X121247058Y-52680499D02*
X121074512Y-53324449D01*
X121575638Y-52374151D02*
X121620749Y-53125721D01*
X121620749Y-53125721D02*
X121022795Y-52965500D01*
X149775128Y-32126505D02*
X149822747Y-32174125D01*
X149822747Y-32174125D02*
X149965604Y-32221744D01*
X149965604Y-32221744D02*
X150060842Y-32221744D01*
X150060842Y-32221744D02*
X150203699Y-32174125D01*
X150203699Y-32174125D02*
X150298937Y-32078886D01*
X150298937Y-32078886D02*
X150346556Y-31983648D01*
X150346556Y-31983648D02*
X150394175Y-31793172D01*
X150394175Y-31793172D02*
X150394175Y-31650315D01*
X150394175Y-31650315D02*
X150346556Y-31459839D01*
X150346556Y-31459839D02*
X150298937Y-31364601D01*
X150298937Y-31364601D02*
X150203699Y-31269363D01*
X150203699Y-31269363D02*
X150060842Y-31221744D01*
X150060842Y-31221744D02*
X149965604Y-31221744D01*
X149965604Y-31221744D02*
X149822747Y-31269363D01*
X149822747Y-31269363D02*
X149775128Y-31316982D01*
X149394175Y-31316982D02*
X149346556Y-31269363D01*
X149346556Y-31269363D02*
X149251318Y-31221744D01*
X149251318Y-31221744D02*
X149013223Y-31221744D01*
X149013223Y-31221744D02*
X148917985Y-31269363D01*
X148917985Y-31269363D02*
X148870366Y-31316982D01*
X148870366Y-31316982D02*
X148822747Y-31412220D01*
X148822747Y-31412220D02*
X148822747Y-31507458D01*
X148822747Y-31507458D02*
X148870366Y-31650315D01*
X148870366Y-31650315D02*
X149441794Y-32221744D01*
X149441794Y-32221744D02*
X148822747Y-32221744D01*
X208459093Y-31011854D02*
X209425019Y-30753035D01*
X209425019Y-30753035D02*
X209363396Y-30523053D01*
X209363396Y-30523053D02*
X209280425Y-30397388D01*
X209280425Y-30397388D02*
X209163783Y-30330045D01*
X209163783Y-30330045D02*
X209059465Y-30308698D01*
X209059465Y-30308698D02*
X208863154Y-30312000D01*
X208863154Y-30312000D02*
X208725165Y-30348974D01*
X208725165Y-30348974D02*
X208553504Y-30444270D01*
X208553504Y-30444270D02*
X208473836Y-30514915D01*
X208473836Y-30514915D02*
X208406492Y-30631558D01*
X208406492Y-30631558D02*
X208397470Y-30781872D01*
X208397470Y-30781872D02*
X208459093Y-31011854D01*
X208064702Y-29539967D02*
X208212599Y-30091925D01*
X208138651Y-29815946D02*
X209104577Y-29557127D01*
X209104577Y-29557127D02*
X208991237Y-29686094D01*
X208991237Y-29686094D02*
X208923893Y-29802737D01*
X208923893Y-29802737D02*
X208902546Y-29907054D01*
X208808783Y-28453212D02*
X208858082Y-28637198D01*
X208858082Y-28637198D02*
X208836735Y-28741515D01*
X208836735Y-28741515D02*
X208803063Y-28799837D01*
X208803063Y-28799837D02*
X208689723Y-28928804D01*
X208689723Y-28928804D02*
X208518062Y-29024099D01*
X208518062Y-29024099D02*
X208150091Y-29122697D01*
X208150091Y-29122697D02*
X208045773Y-29101350D01*
X208045773Y-29101350D02*
X207987452Y-29067678D01*
X207987452Y-29067678D02*
X207916806Y-28988010D01*
X207916806Y-28988010D02*
X207867507Y-28804024D01*
X207867507Y-28804024D02*
X207888854Y-28699706D01*
X207888854Y-28699706D02*
X207922526Y-28641385D01*
X207922526Y-28641385D02*
X208002194Y-28570739D01*
X208002194Y-28570739D02*
X208232176Y-28509115D01*
X208232176Y-28509115D02*
X208336494Y-28530463D01*
X208336494Y-28530463D02*
X208394815Y-28564134D01*
X208394815Y-28564134D02*
X208465461Y-28643802D01*
X208465461Y-28643802D02*
X208514760Y-28827788D01*
X208514760Y-28827788D02*
X208493413Y-28932106D01*
X208493413Y-28932106D02*
X208459741Y-28990427D01*
X208459741Y-28990427D02*
X208380073Y-29061073D01*
X149204552Y-23591927D02*
X149463371Y-22626002D01*
X149340124Y-23085966D02*
X148788166Y-22938070D01*
X148652595Y-23444031D02*
X148911414Y-22478105D01*
X148146633Y-23308459D02*
X147962648Y-23259160D01*
X147962648Y-23259160D02*
X147882979Y-23188514D01*
X147882979Y-23188514D02*
X147849308Y-23130193D01*
X147849308Y-23130193D02*
X147794289Y-22967554D01*
X147794289Y-22967554D02*
X147797591Y-22771244D01*
X147797591Y-22771244D02*
X147896189Y-22403272D01*
X147896189Y-22403272D02*
X147966835Y-22323604D01*
X147966835Y-22323604D02*
X148025156Y-22289932D01*
X148025156Y-22289932D02*
X148129474Y-22268585D01*
X148129474Y-22268585D02*
X148313460Y-22317884D01*
X148313460Y-22317884D02*
X148393128Y-22388530D01*
X148393128Y-22388530D02*
X148426800Y-22446851D01*
X148426800Y-22446851D02*
X148448147Y-22551168D01*
X148448147Y-22551168D02*
X148386523Y-22781151D01*
X148386523Y-22781151D02*
X148315877Y-22860819D01*
X148315877Y-22860819D02*
X148257556Y-22894491D01*
X148257556Y-22894491D02*
X148153238Y-22915838D01*
X148153238Y-22915838D02*
X147969252Y-22866539D01*
X147969252Y-22866539D02*
X147889584Y-22795893D01*
X147889584Y-22795893D02*
X147855912Y-22737572D01*
X147855912Y-22737572D02*
X147834565Y-22633254D01*
X144673799Y-25528951D02*
X143707873Y-25270132D01*
X143707873Y-25270132D02*
X143646250Y-25500115D01*
X143646250Y-25500115D02*
X143655272Y-25650429D01*
X143655272Y-25650429D02*
X143722616Y-25767071D01*
X143722616Y-25767071D02*
X143802284Y-25837717D01*
X143802284Y-25837717D02*
X143973945Y-25933012D01*
X143973945Y-25933012D02*
X144111934Y-25969987D01*
X144111934Y-25969987D02*
X144308245Y-25973289D01*
X144308245Y-25973289D02*
X144412563Y-25951942D01*
X144412563Y-25951942D02*
X144529205Y-25884598D01*
X144529205Y-25884598D02*
X144612176Y-25758934D01*
X144612176Y-25758934D02*
X144673799Y-25528951D01*
X144279408Y-27000838D02*
X144427305Y-26448881D01*
X144353357Y-26724860D02*
X143387431Y-26466040D01*
X143387431Y-26466040D02*
X143550070Y-26411022D01*
X143550070Y-26411022D02*
X143666712Y-26343678D01*
X143666712Y-26343678D02*
X143737358Y-26264010D01*
X144032914Y-27920768D02*
X144180811Y-27368810D01*
X144106862Y-27644789D02*
X143140936Y-27385970D01*
X143140936Y-27385970D02*
X143303575Y-27330951D01*
X143303575Y-27330951D02*
X143420218Y-27263608D01*
X143420218Y-27263608D02*
X143490864Y-27183939D01*
X199716964Y-49429841D02*
X199458145Y-48463915D01*
X199581392Y-48923879D02*
X199029434Y-49071776D01*
X199165006Y-49577737D02*
X198906187Y-48611811D01*
X198419156Y-49186001D02*
X198498824Y-49115355D01*
X198498824Y-49115355D02*
X198532496Y-49057034D01*
X198532496Y-49057034D02*
X198553843Y-48952716D01*
X198553843Y-48952716D02*
X198541518Y-48906720D01*
X198541518Y-48906720D02*
X198470872Y-48827051D01*
X198470872Y-48827051D02*
X198412551Y-48793380D01*
X198412551Y-48793380D02*
X198308233Y-48772033D01*
X198308233Y-48772033D02*
X198124247Y-48821331D01*
X198124247Y-48821331D02*
X198044579Y-48891977D01*
X198044579Y-48891977D02*
X198010907Y-48950299D01*
X198010907Y-48950299D02*
X197989560Y-49054616D01*
X197989560Y-49054616D02*
X198001885Y-49100613D01*
X198001885Y-49100613D02*
X198072531Y-49180281D01*
X198072531Y-49180281D02*
X198130852Y-49213953D01*
X198130852Y-49213953D02*
X198235170Y-49235300D01*
X198235170Y-49235300D02*
X198419156Y-49186001D01*
X198419156Y-49186001D02*
X198523473Y-49207348D01*
X198523473Y-49207348D02*
X198581794Y-49241020D01*
X198581794Y-49241020D02*
X198652440Y-49320688D01*
X198652440Y-49320688D02*
X198701739Y-49504674D01*
X198701739Y-49504674D02*
X198680392Y-49608991D01*
X198680392Y-49608991D02*
X198646720Y-49667312D01*
X198646720Y-49667312D02*
X198567052Y-49737958D01*
X198567052Y-49737958D02*
X198383066Y-49787257D01*
X198383066Y-49787257D02*
X198278749Y-49765910D01*
X198278749Y-49765910D02*
X198220427Y-49732238D01*
X198220427Y-49732238D02*
X198149782Y-49652570D01*
X198149782Y-49652570D02*
X198100483Y-49468584D01*
X198100483Y-49468584D02*
X198121830Y-49364267D01*
X198121830Y-49364267D02*
X198155501Y-49305946D01*
X198155501Y-49305946D02*
X198235170Y-49235300D01*
X218942441Y-12180716D02*
X219908367Y-11921897D01*
X219908367Y-11921897D02*
X219846743Y-11691915D01*
X219846743Y-11691915D02*
X219763773Y-11566250D01*
X219763773Y-11566250D02*
X219647130Y-11498907D01*
X219647130Y-11498907D02*
X219542813Y-11477560D01*
X219542813Y-11477560D02*
X219346502Y-11480862D01*
X219346502Y-11480862D02*
X219208513Y-11517836D01*
X219208513Y-11517836D02*
X219036851Y-11613131D01*
X219036851Y-11613131D02*
X218957183Y-11683777D01*
X218957183Y-11683777D02*
X218889840Y-11800420D01*
X218889840Y-11800420D02*
X218880817Y-11950734D01*
X218880817Y-11950734D02*
X218942441Y-12180716D01*
X219216650Y-10628276D02*
X218572700Y-10800822D01*
X219646245Y-10759661D02*
X219017922Y-11174514D01*
X219017922Y-11174514D02*
X218857701Y-10576560D01*
X153461727Y-23785199D02*
X153461727Y-24499484D01*
X153461727Y-24499484D02*
X153509346Y-24642341D01*
X153509346Y-24642341D02*
X153604584Y-24737580D01*
X153604584Y-24737580D02*
X153747441Y-24785199D01*
X153747441Y-24785199D02*
X153842679Y-24785199D01*
X152461727Y-24785199D02*
X153033155Y-24785199D01*
X152747441Y-24785199D02*
X152747441Y-23785199D01*
X152747441Y-23785199D02*
X152842679Y-23928056D01*
X152842679Y-23928056D02*
X152937917Y-24023294D01*
X152937917Y-24023294D02*
X153033155Y-24070913D01*
X151659402Y-53369782D02*
X151707021Y-53512639D01*
X151707021Y-53512639D02*
X151754640Y-53560258D01*
X151754640Y-53560258D02*
X151849878Y-53607877D01*
X151849878Y-53607877D02*
X151992735Y-53607877D01*
X151992735Y-53607877D02*
X152087973Y-53560258D01*
X152087973Y-53560258D02*
X152135593Y-53512639D01*
X152135593Y-53512639D02*
X152183212Y-53417401D01*
X152183212Y-53417401D02*
X152183212Y-53036449D01*
X152183212Y-53036449D02*
X151183212Y-53036449D01*
X151183212Y-53036449D02*
X151183212Y-53369782D01*
X151183212Y-53369782D02*
X151230831Y-53465020D01*
X151230831Y-53465020D02*
X151278450Y-53512639D01*
X151278450Y-53512639D02*
X151373688Y-53560258D01*
X151373688Y-53560258D02*
X151468926Y-53560258D01*
X151468926Y-53560258D02*
X151564164Y-53512639D01*
X151564164Y-53512639D02*
X151611783Y-53465020D01*
X151611783Y-53465020D02*
X151659402Y-53369782D01*
X151659402Y-53369782D02*
X151659402Y-53036449D01*
X151183212Y-54226925D02*
X151183212Y-54417401D01*
X151183212Y-54417401D02*
X151230831Y-54512639D01*
X151230831Y-54512639D02*
X151326069Y-54607877D01*
X151326069Y-54607877D02*
X151516545Y-54655496D01*
X151516545Y-54655496D02*
X151849878Y-54655496D01*
X151849878Y-54655496D02*
X152040354Y-54607877D01*
X152040354Y-54607877D02*
X152135593Y-54512639D01*
X152135593Y-54512639D02*
X152183212Y-54417401D01*
X152183212Y-54417401D02*
X152183212Y-54226925D01*
X152183212Y-54226925D02*
X152135593Y-54131687D01*
X152135593Y-54131687D02*
X152040354Y-54036449D01*
X152040354Y-54036449D02*
X151849878Y-53988830D01*
X151849878Y-53988830D02*
X151516545Y-53988830D01*
X151516545Y-53988830D02*
X151326069Y-54036449D01*
X151326069Y-54036449D02*
X151230831Y-54131687D01*
X151230831Y-54131687D02*
X151183212Y-54226925D01*
X151183212Y-55274544D02*
X151183212Y-55465020D01*
X151183212Y-55465020D02*
X151230831Y-55560258D01*
X151230831Y-55560258D02*
X151326069Y-55655496D01*
X151326069Y-55655496D02*
X151516545Y-55703115D01*
X151516545Y-55703115D02*
X151849878Y-55703115D01*
X151849878Y-55703115D02*
X152040354Y-55655496D01*
X152040354Y-55655496D02*
X152135593Y-55560258D01*
X152135593Y-55560258D02*
X152183212Y-55465020D01*
X152183212Y-55465020D02*
X152183212Y-55274544D01*
X152183212Y-55274544D02*
X152135593Y-55179306D01*
X152135593Y-55179306D02*
X152040354Y-55084068D01*
X152040354Y-55084068D02*
X151849878Y-55036449D01*
X151849878Y-55036449D02*
X151516545Y-55036449D01*
X151516545Y-55036449D02*
X151326069Y-55084068D01*
X151326069Y-55084068D02*
X151230831Y-55179306D01*
X151230831Y-55179306D02*
X151183212Y-55274544D01*
X151183212Y-55988830D02*
X151183212Y-56560258D01*
X152183212Y-56274544D02*
X151183212Y-56274544D01*
X133026944Y-68995612D02*
X132061018Y-68736793D01*
X132061018Y-68736793D02*
X131999395Y-68966776D01*
X131999395Y-68966776D02*
X132008417Y-69117090D01*
X132008417Y-69117090D02*
X132075761Y-69233732D01*
X132075761Y-69233732D02*
X132155429Y-69304378D01*
X132155429Y-69304378D02*
X132327090Y-69399673D01*
X132327090Y-69399673D02*
X132465079Y-69436648D01*
X132465079Y-69436648D02*
X132661390Y-69439950D01*
X132661390Y-69439950D02*
X132765708Y-69418603D01*
X132765708Y-69418603D02*
X132882350Y-69351259D01*
X132882350Y-69351259D02*
X132965321Y-69225595D01*
X132965321Y-69225595D02*
X133026944Y-68995612D01*
X131826849Y-69610726D02*
X131666627Y-70208680D01*
X131666627Y-70208680D02*
X132120872Y-69985303D01*
X132120872Y-69985303D02*
X132083898Y-70123292D01*
X132083898Y-70123292D02*
X132105245Y-70227610D01*
X132105245Y-70227610D02*
X132138917Y-70285931D01*
X132138917Y-70285931D02*
X132218585Y-70356577D01*
X132218585Y-70356577D02*
X132448567Y-70418200D01*
X132448567Y-70418200D02*
X132552885Y-70396853D01*
X132552885Y-70396853D02*
X132611206Y-70363182D01*
X132611206Y-70363182D02*
X132681852Y-70283513D01*
X132681852Y-70283513D02*
X132755800Y-70007535D01*
X132755800Y-70007535D02*
X132734453Y-69903217D01*
X132734453Y-69903217D02*
X132700782Y-69844896D01*
X132386059Y-71387429D02*
X132533956Y-70835471D01*
X132460007Y-71111450D02*
X131494081Y-70852631D01*
X131494081Y-70852631D02*
X131656720Y-70797612D01*
X131656720Y-70797612D02*
X131773363Y-70730269D01*
X131773363Y-70730269D02*
X131844009Y-70650600D01*
X153890299Y-32981743D02*
X153890299Y-33791266D01*
X153890299Y-33791266D02*
X153842680Y-33886504D01*
X153842680Y-33886504D02*
X153795061Y-33934124D01*
X153795061Y-33934124D02*
X153699823Y-33981743D01*
X153699823Y-33981743D02*
X153509347Y-33981743D01*
X153509347Y-33981743D02*
X153414109Y-33934124D01*
X153414109Y-33934124D02*
X153366490Y-33886504D01*
X153366490Y-33886504D02*
X153318871Y-33791266D01*
X153318871Y-33791266D02*
X153318871Y-32981743D01*
X152318871Y-33981743D02*
X152890299Y-33981743D01*
X152604585Y-33981743D02*
X152604585Y-32981743D01*
X152604585Y-32981743D02*
X152699823Y-33124600D01*
X152699823Y-33124600D02*
X152795061Y-33219838D01*
X152795061Y-33219838D02*
X152890299Y-33267457D01*
X104049166Y-61231042D02*
X103083240Y-60972223D01*
X103083240Y-60972223D02*
X103021617Y-61202206D01*
X103021617Y-61202206D02*
X103030639Y-61352520D01*
X103030639Y-61352520D02*
X103097983Y-61469162D01*
X103097983Y-61469162D02*
X103177651Y-61539808D01*
X103177651Y-61539808D02*
X103349312Y-61635103D01*
X103349312Y-61635103D02*
X103487301Y-61672078D01*
X103487301Y-61672078D02*
X103683612Y-61675380D01*
X103683612Y-61675380D02*
X103787930Y-61654033D01*
X103787930Y-61654033D02*
X103904572Y-61586689D01*
X103904572Y-61586689D02*
X103987543Y-61461025D01*
X103987543Y-61461025D02*
X104049166Y-61231042D01*
X102928739Y-61916802D02*
X102870418Y-61950474D01*
X102870418Y-61950474D02*
X102799772Y-62030142D01*
X102799772Y-62030142D02*
X102738148Y-62260124D01*
X102738148Y-62260124D02*
X102759495Y-62364442D01*
X102759495Y-62364442D02*
X102793167Y-62422763D01*
X102793167Y-62422763D02*
X102872835Y-62493409D01*
X102872835Y-62493409D02*
X102964828Y-62518059D01*
X102964828Y-62518059D02*
X103115142Y-62509036D01*
X103115142Y-62509036D02*
X103814997Y-62104975D01*
X103814997Y-62104975D02*
X103654775Y-62702929D01*
X102602576Y-62766086D02*
X102430030Y-63410036D01*
X102430030Y-63410036D02*
X103506879Y-63254887D01*
X108011514Y-49824230D02*
X108270333Y-48858305D01*
X108147086Y-49318269D02*
X107595128Y-49170373D01*
X107459557Y-49676334D02*
X107718376Y-48710408D01*
X107350404Y-48611810D02*
X106752450Y-48451589D01*
X106752450Y-48451589D02*
X106975827Y-48905834D01*
X106975827Y-48905834D02*
X106837838Y-48868860D01*
X106837838Y-48868860D02*
X106733520Y-48890207D01*
X106733520Y-48890207D02*
X106675199Y-48923878D01*
X106675199Y-48923878D02*
X106604553Y-49003547D01*
X106604553Y-49003547D02*
X106542930Y-49233529D01*
X106542930Y-49233529D02*
X106564277Y-49337847D01*
X106564277Y-49337847D02*
X106597948Y-49396168D01*
X106597948Y-49396168D02*
X106677617Y-49466814D01*
X106677617Y-49466814D02*
X106953595Y-49540762D01*
X106953595Y-49540762D02*
X107057913Y-49519415D01*
X107057913Y-49519415D02*
X107116234Y-49485743D01*
X158983889Y-23074291D02*
X158725070Y-22108366D01*
X158848317Y-22568330D02*
X158296360Y-22716227D01*
X158431931Y-23222188D02*
X158173112Y-22256262D01*
X157466006Y-23481007D02*
X158017963Y-23333110D01*
X157741984Y-23407059D02*
X157483165Y-22441133D01*
X157483165Y-22441133D02*
X157612132Y-22554473D01*
X157612132Y-22554473D02*
X157728775Y-22621816D01*
X157728775Y-22621816D02*
X157833093Y-22643163D01*
X156609232Y-22675303D02*
X156517240Y-22699952D01*
X156517240Y-22699952D02*
X156437571Y-22770598D01*
X156437571Y-22770598D02*
X156403900Y-22828919D01*
X156403900Y-22828919D02*
X156382553Y-22933237D01*
X156382553Y-22933237D02*
X156385855Y-23129547D01*
X156385855Y-23129547D02*
X156447479Y-23359530D01*
X156447479Y-23359530D02*
X156542774Y-23531191D01*
X156542774Y-23531191D02*
X156613420Y-23610859D01*
X156613420Y-23610859D02*
X156671741Y-23644531D01*
X156671741Y-23644531D02*
X156776059Y-23665878D01*
X156776059Y-23665878D02*
X156868052Y-23641228D01*
X156868052Y-23641228D02*
X156947720Y-23570583D01*
X156947720Y-23570583D02*
X156981391Y-23512261D01*
X156981391Y-23512261D02*
X157002739Y-23407944D01*
X157002739Y-23407944D02*
X156999436Y-23211633D01*
X156999436Y-23211633D02*
X156937813Y-22981651D01*
X156937813Y-22981651D02*
X156842517Y-22809990D01*
X156842517Y-22809990D02*
X156771871Y-22730321D01*
X156771871Y-22730321D02*
X156713550Y-22696650D01*
X156713550Y-22696650D02*
X156609232Y-22675303D01*
X126302627Y-36135554D02*
X125336701Y-35876735D01*
X125336701Y-35876735D02*
X125275078Y-36106718D01*
X125275078Y-36106718D02*
X125284100Y-36257032D01*
X125284100Y-36257032D02*
X125351444Y-36373674D01*
X125351444Y-36373674D02*
X125431112Y-36444320D01*
X125431112Y-36444320D02*
X125602773Y-36539615D01*
X125602773Y-36539615D02*
X125740762Y-36576590D01*
X125740762Y-36576590D02*
X125937073Y-36579892D01*
X125937073Y-36579892D02*
X126041391Y-36558545D01*
X126041391Y-36558545D02*
X126158033Y-36491201D01*
X126158033Y-36491201D02*
X126241004Y-36365537D01*
X126241004Y-36365537D02*
X126302627Y-36135554D01*
X125908236Y-37607441D02*
X126056133Y-37055484D01*
X125982185Y-37331463D02*
X125016259Y-37072643D01*
X125016259Y-37072643D02*
X125178898Y-37017625D01*
X125178898Y-37017625D02*
X125295540Y-36950281D01*
X125295540Y-36950281D02*
X125366186Y-36870613D01*
X124856037Y-37670598D02*
X124683491Y-38314548D01*
X124683491Y-38314548D02*
X125760340Y-38159399D01*
X82712715Y-24948660D02*
X81746789Y-24689840D01*
X81746789Y-24689840D02*
X81685166Y-24919823D01*
X81685166Y-24919823D02*
X81694188Y-25070137D01*
X81694188Y-25070137D02*
X81761531Y-25186779D01*
X81761531Y-25186779D02*
X81841200Y-25257425D01*
X81841200Y-25257425D02*
X82012861Y-25352721D01*
X82012861Y-25352721D02*
X82150850Y-25389695D01*
X82150850Y-25389695D02*
X82347161Y-25392997D01*
X82347161Y-25392997D02*
X82451478Y-25371650D01*
X82451478Y-25371650D02*
X82568121Y-25304307D01*
X82568121Y-25304307D02*
X82651091Y-25178642D01*
X82651091Y-25178642D02*
X82712715Y-24948660D01*
X82441571Y-25960582D02*
X82392272Y-26144568D01*
X82392272Y-26144568D02*
X82321626Y-26224236D01*
X82321626Y-26224236D02*
X82263305Y-26257908D01*
X82263305Y-26257908D02*
X82100666Y-26312926D01*
X82100666Y-26312926D02*
X81904356Y-26309624D01*
X81904356Y-26309624D02*
X81536384Y-26211026D01*
X81536384Y-26211026D02*
X81456716Y-26140380D01*
X81456716Y-26140380D02*
X81423044Y-26082059D01*
X81423044Y-26082059D02*
X81401697Y-25977742D01*
X81401697Y-25977742D02*
X81450996Y-25793756D01*
X81450996Y-25793756D02*
X81521642Y-25714088D01*
X81521642Y-25714088D02*
X81579963Y-25680416D01*
X81579963Y-25680416D02*
X81684281Y-25659069D01*
X81684281Y-25659069D02*
X81914263Y-25720692D01*
X81914263Y-25720692D02*
X81993931Y-25791338D01*
X81993931Y-25791338D02*
X82027603Y-25849659D01*
X82027603Y-25849659D02*
X82048950Y-25953977D01*
X82048950Y-25953977D02*
X81999651Y-26137963D01*
X81999651Y-26137963D02*
X81929005Y-26217631D01*
X81929005Y-26217631D02*
X81870684Y-26251303D01*
X81870684Y-26251303D02*
X81766366Y-26272650D01*
X183363601Y-53265315D02*
X184329527Y-53006496D01*
X184329527Y-53006496D02*
X184267904Y-52776514D01*
X184267904Y-52776514D02*
X184184933Y-52650849D01*
X184184933Y-52650849D02*
X184068291Y-52583506D01*
X184068291Y-52583506D02*
X183963973Y-52562159D01*
X183963973Y-52562159D02*
X183767662Y-52565461D01*
X183767662Y-52565461D02*
X183629673Y-52602435D01*
X183629673Y-52602435D02*
X183458012Y-52697731D01*
X183458012Y-52697731D02*
X183378344Y-52768376D01*
X183378344Y-52768376D02*
X183311000Y-52885019D01*
X183311000Y-52885019D02*
X183301978Y-53035333D01*
X183301978Y-53035333D02*
X183363601Y-53265315D01*
X183991040Y-52111216D02*
X184024712Y-52052895D01*
X184024712Y-52052895D02*
X184046059Y-51948578D01*
X184046059Y-51948578D02*
X183984435Y-51718595D01*
X183984435Y-51718595D02*
X183913789Y-51638927D01*
X183913789Y-51638927D02*
X183855468Y-51605255D01*
X183855468Y-51605255D02*
X183751150Y-51583908D01*
X183751150Y-51583908D02*
X183659157Y-51608558D01*
X183659157Y-51608558D02*
X183533493Y-51691528D01*
X183533493Y-51691528D02*
X183129432Y-52391382D01*
X183129432Y-52391382D02*
X182969210Y-51793428D01*
X183713291Y-50706673D02*
X183762590Y-50890659D01*
X183762590Y-50890659D02*
X183741243Y-50994976D01*
X183741243Y-50994976D02*
X183707571Y-51053298D01*
X183707571Y-51053298D02*
X183594231Y-51182265D01*
X183594231Y-51182265D02*
X183422570Y-51277560D01*
X183422570Y-51277560D02*
X183054599Y-51376158D01*
X183054599Y-51376158D02*
X182950281Y-51354811D01*
X182950281Y-51354811D02*
X182891960Y-51321139D01*
X182891960Y-51321139D02*
X182821314Y-51241471D01*
X182821314Y-51241471D02*
X182772015Y-51057485D01*
X182772015Y-51057485D02*
X182793362Y-50953167D01*
X182793362Y-50953167D02*
X182827034Y-50894846D01*
X182827034Y-50894846D02*
X182906702Y-50824200D01*
X182906702Y-50824200D02*
X183136684Y-50762576D01*
X183136684Y-50762576D02*
X183241002Y-50783924D01*
X183241002Y-50783924D02*
X183299323Y-50817595D01*
X183299323Y-50817595D02*
X183369969Y-50897263D01*
X183369969Y-50897263D02*
X183419268Y-51081249D01*
X183419268Y-51081249D02*
X183397921Y-51185567D01*
X183397921Y-51185567D02*
X183364249Y-51243888D01*
X183364249Y-51243888D02*
X183284581Y-51314534D01*
X162183212Y-53274543D02*
X161707021Y-52941210D01*
X162183212Y-52703115D02*
X161183212Y-52703115D01*
X161183212Y-52703115D02*
X161183212Y-53084067D01*
X161183212Y-53084067D02*
X161230831Y-53179305D01*
X161230831Y-53179305D02*
X161278450Y-53226924D01*
X161278450Y-53226924D02*
X161373688Y-53274543D01*
X161373688Y-53274543D02*
X161516545Y-53274543D01*
X161516545Y-53274543D02*
X161611783Y-53226924D01*
X161611783Y-53226924D02*
X161659402Y-53179305D01*
X161659402Y-53179305D02*
X161707021Y-53084067D01*
X161707021Y-53084067D02*
X161707021Y-52703115D01*
X161659402Y-53703115D02*
X161659402Y-54036448D01*
X162183212Y-54179305D02*
X162183212Y-53703115D01*
X162183212Y-53703115D02*
X161183212Y-53703115D01*
X161183212Y-53703115D02*
X161183212Y-54179305D01*
X162135593Y-54560258D02*
X162183212Y-54703115D01*
X162183212Y-54703115D02*
X162183212Y-54941210D01*
X162183212Y-54941210D02*
X162135593Y-55036448D01*
X162135593Y-55036448D02*
X162087973Y-55084067D01*
X162087973Y-55084067D02*
X161992735Y-55131686D01*
X161992735Y-55131686D02*
X161897497Y-55131686D01*
X161897497Y-55131686D02*
X161802259Y-55084067D01*
X161802259Y-55084067D02*
X161754640Y-55036448D01*
X161754640Y-55036448D02*
X161707021Y-54941210D01*
X161707021Y-54941210D02*
X161659402Y-54750734D01*
X161659402Y-54750734D02*
X161611783Y-54655496D01*
X161611783Y-54655496D02*
X161564164Y-54607877D01*
X161564164Y-54607877D02*
X161468926Y-54560258D01*
X161468926Y-54560258D02*
X161373688Y-54560258D01*
X161373688Y-54560258D02*
X161278450Y-54607877D01*
X161278450Y-54607877D02*
X161230831Y-54655496D01*
X161230831Y-54655496D02*
X161183212Y-54750734D01*
X161183212Y-54750734D02*
X161183212Y-54988829D01*
X161183212Y-54988829D02*
X161230831Y-55131686D01*
X161659402Y-55560258D02*
X161659402Y-55893591D01*
X162183212Y-56036448D02*
X162183212Y-55560258D01*
X162183212Y-55560258D02*
X161183212Y-55560258D01*
X161183212Y-55560258D02*
X161183212Y-56036448D01*
X161183212Y-56322163D02*
X161183212Y-56893591D01*
X162183212Y-56607877D02*
X161183212Y-56607877D01*
X130264975Y-24728739D02*
X130523794Y-23762814D01*
X130400547Y-24222778D02*
X129848589Y-24074882D01*
X129713018Y-24580843D02*
X129971837Y-23614917D01*
X129533219Y-23595988D02*
X129499547Y-23537666D01*
X129499547Y-23537666D02*
X129419879Y-23467020D01*
X129419879Y-23467020D02*
X129189897Y-23405397D01*
X129189897Y-23405397D02*
X129085579Y-23426744D01*
X129085579Y-23426744D02*
X129027258Y-23460416D01*
X129027258Y-23460416D02*
X128956612Y-23540084D01*
X128956612Y-23540084D02*
X128931963Y-23632077D01*
X128931963Y-23632077D02*
X128940985Y-23782391D01*
X128940985Y-23782391D02*
X129345046Y-24482245D01*
X129345046Y-24482245D02*
X128747092Y-24322024D01*
X148833285Y-19560256D02*
X148357094Y-19226923D01*
X148833285Y-18988828D02*
X147833285Y-18988828D01*
X147833285Y-18988828D02*
X147833285Y-19369780D01*
X147833285Y-19369780D02*
X147880904Y-19465018D01*
X147880904Y-19465018D02*
X147928523Y-19512637D01*
X147928523Y-19512637D02*
X148023761Y-19560256D01*
X148023761Y-19560256D02*
X148166618Y-19560256D01*
X148166618Y-19560256D02*
X148261856Y-19512637D01*
X148261856Y-19512637D02*
X148309475Y-19465018D01*
X148309475Y-19465018D02*
X148357094Y-19369780D01*
X148357094Y-19369780D02*
X148357094Y-18988828D01*
X148166618Y-20417399D02*
X148833285Y-20417399D01*
X147785666Y-20179304D02*
X148499951Y-19941209D01*
X148499951Y-19941209D02*
X148499951Y-20560256D01*
X204453554Y-16063005D02*
X205419480Y-15804186D01*
X205419480Y-15804186D02*
X205357856Y-15574204D01*
X205357856Y-15574204D02*
X205274886Y-15448539D01*
X205274886Y-15448539D02*
X205158243Y-15381196D01*
X205158243Y-15381196D02*
X205053926Y-15359849D01*
X205053926Y-15359849D02*
X204857615Y-15363151D01*
X204857615Y-15363151D02*
X204719626Y-15400125D01*
X204719626Y-15400125D02*
X204547964Y-15495420D01*
X204547964Y-15495420D02*
X204468296Y-15566066D01*
X204468296Y-15566066D02*
X204400953Y-15682709D01*
X204400953Y-15682709D02*
X204391930Y-15833023D01*
X204391930Y-15833023D02*
X204453554Y-16063005D01*
X205049738Y-14424292D02*
X205099037Y-14608278D01*
X205099037Y-14608278D02*
X205077690Y-14712596D01*
X205077690Y-14712596D02*
X205044018Y-14770917D01*
X205044018Y-14770917D02*
X204930678Y-14899884D01*
X204930678Y-14899884D02*
X204759017Y-14995179D01*
X204759017Y-14995179D02*
X204391046Y-15093777D01*
X204391046Y-15093777D02*
X204286728Y-15072430D01*
X204286728Y-15072430D02*
X204228407Y-15038758D01*
X204228407Y-15038758D02*
X204157761Y-14959090D01*
X204157761Y-14959090D02*
X204108462Y-14775104D01*
X204108462Y-14775104D02*
X204129809Y-14670786D01*
X204129809Y-14670786D02*
X204163481Y-14612465D01*
X204163481Y-14612465D02*
X204243149Y-14541819D01*
X204243149Y-14541819D02*
X204473131Y-14480196D01*
X204473131Y-14480196D02*
X204577449Y-14501543D01*
X204577449Y-14501543D02*
X204635770Y-14535214D01*
X204635770Y-14535214D02*
X204706416Y-14614883D01*
X204706416Y-14614883D02*
X204755715Y-14798869D01*
X204755715Y-14798869D02*
X204734368Y-14903186D01*
X204734368Y-14903186D02*
X204700696Y-14961507D01*
X204700696Y-14961507D02*
X204621028Y-15032153D01*
X175599028Y-24287541D02*
X176564954Y-24028722D01*
X176564954Y-24028722D02*
X176503331Y-23798740D01*
X176503331Y-23798740D02*
X176420360Y-23673075D01*
X176420360Y-23673075D02*
X176303718Y-23605732D01*
X176303718Y-23605732D02*
X176199400Y-23584385D01*
X176199400Y-23584385D02*
X176003089Y-23587687D01*
X176003089Y-23587687D02*
X175865100Y-23624661D01*
X175865100Y-23624661D02*
X175693439Y-23719957D01*
X175693439Y-23719957D02*
X175613771Y-23790602D01*
X175613771Y-23790602D02*
X175546427Y-23907245D01*
X175546427Y-23907245D02*
X175537405Y-24057559D01*
X175537405Y-24057559D02*
X175599028Y-24287541D01*
X175204637Y-22815654D02*
X175352534Y-23367612D01*
X175278586Y-23091633D02*
X176244512Y-22832814D01*
X176244512Y-22832814D02*
X176131172Y-22961781D01*
X176131172Y-22961781D02*
X176063828Y-23078424D01*
X176063828Y-23078424D02*
X176042481Y-23182741D01*
X175979973Y-22213513D02*
X176013644Y-22155192D01*
X176013644Y-22155192D02*
X176034991Y-22050874D01*
X176034991Y-22050874D02*
X175973368Y-21820892D01*
X175973368Y-21820892D02*
X175902722Y-21741224D01*
X175902722Y-21741224D02*
X175844401Y-21707552D01*
X175844401Y-21707552D02*
X175740083Y-21686205D01*
X175740083Y-21686205D02*
X175648090Y-21710854D01*
X175648090Y-21710854D02*
X175522425Y-21793825D01*
X175522425Y-21793825D02*
X175118364Y-22493679D01*
X175118364Y-22493679D02*
X174958143Y-21895725D01*
X86798309Y-13081884D02*
X87057128Y-12115959D01*
X86933881Y-12575923D02*
X86381923Y-12428027D01*
X86246352Y-12933988D02*
X86505171Y-11968062D01*
X85280426Y-12675169D02*
X85832383Y-12823065D01*
X85556405Y-12749117D02*
X85815224Y-11783191D01*
X85815224Y-11783191D02*
X85870242Y-11945830D01*
X85870242Y-11945830D02*
X85937586Y-12062472D01*
X85937586Y-12062472D02*
X86017254Y-12133118D01*
X187245886Y-67754203D02*
X188211812Y-67495384D01*
X188211812Y-67495384D02*
X188150189Y-67265402D01*
X188150189Y-67265402D02*
X188067218Y-67139737D01*
X188067218Y-67139737D02*
X187950576Y-67072394D01*
X187950576Y-67072394D02*
X187846258Y-67051047D01*
X187846258Y-67051047D02*
X187649947Y-67054349D01*
X187649947Y-67054349D02*
X187511958Y-67091323D01*
X187511958Y-67091323D02*
X187340297Y-67186619D01*
X187340297Y-67186619D02*
X187260629Y-67257264D01*
X187260629Y-67257264D02*
X187193285Y-67373907D01*
X187193285Y-67373907D02*
X187184263Y-67524221D01*
X187184263Y-67524221D02*
X187245886Y-67754203D01*
X187977643Y-66621451D02*
X187817421Y-66023497D01*
X187817421Y-66023497D02*
X187535722Y-66444070D01*
X187535722Y-66444070D02*
X187498748Y-66306081D01*
X187498748Y-66306081D02*
X187428102Y-66226413D01*
X187428102Y-66226413D02*
X187369781Y-66192741D01*
X187369781Y-66192741D02*
X187265464Y-66171394D01*
X187265464Y-66171394D02*
X187035481Y-66233017D01*
X187035481Y-66233017D02*
X186955813Y-66303663D01*
X186955813Y-66303663D02*
X186922141Y-66361985D01*
X186922141Y-66361985D02*
X186900794Y-66466302D01*
X186900794Y-66466302D02*
X186974743Y-66742281D01*
X186974743Y-66742281D02*
X187045388Y-66821949D01*
X187045388Y-66821949D02*
X187103710Y-66855621D01*
X187626831Y-65680175D02*
X187660502Y-65621854D01*
X187660502Y-65621854D02*
X187681849Y-65517536D01*
X187681849Y-65517536D02*
X187620226Y-65287554D01*
X187620226Y-65287554D02*
X187549580Y-65207886D01*
X187549580Y-65207886D02*
X187491259Y-65174214D01*
X187491259Y-65174214D02*
X187386941Y-65152867D01*
X187386941Y-65152867D02*
X187294948Y-65177516D01*
X187294948Y-65177516D02*
X187169283Y-65260487D01*
X187169283Y-65260487D02*
X186765222Y-65960341D01*
X186765222Y-65960341D02*
X186605001Y-65362387D01*
X160633281Y-19560256D02*
X160157090Y-19226923D01*
X160633281Y-18988828D02*
X159633281Y-18988828D01*
X159633281Y-18988828D02*
X159633281Y-19369780D01*
X159633281Y-19369780D02*
X159680900Y-19465018D01*
X159680900Y-19465018D02*
X159728519Y-19512637D01*
X159728519Y-19512637D02*
X159823757Y-19560256D01*
X159823757Y-19560256D02*
X159966614Y-19560256D01*
X159966614Y-19560256D02*
X160061852Y-19512637D01*
X160061852Y-19512637D02*
X160109471Y-19465018D01*
X160109471Y-19465018D02*
X160157090Y-19369780D01*
X160157090Y-19369780D02*
X160157090Y-18988828D01*
X159633281Y-20465018D02*
X159633281Y-19988828D01*
X159633281Y-19988828D02*
X160109471Y-19941209D01*
X160109471Y-19941209D02*
X160061852Y-19988828D01*
X160061852Y-19988828D02*
X160014233Y-20084066D01*
X160014233Y-20084066D02*
X160014233Y-20322161D01*
X160014233Y-20322161D02*
X160061852Y-20417399D01*
X160061852Y-20417399D02*
X160109471Y-20465018D01*
X160109471Y-20465018D02*
X160204709Y-20512637D01*
X160204709Y-20512637D02*
X160442804Y-20512637D01*
X160442804Y-20512637D02*
X160538042Y-20465018D01*
X160538042Y-20465018D02*
X160585662Y-20417399D01*
X160585662Y-20417399D02*
X160633281Y-20322161D01*
X160633281Y-20322161D02*
X160633281Y-20084066D01*
X160633281Y-20084066D02*
X160585662Y-19988828D01*
X160585662Y-19988828D02*
X160538042Y-19941209D01*
X220930168Y-12687492D02*
X220671349Y-11721566D01*
X220794596Y-12181530D02*
X220242638Y-12329427D01*
X220378210Y-12835388D02*
X220119391Y-11869462D01*
X219245458Y-12103632D02*
X219429444Y-12054333D01*
X219429444Y-12054333D02*
X219533762Y-12075680D01*
X219533762Y-12075680D02*
X219592083Y-12109352D01*
X219592083Y-12109352D02*
X219721050Y-12222692D01*
X219721050Y-12222692D02*
X219816345Y-12394353D01*
X219816345Y-12394353D02*
X219914943Y-12762325D01*
X219914943Y-12762325D02*
X219893596Y-12866642D01*
X219893596Y-12866642D02*
X219859924Y-12924963D01*
X219859924Y-12924963D02*
X219780256Y-12995609D01*
X219780256Y-12995609D02*
X219596270Y-13044908D01*
X219596270Y-13044908D02*
X219491953Y-13023561D01*
X219491953Y-13023561D02*
X219433631Y-12989889D01*
X219433631Y-12989889D02*
X219362986Y-12910221D01*
X219362986Y-12910221D02*
X219301362Y-12680239D01*
X219301362Y-12680239D02*
X219322709Y-12575921D01*
X219322709Y-12575921D02*
X219356381Y-12517600D01*
X219356381Y-12517600D02*
X219436049Y-12446954D01*
X219436049Y-12446954D02*
X219620035Y-12397655D01*
X219620035Y-12397655D02*
X219724353Y-12419002D01*
X219724353Y-12419002D02*
X219782674Y-12452674D01*
X219782674Y-12452674D02*
X219853320Y-12532342D01*
X212341378Y-45500743D02*
X213307304Y-45241924D01*
X213307304Y-45241924D02*
X213245681Y-45011942D01*
X213245681Y-45011942D02*
X213162710Y-44886277D01*
X213162710Y-44886277D02*
X213046068Y-44818934D01*
X213046068Y-44818934D02*
X212941750Y-44797587D01*
X212941750Y-44797587D02*
X212745439Y-44800889D01*
X212745439Y-44800889D02*
X212607450Y-44837863D01*
X212607450Y-44837863D02*
X212435789Y-44933159D01*
X212435789Y-44933159D02*
X212356121Y-45003804D01*
X212356121Y-45003804D02*
X212288777Y-45120447D01*
X212288777Y-45120447D02*
X212279755Y-45270761D01*
X212279755Y-45270761D02*
X212341378Y-45500743D01*
X212968817Y-44346644D02*
X213002489Y-44288323D01*
X213002489Y-44288323D02*
X213023836Y-44184006D01*
X213023836Y-44184006D02*
X212962212Y-43954023D01*
X212962212Y-43954023D02*
X212891566Y-43874355D01*
X212891566Y-43874355D02*
X212833245Y-43840683D01*
X212833245Y-43840683D02*
X212728927Y-43819336D01*
X212728927Y-43819336D02*
X212636934Y-43843986D01*
X212636934Y-43843986D02*
X212511270Y-43926956D01*
X212511270Y-43926956D02*
X212107209Y-44626810D01*
X212107209Y-44626810D02*
X211946987Y-44028856D01*
X212722323Y-43426715D02*
X212755994Y-43368394D01*
X212755994Y-43368394D02*
X212777341Y-43264076D01*
X212777341Y-43264076D02*
X212715718Y-43034094D01*
X212715718Y-43034094D02*
X212645072Y-42954426D01*
X212645072Y-42954426D02*
X212586751Y-42920754D01*
X212586751Y-42920754D02*
X212482433Y-42899407D01*
X212482433Y-42899407D02*
X212390440Y-42924056D01*
X212390440Y-42924056D02*
X212264775Y-43007027D01*
X212264775Y-43007027D02*
X211860714Y-43706881D01*
X211860714Y-43706881D02*
X211700493Y-43108927D01*
X143693282Y-54250256D02*
X143217091Y-53916923D01*
X143693282Y-53678828D02*
X142693282Y-53678828D01*
X142693282Y-53678828D02*
X142693282Y-54059780D01*
X142693282Y-54059780D02*
X142740901Y-54155018D01*
X142740901Y-54155018D02*
X142788520Y-54202637D01*
X142788520Y-54202637D02*
X142883758Y-54250256D01*
X142883758Y-54250256D02*
X143026615Y-54250256D01*
X143026615Y-54250256D02*
X143121853Y-54202637D01*
X143121853Y-54202637D02*
X143169472Y-54155018D01*
X143169472Y-54155018D02*
X143217091Y-54059780D01*
X143217091Y-54059780D02*
X143217091Y-53678828D01*
X143693282Y-55202637D02*
X143693282Y-54631209D01*
X143693282Y-54916923D02*
X142693282Y-54916923D01*
X142693282Y-54916923D02*
X142836139Y-54821685D01*
X142836139Y-54821685D02*
X142931377Y-54726447D01*
X142931377Y-54726447D02*
X142978996Y-54631209D01*
X97324852Y-28370981D02*
X96358926Y-28112162D01*
X96358926Y-28112162D02*
X96297303Y-28342145D01*
X96297303Y-28342145D02*
X96306325Y-28492459D01*
X96306325Y-28492459D02*
X96373669Y-28609101D01*
X96373669Y-28609101D02*
X96453337Y-28679747D01*
X96453337Y-28679747D02*
X96624998Y-28775042D01*
X96624998Y-28775042D02*
X96762987Y-28812017D01*
X96762987Y-28812017D02*
X96959298Y-28815319D01*
X96959298Y-28815319D02*
X97063616Y-28793972D01*
X97063616Y-28793972D02*
X97180258Y-28726628D01*
X97180258Y-28726628D02*
X97263229Y-28600964D01*
X97263229Y-28600964D02*
X97324852Y-28370981D01*
X96930461Y-29842868D02*
X97078358Y-29290911D01*
X97004410Y-29566890D02*
X96038484Y-29308070D01*
X96038484Y-29308070D02*
X96201123Y-29253052D01*
X96201123Y-29253052D02*
X96317765Y-29185708D01*
X96317765Y-29185708D02*
X96388411Y-29106040D01*
X95878262Y-29906025D02*
X95718041Y-30503979D01*
X95718041Y-30503979D02*
X96172286Y-30280601D01*
X96172286Y-30280601D02*
X96135312Y-30418591D01*
X96135312Y-30418591D02*
X96156659Y-30522908D01*
X96156659Y-30522908D02*
X96190331Y-30581229D01*
X96190331Y-30581229D02*
X96269999Y-30651875D01*
X96269999Y-30651875D02*
X96499981Y-30713499D01*
X96499981Y-30713499D02*
X96604299Y-30692152D01*
X96604299Y-30692152D02*
X96662620Y-30658480D01*
X96662620Y-30658480D02*
X96733266Y-30578812D01*
X96733266Y-30578812D02*
X96807214Y-30302833D01*
X96807214Y-30302833D02*
X96785867Y-30198515D01*
X96785867Y-30198515D02*
X96752195Y-30140194D01*
X130061667Y-22106632D02*
X129095741Y-21847812D01*
X129095741Y-21847812D02*
X129034118Y-22077795D01*
X129034118Y-22077795D02*
X129043140Y-22228109D01*
X129043140Y-22228109D02*
X129110483Y-22344751D01*
X129110483Y-22344751D02*
X129190152Y-22415397D01*
X129190152Y-22415397D02*
X129361813Y-22510693D01*
X129361813Y-22510693D02*
X129499802Y-22547667D01*
X129499802Y-22547667D02*
X129696113Y-22550969D01*
X129696113Y-22550969D02*
X129800430Y-22529622D01*
X129800430Y-22529622D02*
X129917073Y-22462279D01*
X129917073Y-22462279D02*
X130000043Y-22336614D01*
X130000043Y-22336614D02*
X130061667Y-22106632D01*
X128861572Y-22721745D02*
X128689025Y-23365696D01*
X128689025Y-23365696D02*
X129765874Y-23210547D01*
X237436868Y-23247283D02*
X238402794Y-22988464D01*
X238402794Y-22988464D02*
X238341171Y-22758482D01*
X238341171Y-22758482D02*
X238258200Y-22632817D01*
X238258200Y-22632817D02*
X238141558Y-22565474D01*
X238141558Y-22565474D02*
X238037240Y-22544127D01*
X238037240Y-22544127D02*
X237840929Y-22547429D01*
X237840929Y-22547429D02*
X237702940Y-22584403D01*
X237702940Y-22584403D02*
X237531279Y-22679699D01*
X237531279Y-22679699D02*
X237451611Y-22750344D01*
X237451611Y-22750344D02*
X237384267Y-22866987D01*
X237384267Y-22866987D02*
X237375245Y-23017301D01*
X237375245Y-23017301D02*
X237436868Y-23247283D01*
X237042477Y-21775396D02*
X237190374Y-22327354D01*
X237116426Y-22051375D02*
X238082352Y-21792556D01*
X238082352Y-21792556D02*
X237969012Y-21921523D01*
X237969012Y-21921523D02*
X237901668Y-22038166D01*
X237901668Y-22038166D02*
X237880321Y-22142483D01*
X237848182Y-20918623D02*
X237823532Y-20826630D01*
X237823532Y-20826630D02*
X237752887Y-20746962D01*
X237752887Y-20746962D02*
X237694565Y-20713290D01*
X237694565Y-20713290D02*
X237590248Y-20691943D01*
X237590248Y-20691943D02*
X237393937Y-20695246D01*
X237393937Y-20695246D02*
X237163955Y-20756869D01*
X237163955Y-20756869D02*
X236992294Y-20852165D01*
X236992294Y-20852165D02*
X236912625Y-20922810D01*
X236912625Y-20922810D02*
X236878954Y-20981132D01*
X236878954Y-20981132D02*
X236857607Y-21085449D01*
X236857607Y-21085449D02*
X236882256Y-21177442D01*
X236882256Y-21177442D02*
X236952902Y-21257110D01*
X236952902Y-21257110D02*
X237011223Y-21290782D01*
X237011223Y-21290782D02*
X237115541Y-21312129D01*
X237115541Y-21312129D02*
X237311851Y-21308827D01*
X237311851Y-21308827D02*
X237541834Y-21247203D01*
X237541834Y-21247203D02*
X237713495Y-21151908D01*
X237713495Y-21151908D02*
X237793163Y-21081262D01*
X237793163Y-21081262D02*
X237826835Y-21022941D01*
X237826835Y-21022941D02*
X237848182Y-20918623D01*
X177463508Y-24334350D02*
X177204689Y-23368424D01*
X177327936Y-23828388D02*
X176775978Y-23976285D01*
X176911550Y-24482246D02*
X176652731Y-23516320D01*
X175732802Y-23762815D02*
X176192767Y-23639567D01*
X176192767Y-23639567D02*
X176362010Y-24087207D01*
X176362010Y-24087207D02*
X176303689Y-24053536D01*
X176303689Y-24053536D02*
X176199371Y-24032189D01*
X176199371Y-24032189D02*
X175969389Y-24093812D01*
X175969389Y-24093812D02*
X175889721Y-24164458D01*
X175889721Y-24164458D02*
X175856049Y-24222779D01*
X175856049Y-24222779D02*
X175834702Y-24327097D01*
X175834702Y-24327097D02*
X175896326Y-24557079D01*
X175896326Y-24557079D02*
X175966971Y-24636747D01*
X175966971Y-24636747D02*
X176025293Y-24670419D01*
X176025293Y-24670419D02*
X176129610Y-24691766D01*
X176129610Y-24691766D02*
X176359593Y-24630143D01*
X176359593Y-24630143D02*
X176439261Y-24559497D01*
X176439261Y-24559497D02*
X176472933Y-24501176D01*
X216223661Y-59989630D02*
X217189587Y-59730811D01*
X217189587Y-59730811D02*
X217127964Y-59500829D01*
X217127964Y-59500829D02*
X217044993Y-59375164D01*
X217044993Y-59375164D02*
X216928351Y-59307821D01*
X216928351Y-59307821D02*
X216824033Y-59286474D01*
X216824033Y-59286474D02*
X216627722Y-59289776D01*
X216627722Y-59289776D02*
X216489733Y-59326750D01*
X216489733Y-59326750D02*
X216318072Y-59422046D01*
X216318072Y-59422046D02*
X216238404Y-59492691D01*
X216238404Y-59492691D02*
X216171060Y-59609334D01*
X216171060Y-59609334D02*
X216162038Y-59759648D01*
X216162038Y-59759648D02*
X216223661Y-59989630D01*
X216851100Y-58835531D02*
X216884772Y-58777210D01*
X216884772Y-58777210D02*
X216906119Y-58672893D01*
X216906119Y-58672893D02*
X216844495Y-58442910D01*
X216844495Y-58442910D02*
X216773849Y-58363242D01*
X216773849Y-58363242D02*
X216715528Y-58329570D01*
X216715528Y-58329570D02*
X216611210Y-58308223D01*
X216611210Y-58308223D02*
X216519217Y-58332873D01*
X216519217Y-58332873D02*
X216393553Y-58415843D01*
X216393553Y-58415843D02*
X215989492Y-59115697D01*
X215989492Y-59115697D02*
X215829270Y-58517743D01*
X216233331Y-57817889D02*
X216303977Y-57897557D01*
X216303977Y-57897557D02*
X216362298Y-57931229D01*
X216362298Y-57931229D02*
X216466616Y-57952576D01*
X216466616Y-57952576D02*
X216512613Y-57940251D01*
X216512613Y-57940251D02*
X216592281Y-57869605D01*
X216592281Y-57869605D02*
X216625953Y-57811284D01*
X216625953Y-57811284D02*
X216647300Y-57706967D01*
X216647300Y-57706967D02*
X216598001Y-57522981D01*
X216598001Y-57522981D02*
X216527355Y-57443313D01*
X216527355Y-57443313D02*
X216469034Y-57409641D01*
X216469034Y-57409641D02*
X216364716Y-57388294D01*
X216364716Y-57388294D02*
X216318720Y-57400618D01*
X216318720Y-57400618D02*
X216239051Y-57471264D01*
X216239051Y-57471264D02*
X216205380Y-57529586D01*
X216205380Y-57529586D02*
X216184033Y-57633903D01*
X216184033Y-57633903D02*
X216233331Y-57817889D01*
X216233331Y-57817889D02*
X216211984Y-57922207D01*
X216211984Y-57922207D02*
X216178313Y-57980528D01*
X216178313Y-57980528D02*
X216098644Y-58051174D01*
X216098644Y-58051174D02*
X215914659Y-58100473D01*
X215914659Y-58100473D02*
X215810341Y-58079126D01*
X215810341Y-58079126D02*
X215752020Y-58045454D01*
X215752020Y-58045454D02*
X215681374Y-57965786D01*
X215681374Y-57965786D02*
X215632075Y-57781800D01*
X215632075Y-57781800D02*
X215653422Y-57677482D01*
X215653422Y-57677482D02*
X215687094Y-57619161D01*
X215687094Y-57619161D02*
X215766762Y-57548515D01*
X215766762Y-57548515D02*
X215950748Y-57499216D01*
X215950748Y-57499216D02*
X216055065Y-57520563D01*
X216055065Y-57520563D02*
X216113387Y-57554235D01*
X216113387Y-57554235D02*
X216184033Y-57633903D01*
X166748460Y-52052068D02*
X166489641Y-51086143D01*
X166612888Y-51546107D02*
X166060931Y-51694004D01*
X166196502Y-52199965D02*
X165937683Y-51234039D01*
X165230577Y-52458784D02*
X165782534Y-52310887D01*
X165506555Y-52384836D02*
X165247736Y-51418910D01*
X165247736Y-51418910D02*
X165376703Y-51532250D01*
X165376703Y-51532250D02*
X165493346Y-51599593D01*
X165493346Y-51599593D02*
X165597664Y-51620940D01*
X164628435Y-51683449D02*
X164570114Y-51649777D01*
X164570114Y-51649777D02*
X164465796Y-51628430D01*
X164465796Y-51628430D02*
X164235814Y-51690054D01*
X164235814Y-51690054D02*
X164156146Y-51760700D01*
X164156146Y-51760700D02*
X164122474Y-51819021D01*
X164122474Y-51819021D02*
X164101127Y-51923338D01*
X164101127Y-51923338D02*
X164125776Y-52015331D01*
X164125776Y-52015331D02*
X164208747Y-52140996D01*
X164208747Y-52140996D02*
X164908601Y-52545057D01*
X164908601Y-52545057D02*
X164310647Y-52705278D01*
X115572778Y-18224346D02*
X114606852Y-17965526D01*
X114606852Y-17965526D02*
X114545229Y-18195509D01*
X114545229Y-18195509D02*
X114554251Y-18345823D01*
X114554251Y-18345823D02*
X114621594Y-18462465D01*
X114621594Y-18462465D02*
X114701263Y-18533111D01*
X114701263Y-18533111D02*
X114872924Y-18628407D01*
X114872924Y-18628407D02*
X115010913Y-18665381D01*
X115010913Y-18665381D02*
X115207224Y-18668683D01*
X115207224Y-18668683D02*
X115311541Y-18647336D01*
X115311541Y-18647336D02*
X115428184Y-18579993D01*
X115428184Y-18579993D02*
X115511154Y-18454328D01*
X115511154Y-18454328D02*
X115572778Y-18224346D01*
X114224786Y-19391417D02*
X114348033Y-18931452D01*
X114348033Y-18931452D02*
X114820322Y-19008703D01*
X114820322Y-19008703D02*
X114762001Y-19042375D01*
X114762001Y-19042375D02*
X114691355Y-19122043D01*
X114691355Y-19122043D02*
X114629732Y-19352025D01*
X114629732Y-19352025D02*
X114651079Y-19456343D01*
X114651079Y-19456343D02*
X114684751Y-19514664D01*
X114684751Y-19514664D02*
X114764419Y-19585310D01*
X114764419Y-19585310D02*
X114994401Y-19646934D01*
X114994401Y-19646934D02*
X115098719Y-19625587D01*
X115098719Y-19625587D02*
X115157040Y-19591915D01*
X115157040Y-19591915D02*
X115227686Y-19512247D01*
X115227686Y-19512247D02*
X115289309Y-19282264D01*
X115289309Y-19282264D02*
X115267962Y-19177947D01*
X115267962Y-19177947D02*
X115234291Y-19119625D01*
X101083892Y-14342063D02*
X100117966Y-14083243D01*
X100117966Y-14083243D02*
X100056343Y-14313226D01*
X100056343Y-14313226D02*
X100065365Y-14463540D01*
X100065365Y-14463540D02*
X100132708Y-14580182D01*
X100132708Y-14580182D02*
X100212377Y-14650828D01*
X100212377Y-14650828D02*
X100384038Y-14746124D01*
X100384038Y-14746124D02*
X100522027Y-14783098D01*
X100522027Y-14783098D02*
X100718338Y-14786400D01*
X100718338Y-14786400D02*
X100822655Y-14765053D01*
X100822655Y-14765053D02*
X100939298Y-14697710D01*
X100939298Y-14697710D02*
X101022268Y-14572045D01*
X101022268Y-14572045D02*
X101083892Y-14342063D01*
X99883797Y-14957176D02*
X99723575Y-15555130D01*
X99723575Y-15555130D02*
X100177820Y-15331753D01*
X100177820Y-15331753D02*
X100140846Y-15469742D01*
X100140846Y-15469742D02*
X100162193Y-15574060D01*
X100162193Y-15574060D02*
X100195865Y-15632381D01*
X100195865Y-15632381D02*
X100275533Y-15703027D01*
X100275533Y-15703027D02*
X100505515Y-15764651D01*
X100505515Y-15764651D02*
X100609833Y-15743304D01*
X100609833Y-15743304D02*
X100668154Y-15709632D01*
X100668154Y-15709632D02*
X100738800Y-15629964D01*
X100738800Y-15629964D02*
X100812748Y-15353985D01*
X100812748Y-15353985D02*
X100791401Y-15249667D01*
X100791401Y-15249667D02*
X100757729Y-15191346D01*
X122420339Y-50624441D02*
X121454413Y-50365622D01*
X121454413Y-50365622D02*
X121392790Y-50595605D01*
X121392790Y-50595605D02*
X121401812Y-50745919D01*
X121401812Y-50745919D02*
X121469156Y-50862561D01*
X121469156Y-50862561D02*
X121548824Y-50933207D01*
X121548824Y-50933207D02*
X121720485Y-51028502D01*
X121720485Y-51028502D02*
X121858474Y-51065477D01*
X121858474Y-51065477D02*
X122054785Y-51068779D01*
X122054785Y-51068779D02*
X122159103Y-51047432D01*
X122159103Y-51047432D02*
X122275745Y-50980088D01*
X122275745Y-50980088D02*
X122358716Y-50854424D01*
X122358716Y-50854424D02*
X122420339Y-50624441D01*
X121299912Y-51310201D02*
X121241591Y-51343873D01*
X121241591Y-51343873D02*
X121170945Y-51423541D01*
X121170945Y-51423541D02*
X121109321Y-51653523D01*
X121109321Y-51653523D02*
X121130668Y-51757841D01*
X121130668Y-51757841D02*
X121164340Y-51816162D01*
X121164340Y-51816162D02*
X121244008Y-51886808D01*
X121244008Y-51886808D02*
X121336001Y-51911458D01*
X121336001Y-51911458D02*
X121486315Y-51902435D01*
X121486315Y-51902435D02*
X122186170Y-51498374D01*
X122186170Y-51498374D02*
X122025948Y-52096328D01*
X120973749Y-52159485D02*
X120813528Y-52757439D01*
X120813528Y-52757439D02*
X121267773Y-52534061D01*
X121267773Y-52534061D02*
X121230799Y-52672051D01*
X121230799Y-52672051D02*
X121252146Y-52776368D01*
X121252146Y-52776368D02*
X121285818Y-52834689D01*
X121285818Y-52834689D02*
X121365486Y-52905335D01*
X121365486Y-52905335D02*
X121595468Y-52966959D01*
X121595468Y-52966959D02*
X121699786Y-52945612D01*
X121699786Y-52945612D02*
X121758107Y-52911940D01*
X121758107Y-52911940D02*
X121828753Y-52832272D01*
X121828753Y-52832272D02*
X121902701Y-52556293D01*
X121902701Y-52556293D02*
X121881354Y-52451975D01*
X121881354Y-52451975D02*
X121847682Y-52393654D01*
X233431331Y-8298431D02*
X234397257Y-8039612D01*
X234397257Y-8039612D02*
X234335633Y-7809630D01*
X234335633Y-7809630D02*
X234252663Y-7683965D01*
X234252663Y-7683965D02*
X234136020Y-7616622D01*
X234136020Y-7616622D02*
X234031703Y-7595275D01*
X234031703Y-7595275D02*
X233835392Y-7598577D01*
X233835392Y-7598577D02*
X233697403Y-7635551D01*
X233697403Y-7635551D02*
X233525741Y-7730846D01*
X233525741Y-7730846D02*
X233446073Y-7801492D01*
X233446073Y-7801492D02*
X233378730Y-7918135D01*
X233378730Y-7918135D02*
X233369707Y-8068449D01*
X233369707Y-8068449D02*
X233431331Y-8298431D01*
X234058770Y-7144332D02*
X234092441Y-7086011D01*
X234092441Y-7086011D02*
X234113788Y-6981693D01*
X234113788Y-6981693D02*
X234052165Y-6751711D01*
X234052165Y-6751711D02*
X233981519Y-6672043D01*
X233981519Y-6672043D02*
X233923198Y-6638371D01*
X233923198Y-6638371D02*
X233818880Y-6617024D01*
X233818880Y-6617024D02*
X233726887Y-6641673D01*
X233726887Y-6641673D02*
X233601222Y-6724644D01*
X233601222Y-6724644D02*
X233197161Y-7424498D01*
X233197161Y-7424498D02*
X233036940Y-6826544D01*
X107931454Y-46742154D02*
X106965528Y-46483335D01*
X106965528Y-46483335D02*
X106903905Y-46713318D01*
X106903905Y-46713318D02*
X106912927Y-46863632D01*
X106912927Y-46863632D02*
X106980271Y-46980274D01*
X106980271Y-46980274D02*
X107059939Y-47050920D01*
X107059939Y-47050920D02*
X107231600Y-47146215D01*
X107231600Y-47146215D02*
X107369589Y-47183190D01*
X107369589Y-47183190D02*
X107565900Y-47186492D01*
X107565900Y-47186492D02*
X107670218Y-47165145D01*
X107670218Y-47165145D02*
X107786860Y-47097801D01*
X107786860Y-47097801D02*
X107869831Y-46972137D01*
X107869831Y-46972137D02*
X107931454Y-46742154D01*
X106811027Y-47427914D02*
X106752706Y-47461586D01*
X106752706Y-47461586D02*
X106682060Y-47541254D01*
X106682060Y-47541254D02*
X106620436Y-47771236D01*
X106620436Y-47771236D02*
X106641783Y-47875554D01*
X106641783Y-47875554D02*
X106675455Y-47933875D01*
X106675455Y-47933875D02*
X106755123Y-48004521D01*
X106755123Y-48004521D02*
X106847116Y-48029171D01*
X106847116Y-48029171D02*
X106997430Y-48020148D01*
X106997430Y-48020148D02*
X107697285Y-47616087D01*
X107697285Y-47616087D02*
X107537063Y-48214041D01*
X107290569Y-49133971D02*
X107438466Y-48582013D01*
X107364517Y-48857992D02*
X106398591Y-48599173D01*
X106398591Y-48599173D02*
X106561230Y-48544154D01*
X106561230Y-48544154D02*
X106677873Y-48476811D01*
X106677873Y-48476811D02*
X106748519Y-48397142D01*
X185228075Y-53312125D02*
X184969256Y-52346199D01*
X185092503Y-52806163D02*
X184540545Y-52954060D01*
X184676117Y-53460021D02*
X184417298Y-52494095D01*
X184049326Y-52592693D02*
X183405376Y-52765239D01*
X183405376Y-52765239D02*
X184078163Y-53620242D01*
X136909230Y-54506726D02*
X135943304Y-54247907D01*
X135943304Y-54247907D02*
X135881681Y-54477890D01*
X135881681Y-54477890D02*
X135890703Y-54628204D01*
X135890703Y-54628204D02*
X135958047Y-54744846D01*
X135958047Y-54744846D02*
X136037715Y-54815492D01*
X136037715Y-54815492D02*
X136209376Y-54910787D01*
X136209376Y-54910787D02*
X136347365Y-54947762D01*
X136347365Y-54947762D02*
X136543676Y-54951064D01*
X136543676Y-54951064D02*
X136647994Y-54929717D01*
X136647994Y-54929717D02*
X136764636Y-54862373D01*
X136764636Y-54862373D02*
X136847607Y-54736709D01*
X136847607Y-54736709D02*
X136909230Y-54506726D01*
X135788803Y-55192486D02*
X135730482Y-55226158D01*
X135730482Y-55226158D02*
X135659836Y-55305826D01*
X135659836Y-55305826D02*
X135598212Y-55535808D01*
X135598212Y-55535808D02*
X135619559Y-55640126D01*
X135619559Y-55640126D02*
X135653231Y-55698447D01*
X135653231Y-55698447D02*
X135732899Y-55769093D01*
X135732899Y-55769093D02*
X135824892Y-55793743D01*
X135824892Y-55793743D02*
X135975206Y-55784720D01*
X135975206Y-55784720D02*
X136675061Y-55380659D01*
X136675061Y-55380659D02*
X136514839Y-55978613D01*
X135314744Y-56593727D02*
X135437991Y-56133763D01*
X135437991Y-56133763D02*
X135910280Y-56211013D01*
X135910280Y-56211013D02*
X135851959Y-56244685D01*
X135851959Y-56244685D02*
X135781313Y-56324353D01*
X135781313Y-56324353D02*
X135719690Y-56554336D01*
X135719690Y-56554336D02*
X135741037Y-56658653D01*
X135741037Y-56658653D02*
X135774709Y-56716974D01*
X135774709Y-56716974D02*
X135854377Y-56787620D01*
X135854377Y-56787620D02*
X136084359Y-56849244D01*
X136084359Y-56849244D02*
X136188677Y-56827897D01*
X136188677Y-56827897D02*
X136246998Y-56794225D01*
X136246998Y-56794225D02*
X136317644Y-56714557D01*
X136317644Y-56714557D02*
X136379267Y-56484575D01*
X136379267Y-56484575D02*
X136357920Y-56380257D01*
X136357920Y-56380257D02*
X136324249Y-56321936D01*
X222947978Y-27129570D02*
X223913904Y-26870751D01*
X223913904Y-26870751D02*
X223852281Y-26640769D01*
X223852281Y-26640769D02*
X223769310Y-26515104D01*
X223769310Y-26515104D02*
X223652668Y-26447761D01*
X223652668Y-26447761D02*
X223548350Y-26426414D01*
X223548350Y-26426414D02*
X223352039Y-26429716D01*
X223352039Y-26429716D02*
X223214050Y-26466690D01*
X223214050Y-26466690D02*
X223042389Y-26561986D01*
X223042389Y-26561986D02*
X222962721Y-26632631D01*
X222962721Y-26632631D02*
X222895377Y-26749274D01*
X222895377Y-26749274D02*
X222886355Y-26899588D01*
X222886355Y-26899588D02*
X222947978Y-27129570D01*
X222553587Y-25657683D02*
X222701484Y-26209641D01*
X222627536Y-25933662D02*
X223593462Y-25674843D01*
X223593462Y-25674843D02*
X223480122Y-25803810D01*
X223480122Y-25803810D02*
X223412778Y-25920453D01*
X223412778Y-25920453D02*
X223391431Y-26024770D01*
X222975693Y-24657201D02*
X222331742Y-24829747D01*
X223405288Y-24788585D02*
X222776965Y-25203439D01*
X222776965Y-25203439D02*
X222616744Y-24605484D01*
X118538054Y-65113329D02*
X117572128Y-64854510D01*
X117572128Y-64854510D02*
X117510505Y-65084493D01*
X117510505Y-65084493D02*
X117519527Y-65234807D01*
X117519527Y-65234807D02*
X117586871Y-65351449D01*
X117586871Y-65351449D02*
X117666539Y-65422095D01*
X117666539Y-65422095D02*
X117838200Y-65517390D01*
X117838200Y-65517390D02*
X117976189Y-65554365D01*
X117976189Y-65554365D02*
X118172500Y-65557667D01*
X118172500Y-65557667D02*
X118276818Y-65536320D01*
X118276818Y-65536320D02*
X118393460Y-65468976D01*
X118393460Y-65468976D02*
X118476431Y-65343312D01*
X118476431Y-65343312D02*
X118538054Y-65113329D01*
X117417627Y-65799089D02*
X117359306Y-65832761D01*
X117359306Y-65832761D02*
X117288660Y-65912429D01*
X117288660Y-65912429D02*
X117227036Y-66142411D01*
X117227036Y-66142411D02*
X117248383Y-66246729D01*
X117248383Y-66246729D02*
X117282055Y-66305050D01*
X117282055Y-66305050D02*
X117361723Y-66375696D01*
X117361723Y-66375696D02*
X117453716Y-66400346D01*
X117453716Y-66400346D02*
X117604030Y-66391323D01*
X117604030Y-66391323D02*
X118303885Y-65987262D01*
X118303885Y-65987262D02*
X118143663Y-66585216D01*
X118020416Y-67045181D02*
X117971117Y-67229167D01*
X117971117Y-67229167D02*
X117900471Y-67308835D01*
X117900471Y-67308835D02*
X117842150Y-67342507D01*
X117842150Y-67342507D02*
X117679511Y-67397526D01*
X117679511Y-67397526D02*
X117483201Y-67394223D01*
X117483201Y-67394223D02*
X117115229Y-67295626D01*
X117115229Y-67295626D02*
X117035561Y-67224980D01*
X117035561Y-67224980D02*
X117001889Y-67166658D01*
X117001889Y-67166658D02*
X116980542Y-67062341D01*
X116980542Y-67062341D02*
X117029841Y-66878355D01*
X117029841Y-66878355D02*
X117100487Y-66798687D01*
X117100487Y-66798687D02*
X117158808Y-66765015D01*
X117158808Y-66765015D02*
X117263126Y-66743668D01*
X117263126Y-66743668D02*
X117493108Y-66805292D01*
X117493108Y-66805292D02*
X117572776Y-66875937D01*
X117572776Y-66875937D02*
X117606448Y-66934259D01*
X117606448Y-66934259D02*
X117627795Y-67038576D01*
X117627795Y-67038576D02*
X117578496Y-67222562D01*
X117578496Y-67222562D02*
X117507850Y-67302230D01*
X117507850Y-67302230D02*
X117449529Y-67335902D01*
X117449529Y-67335902D02*
X117345211Y-67357249D01*
X189964669Y-19945287D02*
X190930595Y-19686468D01*
X190930595Y-19686468D02*
X190868971Y-19456486D01*
X190868971Y-19456486D02*
X190786001Y-19330821D01*
X190786001Y-19330821D02*
X190669358Y-19263478D01*
X190669358Y-19263478D02*
X190565041Y-19242131D01*
X190565041Y-19242131D02*
X190368730Y-19245433D01*
X190368730Y-19245433D02*
X190230741Y-19282407D01*
X190230741Y-19282407D02*
X190059079Y-19377702D01*
X190059079Y-19377702D02*
X189979411Y-19448348D01*
X189979411Y-19448348D02*
X189912068Y-19564991D01*
X189912068Y-19564991D02*
X189903045Y-19715305D01*
X189903045Y-19715305D02*
X189964669Y-19945287D01*
X190220833Y-18693475D02*
X190291479Y-18773144D01*
X190291479Y-18773144D02*
X190349801Y-18806815D01*
X190349801Y-18806815D02*
X190454118Y-18828162D01*
X190454118Y-18828162D02*
X190500115Y-18815838D01*
X190500115Y-18815838D02*
X190579783Y-18745192D01*
X190579783Y-18745192D02*
X190613455Y-18686871D01*
X190613455Y-18686871D02*
X190634802Y-18582553D01*
X190634802Y-18582553D02*
X190585503Y-18398567D01*
X190585503Y-18398567D02*
X190514857Y-18318899D01*
X190514857Y-18318899D02*
X190456536Y-18285227D01*
X190456536Y-18285227D02*
X190352218Y-18263880D01*
X190352218Y-18263880D02*
X190306222Y-18276205D01*
X190306222Y-18276205D02*
X190226553Y-18346851D01*
X190226553Y-18346851D02*
X190192882Y-18405172D01*
X190192882Y-18405172D02*
X190171535Y-18509489D01*
X190171535Y-18509489D02*
X190220833Y-18693475D01*
X190220833Y-18693475D02*
X190199486Y-18797793D01*
X190199486Y-18797793D02*
X190165815Y-18856114D01*
X190165815Y-18856114D02*
X190086146Y-18926760D01*
X190086146Y-18926760D02*
X189902161Y-18976059D01*
X189902161Y-18976059D02*
X189797843Y-18954712D01*
X189797843Y-18954712D02*
X189739522Y-18921040D01*
X189739522Y-18921040D02*
X189668876Y-18841372D01*
X189668876Y-18841372D02*
X189619577Y-18657386D01*
X189619577Y-18657386D02*
X189640924Y-18553068D01*
X189640924Y-18553068D02*
X189674596Y-18494747D01*
X189674596Y-18494747D02*
X189754264Y-18424101D01*
X189754264Y-18424101D02*
X189938250Y-18374802D01*
X189938250Y-18374802D02*
X190042567Y-18396149D01*
X190042567Y-18396149D02*
X190100889Y-18429821D01*
X190100889Y-18429821D02*
X190171535Y-18509489D01*
X179481315Y-38776427D02*
X180447241Y-38517608D01*
X180447241Y-38517608D02*
X180385618Y-38287626D01*
X180385618Y-38287626D02*
X180302647Y-38161961D01*
X180302647Y-38161961D02*
X180186005Y-38094618D01*
X180186005Y-38094618D02*
X180081687Y-38073271D01*
X180081687Y-38073271D02*
X179885376Y-38076573D01*
X179885376Y-38076573D02*
X179747387Y-38113547D01*
X179747387Y-38113547D02*
X179575726Y-38208843D01*
X179575726Y-38208843D02*
X179496058Y-38279488D01*
X179496058Y-38279488D02*
X179428714Y-38396131D01*
X179428714Y-38396131D02*
X179419692Y-38546445D01*
X179419692Y-38546445D02*
X179481315Y-38776427D01*
X180108754Y-37622328D02*
X180142426Y-37564007D01*
X180142426Y-37564007D02*
X180163773Y-37459690D01*
X180163773Y-37459690D02*
X180102149Y-37229707D01*
X180102149Y-37229707D02*
X180031503Y-37150039D01*
X180031503Y-37150039D02*
X179973182Y-37116367D01*
X179973182Y-37116367D02*
X179868864Y-37095020D01*
X179868864Y-37095020D02*
X179776871Y-37119670D01*
X179776871Y-37119670D02*
X179651207Y-37202640D01*
X179651207Y-37202640D02*
X179247146Y-37902494D01*
X179247146Y-37902494D02*
X179086924Y-37304540D01*
X179892629Y-36447767D02*
X179867979Y-36355774D01*
X179867979Y-36355774D02*
X179797334Y-36276106D01*
X179797334Y-36276106D02*
X179739012Y-36242434D01*
X179739012Y-36242434D02*
X179634695Y-36221087D01*
X179634695Y-36221087D02*
X179438384Y-36224390D01*
X179438384Y-36224390D02*
X179208402Y-36286013D01*
X179208402Y-36286013D02*
X179036741Y-36381309D01*
X179036741Y-36381309D02*
X178957072Y-36451954D01*
X178957072Y-36451954D02*
X178923401Y-36510276D01*
X178923401Y-36510276D02*
X178902054Y-36614593D01*
X178902054Y-36614593D02*
X178926703Y-36706586D01*
X178926703Y-36706586D02*
X178997349Y-36786254D01*
X178997349Y-36786254D02*
X179055670Y-36819926D01*
X179055670Y-36819926D02*
X179159988Y-36841273D01*
X179159988Y-36841273D02*
X179356298Y-36837971D01*
X179356298Y-36837971D02*
X179586281Y-36776347D01*
X179586281Y-36776347D02*
X179757942Y-36681052D01*
X179757942Y-36681052D02*
X179837610Y-36610406D01*
X179837610Y-36610406D02*
X179871282Y-36552085D01*
X179871282Y-36552085D02*
X179892629Y-36447767D01*
X111813741Y-32253268D02*
X110847815Y-31994449D01*
X110847815Y-31994449D02*
X110786192Y-32224432D01*
X110786192Y-32224432D02*
X110795214Y-32374746D01*
X110795214Y-32374746D02*
X110862558Y-32491388D01*
X110862558Y-32491388D02*
X110942226Y-32562034D01*
X110942226Y-32562034D02*
X111113887Y-32657329D01*
X111113887Y-32657329D02*
X111251876Y-32694304D01*
X111251876Y-32694304D02*
X111448187Y-32697606D01*
X111448187Y-32697606D02*
X111552505Y-32676259D01*
X111552505Y-32676259D02*
X111669147Y-32608915D01*
X111669147Y-32608915D02*
X111752118Y-32483251D01*
X111752118Y-32483251D02*
X111813741Y-32253268D01*
X111419350Y-33725155D02*
X111567247Y-33173198D01*
X111493299Y-33449177D02*
X110527373Y-33190357D01*
X110527373Y-33190357D02*
X110690012Y-33135339D01*
X110690012Y-33135339D02*
X110806654Y-33067995D01*
X110806654Y-33067995D02*
X110877300Y-32988327D01*
X110219255Y-34340269D02*
X110342502Y-33880305D01*
X110342502Y-33880305D02*
X110814791Y-33957555D01*
X110814791Y-33957555D02*
X110756470Y-33991227D01*
X110756470Y-33991227D02*
X110685824Y-34070895D01*
X110685824Y-34070895D02*
X110624201Y-34300878D01*
X110624201Y-34300878D02*
X110645548Y-34405195D01*
X110645548Y-34405195D02*
X110679220Y-34463516D01*
X110679220Y-34463516D02*
X110758888Y-34534162D01*
X110758888Y-34534162D02*
X110988870Y-34595786D01*
X110988870Y-34595786D02*
X111093188Y-34574439D01*
X111093188Y-34574439D02*
X111151509Y-34540767D01*
X111151509Y-34540767D02*
X111222155Y-34461099D01*
X111222155Y-34461099D02*
X111283778Y-34231117D01*
X111283778Y-34231117D02*
X111262431Y-34126799D01*
X111262431Y-34126799D02*
X111228760Y-34068478D01*
X140791515Y-40017838D02*
X139825589Y-39759019D01*
X139825589Y-39759019D02*
X139763966Y-39989002D01*
X139763966Y-39989002D02*
X139772988Y-40139316D01*
X139772988Y-40139316D02*
X139840332Y-40255958D01*
X139840332Y-40255958D02*
X139920000Y-40326604D01*
X139920000Y-40326604D02*
X140091661Y-40421899D01*
X140091661Y-40421899D02*
X140229650Y-40458874D01*
X140229650Y-40458874D02*
X140425961Y-40462176D01*
X140425961Y-40462176D02*
X140530279Y-40440829D01*
X140530279Y-40440829D02*
X140646921Y-40373485D01*
X140646921Y-40373485D02*
X140729892Y-40247821D01*
X140729892Y-40247821D02*
X140791515Y-40017838D01*
X140397124Y-41489725D02*
X140545021Y-40937768D01*
X140471073Y-41213747D02*
X139505147Y-40954927D01*
X139505147Y-40954927D02*
X139667786Y-40899909D01*
X139667786Y-40899909D02*
X139784428Y-40832565D01*
X139784428Y-40832565D02*
X139855074Y-40752897D01*
X140273877Y-41949690D02*
X140224578Y-42133676D01*
X140224578Y-42133676D02*
X140153932Y-42213344D01*
X140153932Y-42213344D02*
X140095611Y-42247016D01*
X140095611Y-42247016D02*
X139932972Y-42302035D01*
X139932972Y-42302035D02*
X139736662Y-42298732D01*
X139736662Y-42298732D02*
X139368690Y-42200135D01*
X139368690Y-42200135D02*
X139289022Y-42129489D01*
X139289022Y-42129489D02*
X139255350Y-42071167D01*
X139255350Y-42071167D02*
X139234003Y-41966850D01*
X139234003Y-41966850D02*
X139283302Y-41782864D01*
X139283302Y-41782864D02*
X139353948Y-41703196D01*
X139353948Y-41703196D02*
X139412269Y-41669524D01*
X139412269Y-41669524D02*
X139516587Y-41648177D01*
X139516587Y-41648177D02*
X139746569Y-41709801D01*
X139746569Y-41709801D02*
X139826237Y-41780446D01*
X139826237Y-41780446D02*
X139859909Y-41838768D01*
X139859909Y-41838768D02*
X139881256Y-41943085D01*
X139881256Y-41943085D02*
X139831957Y-42127071D01*
X139831957Y-42127071D02*
X139761311Y-42206739D01*
X139761311Y-42206739D02*
X139702990Y-42240411D01*
X139702990Y-42240411D02*
X139598672Y-42261758D01*
X201734772Y-63871915D02*
X202700698Y-63613096D01*
X202700698Y-63613096D02*
X202639075Y-63383114D01*
X202639075Y-63383114D02*
X202556104Y-63257449D01*
X202556104Y-63257449D02*
X202439462Y-63190106D01*
X202439462Y-63190106D02*
X202335144Y-63168759D01*
X202335144Y-63168759D02*
X202138833Y-63172061D01*
X202138833Y-63172061D02*
X202000844Y-63209035D01*
X202000844Y-63209035D02*
X201829183Y-63304331D01*
X201829183Y-63304331D02*
X201749515Y-63374976D01*
X201749515Y-63374976D02*
X201682171Y-63491619D01*
X201682171Y-63491619D02*
X201673149Y-63641933D01*
X201673149Y-63641933D02*
X201734772Y-63871915D01*
X202466529Y-62739163D02*
X202306307Y-62141209D01*
X202306307Y-62141209D02*
X202024608Y-62561782D01*
X202024608Y-62561782D02*
X201987634Y-62423793D01*
X201987634Y-62423793D02*
X201916988Y-62344125D01*
X201916988Y-62344125D02*
X201858667Y-62310453D01*
X201858667Y-62310453D02*
X201754350Y-62289106D01*
X201754350Y-62289106D02*
X201524367Y-62350729D01*
X201524367Y-62350729D02*
X201444699Y-62421375D01*
X201444699Y-62421375D02*
X201411027Y-62479697D01*
X201411027Y-62479697D02*
X201389680Y-62584014D01*
X201389680Y-62584014D02*
X201463629Y-62859993D01*
X201463629Y-62859993D02*
X201534274Y-62939661D01*
X201534274Y-62939661D02*
X201592596Y-62973333D01*
X202146086Y-61543255D02*
X202121436Y-61451262D01*
X202121436Y-61451262D02*
X202050791Y-61371594D01*
X202050791Y-61371594D02*
X201992469Y-61337922D01*
X201992469Y-61337922D02*
X201888152Y-61316575D01*
X201888152Y-61316575D02*
X201691841Y-61319878D01*
X201691841Y-61319878D02*
X201461859Y-61381501D01*
X201461859Y-61381501D02*
X201290198Y-61476797D01*
X201290198Y-61476797D02*
X201210529Y-61547442D01*
X201210529Y-61547442D02*
X201176858Y-61605764D01*
X201176858Y-61605764D02*
X201155511Y-61710081D01*
X201155511Y-61710081D02*
X201180160Y-61802074D01*
X201180160Y-61802074D02*
X201250806Y-61881742D01*
X201250806Y-61881742D02*
X201309127Y-61915414D01*
X201309127Y-61915414D02*
X201413445Y-61936761D01*
X201413445Y-61936761D02*
X201609755Y-61933459D01*
X201609755Y-61933459D02*
X201839738Y-61871835D01*
X201839738Y-61871835D02*
X202011399Y-61776540D01*
X202011399Y-61776540D02*
X202091067Y-61705894D01*
X202091067Y-61705894D02*
X202124739Y-61647573D01*
X202124739Y-61647573D02*
X202146086Y-61543255D01*
X197852487Y-49383029D02*
X198818413Y-49124210D01*
X198818413Y-49124210D02*
X198756790Y-48894228D01*
X198756790Y-48894228D02*
X198673819Y-48768563D01*
X198673819Y-48768563D02*
X198557177Y-48701220D01*
X198557177Y-48701220D02*
X198452859Y-48679873D01*
X198452859Y-48679873D02*
X198256548Y-48683175D01*
X198256548Y-48683175D02*
X198118559Y-48720149D01*
X198118559Y-48720149D02*
X197946898Y-48815445D01*
X197946898Y-48815445D02*
X197867230Y-48886090D01*
X197867230Y-48886090D02*
X197799886Y-49002733D01*
X197799886Y-49002733D02*
X197790864Y-49153047D01*
X197790864Y-49153047D02*
X197852487Y-49383029D01*
X198479926Y-48228930D02*
X198513598Y-48170609D01*
X198513598Y-48170609D02*
X198534945Y-48066292D01*
X198534945Y-48066292D02*
X198473321Y-47836309D01*
X198473321Y-47836309D02*
X198402675Y-47756641D01*
X198402675Y-47756641D02*
X198344354Y-47722969D01*
X198344354Y-47722969D02*
X198240036Y-47701622D01*
X198240036Y-47701622D02*
X198148043Y-47726272D01*
X198148043Y-47726272D02*
X198022379Y-47809242D01*
X198022379Y-47809242D02*
X197618318Y-48509096D01*
X197618318Y-48509096D02*
X197458096Y-47911142D01*
X197880202Y-46910660D02*
X197236251Y-47083206D01*
X198309797Y-47042044D02*
X197681474Y-47456898D01*
X197681474Y-47456898D02*
X197521253Y-46858943D01*
X147038043Y-34773236D02*
X147085663Y-34725617D01*
X147085663Y-34725617D02*
X147133282Y-34582760D01*
X147133282Y-34582760D02*
X147133282Y-34487522D01*
X147133282Y-34487522D02*
X147085663Y-34344665D01*
X147085663Y-34344665D02*
X146990424Y-34249427D01*
X146990424Y-34249427D02*
X146895186Y-34201808D01*
X146895186Y-34201808D02*
X146704710Y-34154189D01*
X146704710Y-34154189D02*
X146561853Y-34154189D01*
X146561853Y-34154189D02*
X146371377Y-34201808D01*
X146371377Y-34201808D02*
X146276139Y-34249427D01*
X146276139Y-34249427D02*
X146180901Y-34344665D01*
X146180901Y-34344665D02*
X146133282Y-34487522D01*
X146133282Y-34487522D02*
X146133282Y-34582760D01*
X146133282Y-34582760D02*
X146180901Y-34725617D01*
X146180901Y-34725617D02*
X146228520Y-34773236D01*
X147133282Y-35725617D02*
X147133282Y-35154189D01*
X147133282Y-35439903D02*
X146133282Y-35439903D01*
X146133282Y-35439903D02*
X146276139Y-35344665D01*
X146276139Y-35344665D02*
X146371377Y-35249427D01*
X146371377Y-35249427D02*
X146418996Y-35154189D01*
X86595002Y-10459775D02*
X85629076Y-10200955D01*
X85629076Y-10200955D02*
X85567453Y-10430938D01*
X85567453Y-10430938D02*
X85576475Y-10581252D01*
X85576475Y-10581252D02*
X85643818Y-10697894D01*
X85643818Y-10697894D02*
X85723487Y-10768540D01*
X85723487Y-10768540D02*
X85895148Y-10863836D01*
X85895148Y-10863836D02*
X86033137Y-10900810D01*
X86033137Y-10900810D02*
X86229448Y-10904112D01*
X86229448Y-10904112D02*
X86333765Y-10882765D01*
X86333765Y-10882765D02*
X86450408Y-10815422D01*
X86450408Y-10815422D02*
X86533378Y-10689757D01*
X86533378Y-10689757D02*
X86595002Y-10459775D01*
X86200611Y-11931662D02*
X86348508Y-11379704D01*
X86274559Y-11655683D02*
X85308633Y-11396864D01*
X85308633Y-11396864D02*
X85471272Y-11341845D01*
X85471272Y-11341845D02*
X85587915Y-11274501D01*
X85587915Y-11274501D02*
X85658561Y-11194833D01*
D14*
%TO.C,D18*%
X193546015Y-35417475D02*
X192857556Y-32848113D01*
X193546015Y-35417475D02*
X191903940Y-35857468D01*
X191903940Y-35857468D02*
X191215482Y-33288105D01*
%TO.C,C2*%
X149716298Y-32566925D02*
X149500626Y-32566925D01*
X149716298Y-33286925D02*
X149500626Y-33286925D01*
%TO.C,D16*%
X208034907Y-31535188D02*
X207346448Y-28965826D01*
X208034907Y-31535188D02*
X206392832Y-31975181D01*
X206392832Y-31975181D02*
X205704374Y-29405818D01*
%TO.C,D11*%
X142537574Y-27880468D02*
X143226032Y-25311105D01*
X142537574Y-27880468D02*
X140895499Y-27440475D01*
X140895499Y-27440475D02*
X141583958Y-24871113D01*
%TO.C,D4*%
X218641502Y-13164015D02*
X217953043Y-10594653D01*
X218641502Y-13164015D02*
X216999427Y-13604008D01*
X216999427Y-13604008D02*
X216310969Y-11034645D01*
%TO.C,J1*%
X148428393Y-20585380D02*
X148428393Y-18585378D01*
X148428393Y-16685378D02*
X148428393Y-14785378D01*
X148428393Y-14785378D02*
X157828393Y-14785378D01*
X157828393Y-20585380D02*
X157828393Y-18585378D01*
X157828393Y-16685378D02*
X157828393Y-14785378D01*
%TO.C,SW33*%
X150848395Y-53276926D02*
X150358393Y-52786925D01*
X150848395Y-53276926D02*
X150848393Y-56176925D01*
X150848393Y-56176925D02*
X150358393Y-56666925D01*
X149168393Y-52006925D02*
X147088393Y-52006925D01*
X149168393Y-57446925D02*
X147088393Y-57446925D01*
X145408393Y-53276925D02*
X145898393Y-52786925D01*
X145408393Y-53276925D02*
X145408391Y-56176924D01*
X145408391Y-56176924D02*
X145898393Y-56666925D01*
%TO.C,D31*%
X130890719Y-71347129D02*
X131579177Y-68777766D01*
X130890719Y-71347129D02*
X129248644Y-70907136D01*
X129248644Y-70907136D02*
X129937103Y-68337774D01*
%TO.C,U1*%
X153128395Y-34341924D02*
X156728395Y-34341925D01*
X153128395Y-34341924D02*
X150928395Y-34341924D01*
X153128395Y-41111924D02*
X155328395Y-41111924D01*
X153128395Y-41111924D02*
X150928395Y-41111924D01*
%TO.C,D27*%
X101912941Y-63582559D02*
X102601399Y-61013196D01*
X101912941Y-63582559D02*
X100270866Y-63142566D01*
X100270866Y-63142566D02*
X100959325Y-60573204D01*
%TO.C,D17*%
X124166402Y-38487071D02*
X124854860Y-35917708D01*
X124166402Y-38487071D02*
X122524327Y-38047078D01*
X122524327Y-38047078D02*
X123212786Y-35477716D01*
%TO.C,D9*%
X80699737Y-26840211D02*
X81388195Y-24270848D01*
X80699737Y-26840211D02*
X79057662Y-26400218D01*
X79057662Y-26400218D02*
X79746121Y-23830856D01*
%TO.C,D26*%
X182939415Y-53788649D02*
X182250956Y-51219287D01*
X182939415Y-53788649D02*
X181297340Y-54228642D01*
X181297340Y-54228642D02*
X180608882Y-51659279D01*
%TO.C,SW34*%
X160848395Y-53276926D02*
X160358393Y-52786925D01*
X160848395Y-53276926D02*
X160848393Y-56176925D01*
X160848393Y-56176925D02*
X160358393Y-56666925D01*
X159168393Y-52006925D02*
X157088393Y-52006925D01*
X159168393Y-57446925D02*
X157088393Y-57446925D01*
X155408393Y-53276925D02*
X155898393Y-52786925D01*
X155408393Y-53276925D02*
X155408391Y-56176924D01*
X155408391Y-56176924D02*
X155898393Y-56666925D01*
%TO.C,R4*%
X147588466Y-19880564D02*
X147588466Y-19573282D01*
X146828466Y-19880564D02*
X146828466Y-19573282D01*
%TO.C,D6*%
X204152615Y-17046304D02*
X203464156Y-14476942D01*
X204152615Y-17046304D02*
X202510540Y-17486297D01*
X202510540Y-17486297D02*
X201822082Y-14916934D01*
%TO.C,D12*%
X175174842Y-24810875D02*
X174486383Y-22241513D01*
X175174842Y-24810875D02*
X173532767Y-25250868D01*
X173532767Y-25250868D02*
X172844309Y-22681505D01*
%TO.C,D32*%
X186821700Y-68277537D02*
X186133241Y-65708175D01*
X186821700Y-68277537D02*
X185179625Y-68717530D01*
X185179625Y-68717530D02*
X184491167Y-66148167D01*
%TO.C,R5*%
X159388462Y-19880564D02*
X159388462Y-19573282D01*
X158628462Y-19880564D02*
X158628462Y-19573282D01*
%TO.C,D22*%
X211917192Y-46024077D02*
X211228733Y-43454715D01*
X211917192Y-46024077D02*
X210275117Y-46464070D01*
X210275117Y-46464070D02*
X209586659Y-43894707D01*
%TO.C,R1*%
X144788463Y-54263282D02*
X144788463Y-54570564D01*
X144028463Y-54263282D02*
X144028463Y-54570564D01*
%TO.C,D13*%
X95188627Y-30722498D02*
X95877085Y-28153135D01*
X95188627Y-30722498D02*
X93546552Y-30282505D01*
X93546552Y-30282505D02*
X94235011Y-27713143D01*
%TO.C,D7*%
X128048689Y-23998183D02*
X128737147Y-21428820D01*
X128048689Y-23998183D02*
X126406614Y-23558190D01*
X126406614Y-23558190D02*
X127095073Y-20988828D01*
%TO.C,D10*%
X237012682Y-23770617D02*
X236324223Y-21201255D01*
X237012682Y-23770617D02*
X235370607Y-24210610D01*
X235370607Y-24210610D02*
X234682149Y-21641247D01*
%TO.C,D28*%
X215799475Y-60512964D02*
X215111016Y-57943602D01*
X215799475Y-60512964D02*
X214157400Y-60952957D01*
X214157400Y-60952957D02*
X213468942Y-58383594D01*
%TO.C,D5*%
X113559800Y-20115897D02*
X114248258Y-17546534D01*
X113559800Y-20115897D02*
X111917725Y-19675904D01*
X111917725Y-19675904D02*
X112606184Y-17106542D01*
%TO.C,D3*%
X99070914Y-16233614D02*
X99759372Y-13664251D01*
X99070914Y-16233614D02*
X97428839Y-15793621D01*
X97428839Y-15793621D02*
X98117298Y-13224259D01*
%TO.C,D23*%
X120284114Y-52975958D02*
X120972572Y-50406595D01*
X120284114Y-52975958D02*
X118642039Y-52535965D01*
X118642039Y-52535965D02*
X119330498Y-49966603D01*
%TO.C,D2*%
X233130392Y-9281730D02*
X232441933Y-6712368D01*
X233130392Y-9281730D02*
X231488317Y-9721723D01*
X231488317Y-9721723D02*
X230799859Y-7152360D01*
%TO.C,D21*%
X105795229Y-49093671D02*
X106483687Y-46524308D01*
X105795229Y-49093671D02*
X104153154Y-48653678D01*
X104153154Y-48653678D02*
X104841613Y-46084316D01*
%TO.C,D25*%
X134773005Y-56858243D02*
X135461463Y-54288880D01*
X134773005Y-56858243D02*
X133130930Y-56418250D01*
X133130930Y-56418250D02*
X133819389Y-53848888D01*
%TO.C,D14*%
X222523792Y-27652904D02*
X221835333Y-25083542D01*
X222523792Y-27652904D02*
X220881717Y-28092897D01*
X220881717Y-28092897D02*
X220193259Y-25523534D01*
%TO.C,D29*%
X116401829Y-67464846D02*
X117090287Y-64895483D01*
X116401829Y-67464846D02*
X114759754Y-67024853D01*
X114759754Y-67024853D02*
X115448213Y-64455491D01*
%TO.C,D8*%
X189663730Y-20928586D02*
X188975271Y-18359224D01*
X189663730Y-20928586D02*
X188021655Y-21368579D01*
X188021655Y-21368579D02*
X187333197Y-18799216D01*
%TO.C,D20*%
X179057129Y-39299761D02*
X178368670Y-36730399D01*
X179057129Y-39299761D02*
X177415054Y-39739754D01*
X177415054Y-39739754D02*
X176726596Y-37170391D01*
%TO.C,D15*%
X109677516Y-34604785D02*
X110365974Y-32035422D01*
X109677516Y-34604785D02*
X108035441Y-34164792D01*
X108035441Y-34164792D02*
X108723900Y-31595430D01*
%TO.C,D19*%
X138655290Y-42369355D02*
X139343748Y-39799992D01*
X138655290Y-42369355D02*
X137013215Y-41929362D01*
X137013215Y-41929362D02*
X137701674Y-39360000D01*
%TO.C,D30*%
X201310586Y-64395249D02*
X200622127Y-61825887D01*
X201310586Y-64395249D02*
X199668511Y-64835242D01*
X199668511Y-64835242D02*
X198980053Y-62265879D01*
%TO.C,D24*%
X197428301Y-49906363D02*
X196739842Y-47337001D01*
X197428301Y-49906363D02*
X195786226Y-50346356D01*
X195786226Y-50346356D02*
X195097768Y-47776993D01*
%TO.C,C1*%
X148368463Y-34872067D02*
X148368463Y-35087739D01*
X147648463Y-34872067D02*
X147648463Y-35087739D01*
%TO.C,D1*%
X84582024Y-12351326D02*
X85270482Y-9781963D01*
X84582024Y-12351326D02*
X82939949Y-11911333D01*
X82939949Y-11911333D02*
X83628408Y-9341971D01*
%TD*%
M02*
