%TF.GenerationSoftware,KiCad,Pcbnew,8.0.0*%
%TF.CreationDate,2024-03-16T16:30:29-05:00*%
%TF.ProjectId,rattlemebones32,72617474-6c65-46d6-9562-6f6e65733332,rev?*%
%TF.SameCoordinates,Original*%
%TF.FileFunction,Copper,L1,Top*%
%TF.FilePolarity,Positive*%
%FSLAX46Y46*%
G04 Gerber Fmt 4.6, Leading zero omitted, Abs format (unit mm)*
G04 Created by KiCad (PCBNEW 8.0.0) date 2024-03-16 16:30:29*
%MOMM*%
%LPD*%
G01*
G04 APERTURE LIST*
%TA.AperFunction,ComponentPad*%
%ADD10C,2.032000*%
%TD*%
%TA.AperFunction,ComponentPad*%
%ADD11C,4.190000*%
%TD*%
%TA.AperFunction,ComponentPad*%
%ADD12O,1.000000X1.600000*%
%TD*%
%TA.AperFunction,ComponentPad*%
%ADD13O,1.000000X2.100000*%
%TD*%
%TA.AperFunction,ViaPad*%
%ADD14C,0.800000*%
%TD*%
%TA.AperFunction,Conductor*%
%ADD15C,0.250000*%
%TD*%
G04 APERTURE END LIST*
D10*
%TO.P,SW21,2,2*%
%TO.N,col8*%
X95455063Y-45453403D03*
%TO.P,SW21,1,1*%
%TO.N,Net-(D21-A)*%
X99741174Y-48775942D03*
%TD*%
%TO.P,SW3,2,2*%
%TO.N,col9*%
X88730747Y-12593341D03*
%TO.P,SW3,1,1*%
%TO.N,Net-(D3-A)*%
X93016858Y-15915880D03*
%TD*%
%TO.P,SW28,2,2*%
%TO.N,col3*%
X205024500Y-62530479D03*
%TO.P,SW28,1,1*%
%TO.N,Net-(D28-A)*%
X210397649Y-63264827D03*
%TD*%
%TO.P,SW16,2,2*%
%TO.N,col3*%
X197259926Y-33552705D03*
%TO.P,SW16,1,1*%
%TO.N,Net-(D16-A)*%
X202633075Y-34287053D03*
%TD*%
%TO.P,SW7,2,2*%
%TO.N,col7*%
X117708524Y-20357912D03*
%TO.P,SW7,1,1*%
%TO.N,Net-(D7-A)*%
X121994635Y-23680451D03*
%TD*%
%TO.P,SW11,2,2*%
%TO.N,col6*%
X132197411Y-24240198D03*
%TO.P,SW11,1,1*%
%TO.N,Net-(D11-A)*%
X136483522Y-27562737D03*
%TD*%
%TO.P,SW27,2,2*%
%TO.N,col8*%
X91572782Y-59942288D03*
%TO.P,SW27,1,1*%
%TO.N,Net-(D27-A)*%
X95858893Y-63264827D03*
%TD*%
%TO.P,SW6,2,2*%
%TO.N,col3*%
X193377640Y-19063817D03*
%TO.P,SW6,1,1*%
%TO.N,Net-(D6-A)*%
X198750789Y-19798165D03*
%TD*%
%TO.P,SW31,2,2*%
%TO.N,col6*%
X120550556Y-67706859D03*
%TO.P,SW31,1,1*%
%TO.N,Net-(D31-A)*%
X124836667Y-71029398D03*
%TD*%
%TO.P,SW25,2,2*%
%TO.N,col6*%
X124432838Y-53217972D03*
%TO.P,SW25,1,1*%
%TO.N,Net-(D25-A)*%
X128718949Y-56540511D03*
%TD*%
%TO.P,SW5,2,2*%
%TO.N,col8*%
X103219638Y-16475626D03*
%TO.P,SW5,1,1*%
%TO.N,Net-(D5-A)*%
X107505749Y-19798165D03*
%TD*%
%TO.P,SW24,2,2*%
%TO.N,col4*%
X186653325Y-51923880D03*
%TO.P,SW24,1,1*%
%TO.N,Net-(D24-A)*%
X192026474Y-52658228D03*
%TD*%
%TO.P,SW9,2,2*%
%TO.N,col10*%
X70359578Y-23199944D03*
%TO.P,SW9,1,1*%
%TO.N,Net-(D9-A)*%
X74645689Y-26522483D03*
%TD*%
%TO.P,SW10,2,2*%
%TO.N,col1*%
X226237701Y-25788131D03*
%TO.P,SW10,1,1*%
%TO.N,Net-(D10-A)*%
X231610850Y-26522479D03*
%TD*%
%TO.P,SW23,2,2*%
%TO.N,col7*%
X109943954Y-49335689D03*
%TO.P,SW23,1,1*%
%TO.N,Net-(D23-A)*%
X114230065Y-52658228D03*
%TD*%
%TO.P,SW26,2,2*%
%TO.N,col5*%
X172164439Y-55806164D03*
%TO.P,SW26,1,1*%
%TO.N,Net-(D26-A)*%
X177537588Y-56540512D03*
%TD*%
%TO.P,SW13,2,2*%
%TO.N,col9*%
X84848460Y-27082224D03*
%TO.P,SW13,1,1*%
%TO.N,Net-(D13-A)*%
X89134571Y-30404763D03*
%TD*%
%TO.P,SW32,2,2*%
%TO.N,col5*%
X176046724Y-70295053D03*
%TO.P,SW32,1,1*%
%TO.N,Net-(D32-A)*%
X181419873Y-71029401D03*
%TD*%
%TO.P,SW19,2,2*%
%TO.N,col6*%
X128315127Y-38729085D03*
%TO.P,SW19,1,1*%
%TO.N,Net-(D19-A)*%
X132601238Y-42051624D03*
%TD*%
%TO.P,SW15,2,2*%
%TO.N,col8*%
X99337350Y-30964514D03*
%TO.P,SW15,1,1*%
%TO.N,Net-(D15-A)*%
X103623461Y-34287053D03*
%TD*%
%TO.P,SW12,2,2*%
%TO.N,col5*%
X164399867Y-26828391D03*
%TO.P,SW12,1,1*%
%TO.N,Net-(D12-A)*%
X169773016Y-27562739D03*
%TD*%
%TO.P,SW22,2,2*%
%TO.N,col3*%
X201142214Y-48041594D03*
%TO.P,SW22,1,1*%
%TO.N,Net-(D22-A)*%
X206515363Y-48775942D03*
%TD*%
%TO.P,SW20,2,2*%
%TO.N,col5*%
X168282149Y-41317276D03*
%TO.P,SW20,1,1*%
%TO.N,Net-(D20-A)*%
X173655298Y-42051624D03*
%TD*%
%TO.P,SW14,2,2*%
%TO.N,col2*%
X211748813Y-29670420D03*
%TO.P,SW14,1,1*%
%TO.N,Net-(D14-A)*%
X217121962Y-30404768D03*
%TD*%
%TO.P,SW30,2,2*%
%TO.N,col4*%
X190535612Y-66412762D03*
%TO.P,SW30,1,1*%
%TO.N,Net-(D30-A)*%
X195908761Y-67147110D03*
%TD*%
%TO.P,SW1,2,2*%
%TO.N,col10*%
X74241861Y-8711056D03*
%TO.P,SW1,1,1*%
%TO.N,Net-(D1-A)*%
X78527972Y-12033595D03*
%TD*%
%TO.P,SW18,2,2*%
%TO.N,col4*%
X182771039Y-37434993D03*
%TO.P,SW18,1,1*%
%TO.N,Net-(D18-A)*%
X188144188Y-38169341D03*
%TD*%
%TO.P,SW4,2,2*%
%TO.N,col2*%
X207866532Y-15181533D03*
%TO.P,SW4,1,1*%
%TO.N,Net-(D4-A)*%
X213239681Y-15915881D03*
%TD*%
%TO.P,SW2,2,2*%
%TO.N,col1*%
X222355415Y-11299248D03*
%TO.P,SW2,1,1*%
%TO.N,Net-(D2-A)*%
X227728564Y-12033596D03*
%TD*%
%TO.P,SW17,2,2*%
%TO.N,col7*%
X113826240Y-34846801D03*
%TO.P,SW17,1,1*%
%TO.N,Net-(D17-A)*%
X118112351Y-38169340D03*
%TD*%
%TO.P,SW29,2,2*%
%TO.N,col7*%
X106061667Y-63824574D03*
%TO.P,SW29,1,1*%
%TO.N,Net-(D29-A)*%
X110347778Y-67147113D03*
%TD*%
%TO.P,SW8,2,2*%
%TO.N,col4*%
X178888757Y-22946101D03*
%TO.P,SW8,1,1*%
%TO.N,Net-(D8-A)*%
X184261906Y-23680449D03*
%TD*%
D11*
%TO.P,H11,1,1*%
%TO.N,GND*%
X140000000Y-55000000D03*
%TD*%
%TO.P,H4,1,1*%
%TO.N,GND*%
X121060425Y-56136813D03*
%TD*%
%TO.P,H9,1,1*%
%TO.N,GND*%
X147764575Y-26022225D03*
%TD*%
%TO.P,H8,1,1*%
%TO.N,GND*%
X199685055Y-52254529D03*
%TD*%
D12*
%TO.P,J1,S1,SHIELD*%
%TO.N,GND*%
X148808393Y-17635378D03*
D13*
X148808393Y-21815378D03*
D12*
X157448393Y-17635378D03*
D13*
X157448393Y-21815378D03*
%TD*%
D11*
%TO.P,H3,1,1*%
%TO.N,GND*%
X106571537Y-52254528D03*
%TD*%
%TO.P,H10,1,1*%
%TO.N,GND*%
X158492016Y-26022227D03*
%TD*%
%TO.P,H2,1,1*%
%TO.N,GND*%
X128824998Y-27159037D03*
%TD*%
%TO.P,H1,1,1*%
%TO.N,GND*%
X85358332Y-15512182D03*
%TD*%
%TO.P,H6,1,1*%
%TO.N,GND*%
X220898259Y-15512180D03*
%TD*%
%TO.P,H5,1,1*%
%TO.N,GND*%
X177431599Y-27159038D03*
%TD*%
%TO.P,H12,1,1*%
%TO.N,GND*%
X166256587Y-55000004D03*
%TD*%
%TO.P,H7,1,1*%
%TO.N,GND*%
X185196166Y-56136813D03*
%TD*%
D14*
%TO.N,VBUS*%
X155627195Y-24159906D03*
X150677196Y-24159905D03*
X148403964Y-29459903D03*
X150427198Y-29459905D03*
%TO.N,GND*%
X192104275Y-23227504D03*
X148927198Y-33959905D03*
X146927197Y-33959902D03*
X140673140Y-30333738D03*
%TO.N,+3.3V*%
X159978393Y-53948085D03*
X151653894Y-34448084D03*
X153602894Y-34448085D03*
X149978393Y-53948084D03*
X152173139Y-53948083D03*
%TO.N,row1*%
X230664016Y-9525915D03*
X154927196Y-28959905D03*
X216110424Y-13166719D03*
X85331925Y-12126080D03*
X187132649Y-20931290D03*
X172643762Y-24813576D03*
X128798588Y-23772937D03*
X145427196Y-28459904D03*
X99820813Y-16008366D03*
X201380055Y-17113709D03*
X143549664Y-27619124D03*
X114309701Y-19890651D03*
%TO.N,row2*%
X107594341Y-33361601D03*
X136813598Y-41190876D03*
X122324711Y-37308590D03*
X158173139Y-39448085D03*
X81691121Y-26679672D03*
X177009011Y-39173054D03*
X205745304Y-31473187D03*
X234723079Y-23708616D03*
X93346935Y-29544019D03*
X191256417Y-35355473D03*
X154212752Y-38496008D03*
X220234191Y-27590902D03*
%TO.N,row3*%
X132689832Y-55615060D03*
X209386108Y-46026779D03*
X143157189Y-39689893D03*
X183370816Y-53256375D03*
X195138702Y-49844360D03*
X153927196Y-39459903D03*
X117959462Y-51668069D03*
X106851315Y-48691650D03*
X158173139Y-40448084D03*
X142927196Y-51959904D03*
%TO.N,row4*%
X102662844Y-63357314D03*
X199020988Y-64333248D03*
X213268394Y-60515667D03*
X184596805Y-68457015D03*
X182607356Y-59214193D03*
X128984322Y-70410134D03*
X114495434Y-66527846D03*
X154673140Y-58459905D03*
%TO.N,CC1*%
X148177196Y-20209903D03*
X151927197Y-20209905D03*
%TO.N,UDP*%
X151427199Y-49959904D03*
X144427195Y-49959903D03*
%TO.N,CC2*%
X158077197Y-20309905D03*
X154877197Y-20309903D03*
%TO.N,col1*%
X221607839Y-4705577D03*
X160616600Y-21624999D03*
%TO.N,col10*%
X141036274Y-34499755D03*
%TO.N,col2*%
X165171318Y-32827881D03*
X210384654Y-20653772D03*
%TO.N,col9*%
X141421861Y-33483490D03*
X88113056Y-18824119D03*
%TO.N,col3*%
X164401128Y-33817200D03*
X196283992Y-25984948D03*
%TO.N,col8*%
X130255523Y-30892617D03*
X141510417Y-32355444D03*
X102213718Y-24155295D03*
X130649870Y-29420893D03*
%TO.N,col4*%
X182118628Y-31074641D03*
X169418274Y-33222916D03*
%TO.N,col7*%
X141131479Y-26042250D03*
%TO.N,col5*%
X165782861Y-34947598D03*
%TO.N,col6*%
X143507916Y-31442524D03*
X132032653Y-28780607D03*
%TO.N,RST*%
X161673140Y-41448084D03*
X157427197Y-41459905D03*
%TD*%
D15*
%TO.N,row1*%
X135331981Y-26679127D02*
X136824853Y-25817216D01*
X194193003Y-20333570D02*
X188663581Y-21815174D01*
X128798588Y-23772937D02*
X130668458Y-24273969D01*
X130668458Y-24273969D02*
X131457727Y-25641023D01*
X216110424Y-13166719D02*
X209565780Y-14920351D01*
X154427197Y-28459902D02*
X145427196Y-28459904D01*
X93059332Y-14196633D02*
X99820813Y-16008366D01*
X87908895Y-13851854D02*
X91834588Y-14903739D01*
X201380055Y-17113709D02*
X195076886Y-18802638D01*
X202792780Y-17929346D02*
X201380055Y-17113709D01*
X114309701Y-19890651D02*
X114955047Y-21008425D01*
X136824853Y-25817216D02*
X143549664Y-27619124D01*
X170771721Y-23732753D02*
X161137867Y-26314136D01*
X100610082Y-17375423D02*
X106354206Y-18914556D01*
X221324372Y-12963821D02*
X219911648Y-12148184D01*
X223239026Y-12450791D02*
X221324372Y-12963821D01*
X154927196Y-28959905D02*
X158439548Y-30987761D01*
X91834588Y-14903739D02*
X93059332Y-14196633D01*
X172643762Y-24813576D02*
X170771721Y-23732753D01*
X154927196Y-28959905D02*
X154427197Y-28459902D01*
X230664016Y-9525915D02*
X223877886Y-11344253D01*
X208750143Y-16333076D02*
X202792780Y-17929346D01*
X179704119Y-24215854D02*
X178038396Y-24662183D01*
X187132649Y-20931290D02*
X180588003Y-22684923D01*
X87201791Y-12627109D02*
X87908895Y-13851854D01*
X107721262Y-18125284D02*
X114309701Y-19890651D01*
X176507465Y-23778300D02*
X172643762Y-24813576D01*
%TO.N,row2*%
X173145307Y-40208330D02*
X177009011Y-39173054D01*
X221646910Y-28406535D02*
X230043742Y-26156611D01*
X202153564Y-32435591D02*
X205745304Y-31473187D01*
X136934973Y-41401103D02*
X136813598Y-41190876D01*
X117037047Y-37095439D02*
X118461008Y-36273314D01*
X177009011Y-39173054D02*
X178421736Y-39988691D01*
X94652022Y-31097388D02*
X102306680Y-33148448D01*
%TO.N,row1*%
X219911648Y-12148184D02*
X216110424Y-13166719D01*
X131457727Y-25641023D02*
X135331981Y-26679127D01*
X122037107Y-21961204D02*
X128798588Y-23772937D01*
X178038396Y-24662183D02*
X176507465Y-23778300D01*
X106354206Y-18914556D02*
X107721262Y-18125284D01*
X99820813Y-16008366D02*
X100610082Y-17375423D01*
X120919335Y-22606550D02*
X122037107Y-21961204D01*
%TO.N,+3.3V*%
X151653894Y-34448084D02*
X153602894Y-34448085D01*
X149978393Y-53948084D02*
X152173139Y-53948083D01*
X152173139Y-53948083D02*
X159978393Y-53948085D01*
%TO.N,row1*%
X195076886Y-18802638D02*
X194193003Y-20333570D01*
X223877886Y-11344253D02*
X223239026Y-12450791D01*
X114955047Y-21008425D02*
X120919335Y-22606550D01*
X180588003Y-22684923D02*
X179704119Y-24215854D01*
X85331925Y-12126080D02*
X87201791Y-12627109D01*
X188663581Y-21815174D02*
X187132649Y-20931290D01*
%TO.N,col6*%
X132104212Y-28904547D02*
X132032653Y-28780607D01*
X143507916Y-31442524D02*
X142895546Y-31796078D01*
X142895546Y-31796078D02*
X132104212Y-28904547D01*
%TO.N,RST*%
X161661320Y-41459904D02*
X161673140Y-41448084D01*
X157427197Y-41459905D02*
X161661320Y-41459904D01*
%TO.N,col3*%
X174810948Y-31215047D02*
X175960406Y-31878687D01*
X174764160Y-31040434D02*
X174810948Y-31215047D01*
X195977967Y-26514998D02*
X196283992Y-25984948D01*
X175960406Y-31878687D02*
X195977967Y-26514998D01*
X164401128Y-33817200D02*
X174764160Y-31040434D01*
%TO.N,col9*%
X88172628Y-18789727D02*
X88113056Y-18824119D01*
X141131122Y-32979911D02*
X88172628Y-18789727D01*
X141421861Y-33483490D02*
X141131122Y-32979911D01*
X141421861Y-33483490D02*
X141401687Y-33495138D01*
%TO.N,col2*%
X210261104Y-20867767D02*
X210384654Y-20653772D01*
X165171318Y-32827881D02*
X165309259Y-32907520D01*
X165171318Y-32827881D02*
X165315242Y-32910975D01*
X165315242Y-32910975D02*
X210261104Y-20867767D01*
%TO.N,col10*%
X70359579Y-23199943D02*
X72001962Y-22251713D01*
X140917466Y-34943148D02*
X141036274Y-34499755D01*
X134086258Y-38887149D02*
X140917466Y-34943148D01*
X72001962Y-22251713D02*
X134086258Y-38887149D01*
%TO.N,col1*%
X221316942Y-4537627D02*
X221607839Y-4705577D01*
X160616600Y-21624999D02*
X161178559Y-20651658D01*
X161178559Y-20651658D02*
X221316942Y-4537627D01*
%TO.N,CC2*%
X154877197Y-20309903D02*
X158077197Y-20309905D01*
%TO.N,col5*%
X163493292Y-34130218D02*
X162444338Y-30215468D01*
X165186028Y-35107519D02*
X163493292Y-34130218D01*
X165782861Y-34947598D02*
X165186028Y-35107519D01*
X162444338Y-30215468D02*
X164399868Y-26828391D01*
%TO.N,col7*%
X140587471Y-25100002D02*
X119350908Y-19409681D01*
X119350908Y-19409681D02*
X117708526Y-20357912D01*
X141131479Y-26042250D02*
X140587471Y-25100002D01*
%TO.N,col4*%
X169418274Y-33222916D02*
X170902688Y-34079943D01*
X170902688Y-34079943D02*
X182118628Y-31074641D01*
%TO.N,col8*%
X130255523Y-30892617D02*
X129101863Y-31558682D01*
X141510417Y-32355444D02*
X130666588Y-29449846D01*
X129101863Y-31558682D02*
X102349451Y-24390395D01*
X102349451Y-24390395D02*
X102213718Y-24155295D01*
X130666588Y-29449846D02*
X130649870Y-29420893D01*
%TO.N,row4*%
X174384778Y-61417428D02*
X169457397Y-58572603D01*
X199020988Y-64333248D02*
X200101813Y-62461204D01*
X110563290Y-65474232D02*
X114495434Y-66527846D01*
%TO.N,row3*%
X108238222Y-49063271D02*
X109060346Y-50487230D01*
X161698444Y-40448083D02*
X167673139Y-46422779D01*
X117959462Y-51668069D02*
X122727105Y-52945555D01*
X143387177Y-39459904D02*
X143157189Y-39689893D01*
X179288415Y-46827745D02*
X184223456Y-49676992D01*
X111705872Y-51196098D02*
X113129834Y-50373973D01*
X132689832Y-55615060D02*
X133649366Y-55872166D01*
X158173139Y-40448084D02*
X161698444Y-40448083D01*
X178595659Y-44242344D02*
X179288415Y-46827745D01*
X167673139Y-46422779D02*
X177712841Y-43732650D01*
X129240651Y-54690854D02*
X132689832Y-55615060D01*
X177712841Y-43732650D02*
X178595659Y-44242344D01*
X193266661Y-48763537D02*
X195138702Y-49844360D01*
X113129834Y-50373973D02*
X117959462Y-51668069D01*
X109060346Y-50487230D02*
X111705872Y-51196098D01*
X195138702Y-49844360D02*
X196219526Y-47972319D01*
X207514067Y-44945956D02*
X209386108Y-46026779D01*
X184223456Y-49676992D02*
X184608253Y-51113072D01*
X141218575Y-51502081D02*
X142927196Y-51959904D01*
X153927196Y-39459903D02*
X143387177Y-39459904D01*
X133649366Y-55872166D02*
X141218575Y-51502081D01*
X184608253Y-51113072D02*
X184628416Y-51078148D01*
X106851315Y-48691650D02*
X108238222Y-49063271D01*
X122727105Y-52945555D02*
X123549228Y-54369515D01*
X183370816Y-53256375D02*
X184608253Y-51113072D01*
X123549228Y-54369515D02*
X127816689Y-55512977D01*
X127816689Y-55512977D02*
X129240651Y-54690854D01*
X196219526Y-47972319D02*
X207514067Y-44945956D01*
X184628416Y-51078148D02*
X193266661Y-48763537D01*
%TO.N,UDP*%
X144427195Y-49959903D02*
X151427199Y-49959904D01*
%TO.N,CC1*%
X148177196Y-20209903D02*
X151927197Y-20209905D01*
%TO.N,row4*%
X132680957Y-68275879D02*
X128984322Y-70410134D01*
X135155283Y-59041570D02*
X132680957Y-68275879D01*
X154673140Y-58459905D02*
X135736947Y-58459904D01*
X115140781Y-67645618D02*
X123934408Y-70001864D01*
X123934408Y-70001864D02*
X125052179Y-69356518D01*
X184596805Y-68457015D02*
X185854409Y-66278782D01*
X200101813Y-62461204D02*
X211396351Y-59434842D01*
X109445518Y-66119577D02*
X110563290Y-65474232D01*
X185854409Y-66278782D02*
X197148941Y-63252421D01*
X114495434Y-66527846D02*
X115140781Y-67645618D01*
X182607356Y-59214193D02*
X174384778Y-61417428D01*
X102662844Y-63357314D02*
X103308189Y-64475086D01*
X211396351Y-59434842D02*
X213268394Y-60515667D01*
X103308189Y-64475086D02*
X109445518Y-66119577D01*
X135736947Y-58459904D02*
X135155283Y-59041570D01*
X169457397Y-58572603D02*
X169427199Y-58459904D01*
X154673140Y-58459905D02*
X169427199Y-58459904D01*
X197148941Y-63252421D02*
X199020988Y-64333248D01*
X125052179Y-69356518D02*
X128984322Y-70410134D01*
%TO.N,row2*%
X123146835Y-38732551D02*
X131525934Y-40977724D01*
X87817794Y-29266160D02*
X89241751Y-28444038D01*
X107594341Y-33361601D02*
X108416467Y-34785561D01*
X230043742Y-26156611D02*
X230859375Y-24743892D01*
X230859375Y-24743892D02*
X234723079Y-23708616D01*
X201194005Y-34097596D02*
X202153564Y-32435591D01*
X89241751Y-28444038D02*
X93346935Y-29544019D01*
X164673139Y-39448083D02*
X165257549Y-41629131D01*
X215826815Y-29966028D02*
X216642450Y-28553306D01*
X207158026Y-32288823D02*
X215826815Y-29966028D01*
X192918421Y-36315032D02*
X201194005Y-34097596D01*
X154212752Y-38496008D02*
X143326475Y-38496007D01*
X167489764Y-42917901D02*
X172329672Y-41621051D01*
X172329672Y-41621051D02*
X173145307Y-40208330D01*
X205745304Y-31473187D02*
X207158026Y-32288823D01*
X178421736Y-39988691D02*
X186094113Y-37932883D01*
X216642450Y-28553306D02*
X220234191Y-27590902D01*
X93829898Y-29673429D02*
X94652022Y-31097388D01*
X158173139Y-39448085D02*
X164673139Y-39448083D01*
X118461008Y-36273314D02*
X122324711Y-37308590D01*
X220234191Y-27590902D02*
X221646910Y-28406535D01*
X93346935Y-29544019D02*
X93829898Y-29673429D01*
X143326475Y-38496007D02*
X139684614Y-42137869D01*
X81691121Y-26679672D02*
X82336466Y-27797444D01*
X186094113Y-37932883D02*
X186909750Y-36520159D01*
X139684614Y-42137869D02*
X136934973Y-41401103D01*
X165257549Y-41629131D02*
X167489764Y-42917901D01*
X108416467Y-34785561D02*
X117037047Y-37095439D01*
X103730638Y-32326326D02*
X107594341Y-33361601D01*
X131525934Y-40977724D02*
X132949894Y-40155600D01*
X102306680Y-33148448D02*
X103730638Y-32326326D01*
X82336466Y-27797444D02*
X87817794Y-29266160D01*
X122324711Y-37308590D02*
X123146835Y-38732551D01*
X191256417Y-35355473D02*
X192918421Y-36315032D01*
X132949894Y-40155600D02*
X136813598Y-41190876D01*
X186909750Y-36520159D02*
X191256417Y-35355473D01*
%TO.N,VBUS*%
X148403964Y-29459903D02*
X150427198Y-29459905D01*
X150677196Y-24159905D02*
X155627195Y-24159906D01*
%TO.N,GND*%
X140000000Y-55000000D02*
X166256587Y-55000004D01*
X128824998Y-27159037D02*
X140673140Y-30333738D01*
X148927198Y-33959905D02*
X146927197Y-33959902D01*
X173605055Y-59242644D02*
X166256587Y-55000004D01*
X140673140Y-30333738D02*
X141888327Y-30659347D01*
X132916345Y-59313599D02*
X132987305Y-59048787D01*
X141888327Y-30659347D02*
X142282807Y-29187123D01*
X177431599Y-27159038D02*
X192104275Y-23227504D01*
X106571537Y-52254528D02*
X121060425Y-56136813D01*
X121060425Y-56136813D02*
X132916345Y-59313599D01*
X185196166Y-56136813D02*
X173605055Y-59242644D01*
X185196166Y-56136813D02*
X199685055Y-52254529D01*
X85358332Y-15512182D02*
X128824998Y-27159037D01*
X192104275Y-23227504D02*
X220898259Y-15512180D01*
X142282807Y-29187123D02*
X147764575Y-26022225D01*
X132987305Y-59048787D02*
X140000000Y-55000000D01*
%TO.N,row1*%
X161137867Y-26314136D02*
X158439548Y-30987761D01*
X209565780Y-14920351D02*
X208750143Y-16333076D01*
%TD*%
M02*
